<svg width="1440" height="125" viewBox="0 0 1440 125" fill="none" xmlns="http://www.w3.org/2000/svg">
<g clip-path="url(#clip0_853_535)">
<mask id="mask0_853_535" style="mask-type:alpha" maskUnits="userSpaceOnUse" x="0" y="-143" width="1440" height="268">
<path d="M420.216 86.2769C420.216 85.9516 420.285 85.7052 420.413 85.5376C421.201 84.7786 421.97 83.7338 422.729 82.3833C424.77 78.7065 426.968 75.1185 429.334 71.6389C429.205 72.2303 429.107 72.8415 429.038 73.4625C429.008 73.63 429.117 73.7582 429.383 73.8568C431.285 72.0529 433.444 70.4264 435.839 68.9774C437.387 68.0213 438.205 68.2085 438.304 69.5196C438.432 71.2643 439.092 72.25 440.275 72.4767C440.768 71.8163 441.33 71.2249 441.951 70.7024C443.922 68.9971 445.253 66.7792 445.943 64.0488C446.367 62.304 446.584 60.5199 446.584 58.6766C446.613 60.4804 446.584 62.2942 446.485 64.0981C446.318 67.5777 446.515 70.87 447.077 73.9553C447.402 73.63 447.698 73.2653 447.964 72.871C448.881 71.5206 449.738 70.0814 450.527 68.5338C451.02 67.5481 451.493 66.5624 451.956 65.5767C452.617 64.1966 453.287 62.8856 453.977 61.6337C453.977 62.1266 453.977 62.6195 453.977 63.1123C453.977 64.4233 453.977 65.7442 453.977 67.0552C453.947 68.9971 453.947 70.9686 453.977 72.9696C453.977 73.2949 454.056 73.5906 454.223 73.8568C454.687 73.0978 455.189 72.4077 455.751 71.7867C456.569 70.8306 457.161 69.766 457.525 68.5831C457.752 67.8931 458.068 67.2524 458.462 66.661C458.728 66.2667 459.024 65.9019 459.349 65.5767C459.349 65.9019 459.349 66.2371 459.349 66.5624C459.319 68.3663 459.25 70.18 459.152 71.9839C459.024 74.0835 459.25 75.7296 459.842 76.9125C460.335 76.2521 460.828 75.6015 461.32 74.9411C461.981 74.1229 462.572 73.2653 463.095 72.3782C463.686 71.4614 464.1 70.4757 464.327 69.421C464.889 66.6905 466.151 64.9162 468.122 64.0981C468.152 66.0695 468.152 68.041 468.122 70.0124C468.122 73.285 468.122 76.5872 468.122 79.919C468.132 79.5838 468.23 79.2881 468.418 79.0318C469.334 77.3265 469.896 75.4635 470.093 73.4625C470.222 72.181 470.754 71.077 471.671 70.1603C472.065 69.7364 472.508 69.352 473.001 69.0267C473.396 69.421 473.544 70.0814 473.445 70.9982C473.08 73.9849 473.524 76.8139 474.776 79.4754C475.071 80.0668 475.298 80.6879 475.466 81.3483C475.791 80.6879 476.057 80.0176 476.254 79.3275C476.55 78.3714 476.846 77.4251 477.141 76.4689C477.339 75.7789 477.437 75.1086 477.437 74.4482C477.408 73.1963 477.9 72.3782 478.916 71.9839C478.916 72.1515 478.916 72.3092 478.916 72.4767C478.916 73.4625 478.916 74.4482 478.916 75.4339C478.916 77.2378 479.044 79.0318 479.31 80.8061C479.379 80.5104 479.409 80.195 479.409 79.8697C479.409 79.5444 479.438 79.0614 479.507 78.4404C479.606 78.2432 479.734 78.0658 479.901 77.8982C480.69 78.7164 481.232 79.6923 481.528 80.8061C481.824 82.058 482.385 82.2059 483.204 81.2497C483.598 80.8259 483.844 80.3428 483.943 79.8204C484.17 78.8643 484.288 77.8982 484.288 76.9125C484.288 76.0944 484.308 75.4142 484.337 74.8918C484.465 75.2565 484.653 75.7296 484.879 76.3211C485.146 76.7154 485.402 77.0899 485.668 77.4547C485.895 77.7504 486.092 78.0658 486.259 78.3911C486.427 77.8982 486.555 77.4054 486.654 76.9125C486.723 76.5872 486.802 76.2718 486.9 75.9761C486.969 75.7789 487.028 75.5818 487.097 75.3846C487.196 75.0889 487.314 74.8129 487.442 74.5468C487.472 74.4778 487.61 74.5961 487.837 74.8918C487.935 75.0889 488.053 75.2861 488.182 75.4832C488.507 76.1042 488.793 76.7647 489.019 77.4547C489.118 77.7504 489.246 78.0165 489.414 78.2432C489.581 78.5094 489.828 78.7164 490.153 78.884C490.321 78.7164 490.429 78.539 490.498 78.3418C490.597 78.0461 490.646 77.7307 490.646 77.4054C490.646 76.7449 490.646 76.0944 490.646 75.4339C490.646 74.7735 490.646 74.1229 490.646 73.4625C490.646 72.802 490.675 72.1515 490.744 71.491C490.813 70.5053 490.942 70.3377 491.139 70.9981C491.464 71.491 491.75 72.0036 491.977 72.526C492.203 72.9893 492.489 73.3836 492.814 73.7089C493.14 74.0342 493.534 74.1722 493.997 74.1032C494.49 74.0342 494.806 73.492 494.934 72.4767C495.003 71.8163 495.062 71.1657 495.131 70.5053C495.328 68.8986 495.821 67.8734 496.609 67.4495C496.876 67.8438 497.053 68.2381 497.152 68.6324C497.349 69.3914 497.477 70.18 497.546 70.9981C497.645 71.9839 497.773 72.9696 497.94 73.9553C497.94 73.4625 497.94 72.9696 497.94 72.4767C497.97 71.3234 497.97 70.18 497.94 69.0267C497.94 68.2085 497.842 67.4002 497.645 66.6117C497.349 65.3006 497.28 63.9699 497.447 62.6195C497.615 63.1123 497.743 63.6052 497.842 64.0981C497.911 64.4233 497.94 64.7585 497.94 65.0838C497.94 66.0695 497.97 67.0552 498.039 68.041C498.167 69.4506 498.63 70.4363 499.419 70.9981C499.586 70.8306 499.744 70.6729 499.912 70.5053C500.631 69.6871 501.026 68.7014 501.095 67.5481C501.124 66.5624 501.173 65.5766 501.242 64.5909C501.341 62.8856 501.716 61.2394 502.376 59.6623C502.544 59.8299 502.701 59.9876 502.869 60.1551C503.194 60.4804 503.441 60.8452 503.608 61.2394C503.933 61.9985 504.269 62.7476 504.594 63.5066C505.609 65.8034 506.812 67.9917 508.192 70.0617C508.389 70.3574 508.566 70.6729 508.734 70.9981C508.734 70.18 508.734 69.352 508.734 68.5338C508.734 67.7157 508.635 66.9074 508.438 66.1188C508.143 64.8374 508.024 63.5066 508.093 62.1266C508.192 60.8156 508.271 59.6327 508.34 58.578C508.931 59.4651 509.552 60.3227 510.213 61.1409C512.874 64.4923 514.974 68.11 516.521 71.9839C516.521 71.6586 516.492 71.3432 516.423 71.0474C515.634 67.6664 515.309 64.1966 515.437 60.648C515.506 58.1837 515.703 55.7194 516.028 53.2551C517.142 55.2955 518.167 57.7401 519.084 60.5987C519.843 62.9349 520.513 65.2809 521.105 67.6467C522.485 73.2357 524.062 78.7854 525.836 84.3055C526.004 83.9802 526.102 83.645 526.132 83.3197C526.231 80.8554 526.349 78.3911 526.477 75.9268C526.546 74.1229 526.822 72.3585 527.315 70.6531C527.877 68.7803 528.419 66.9271 528.941 65.0838C530.223 66.3948 531.455 67.7255 532.638 69.076C532.372 68.386 532.165 67.696 531.997 67.006C531.83 66.3849 531.731 65.7442 531.701 65.0838C531.475 63.339 531.682 62.1562 532.342 61.5352C532.766 62.097 533.062 62.6687 533.229 63.2602C533.653 64.7683 534.481 66.0399 535.694 67.0552C535.861 66.8877 535.97 66.7102 536.039 66.5131C536.502 65.1035 536.896 63.6348 537.221 62.1266C537.35 61.4662 537.419 60.8156 537.419 60.1551C537.419 58.3118 537.645 56.508 538.109 54.7336C538.473 53.2846 538.976 52.7918 539.636 53.2551C539.636 53.5803 539.656 53.9155 539.686 54.2408C539.784 54.7336 539.883 55.2265 539.982 55.7194C540.051 56.0447 540.1 56.3798 540.129 56.7051C540.258 57.4937 540.376 58.2625 540.474 59.0216C540.474 58.5977 540.474 58.1541 540.474 57.6908C540.474 56.1827 540.543 54.7041 540.672 53.2551C540.741 52.7622 540.849 52.2693 541.017 51.7765C541.017 52.5946 541.017 53.4226 541.017 54.2408C541.017 54.9012 540.967 55.5419 540.869 56.1629C540.8 56.5277 540.741 56.8825 540.672 57.2472C540.573 57.7105 540.524 58.1837 540.524 58.6766C540.524 58.8441 540.524 59.0018 540.524 59.1694C540.524 59.13 540.504 59.0807 540.474 59.0216C540.504 60.4016 540.524 61.7619 540.524 63.1123C540.849 62.6195 541.184 62.1266 541.509 61.6337C542.002 60.9733 542.466 60.303 542.889 59.613C543.451 58.6568 544.043 57.7401 544.664 56.853C544.733 56.7544 544.792 56.6558 544.861 56.5572C544.89 56.3305 544.93 56.0841 544.959 55.8179C545.127 54.7632 545.373 53.7183 545.699 52.6636C545.866 52.2398 545.945 51.7765 545.945 51.2836C546.27 53.2255 545.916 54.9801 544.861 56.5572C544.634 58.2625 544.496 59.9876 544.467 61.7323C544.536 60.3819 544.989 59.1694 545.847 58.0851C546.734 57.0008 547.572 55.8672 548.36 54.6844C550.204 51.9243 551.81 49.6079 553.19 47.735C552.924 48.1293 552.717 48.5236 552.55 48.9178C552.057 50.0021 551.515 51.0372 550.923 52.0229C548.035 56.7248 545.827 61.7126 544.319 67.0059C544.289 67.1045 544.24 67.2031 544.171 67.3017C544.792 66.5427 545.6 65.7048 546.586 64.7881C549.08 62.4223 551.12 59.8791 552.697 57.1487C551.416 59.7116 550.499 62.373 549.937 65.1331C550.696 63.6249 551.495 62.1463 552.352 60.6973C552.973 59.682 553.555 58.647 554.077 57.5922C554.442 56.8332 554.669 56.2911 554.767 55.9658C554.767 57.2177 554.767 58.4498 554.767 59.6623C554.767 62.787 554.846 65.9019 555.014 69.0267C555.014 69.1943 555.093 69.352 555.26 69.5196C555.428 69.0267 555.576 68.5338 555.704 68.041C555.901 67.3805 556.147 66.7595 556.443 66.1681C556.808 65.4485 557.133 64.7191 557.429 63.9995C558.346 61.7323 559.42 59.958 560.633 58.6766C560.465 59.0018 560.357 59.3468 560.287 59.7116C560.021 60.8254 559.795 61.959 559.597 63.1123C559.302 64.7585 559.075 66.3948 558.908 68.041C558.74 69.5196 558.582 70.9981 558.415 72.4767C558.247 74.1229 558.494 75.2663 559.154 75.9268C559.322 75.4339 559.528 74.9706 559.795 74.5468C560.189 73.9849 560.564 73.4132 560.928 72.8217C561.549 71.767 562.19 70.7221 562.85 69.6674C563.836 68.0607 564.398 66.3652 564.526 64.5909C564.526 66.0695 564.526 67.5481 564.526 69.0267C564.556 73.3343 564.556 77.6025 564.526 81.8411C564.694 81.6736 564.822 81.4961 564.92 81.299C565.413 80.3823 565.857 79.3768 566.251 78.2925C566.714 77.2082 567.119 76.0944 567.483 74.9411C567.779 73.9553 568.025 72.9499 568.223 71.9346C568.351 71.146 568.489 70.3574 568.617 69.5688C568.646 69.3717 568.745 69.1943 568.913 69.0267C568.913 69.8448 568.913 70.6729 568.913 71.491C568.883 74.9411 568.883 78.3911 568.913 81.8411C568.913 82.1664 568.913 82.5016 568.913 82.8269C569.08 81.8411 569.386 80.954 569.849 80.1654C570.736 78.6868 571.052 77.1097 570.786 75.4339C570.588 74.1229 570.884 72.9992 571.673 72.0824C571.968 72.8415 572.116 73.63 572.116 74.4482C572.116 75.7986 572.363 77.0899 572.856 78.3418C572.885 77.2279 572.934 76.0944 573.003 74.9411C573.072 73.63 573.27 72.3289 573.595 71.0474C573.762 71.3431 573.841 71.6586 573.841 71.9839C573.871 73.1372 573.871 74.2806 573.841 75.4339C573.841 76.0944 573.841 76.7449 573.841 77.4054C573.841 77.7307 573.822 78.0658 573.792 78.3911C574.157 77.5729 574.452 76.7351 574.679 75.8775C574.945 74.7932 575.3 73.6596 575.763 72.4767C575.734 70.87 575.734 69.2238 575.763 67.5481C575.763 67.8734 575.763 68.2085 575.763 68.5338C575.763 69.8448 575.763 71.1657 575.763 72.4767C575.763 74.7735 575.892 77.0604 576.158 79.3275C576.384 78.7065 576.621 78.0757 576.848 77.4547C577.242 76.2718 577.705 75.1086 578.228 73.9553C578.523 73.2653 578.75 72.5753 578.918 71.8853C578.987 71.2643 579.046 70.6334 579.115 70.0124C579.144 69.5195 579.184 69.0267 579.213 68.5338C579.282 69.6871 579.184 70.801 578.918 71.8853C578.918 72.0824 578.918 72.2796 578.918 72.4767C578.79 74.9411 578.799 77.4054 578.967 79.8697C578.967 80.0373 579.046 80.195 579.213 80.3626C579.213 80.0373 579.282 79.7415 579.411 79.4754C580.032 78.2235 580.524 76.8928 580.889 75.4832C581.185 74.4285 581.51 73.285 581.875 72.0332C582.072 71.3431 582.24 70.6531 582.368 69.9631C582.595 68.4155 582.861 67.7748 583.156 68.041C583.156 68.3662 583.176 68.7014 583.206 69.0267C583.334 70.3377 583.383 71.6586 583.354 72.9696C583.324 74.7143 583.896 76.1929 585.079 77.4054C585.079 76.2521 585.079 75.1086 585.079 73.9553C585.079 72.6443 585.079 71.3234 585.079 70.0124C585.079 68.11 585.079 66.2174 585.079 64.3445C584.881 63.063 584.714 61.7816 584.586 60.5001C584.615 60.5691 584.635 60.6184 584.635 60.648C584.763 61.3084 584.96 61.9492 585.226 62.5702C585.424 63.063 585.601 63.5362 585.769 63.9995C585.601 62.4223 585.542 60.8156 585.571 59.1694C586.39 60.0566 586.823 61.0423 586.853 62.1266C586.882 63.3095 587.07 64.4726 587.395 65.6259C588.213 68.1888 588.903 70.801 589.465 73.4625C589.465 73.1372 589.465 72.802 589.465 72.4767C589.435 71.6192 589.435 70.801 589.465 70.0124C589.495 68.8591 589.465 67.7157 589.366 66.5624C589.169 64.4923 589.367 62.8462 589.958 61.6337C590.579 62.5505 591.19 63.5756 591.781 64.6895C592.501 66.0991 592.994 67.5777 593.26 69.1253C593.753 72.181 595.261 74.2806 597.794 75.4339C597.992 74.0243 597.765 72.7429 597.104 71.5896C596.345 70.2096 595.892 68.7014 595.724 67.0552C595.626 65.9019 595.399 64.7881 595.034 63.7038C594.965 63.5362 594.916 63.3785 594.887 63.2109C593.536 61.4662 593.033 59.4651 593.359 57.198C593.851 57.6908 594.315 58.2133 594.739 58.7751C597.371 62.1956 600.14 65.4781 603.068 68.6324C601.718 66.8285 600.505 64.9556 599.421 63.0137C598.07 60.7761 597.863 58.8441 598.78 57.198C599.736 57.4937 600.535 58.1541 601.195 59.1694C601.856 60.1551 602.595 61.062 603.413 61.8802C605.68 64.2163 607.435 66.7398 608.687 69.4703C609.771 71.9642 611.181 74.1229 612.925 75.9268C612.758 75.4339 612.561 74.9608 612.334 74.4975C611.121 71.836 609.801 69.0563 608.391 66.1681C607.701 64.7881 607.06 63.3883 606.469 61.9787C605.779 60.2734 605.552 58.5287 605.779 56.7544C605.848 56.3897 605.956 56.0447 606.124 55.7194C606.291 55.8869 606.449 56.0447 606.617 56.2122C608.519 58.1541 610.116 60.303 611.398 62.6687C612.088 63.9502 612.846 65.1823 613.665 66.3652C615.143 68.4648 616.642 70.4757 618.15 72.3782C617.391 69.5195 616.109 66.7792 614.305 64.1473C613.546 63.063 613.586 62.3927 614.404 62.1266C614.897 62.2942 615.36 62.5012 615.784 62.7673C616.178 62.994 616.523 63.2897 616.819 63.6545C618.623 66.0202 620.594 68.4648 622.733 70.9981C622.24 70.18 621.698 69.3914 621.107 68.6324C620.151 67.3805 619.333 66.0498 618.643 64.6402C618.12 63.4573 617.608 62.2547 617.115 61.0423C616.651 59.8298 616.74 59.0413 617.361 58.6765C617.982 59.3961 618.662 60.1847 619.382 61.0423C621.718 63.9009 624.133 66.7299 626.627 69.5195C626.528 68.5338 626.213 67.5481 625.691 66.5624C624.577 64.5909 623.394 62.6392 622.142 60.6973C621.718 60.0073 621.334 59.2976 621.008 58.578C620.841 58.1541 620.762 57.6908 620.762 57.198C621.255 57.5232 621.698 57.888 622.093 58.2823C622.684 58.8737 623.256 59.4651 623.818 60.0566C624.537 60.8156 625.227 61.5844 625.888 62.373C625.789 61.9787 625.72 61.5647 625.691 61.1409C626.016 61.4662 626.312 61.8112 626.578 62.1759C627.268 63.0335 628.086 63.7038 629.042 64.1966C630.915 65.2119 632.462 66.4441 633.675 67.8931C633.507 67.6269 633.359 67.3312 633.231 67.0059C632.936 66.1484 632.512 65.3795 631.95 64.6895C631.358 63.9699 630.797 63.2306 630.274 62.4716C629.653 61.5844 629.259 60.648 629.091 59.6623C627.514 58.4794 626.016 57.198 624.606 55.8179C623.689 54.9308 622.861 53.9746 622.142 52.9593C622.043 52.8312 622.073 52.5946 622.24 52.2693C623.226 52.9298 624.232 53.5508 625.247 54.1422C626.824 55.0294 628.372 55.9658 629.88 56.9515C633.261 59.1891 636.583 61.5647 639.836 64.098C639.51 63.7728 639.165 63.4573 638.801 63.1616C637.845 62.304 636.879 61.4662 635.893 60.648C633.852 58.8047 632.078 56.8332 630.57 54.7336C631.23 54.9012 631.881 55.2265 632.541 55.7194C633.202 56.2122 633.892 56.5868 634.611 56.853C637.105 57.8091 639.313 59.3863 641.216 61.5844C640.427 60.5001 639.52 59.4848 638.505 58.5287C637.588 57.6415 636.898 56.6361 636.435 55.5222C636.238 54.9998 636.336 54.4576 636.731 53.8958C635.449 52.841 635.173 51.9736 635.893 51.2836C636.386 51.4512 636.859 51.6483 637.322 51.875C638.18 52.2989 638.87 52.7129 639.392 53.1072C639.688 53.2058 640.003 53.2748 640.329 53.3043C641.147 53.4325 641.985 53.5705 642.842 53.6986C641.827 53.0776 640.792 52.4862 639.737 51.9243C638.781 51.4315 638.328 50.7217 638.357 49.805C638.682 49.805 639.018 49.805 639.343 49.805C639.836 49.805 640.299 49.8839 640.723 50.0514C643.256 51.0076 645.878 51.806 648.609 52.4665C651.339 53.1565 653.636 54.2408 655.509 55.7194C655.016 55.2265 654.543 54.7139 654.079 54.1915C653.981 54.0929 653.863 53.9746 653.734 53.8465C653.537 53.7479 653.34 53.6493 653.143 53.5508C652.325 53.1269 651.487 52.6439 650.629 52.1215L650.679 52.1215C651.862 52.4467 652.877 53.0283 653.734 53.8465C657.451 55.7489 660.999 57.9668 664.38 60.5001C664.972 60.924 665.593 61.3084 666.253 61.6337C666.086 61.4662 665.938 61.2887 665.81 61.0916C665.612 60.7959 665.297 60.4509 664.873 60.0566C664.311 59.6327 663.789 59.1694 663.296 58.6765C662.971 58.3512 662.636 58.0161 662.31 57.6908C663.858 58.1837 665.336 58.8441 666.746 59.6623C667.899 60.3227 668.915 61.0916 669.802 61.9787C671.773 63.822 673.991 64.7092 676.456 64.6402C676.189 64.1178 675.884 63.6249 675.519 63.1616C675.223 62.7969 674.928 62.442 674.632 62.0773C673.942 61.2887 673.331 60.4508 672.808 59.5637C672.68 59.2976 672.611 59.0018 672.611 58.6765C672.779 58.8441 672.956 58.9723 673.153 59.0708C673.942 59.4651 674.73 59.8397 675.519 60.2044C676.534 60.6677 677.54 61.0916 678.526 61.4859C678.821 61.5844 679.137 61.6337 679.462 61.6337C679.294 61.4662 679.137 61.3084 678.969 61.1409C678.802 60.9733 678.654 60.7959 678.526 60.5987C678.033 59.8101 677.441 59.1004 676.751 58.4794C675.667 57.4641 675.273 56.2122 675.568 54.7336C675.894 54.7336 676.189 54.8026 676.455 54.9308C677.51 55.4532 678.545 55.9954 679.561 56.5572C681.305 57.474 682.567 58.6765 683.356 60.1551C683.188 59.4947 683.011 58.8441 682.813 58.1837C682.715 57.8584 682.597 57.5232 682.468 57.1979C682.271 56.7051 682.005 56.3404 681.68 56.1137C680.763 55.5222 680.822 55.0786 681.877 54.7829C682.695 55.0786 683.523 55.3941 684.341 55.7194C685.751 56.3108 687.229 56.7544 688.777 57.0501C689.398 57.1487 690.009 57.0501 690.601 56.7544C690.502 56.5572 690.374 56.3798 690.206 56.2122C689.881 55.8869 689.546 55.5518 689.221 55.2265C688.728 54.7336 688.235 54.2408 687.742 53.7479C688.235 53.9155 688.698 54.1225 689.122 54.3886C691.291 55.6701 693.587 56.6558 696.022 57.3458C697.373 57.7401 698.536 58.0161 699.521 58.1837C699.354 58.0161 699.196 57.8584 699.029 57.6908C698.043 56.7051 696.959 55.8968 695.776 55.2758C694.859 54.8125 694.475 54.1422 694.642 53.255C696.614 53.0579 698.565 53.2255 700.507 53.7479C701.621 54.0732 702.755 54.2605 703.908 54.2901C704.371 56.0939 704.844 57.9175 705.337 59.7608C706.293 63.2799 707.131 66.8285 707.851 70.4067C707.723 68.731 707.683 67.0552 707.752 65.3795C707.821 63.2405 707.802 61.1113 707.703 58.9723C707.575 56.5375 707.457 54.1225 707.358 51.7272C707.624 52.2496 708.324 54.0929 709.477 57.2472C710.631 60.4311 712.957 65.5471 716.476 72.5753C720.025 79.6035 720.843 79.298 718.94 71.6389C716.998 63.9797 716.23 60.2734 716.624 60.5001C717.117 62.2054 717.59 63.9009 718.053 65.5766C719.167 69.7167 720.202 73.8765 721.158 78.0461C721.355 79.0614 721.523 80.0865 721.651 81.1018C721.651 80.9737 721.631 80.8258 721.602 80.6583C721.405 78.8544 721.188 77.0406 720.961 75.2368C720.636 72.8414 720.251 70.456 719.828 68.0902C719.463 65.9512 719.068 63.822 718.645 61.683C720.025 62.3434 720.961 61.9984 721.454 60.648C721.779 61.6633 722.144 62.6884 722.538 63.7037C723.327 65.8428 723.987 68.0212 724.51 70.2588C724.382 69.2731 724.263 68.3071 724.165 67.3509C723.968 65.6062 723.692 63.9009 723.327 62.2252C723.061 61.0719 722.785 59.9284 722.489 58.7751C722.518 58.7061 722.558 58.647 722.588 58.578C722.913 57.1979 723.593 56.3108 724.608 55.9165C724.805 56.4389 725.022 56.9712 725.249 57.4937C726.501 60.4508 727.812 63.3785 729.192 66.2666C728.601 64.098 727.96 61.9097 727.27 59.7115C726.875 58.3611 726.452 57.0205 725.988 55.6701C726.087 55.6701 726.185 55.6504 726.284 55.6208C726.806 56.9022 727.368 58.1837 727.96 59.4651C729.241 62.4519 730.542 65.4485 731.853 68.4352C732.711 70.3377 733.549 72.2599 734.367 74.2017C734.958 75.6113 735.57 77.0308 736.191 78.4404C736.457 79.1008 736.713 79.7514 736.979 80.4118C737.048 80.1457 737.058 79.919 737.028 79.7218C736.565 77.7208 736.043 75.7296 735.451 73.7582C734.495 70.6334 733.45 67.5481 732.297 64.4923C731.045 61.1704 729.704 57.9077 728.255 54.6843C728.285 54.6843 728.324 54.6843 728.354 54.6843C730 57.0205 731.558 59.4355 733.036 61.9294C735.037 65.3105 737.078 68.6817 739.148 72.0331C739.217 72.2007 739.296 72.3584 739.394 72.526C739.227 72.0331 739.049 71.5403 738.852 71.0474C737.797 68.2184 736.93 65.3499 736.24 62.4223C735.816 60.6776 735.353 58.9723 734.86 57.2965C734.495 56.0841 734.052 54.9111 733.529 53.7972L733.578 53.7972C734.101 53.5705 734.712 53.4818 735.402 53.5508C735.501 53.5508 735.599 53.5705 735.698 53.6L744.076 68.8788C739.049 58.7554 736.782 53.669 737.275 53.6C737.403 53.6 737.541 53.5803 737.669 53.5508C737.935 53.4818 738.211 53.4226 738.507 53.3536C739.857 53.0875 744.076 58.4498 751.174 69.421C745.486 57.2965 742.726 50.771 742.893 49.8543C743.022 49.1643 743.258 48.494 743.584 47.8335C744.441 49.3121 745.141 50.84 745.703 52.4172C745.87 52.841 746.018 53.2846 746.146 53.7479C747.3 57.7598 748.778 61.683 750.582 65.5273C750.976 66.3849 751.42 67.2228 751.913 68.0409C751.913 67.8734 751.913 67.7157 751.913 67.5481C751.913 67.3805 751.913 67.2228 751.913 67.0552C751.913 66.7299 751.913 66.3948 751.913 66.0695C751.913 65.7442 751.913 65.4091 751.913 65.0838C751.913 64.5909 751.942 64.098 752.011 63.6052C752.11 63.1123 752.278 62.6392 752.504 62.1759C752.603 61.9787 752.899 61.8013 753.392 61.6337C753.559 61.8013 753.667 61.9787 753.737 62.1759C754.003 62.7969 754.279 63.408 754.574 63.9995C754.742 64.3938 754.939 64.788 755.166 65.1823C755.432 65.6062 755.678 66.0399 755.905 66.4638C756.132 66.8581 756.418 67.2228 756.743 67.5481C757.068 67.8734 757.403 68.2085 757.729 68.5338C757.729 68.3662 757.729 68.2085 757.729 68.0409C757.729 67.5481 757.729 67.0552 757.729 66.5624C757.729 66.2371 757.729 65.9019 757.729 65.5766C757.729 65.2513 757.729 64.9162 757.729 64.5909C757.729 64.098 757.729 63.6052 757.729 63.1123C757.729 62.787 757.729 62.4519 757.729 62.1266C757.729 61.959 757.729 61.8013 757.729 61.6337C758.054 61.8013 758.369 61.9787 758.665 62.1759C758.862 62.304 759.04 62.4519 759.207 62.6194C759.533 62.9447 759.818 63.3095 760.045 63.7037C760.469 64.4628 760.952 65.1823 761.474 65.8723C761.938 66.4933 762.49 67.0552 763.15 67.5481C763.18 66.3948 763.82 65.8231 765.072 65.8231C765.565 65.8231 765.94 65.9906 766.206 66.3159C766.6 66.8088 766.916 67.3706 767.142 67.9917C767.409 68.6817 767.704 69.352 768.03 70.0124C768.355 70.6728 768.69 71.3234 769.015 71.9839C769.183 71.6586 769.291 71.3136 769.36 70.9488C769.459 70.4855 769.508 70.0124 769.508 69.5195C769.508 69.1942 769.538 68.8788 769.607 68.5831C769.705 68.2184 769.784 67.8635 769.853 67.4988C769.952 67.0355 770.001 66.5624 770.001 66.0695C770.001 65.9019 770.021 65.7442 770.05 65.5766C770.178 65.0838 770.326 64.5909 770.494 64.098C770.661 64.2656 770.809 64.443 770.937 64.6402C771.302 65.2612 771.647 65.9019 771.972 66.5624C772.633 67.8734 773.254 69.2041 773.845 70.5545C774.368 71.6684 774.93 72.7724 775.521 73.8567C775.748 74.251 776.034 74.6157 776.359 74.941C776.527 74.6157 776.674 74.2806 776.803 73.9553C777 73.4624 777.217 72.9893 777.443 72.526C777.542 72.3289 777.64 72.1317 777.739 71.9346C777.966 71.4713 778.133 70.9981 778.232 70.5053C778.301 70.18 778.36 69.8448 778.429 69.5195C778.498 69.0267 778.626 68.5338 778.823 68.0409C778.951 67.7157 779.099 67.3805 779.267 67.0552C779.76 67.3805 780.105 67.7748 780.302 68.2381C780.598 68.9281 780.775 69.6871 780.844 70.5053C780.943 71.3234 781.071 72.1514 781.238 72.9696C781.406 73.9553 781.613 74.9213 781.879 75.8775C782.076 76.5675 782.342 77.2378 782.668 77.8982C782.668 77.2378 782.668 76.5872 782.668 75.9268C782.668 75.1086 782.668 74.2806 782.668 73.4624C782.668 72.802 782.668 72.1514 782.668 71.491C782.668 71.1657 782.668 70.8306 782.668 70.5053C782.668 70.0124 782.717 69.5392 782.815 69.076C782.884 68.7112 782.993 68.3662 783.161 68.0409C783.328 68.8591 783.505 69.6871 783.703 70.5053C783.831 70.9981 783.979 71.491 784.146 71.9839C784.314 72.4767 784.472 72.9696 784.639 73.4624C784.807 73.9553 784.984 74.4482 785.181 74.941C785.477 75.7592 785.792 76.5872 786.118 77.4054C786.285 76.7449 786.384 76.0943 786.413 75.4339C786.542 73.7877 786.679 72.1514 786.808 70.5053C787.005 68.7014 787.172 66.8876 787.301 65.0838C787.498 62.6194 787.922 60.3227 788.582 58.1837C788.878 59.1398 789.104 60.1058 789.272 61.0916C789.637 63.0926 789.982 65.1035 790.307 67.1045C790.869 70.3574 791.322 73.63 791.687 76.9125C791.717 77.0801 791.815 77.2378 791.983 77.4054C792.505 75.8972 792.702 74.251 792.574 72.4767C792.505 71.3234 792.476 70.18 792.476 69.0267C792.476 68.2085 792.545 67.4002 792.673 66.6116C792.702 66.4145 792.801 66.2371 792.968 66.0695C792.968 66.3948 793.018 66.7102 793.116 67.0059C793.511 68.0212 793.856 69.0562 794.151 70.111C794.516 71.3628 794.772 72.6443 794.94 73.9553C795.107 75.4339 795.255 76.9125 795.383 78.3911C795.413 78.7164 795.433 79.0515 795.433 79.3768C796.389 77.1786 796.941 74.872 797.109 72.4767C797.138 71.6586 797.187 70.8306 797.256 70.0124C797.355 69.0267 797.404 68.0409 797.404 67.0552C797.404 66.7299 797.404 66.3948 797.404 66.0695C797.729 67.3805 798.025 68.7014 798.291 70.0124C798.656 71.8163 799.031 73.63 799.425 75.4339C799.849 77.4054 800.145 79.3965 800.312 81.3975C800.509 83.5957 801.032 85.7052 801.889 87.7062C801.988 87.9033 802.116 88.0808 802.284 88.2484C802.412 87.9231 802.53 87.5781 802.629 87.2133C802.855 86.2572 803.102 85.3109 803.368 84.3547C803.762 82.8466 804.176 81.3285 804.6 79.8204C804.827 79.0318 805.044 78.2235 805.241 77.4054C805.369 76.9125 805.517 76.4196 805.684 75.9268C805.684 76.7449 805.753 77.5532 805.882 78.3418C806.079 79.3571 806.295 80.3822 806.522 81.3975C806.788 82.679 807.133 83.9111 807.557 85.094C807.754 85.5573 808.099 85.9516 808.592 86.2769C808.592 85.6165 808.661 84.9757 808.789 84.3547C809.056 83.0437 809.361 81.7228 809.726 80.4118C810.12 78.9037 810.593 77.4251 811.155 75.976C811.648 74.7242 811.776 73.3934 811.549 71.9839C812.21 73.1372 812.801 74.32 813.324 75.5325C813.787 76.6168 814.112 77.7504 814.309 78.9332C814.635 80.6385 815.078 82.2551 815.64 83.7633C815.906 82.8071 816.212 81.8608 816.577 80.9047C817.73 78.0165 818.331 75.0396 818.4 71.9838C818.4 72.9696 818.4 73.9553 818.4 74.941C818.4 76.4196 818.4 77.8982 818.4 79.3768C818.4 80.4315 818.331 81.4665 818.203 82.4818C818.469 81.7918 818.745 81.1018 819.041 80.4118C819.761 78.7361 820.589 77.1096 821.505 75.5325C821.604 75.4043 821.683 75.2565 821.752 75.0889C821.821 74.6946 821.9 74.2806 821.998 73.8567C822.225 72.94 822.343 71.9838 822.343 70.9981C822.57 72.4471 822.373 73.8074 821.752 75.0889C821.328 77.3561 821.062 79.6035 820.963 81.8411C820.934 83.1916 820.894 84.5322 820.865 85.8826C820.894 85.3602 820.983 84.8673 821.111 84.404C821.279 83.8421 821.456 83.3 821.653 82.7776C822.343 80.8061 823.161 78.9825 824.117 77.3068C825.33 75.1086 826.02 72.8414 826.187 70.5053C826.187 74.941 826.187 79.3768 826.187 83.8126C826.187 85.9812 826.187 88.1498 826.187 90.3184C826.217 89.4608 826.306 88.6229 826.434 87.8048C826.73 86.2572 827.094 84.749 827.518 83.2704C827.686 82.7086 827.844 82.1566 828.011 81.5947C828.08 81.1708 828.129 80.7568 828.159 80.3625C828.228 80.4611 828.277 80.54 828.307 80.609C828.435 80.2442 828.553 79.8697 828.652 79.4754C828.819 78.6572 828.977 77.7996 829.145 76.9125C829.145 76.5872 829.145 76.0943 829.145 75.4339C829.214 75.9563 829.224 76.4985 829.194 77.0603C829.687 78.1446 830.15 79.2487 830.574 80.3625C831.264 82.1664 831.885 83.99 832.447 85.8333C832.674 86.6515 832.91 87.4598 833.137 88.2484C832.871 86.474 832.624 84.68 832.398 82.8761C832.033 80.2442 831.934 77.6025 832.102 74.941C832.427 75.1086 832.713 75.3057 832.94 75.5325C833.334 75.9563 833.699 76.4196 834.024 76.9125C834.093 77.0111 834.152 77.1293 834.221 77.2575C833.896 75.1875 833.827 73.0977 834.024 70.9981C834.684 71.8163 835.286 72.6739 835.848 73.561C836.932 75.3057 837.898 77.1096 838.755 78.9825C839.869 81.3778 840.944 83.7929 841.959 86.2276C843.408 89.6777 844.887 93.1277 846.395 96.5777C846.493 96.7749 846.622 96.9523 846.789 97.1199C845.872 94.9513 845.044 92.6546 844.325 90.2198C843.832 88.5736 843.27 86.9472 842.649 85.3405C842.156 83.99 841.663 82.6297 841.171 81.2497C840.057 78.0658 838.982 74.9706 837.967 71.9838C838.46 72.6443 838.953 73.2949 839.446 73.9553C839.938 74.6157 840.382 75.3057 840.776 76.0253C841.831 77.9278 842.945 79.8007 844.128 81.644C845.577 83.9111 846.986 86.198 848.366 88.4948C850.141 91.4815 852.063 94.1824 854.133 96.5777C851.698 93.1573 849.618 89.5495 847.873 85.7347C846.493 82.8466 845.636 79.8992 845.311 76.9125C845.803 77.2378 846.198 77.6321 846.494 78.0954C847.213 79.2092 847.923 80.333 848.613 81.4468C847.795 79.5444 846.888 77.6814 845.902 75.8775C845.015 74.2707 844.276 72.6049 843.684 70.8995C843.29 69.8152 843.014 68.7014 842.846 67.5481C846.296 71.3234 849.037 75.6015 851.077 80.3625C852.26 82.9944 853.423 85.6165 854.576 88.2483C855.887 91.2055 857.159 94.1824 858.372 97.1692C858.963 98.6773 859.554 100.195 860.146 101.704C860.215 101.832 860.274 101.97 860.343 102.098C861.23 103.705 862.038 105.331 862.758 106.977C861.477 101.881 860.097 96.7749 858.618 91.6491C857.731 88.7215 857.11 85.7545 856.745 82.7283C856.282 79.1797 856.055 75.6015 856.055 71.9838C856.055 69.6871 856.055 67.3805 856.055 65.0838C857.731 67.9128 858.736 71.0277 859.062 74.4482C859.328 77.6715 859.633 80.885 859.998 84.1083C859.801 78.7558 859.752 73.3934 859.85 68.0409C859.919 65.5766 860.028 63.1123 860.195 60.648C860.195 60.4804 860.274 60.3227 860.442 60.1551C861.2 63.0137 862.147 65.823 863.3 68.5831C864.315 70.9784 865.272 73.3934 866.159 75.8282C866.031 74.872 865.912 73.9257 865.814 72.9696C865.518 70.3377 865.301 67.7156 865.173 65.0838C864.976 61.6337 864.946 58.1837 865.074 54.7336C865.104 54.2408 865.203 53.7479 865.37 53.255C865.538 53.7479 865.735 54.221 865.962 54.6843C867.046 56.8529 868.002 59.0511 868.82 61.2887C871.314 67.8931 874.064 74.4186 877.051 80.8554C879.683 86.4445 882.157 92.0927 884.493 97.8099C886.07 101.782 887.795 105.696 889.668 109.54C889.895 110.033 890.112 110.506 890.309 110.969C889.944 108.998 889.55 107.026 889.126 105.055C888.436 101.901 887.746 98.7463 887.056 95.592C885.942 90.3972 884.572 85.3207 882.965 80.3625C881.812 76.9125 880.481 73.5413 878.973 70.2588C877.13 66.2173 875.868 62.028 875.178 57.6908C875.149 57.5232 875.129 57.3655 875.129 57.1979C875.454 57.6908 875.72 58.2034 875.917 58.7258C876.834 61.3183 877.82 63.8812 878.875 66.4145C882.591 75.286 886.287 84.1872 889.964 93.1277C891.147 95.9863 892.261 98.8449 893.316 101.704C891.768 96.4792 890.309 91.176 888.929 85.784C888.042 82.334 887.125 78.9036 886.169 75.4832C885.351 72.4964 884.493 69.4998 883.606 66.5131C883.241 65.3006 882.847 64.0783 882.423 62.8659C881.536 61.4563 880.915 60.2241 880.55 59.1694C880.521 59.0018 880.501 58.8441 880.501 58.6765C880.994 59.337 881.369 60.027 881.635 60.7465C881.901 61.4661 882.157 62.1759 882.423 62.8659C882.689 63.2897 882.965 63.7333 883.261 64.1966C884.513 66.099 885.607 68.0902 886.563 70.1602C888.239 73.6793 889.935 77.1885 891.64 80.7075C893.316 84.2857 894.922 87.9033 896.47 91.5505C896.046 90.1409 895.583 88.7215 895.09 87.3119C893.71 83.1719 892.3 79.0515 890.851 74.941C889.836 71.9838 888.88 69.0069 887.993 66.0202C887.401 64.0783 886.958 62.1068 886.662 60.1058C886.632 59.8101 886.691 59.4947 886.859 59.1694C889.619 64.719 891.936 70.4757 893.808 76.4196C895.218 80.8554 896.687 85.2714 898.195 89.6777C900.59 96.4496 902.926 103.231 905.194 110.033C906.8 114.794 908.525 119.693 910.369 124.72C908.23 116.963 906.702 109.077 905.785 101.063C905.391 97.4452 904.868 93.8473 904.208 90.2691C903.291 85.1729 902.502 80.0668 901.842 74.941C901.714 74.0243 901.576 73.0879 901.448 72.1317C900.758 71.0474 900.117 69.9335 899.526 68.7802C898.569 66.9763 897.732 65.1035 897.012 63.1616C896.618 62.1463 896.145 61.1606 895.583 60.2044C894.666 58.6962 893.907 57.1289 893.316 55.5222C893.118 54.9998 893.099 54.4083 893.266 53.7479C895.307 56.5769 897.189 59.5637 898.934 62.718C900.344 65.2809 901.822 67.7945 903.37 70.2588C905.44 73.4821 907.283 76.8435 908.89 80.3625C909.058 80.6878 909.215 81.023 909.383 81.3483C909.511 74.872 908.545 68.6324 906.475 62.6194C906.643 62.2941 906.82 61.9787 907.017 61.683C907.145 61.4858 907.234 61.2887 907.264 61.0915C907.392 60.6283 907.461 60.1551 907.461 59.6622C907.461 59.0018 907.461 58.3512 907.461 57.6908C907.461 57.1979 907.411 56.7248 907.313 56.2615C907.116 55.2758 907.333 54.7632 907.954 54.7336C907.954 55.394 908.003 56.0446 908.101 56.7051C908.328 58.1837 908.644 59.6622 909.038 61.1408C909.462 62.787 910.004 64.3937 910.664 65.9709C910.792 66.3652 911.029 66.7299 911.354 67.0552C911.522 66.5623 911.67 66.0695 911.798 65.5766C911.995 64.9162 912.143 64.2656 912.241 63.6052C912.409 62.1266 912.587 60.648 912.784 59.1694C912.813 59.0511 912.833 58.923 912.833 58.7751C912.833 60.0762 912.833 61.3577 912.833 62.6194C912.833 64.098 912.981 65.547 913.277 66.9566C913.306 67.1833 913.493 67.3805 913.819 67.5481C913.986 67.3805 914.183 67.0749 914.41 66.6116C914.676 65.9216 915.002 65.2612 915.396 64.6402C915.82 63.9502 916.263 63.2799 916.727 62.6194C916.598 63.1123 916.46 63.6052 916.332 64.098C916.135 64.9162 916.007 65.7442 915.938 66.5623C915.839 67.8734 915.79 69.1942 915.79 70.5052C915.958 70.18 916.106 69.8448 916.234 69.5195C916.598 68.7014 917.042 67.9621 917.564 67.3016C919.408 64.9359 921.241 62.5504 923.084 60.1551C923.745 59.337 924.484 58.6469 925.302 58.0851C926.288 57.4641 926.86 56.6755 927.027 55.7193C927.195 55.8869 927.294 56.0643 927.323 56.2615C927.451 56.8825 927.52 57.5232 927.52 58.1837C927.52 59.337 927.52 60.4804 927.52 61.6337C927.52 62.5899 927.52 63.5263 927.52 64.443C929.226 61.2591 930.891 58.0358 932.498 54.7829C932.764 54.2605 933.06 53.7479 933.385 53.255C933.385 54.3393 933.336 55.4039 933.238 56.4586C934.253 55.049 935.603 53.9746 937.279 53.255C937.111 53.5803 937.033 53.9155 937.033 54.2407C937.033 55.6208 936.806 56.9318 936.343 58.1837C934.795 62.2251 933.563 66.3652 932.646 70.6038C932.912 70.2785 933.188 69.9434 933.484 69.6181C935.722 67.2523 937.525 64.6106 938.905 61.683C939.793 59.8397 940.532 57.8584 941.123 55.7193C940.364 59.337 939.418 62.8954 938.265 66.4145C936.165 72.9893 935.179 79.7021 935.308 86.5726C935.377 85.9516 935.534 85.3404 935.8 84.749C936.885 82.2551 938.137 79.7711 939.546 77.3068C941.616 73.6596 942.996 69.9138 943.686 66.0695C943.883 67.4495 943.785 68.7802 943.39 70.0617C941.784 75.0199 940.759 80.0964 940.335 85.2912C939.714 92.9798 939.517 100.698 939.743 108.456C940.069 107.145 940.364 105.824 940.63 104.513C941.025 102.709 941.271 100.895 941.37 99.0913C941.537 95.937 942.01 92.832 942.799 89.7762C943.223 88.1005 943.519 86.4247 943.686 84.749C943.913 82.3143 944.061 79.8697 944.13 77.4053C944.159 80.6878 944.179 83.9801 944.179 87.2626C944.179 89.7269 944.357 92.1617 944.721 94.557C945.145 97.7409 945.638 100.915 946.2 104.069C946.594 106.336 946.87 108.623 947.038 110.92C947.038 111.088 947.038 111.245 947.038 111.413C948.092 107.569 948.546 103.626 948.418 99.5842C948.25 93.1474 948.467 86.7402 949.058 80.3625C949.354 77.4053 949.817 74.4777 950.438 71.5895C950.961 69.2238 951.651 66.8876 952.508 64.5909C952.637 64.2656 952.784 63.9304 952.952 63.6052C953.12 63.7727 953.297 64.098 953.494 64.5909C953.622 65.0837 953.76 65.5766 953.888 66.0695C954.214 67.3805 954.707 68.7014 955.367 70.0124C955.367 69.1942 955.367 68.3662 955.367 67.5481C955.367 66.3948 955.367 65.2513 955.367 64.098C955.367 61.8013 955.367 59.4947 955.367 57.1979C955.535 57.6908 955.712 58.1639 955.909 58.6272C956.205 59.3172 956.422 60.0073 956.55 60.6973C957.112 63.753 957.388 66.8383 957.388 69.9631C957.457 68.8492 957.555 67.7255 957.684 66.6116C957.95 64.443 958.255 62.2744 958.62 60.1058C958.916 58.3315 959.192 56.5572 959.458 54.7829C959.527 54.4182 959.635 54.0732 959.803 53.7479C960.463 55.0589 960.986 56.4093 961.38 57.7894C961.804 59.3665 962.149 60.9733 962.415 62.6194C962.78 65.0837 963.125 67.5678 963.45 70.0617C963.618 71.3727 964.357 71.8557 965.668 71.491C965.835 71.1657 965.944 70.8207 966.013 70.456C966.112 69.8349 966.161 69.1942 966.161 68.5338C966.161 67.5481 966.161 66.5623 966.161 65.5766C966.161 64.098 966.161 62.6194 966.161 61.1408C966.486 61.8013 966.654 62.4519 966.654 63.1123C966.979 63.7727 967.344 64.4134 967.738 65.0345C968.753 66.6412 969.709 68.2874 970.597 69.9631C972.105 72.7231 973.228 75.5325 973.948 78.3911C973.849 77.2082 973.623 76.0746 973.258 74.9903C972.736 73.3146 972.193 71.6388 971.632 69.9631C970.715 67.0749 970.38 64.2754 970.646 61.5844C972.154 64.0487 973.899 66.3849 975.87 68.5831C976.038 68.7802 976.195 68.9577 976.363 69.1252C975.308 67.2523 974.293 65.3499 973.307 63.408C971.661 60.2241 970.104 57.0008 968.625 53.7479C970.035 55.9855 971.316 58.2822 972.469 60.648C973.978 63.6347 975.446 66.6412 976.856 69.6674C977.644 70.6531 978.384 71.6585 979.074 72.6738C980.552 75.01 981.785 77.5729 982.77 80.3625C980.996 77.3758 979.251 74.3299 977.546 71.2445C978.995 74.4284 980.355 77.6518 981.637 80.9047C983.243 84.9166 984.771 88.9383 986.22 92.9798C985.925 91.8955 985.629 90.7915 985.333 89.6776C984.771 87.578 984.328 85.439 984.002 83.2704C983.677 81.1708 983.342 79.0614 983.017 76.9618C982.691 74.7932 982.425 72.6246 982.228 70.456C981.932 67.3706 981.785 64.2656 981.785 61.1408C982.475 62.2547 983.184 63.3784 983.904 64.4923C983.933 64.5613 983.983 64.6402 984.052 64.7387C983.628 63.5263 983.194 62.3237 982.77 61.1408C983.096 61.6337 983.441 62.1068 983.805 62.5701C985.087 64.2459 986.289 65.9709 987.403 67.7452C989.375 70.8995 991.366 74.0341 993.367 77.1589C997.704 83.8323 1001.48 90.8309 1004.7 98.1549C1006.05 101.24 1007.38 104.513 1008.69 107.963C1008.53 107.47 1008.37 106.977 1008.2 106.484C1007.38 103.852 1006.48 101.26 1005.49 98.697C1002.73 91.728 999.892 84.7983 996.965 77.8982C995.654 74.7734 994.481 71.6093 993.465 68.3859C993.337 67.8241 993.189 67.2523 993.022 66.6609C992.657 65.7047 992.381 64.6895 992.184 63.6051C992.115 63.2799 992.085 62.9447 992.085 62.6194C992.154 62.6884 992.214 62.7476 992.283 62.8166C992.184 62.097 992.115 61.3577 992.085 60.5987C992.085 60.4705 992.253 60.3227 992.578 60.1551C992.904 60.9733 993.239 61.8013 993.564 62.6194C994.353 64.4233 995.161 66.237 995.979 68.0409C995.979 67.7156 995.979 67.3805 995.979 67.0552C995.979 66.8876 995.979 66.7299 995.979 66.5623C996.304 66.8876 996.639 67.2031 996.965 67.4988C997.586 68.0212 998.217 68.5535 998.838 69.0759C999.528 69.6969 1000.17 70.3574 1000.76 71.0474C1002.34 72.8907 1003.96 74.2017 1005.64 74.9903C1005.22 73.6399 1004.6 72.4767 1003.82 71.491C1003 70.5052 1002.11 69.5885 1001.15 68.7309C998.66 66.5328 997.576 63.8319 997.901 60.648C998.069 60.8155 998.364 61.0127 998.788 61.2394C999.676 61.9984 1000.46 62.8363 1001.15 63.753C1002.14 65.064 1003.19 66.3356 1004.31 67.5481C1003.85 66.3652 1003.19 65.2119 1002.34 64.098C1001.68 63.2799 1001.08 62.4223 1000.51 61.5351C999.725 60.3227 998.857 59.1989 997.901 58.1836C997.28 57.5232 996.639 56.8726 995.979 56.2122C995.092 55.394 994.767 54.4083 994.993 53.255C995.949 53.945 996.945 54.9012 998 56.1136C998.917 57.1684 999.853 58.2034 1000.81 59.2187C1003.7 62.4026 1006.33 65.5076 1008.69 68.5338C1008.07 66.9271 1007.29 65.409 1006.33 63.9994C1004.75 61.6041 1002.81 59.4454 1000.51 57.5429C999.261 56.4882 998.177 55.3053 997.26 53.9943C997.063 53.669 997.063 53.3339 997.26 53.0086C997.063 52.7424 996.896 52.4664 996.768 52.1707C996.738 52.1411 996.689 52.1017 996.62 52.0721C994.422 50.6231 992.726 49.0854 991.543 47.4392C991.74 47.5378 991.938 47.6561 992.135 47.7842C992.598 48.1489 993.101 48.3067 993.663 48.2771C993.564 47.9814 993.515 47.6659 993.515 47.3406C993.515 47.1731 993.515 47.0154 993.515 46.8478C993.515 46.6802 993.515 46.5225 993.515 46.3549C993.515 46.1873 993.682 46.0296 994.008 45.8621C994.175 45.8621 994.333 45.8621 994.5 45.8621C994.826 45.8621 995.161 45.8621 995.486 45.8621C995.654 45.8621 995.811 45.8621 995.979 45.8621C995.811 45.5368 995.634 45.2213 995.437 44.9256C995.309 44.7285 995.21 44.5313 995.141 44.3342C995.043 44.0385 994.924 43.7625 994.796 43.4963C994.767 43.4273 994.668 43.2302 994.5 42.9049C994.5 42.7373 994.5 42.5796 994.5 42.412C994.668 42.412 994.826 42.412 994.993 42.412C995.486 42.412 995.949 42.4909 996.373 42.6584C997.231 42.9837 998.098 43.2992 998.986 43.5949C1001.35 44.3539 1003.59 45.4481 1005.69 46.8971C1006.84 47.6561 1007.89 48.5038 1008.84 49.46C1008.74 49.0657 1008.69 48.6911 1008.69 48.3264C1009.36 48.6517 1010.03 48.9178 1010.72 49.115C1011.83 49.4107 1012.91 49.7754 1013.97 50.1993C1014.53 50.426 1015.08 50.7414 1015.64 51.1357C1016.24 51.5596 1016.81 51.9933 1017.37 52.4171C1017.99 52.8114 1018.68 53.0874 1019.44 53.255C1019.27 53.0874 1019.11 52.9297 1018.95 52.7621C1018.78 52.5946 1018.62 52.4369 1018.45 52.2693C1018.29 52.1017 1018.13 51.944 1017.96 51.7764C1017.47 51.2836 1017.15 50.9583 1017.02 50.7907C1017.49 50.9583 1017.93 51.1653 1018.36 51.4314C1019.24 51.9933 1020.08 52.6143 1020.87 53.3043C1021.73 54.0929 1022.54 54.9012 1023.33 55.7193C1023.66 56.0446 1023.99 56.3798 1024.32 56.7051C1024.15 56.0446 1023.97 55.394 1023.78 54.7336C1023.65 54.2407 1023.45 53.7774 1023.19 53.3536C1022.82 52.634 1022.48 51.9046 1022.15 51.185C1021.82 50.426 1021.54 49.6571 1021.31 48.8685C1020.89 47.3899 1020.75 45.8916 1020.92 44.3835C1021.24 44.7088 1021.56 45.0538 1021.85 45.4185C1022.57 46.3056 1023.26 47.2618 1023.92 48.2771C1024.52 49.1347 1025.14 49.9725 1025.8 50.7907C1026.91 52.2003 1027.95 53.669 1028.9 55.1772C1028.77 54.359 1028.64 53.531 1028.51 52.7129C1028.44 52.3186 1028.39 52.0228 1028.36 51.8257C1028.33 51.8257 1028.29 51.806 1028.26 51.7764C1028.26 51.4117 1028.29 51.4314 1028.36 51.8257C1029.18 52.2496 1029.81 52.8903 1030.23 53.7479C1030.73 54.7336 1031.22 55.7193 1031.71 56.7051C1032.5 58.1836 1033.27 59.682 1034.03 61.1901C1035.8 64.5712 1037.55 67.9719 1039.25 71.3924C1040.83 74.6453 1042.7 77.632 1044.87 80.3625C1044.7 80.0372 1044.58 79.6922 1044.48 79.3275C1043.79 77.0899 1043.03 74.8227 1042.21 72.526C1041.84 71.5107 1041.54 70.4757 1041.27 69.4209C1041.08 68.5042 1040.98 67.5481 1040.98 66.5623C1040.98 65.2513 1041.03 63.9304 1041.13 62.6194C1041.15 62.4913 1041.22 62.3533 1041.32 62.2251C1040.76 60.9141 1040.34 59.5637 1040.04 58.1836C1040.34 58.1836 1040.76 58.2132 1041.32 58.2822C1041.72 58.5484 1041.98 58.6469 1042.11 58.5779C1041.98 58.1541 1041.91 57.6908 1041.91 57.1979C1041.91 57.0303 1041.79 56.8233 1041.52 56.5572C1041.45 56.4882 1041.59 56.3798 1041.91 56.2122C1042.24 56.2122 1042.7 56.2418 1043.29 56.3108C1043.69 56.5769 1044.08 56.8233 1044.48 57.0501C1044.9 57.3162 1045.48 57.5626 1046.2 57.7893C1045.81 57.3951 1045.39 56.9811 1044.97 56.5572C1044.74 56.3305 1044.6 56.0348 1044.53 55.67C1044.43 55.2067 1044.38 54.7336 1044.38 54.2407C1044.55 54.4083 1044.72 54.5069 1044.92 54.5365C1045.58 54.704 1046.2 54.9505 1046.79 55.2758C1047.81 55.8968 1048.78 56.5572 1049.7 57.2472C1051.15 58.3019 1052.81 59.2679 1054.68 60.1551C1053.86 58.7061 1052.71 57.3951 1051.23 56.2122C1049.92 55.1969 1048.49 54.3097 1046.94 53.5507C1046.87 53.5212 1046.81 53.4817 1046.74 53.4522C1046.42 53.3536 1046.07 53.2353 1045.71 53.1071C1044.5 52.7129 1043.24 52.3383 1041.96 51.9736C1041.44 51.8454 1040.93 51.6483 1040.44 51.3821C1040.5 50.9878 1041.13 51.0371 1042.31 51.53C1043.79 52.151 1045.27 52.7917 1046.74 53.4522C1048.12 53.945 1049.48 54.4675 1050.83 55.0293C1052.41 55.6503 1054.04 56.084 1055.71 56.3108C1056.34 56.4093 1056.97 56.3798 1057.59 56.2122C1057.42 55.8869 1057.22 55.67 1057 55.5715C1056.18 55.2757 1055.42 54.8124 1054.73 54.1914C1053.74 53.2747 1052.59 52.5946 1051.28 52.1707C1050.42 51.9046 1049.62 51.5497 1048.86 51.0864C1048.54 50.8893 1048.19 50.6921 1047.83 50.495C1047.34 50.3274 1046.82 50.1795 1046.3 50.0514C1045.68 49.8838 1045.09 49.6867 1044.53 49.46C1044.26 49.3614 1044.05 49.1445 1043.89 48.8192C1045.27 49.2431 1046.58 49.805 1047.83 50.495C1050.91 51.3821 1054.01 52.3383 1057.09 53.3536C1058.9 53.945 1060.66 54.6646 1062.37 55.5222C1063.03 55.8475 1063.65 56.2319 1064.24 56.6558C1064.14 56.5276 1064.04 56.3896 1063.94 56.2615C1063.65 55.8968 1063.32 55.5715 1062.96 55.2758C1061.35 53.9253 1059.71 52.6143 1058.03 51.3328C1054.81 48.8685 1051.7 46.2563 1048.72 43.4963C1048.52 43.2992 1048.32 43.102 1048.12 42.9049C1048.19 42.9049 1048.25 42.9049 1048.32 42.9049C1052.37 42.9049 1056.43 42.9049 1060.49 42.9049C1060.18 42.895 1059.88 42.8359 1059.61 42.7077C1059.41 42.6781 1059.23 42.5796 1059.07 42.412C1059.26 42.2149 1059.48 42.0473 1059.71 41.9191C1059.8 41.9191 1059.92 41.9191 1060.05 41.9191C1063.8 41.9191 1067.54 41.998 1071.29 42.1656C1080.23 42.5599 1089.18 42.7866 1098.15 42.8556C1099.33 42.826 1100.5 42.8359 1101.65 42.9049C1101.48 42.9049 1101.32 42.9049 1101.16 42.9049C1100.17 42.9049 1099.17 42.8851 1098.15 42.8556C1096.84 42.9541 1095.54 43.1217 1094.26 43.3484C1093.27 43.5456 1092.45 43.8906 1091.79 44.3835C1093.76 44.9749 1095.91 45.1227 1098.25 44.827C1100.22 44.5609 1102.01 44.758 1103.62 45.4185C1103.95 45.5466 1104.29 45.6452 1104.66 45.7142C1105.28 45.8128 1105.92 45.8916 1106.58 45.9606C1110.62 46.4535 1114.68 46.7985 1118.75 46.9956C1119.74 47.0646 1120.72 47.0646 1121.71 46.9956C1123.71 46.8675 1125.42 47.2913 1126.83 48.2771C1129.82 48.5038 1132.85 48.5432 1135.9 48.3757C1136.52 48.3461 1137.15 48.2475 1137.78 48.0799C1139.35 47.6856 1141.01 47.4589 1142.75 47.3899C1143.87 47.3603 1144.99 47.2716 1146.11 47.1435C1146.47 47.0745 1146.82 47.0449 1147.14 47.0449C1150.66 46.9759 1154.21 46.9168 1157.79 46.8478C1160.38 46.8478 1163.03 46.8478 1165.72 46.8478C1167.2 46.8478 1168.66 46.7788 1170.11 46.6506C1174.51 46.3549 1178.93 46.2366 1183.37 46.3056C1186.75 46.3352 1190.17 46.3549 1193.62 46.3549C1192.43 46.552 1191.28 46.8675 1190.17 47.2913C1189.15 47.6856 1188.31 47.9814 1187.65 48.1785C1187.36 48.2771 1187.08 48.3954 1186.82 48.5235C1185.66 49.1839 1184.52 49.5782 1183.37 49.7064C1182.61 49.7359 1181.87 49.7754 1181.15 49.8049C1182.53 49.8049 1183.91 49.8049 1185.29 49.8049C1189.85 49.8049 1194.43 49.8838 1198.99 50.0514C1199.98 50.1204 1200.96 50.1697 1201.95 50.1992C1201.71 50.2584 1201.47 50.288 1201.26 50.2978C1201.32 50.2978 1201.38 50.2978 1201.45 50.2978C1205.69 50.2978 1209.91 50.2978 1214.12 50.2978C1220.82 50.2978 1227.51 50.2978 1234.18 50.2978C1234.35 50.2978 1234.51 50.2978 1234.67 50.2978C1235 50.2978 1235.33 50.2781 1235.66 50.2485C1235.98 50.2485 1236.32 50.2288 1236.64 50.1992C1237.76 50.1007 1238.89 50.0317 1240.05 50.0021C1243.5 49.8739 1246.93 49.7359 1250.35 49.6078C1254.39 49.4797 1258.31 49.6275 1262.13 50.0514C1263.41 50.2189 1264.69 50.3471 1265.97 50.4457C1268.93 50.6428 1271.86 50.7611 1274.79 50.7907L1276.27 50.7907C1276.44 50.7907 1276.6 50.7907 1276.76 50.7907C1277.09 50.7907 1277.42 50.7907 1277.75 50.7907C1280.14 50.7611 1282.58 50.6921 1285.04 50.5935C1286.03 50.564 1287 50.5738 1287.95 50.6428C1289.33 50.7709 1290.49 50.5147 1291.45 49.8542C1293.03 48.7995 1294.67 47.9123 1296.38 47.1928C1298.15 47.2913 1299.95 47.3406 1301.75 47.3406C1305.23 47.311 1308.63 47.5378 1311.95 48.0306C1313.46 48.2278 1314.96 48.4052 1316.44 48.5728C1317.72 48.7404 1319 48.8981 1320.28 49.0656C1321.63 49.2332 1322.97 49.4106 1324.32 49.6078C1325.41 49.7359 1326.51 49.8739 1327.63 50.0021C1328.88 50.1696 1329.7 49.9331 1330.09 49.3121C1329.77 49.1445 1329.47 48.9375 1329.2 48.6714C1328.98 48.4446 1328.74 48.2968 1328.51 48.2278C1327.89 48.0306 1327.6 47.5673 1327.63 46.8477C1327.63 46.6802 1327.63 46.5225 1327.63 46.3549C1331.21 46.3549 1334.8 46.3549 1338.42 46.3549C1339.57 46.3549 1340.67 46.207 1341.72 45.9113C1342.51 45.6846 1343.37 45.586 1344.29 45.6156C1349.81 45.7832 1355.35 45.9409 1360.9 46.1085C1361.06 46.1085 1361.22 46.1873 1361.39 46.3549C1361.22 46.5225 1361.04 46.6506 1360.85 46.7492C1360.38 46.9759 1359.96 47.242 1359.56 47.5378C1359.14 47.9025 1358.87 48.3461 1358.78 48.8685C1358.75 48.9966 1358.8 49.1445 1358.92 49.3121C1359.09 49.3121 1359.25 49.3318 1359.42 49.3614C1360.08 49.4895 1360.7 49.7064 1361.29 50.0021C1362.74 50.6625 1364.25 50.9385 1365.82 50.8399C1366.15 50.8104 1366.46 50.7217 1366.76 50.5935C1369.2 49.6078 1371.81 48.7896 1374.6 48.1292C1374.79 48.0996 1374.97 48.0799 1375.14 48.0799C1377.04 47.9123 1378.98 47.8039 1380.95 47.7349C1382.93 47.6659 1384.88 47.5673 1386.82 47.4392C1388.3 47.3702 1389.78 47.2618 1391.26 47.0942C1392.54 46.9956 1393.35 47.242 1393.67 47.8335C1393.67 48.001 1393.54 48.1982 1393.28 48.4249C1393.08 48.5235 1392.9 48.8192 1392.73 49.3121C1394.02 49.3121 1395.32 49.3121 1396.63 49.3121C1402.97 49.3121 1409.18 49.3416 1415.26 49.4106C1415.06 49.5092 1414.86 49.6078 1414.67 49.7064C1414.2 49.9331 1413.73 50.2978 1413.24 50.7907C1413.73 50.7611 1414.22 50.7611 1414.72 50.7907C1415.7 50.8202 1416.69 50.8202 1417.67 50.7907C1418.17 50.7907 1418.66 50.7907 1419.15 50.7907C1419.15 51.2835 1419.1 51.7567 1419 52.22C1418.93 52.5847 1418.83 52.9297 1418.66 53.255C1419.77 53.255 1420.91 53.2057 1422.06 53.1071C1422.55 53.0381 1423 52.8804 1423.39 52.6143C1425 51.5989 1426.76 50.6625 1428.66 49.8049C1431.69 50.1006 1435.47 50.4654 1440 50.8892L1440 -139.258L-2.33577e-05 -142.461L-7.32057e-06 40.9828C0.660393 40.9828 1.31103 40.9828 1.97143 40.9828C2.95715 40.9532 3.91332 40.8054 4.83007 40.5392C5.81579 40.2435 6.97887 40.0956 8.32934 40.0956C11.6512 40.0661 14.9042 39.7999 18.0881 39.307C26.171 38.0552 34.3231 37.4539 42.5342 37.4835C46.1814 37.513 49.7595 37.2666 53.2786 36.7442C55.3782 36.4484 57.3496 36.0049 59.1929 35.4134C59.5576 35.3149 59.8829 35.1473 60.1786 34.9206C60.5433 34.6544 60.918 34.477 61.3122 34.3784C62.1993 34.1517 63.1357 34.0334 64.1216 34.0334C65.1073 34.0334 66.0635 34.1024 66.9801 34.2306C68.6263 34.4967 70.2823 34.7037 71.9581 34.8713C72.7762 34.9698 73.5845 35.0881 74.3732 35.2163C78.385 35.9359 82.456 36.202 86.5962 36.0049C86.4286 35.6796 86.3202 35.3346 86.2512 34.9698C86.1526 34.5065 86.123 34.2798 86.1526 34.2798C90.8841 33.787 95.6155 33.5405 100.347 33.5405C100.672 33.5405 100.938 33.4617 101.136 33.2941C101.796 32.8012 102.496 32.5548 103.255 32.5548C105.552 32.5548 107.819 32.5548 110.057 32.5548C110.382 32.5548 110.668 32.476 110.894 32.3084C112.048 31.5494 113.428 31.0269 115.034 30.7312C115.498 30.6326 115.892 30.4651 116.217 30.2384C117.036 29.7159 117.923 29.4005 118.879 29.3019C121.018 29.1048 122.969 28.5133 124.744 27.5276C124.941 27.429 125.118 27.3797 125.286 27.3797C129.85 27.2122 134.404 27.1333 138.938 27.1333C139.599 27.1333 140.19 27.0052 140.713 26.739C140.841 26.67 140.939 26.4926 141.008 26.1969C141.107 25.8322 141.255 25.635 141.452 25.6054C143.818 25.3097 146.252 25.1618 148.746 25.1618C149.732 25.1618 150.599 24.945 151.358 24.5211C151.556 24.4226 151.674 24.1466 151.703 23.6833C151.703 23.358 151.723 23.1904 151.753 23.1904C153.852 22.8651 155.942 22.6975 158.012 22.6975C160.94 22.6975 163.877 22.7764 166.834 22.944C169.427 23.0721 171.881 22.8257 174.178 22.2047C175.193 21.9385 176.199 21.6921 177.185 21.4654C177.806 21.2978 178.387 21.1007 178.91 20.8739C180.487 20.1544 182.162 19.9375 183.937 20.2332C190.275 21.2189 196.525 21.8301 202.666 22.0568C202.439 21.8301 202.192 21.5837 201.926 21.3175C201.857 21.2485 201.749 21.0514 201.581 20.7261C204.667 19.7403 207.92 19.4446 211.34 19.8389C212.158 19.9375 212.966 20.0164 213.755 20.0854C215.234 20.1839 216.643 20.4501 217.994 20.8739C220.951 21.8597 223.977 22.7468 227.062 23.5354C229.399 24.1564 231.813 24.4521 234.307 24.4225C234.899 24.4225 235.323 24.1465 235.589 23.5847C235.717 23.3185 235.865 23.0721 236.032 22.8454C236.2 22.5792 236.446 22.4314 236.772 22.4018C237.265 22.3722 237.738 22.3328 238.201 22.3032C238.526 22.5004 238.842 22.6975 239.137 22.8947C240.547 23.7522 242.223 24.0775 244.165 23.8804C247.191 23.5157 250.148 23.5354 253.036 23.9297C254.781 24.1958 256.358 24.7873 257.768 25.704C259.838 27.015 261.987 27.7937 264.224 28.0205C264.845 28.0895 265.358 27.9515 265.752 27.6262C266.275 27.2023 266.738 26.8672 267.132 26.6404C267.3 26.808 267.458 26.9657 267.625 27.1333C267.793 27.3009 267.97 27.4487 268.167 27.5769C268.63 27.9416 269.084 28.2965 269.547 28.6612C269.744 28.7893 269.941 28.9273 270.139 29.0555C270.434 29.2526 270.75 29.4005 271.075 29.499C271.735 29.7258 272.228 29.9229 272.554 30.0905C272.554 29.9229 272.534 29.7652 272.504 29.5976C272.376 29.1047 272.376 28.6612 272.504 28.2669C272.534 28.1683 272.849 28.1387 273.441 28.1683C274.298 28.464 275.136 28.7795 275.954 29.1047C276.743 29.43 277.532 29.8145 278.32 30.2383C279.671 30.9579 280.982 31.7366 282.263 32.5548C282.263 32.3872 282.263 32.2295 282.263 32.0619C282.263 31.8944 282.263 31.7366 282.263 31.5691C282.263 31.4015 282.263 31.2438 282.263 31.0762C282.263 30.9086 282.263 30.7509 282.263 30.5833C282.263 30.0905 282.263 29.5976 282.263 29.1047C282.263 28.7795 282.263 28.4443 282.263 28.119C283.416 28.5823 284.53 29.1343 285.614 29.7948C286.502 30.3172 287.369 30.8988 288.227 31.5198C289.804 32.7027 291.46 33.787 293.205 34.7727C294.713 35.6303 296.142 36.6948 297.493 37.9763C297.325 37.651 297.167 37.3159 297 36.9906C296.832 36.6653 296.635 36.3498 296.408 36.0541C296.142 35.6894 295.866 35.3345 295.57 34.9698C295.206 34.5065 294.91 34.0137 294.683 33.4912C294.585 33.1955 294.466 32.9195 294.338 32.6534C294.141 32.2591 293.875 31.7366 293.55 31.0762C293.875 31.2438 294.21 31.4015 294.535 31.5691C295.521 32.0619 296.477 32.6041 297.394 33.1955C297.956 33.5898 298.478 34.0334 298.971 34.5262C299.76 35.3444 300.548 36.1724 301.337 36.9906C301.041 36.4977 300.726 36.0048 300.401 35.512C299.908 34.8515 299.484 34.1615 299.119 33.4419C298.853 32.8505 298.606 32.2295 298.38 31.5691C298.281 31.2438 298.202 30.8988 298.133 30.5341C298.035 30.0708 298.153 29.5976 298.478 29.1047C298.803 29.1047 299.247 29.1343 299.809 29.2033C300.203 29.4695 300.578 29.8736 300.942 30.4355C301.366 30.7016 301.83 30.9283 302.323 31.1255C302.648 31.2536 302.934 31.4409 303.16 31.6676C303.259 31.7662 303.437 31.7465 303.703 31.6184C303.604 31.4212 303.437 31.0959 303.21 30.6326C303.111 30.4355 302.983 30.0905 302.815 29.5976C302.815 29.43 302.815 29.2723 302.815 29.1047C302.815 28.9372 302.815 28.7795 302.815 28.6119C302.815 28.2866 302.983 27.9514 303.308 27.6262C304.195 28.188 305.152 28.74 306.167 29.3019C307.182 29.8243 308.158 30.465 309.075 31.2241C309.962 31.9436 310.977 32.7224 312.131 33.5405C312.131 33.3729 312.131 33.2152 312.131 33.0477C312.131 32.7224 312.131 32.3872 312.131 32.0619C312.131 31.7366 312.131 31.4015 312.131 31.0762C312.131 30.7509 312.131 30.4158 312.131 30.0905C312.131 29.7652 312.298 29.43 312.624 29.1047C313.116 29.43 313.609 29.7652 314.102 30.0905C314.595 30.4158 315.058 30.7805 315.482 31.1748C316.497 32.0915 317.424 33.1167 318.242 34.2305C318.311 34.2995 318.36 34.3587 318.39 34.4277C318.163 33.5405 317.749 32.7027 317.158 31.9141C316.695 31.2931 316.547 30.5341 316.714 29.6469C316.744 29.4498 316.862 29.3216 317.059 29.2526C318.341 28.8879 319.474 29.1738 320.46 30.0905C321.771 31.2438 323.151 32.2886 324.6 33.2448C326.207 34.3587 327.478 35.6401 328.395 37.0891C328.395 37.0596 328.375 37.0103 328.346 36.9413C328.119 36.478 327.902 36.0048 327.705 35.512C327.577 35.1867 327.409 34.8713 327.212 34.5755C327.084 34.3784 326.966 34.1812 326.867 33.9841C326.64 33.5208 326.601 33.0477 326.769 32.5548C327.262 32.8801 327.754 33.2152 328.247 33.5405C329.065 34.0334 329.844 34.5952 330.564 35.2163C332.466 36.892 334.329 38.617 336.133 40.3913C337.74 41.8995 339.484 43.2007 341.357 44.2849C342.244 44.8468 343.26 45.2017 344.413 45.3692C344.384 43.8611 344.384 42.3825 344.413 40.9335C344.413 40.273 344.413 39.6225 344.413 38.962C344.413 38.1439 344.413 37.3159 344.413 36.4977C344.413 36.0048 344.531 35.5908 344.758 35.2655C344.857 35.098 345.074 35.0191 345.399 35.0191C347.567 36.3006 349.559 37.8974 351.363 39.7999C352.25 40.7166 353.117 41.6432 353.975 42.5599C353.975 42.1952 354.044 41.8206 354.172 41.4263C354.665 41.9488 355.059 42.3923 355.355 42.7571C355.719 43.1809 356.074 43.6147 356.439 44.0385C356.804 44.5314 357.198 44.8271 357.622 44.9257C360.057 45.5861 362.482 46.2761 364.916 46.9957C369.776 48.5433 374.606 50.1204 379.407 51.7272C379.968 51.8948 380.52 52.0722 381.082 52.2693C381.082 51.3625 381.082 50.426 381.082 49.46C381.082 49.5684 381.102 49.6867 381.132 49.805C381.23 50.6922 381.378 51.5596 381.575 52.4172C381.703 52.8115 381.841 53.2058 381.969 53.6001C383.379 57.5725 384.414 61.5647 385.074 65.5767C385.173 66.3948 385.301 67.2228 385.469 68.041C385.469 67.7157 385.469 67.3805 385.469 67.0552C385.469 66.8877 385.469 66.73 385.469 66.5624C385.469 66.0695 385.469 65.5767 385.469 65.0838C385.469 64.7585 385.469 64.4234 385.469 64.0981C385.469 63.6052 385.469 63.1123 385.469 62.6195C385.469 62.2942 385.567 61.9788 385.764 61.683C386.159 63.4869 386.523 65.2809 386.849 67.0552C387.075 68.3663 387.371 69.6477 387.736 70.8996C388.396 73.3935 389.116 75.7296 389.904 77.8983C389.904 77.7307 389.904 77.573 389.904 77.4054C389.904 77.0801 389.934 76.5971 390.003 75.9761C390.269 75.4536 390.565 74.7735 390.89 73.9553C391.215 74.1229 391.452 74.3299 391.58 74.5961C391.777 74.9904 391.955 75.4044 392.122 75.8282C392.448 76.7154 392.734 77.6025 392.96 78.4897C393.226 79.4064 393.522 80.3626 393.847 81.3483C393.847 81.023 393.847 80.6879 393.847 80.3626C393.847 80.195 393.867 80.0373 393.897 79.8697C393.966 79.5444 394.025 79.2093 394.094 78.884C394.094 78.3911 394.114 77.8983 394.143 77.4054C394.212 77.4054 394.261 77.4054 394.291 77.4054C394.291 77.0801 394.291 76.7449 394.291 76.4197C394.291 75.9268 394.291 75.4339 394.291 74.9411C394.291 74.2806 394.291 73.6301 394.291 72.9696C394.291 72.802 394.291 72.6443 394.291 72.4767C394.459 73.1372 394.636 73.7878 394.833 74.4482C395.03 75.1086 395.198 75.7592 395.326 76.4197C395.395 76.7449 395.454 77.09 395.523 77.4547C395.651 78.4108 395.74 79.3768 395.77 80.3626C396.095 81.5159 396.41 82.5016 396.706 83.3198L396.706 82.8269C396.706 82.334 396.706 81.8412 396.706 81.3483C396.706 80.3626 396.706 79.3768 396.706 78.3911C396.706 77.8983 396.706 77.4054 396.706 76.9125C396.706 76.0944 396.706 75.2664 396.706 74.4482C396.706 73.9553 396.706 73.4625 396.706 72.9696C396.874 73.4625 397.051 73.9553 397.248 74.4482C397.376 74.7735 397.524 75.1086 397.692 75.4339C398.017 76.0944 398.313 76.7647 398.579 77.4547C398.973 78.5685 399.338 79.7021 399.663 80.8554C399.831 81.5159 399.989 82.1664 400.156 82.8269C400.156 82.5016 400.156 82.1664 400.156 81.8412C400.156 81.5159 400.156 81.1807 400.156 80.8554C400.156 80.3626 400.156 79.8697 400.156 79.3768C400.156 78.884 400.156 78.3911 400.156 77.8982C400.156 77.4054 400.156 76.9125 400.156 76.4197C400.156 75.7592 400.156 75.1086 400.156 74.4482C400.156 74.2806 400.156 74.1229 400.156 73.9553C400.324 74.2806 400.432 74.6256 400.501 74.9904C400.767 76.1042 400.974 77.2378 401.142 78.3911C401.309 79.7021 401.437 81.023 401.536 82.334C401.566 82.8269 401.605 83.3198 401.635 83.8126C401.635 82.8269 401.635 81.8412 401.635 80.8554C401.635 79.5444 401.635 78.2235 401.635 76.9125C401.635 75.9268 401.635 74.9411 401.635 73.9553C401.664 73.1076 401.664 72.2402 401.635 71.3432C401.635 71.3826 401.654 71.4319 401.684 71.491C402.078 73.0682 402.443 74.6946 402.768 76.3704C403.133 78.0461 403.527 79.7218 403.951 81.3976C404.217 82.4819 404.395 83.5662 404.493 84.6505C404.493 84.059 404.464 83.4479 404.395 82.8269C404.326 81.8412 404.266 80.8554 404.198 79.8697C404.099 78.5587 404.05 77.2378 404.05 75.9268C404.769 77.7997 405.499 79.7416 406.218 81.7426C407.667 85.7151 408.85 89.8058 409.767 94.0149C409.698 93.4235 409.639 92.8123 409.57 92.1913C409.343 90.2198 409.028 88.278 408.633 86.3755C408.239 84.6012 407.845 82.8466 407.45 81.1019C406.859 79.3571 406.297 77.6025 405.775 75.8282C405.282 74.2511 404.789 72.6739 404.296 71.0967C404.129 70.5349 403.882 70.0124 403.557 69.5196C404.217 69.8449 404.641 70.3574 404.838 71.0474C405.302 72.4965 405.706 73.9553 406.07 75.4339C406.563 77.3068 407.027 79.1994 407.45 81.1019C407.746 82.0186 408.062 82.9452 408.387 83.8619C409.442 86.7895 410.674 89.6087 412.083 92.3392C413.562 95.0696 414.479 97.9775 414.843 101.063C414.843 100.402 414.824 99.7518 414.794 99.0914C414.666 97.4452 414.469 95.8188 414.203 94.212C413.808 91.8759 413.513 89.5495 413.315 87.2134C412.921 82.8762 412.182 78.608 411.098 74.3989C410.674 72.7922 410.23 71.1756 409.767 69.5688C409.146 67.4298 408.88 65.2809 408.978 63.1123C410.132 65.1528 411.127 67.2721 411.985 69.4703C413.493 73.3836 414.962 77.3364 416.371 81.3483C416.992 83.1522 417.554 84.9758 418.047 86.8191C418.175 87.3809 418.264 87.933 418.293 88.4948C418.264 86.5924 418.244 84.6998 418.244 82.8269C418.244 79.8697 418.264 76.9125 418.293 73.9553C418.293 70.9982 418.362 68.041 418.491 65.0838C418.52 64.5909 418.619 64.0981 418.786 63.6052C418.786 64.2656 418.786 64.9162 418.786 65.5767C418.786 68.7014 418.717 71.8163 418.589 74.9411C418.422 78.6178 418.855 82.2157 419.871 85.7348C419.94 85.9319 420.048 86.1094 420.216 86.2769Z" fill="#BC5C36"/>
</mask>
<g mask="url(#mask0_853_535)">
<rect y="-71.6211" width="1440" height="182.363" fill="#BC5C36"/>
</g>
</g>
<defs>
<clipPath id="clip0_853_535">
<rect width="1440" height="124" fill="white" transform="translate(0 0.5)"/>
</clipPath>
</defs>
</svg>
