<svg width="1440" height="145" viewBox="0 0 1440 145" fill="none" xmlns="http://www.w3.org/2000/svg">
<g clip-path="url(#clip0_883_626)">
<path d="M468.1 117.725C468.43 118.955 468.7 120.205 468.9 121.475C469 120.105 468.73 118.855 468.1 117.725ZM476.6 108.125C476.37 107.995 476.15 107.825 475.95 107.625C476.05 108.795 476.45 109.675 477.15 110.275C477.32 110.405 477.4 110.645 477.4 110.975C477.73 109.605 477.47 108.655 476.6 108.125ZM1420.8 110.975C1421.7 111.205 1422.03 111.195 1421.8 110.925C1421.47 110.955 1421.13 110.975 1420.8 110.975ZM1714.85 118.825C1712.58 119.025 1710.32 119.245 1708.05 119.475C1706.45 119.645 1704.85 119.805 1703.25 119.975C1707.12 119.975 1710.98 119.975 1714.85 119.975V118.825ZM1271.1 98.4253C1271.27 98.9953 1271.4 99.5753 1271.5 100.175C1271.43 98.7453 1271.27 97.3453 1271 95.9753C1270.83 96.1453 1270.75 96.3053 1270.75 96.4753C1270.75 97.1453 1270.87 97.7953 1271.1 98.4253ZM1398.2 55.9753C1394.83 55.9753 1391.58 56.3753 1388.45 57.1753C1386.25 57.7053 1384.12 58.0453 1382.05 58.1753C1377.82 58.4753 1373.58 58.7453 1369.35 58.9753C1356.25 59.7053 1343.15 60.1753 1330.05 60.3753C1323.95 60.4753 1317.98 61.2453 1312.15 62.6753C1311.05 62.9453 1309.97 63.1953 1308.9 63.4253C1304.1 64.3953 1299.13 64.9053 1294 64.9753C1293.33 64.9753 1292.67 64.9753 1292 64.9753C1289.57 64.9753 1287.15 65.0553 1284.75 65.2253C1282.15 65.4253 1279.58 65.7453 1277.05 66.1753C1276.12 65.8753 1275.12 65.7553 1274.05 65.8253C1270.78 66.0553 1267.62 66.6053 1264.55 67.4753C1263.88 67.6753 1263.2 67.8453 1262.5 67.9753C1260.23 68.4753 1257.9 68.6953 1255.5 68.6253C1254.17 68.6253 1252.83 68.7253 1251.5 68.9253C1251.73 69.1953 1251.4 69.2053 1250.5 68.9753C1250.83 68.9753 1251.17 68.9553 1251.5 68.9253C1251.5 68.4553 1251.33 68.2053 1251 68.1753C1250.2 68.0753 1249.42 68.0053 1248.65 67.9753H1248.5C1248.3 67.9753 1248.1 67.9753 1247.9 67.9753H1247.7C1246.77 68.0053 1245.85 68.1053 1244.95 68.2753C1244.32 68.4053 1243.8 68.3753 1243.4 68.1753C1243.23 68.1053 1243.07 68.0453 1242.9 67.9753C1242.77 67.9453 1242.63 67.9053 1242.5 67.8753C1241.1 67.6753 1239.75 67.7053 1238.45 67.9753C1237.15 68.2753 1235.92 68.8253 1234.75 69.6253C1233.92 70.1953 1233.03 70.7053 1232.1 71.1753C1231.97 71.2453 1231.83 71.3053 1231.7 71.3753C1231.43 71.5053 1231.15 71.6453 1230.85 71.7753C1230.58 71.9053 1230.28 72.0053 1229.95 72.0753C1228.45 72.3453 1227.32 72.0753 1226.55 71.2753C1226.48 71.2053 1226.42 71.1253 1226.35 71.0253C1226.08 70.6553 1225.83 70.2753 1225.6 69.8753C1225.27 69.2753 1225.03 68.6553 1224.9 68.0253C1224.8 67.3553 1224.78 66.6753 1224.85 65.9753C1224.92 65.3053 1224.82 64.7053 1224.55 64.1753C1224.48 64.0453 1224.28 63.9453 1223.95 63.8753C1222.08 63.5053 1220.62 63.9053 1219.55 65.0753C1219.15 65.5053 1218.67 65.8953 1218.1 66.2253C1217.5 66.5553 1216.92 66.9053 1216.35 67.2753C1215.82 67.6053 1215.25 67.8953 1214.65 68.1253C1214.15 68.3253 1213.62 68.4753 1213.05 68.5753C1212.48 68.6753 1211.92 68.9253 1211.35 69.3253C1210.28 70.0953 1209.13 70.6053 1207.9 70.8753C1206.97 71.0753 1205.98 71.1253 1204.95 71.0253C1204.28 70.9953 1203.6 70.9553 1202.9 70.9253C1202.6 70.9253 1202.35 70.8553 1202.15 70.7253C1201.78 70.5253 1201.62 70.1053 1201.65 69.4753C1201.65 69.3053 1201.57 69.1453 1201.4 68.9753C1200.9 68.9753 1200.42 69.0253 1199.95 69.1253C1198.92 69.3553 1197.9 69.6553 1196.9 70.0253C1196.57 70.1553 1196.25 70.3253 1195.95 70.5253C1195.92 70.5553 1195.88 70.5953 1195.85 70.6253C1195.68 70.6953 1195.52 70.7553 1195.35 70.8253C1194.72 71.0953 1194.07 71.3053 1193.4 71.4753C1193.6 71.1453 1193.83 70.8453 1194.1 70.5753C1194.23 70.4053 1194.37 70.2453 1194.5 70.0753C1194.9 69.6753 1195.02 69.2053 1194.85 68.6753C1194.85 68.6453 1194.83 68.5953 1194.8 68.5253C1194.57 67.8553 1194.23 67.0253 1193.8 66.0253C1193.7 65.8253 1193.63 65.6253 1193.6 65.4253C1193.47 64.6253 1193.4 63.8053 1193.4 62.9753C1193.37 61.5453 1193.12 60.2053 1192.65 58.9753C1192.45 58.4453 1192.2 57.9453 1191.9 57.4753C1191.6 57.9753 1191.32 58.4753 1191.05 58.9753C1190.85 59.3053 1190.65 59.6453 1190.45 59.9753C1190.08 60.6453 1189.82 61.3253 1189.65 62.0253C1189.48 62.6553 1189.32 63.2753 1189.15 63.8753C1188.98 64.4453 1188.72 64.9553 1188.35 65.4253C1188.22 65.6253 1188.07 65.8053 1187.9 65.9753C1187.9 65.6453 1187.9 65.3053 1187.9 64.9753C1187.9 64.1453 1187.9 63.3053 1187.9 62.4753C1187.9 61.6453 1187.9 60.8053 1187.9 59.9753C1187.9 59.6453 1187.9 59.3053 1187.9 58.9753C1187.9 58.4753 1187.9 57.9753 1187.9 57.4753C1187.9 57.0053 1187.9 56.5553 1187.9 56.1253C1187.8 56.7553 1187.6 57.3553 1187.3 57.9253C1187.13 58.2553 1186.98 58.6053 1186.85 58.9753C1186.32 60.2453 1186.07 61.5753 1186.1 62.9753C1186.13 63.8053 1186.1 64.6453 1186 65.4753C1185.93 66.1453 1185.9 66.8053 1185.9 67.4753C1185.73 66.9753 1185.6 66.6253 1185.5 66.4253C1185.43 65.7953 1185.37 65.3253 1185.3 65.0253C1185.2 64.6553 1185.08 64.3053 1184.95 63.9753C1184.92 63.8053 1184.9 63.6453 1184.9 63.4753C1184.73 62.8053 1184.57 62.3053 1184.4 61.9753C1184.23 62.6453 1184.07 63.3053 1183.9 63.9753C1183.57 65.1453 1183.23 66.3053 1182.9 67.4753C1182.73 67.9753 1182.55 68.4753 1182.35 68.9753C1182.32 69.0753 1182.28 69.1753 1182.25 69.2753C1182.15 69.5053 1182.05 69.7553 1181.95 70.0253C1181.58 70.1553 1181.3 70.0953 1181.1 69.8253C1180.97 69.6553 1180.85 69.4953 1180.75 69.3253C1180.58 69.0953 1180.42 68.8453 1180.25 68.5753C1179.68 67.6753 1179.17 66.7553 1178.7 65.8253C1178.5 65.4253 1178.37 64.9753 1178.3 64.4753C1178.2 63.7753 1177.9 63.1053 1177.4 62.4753C1177.4 63.3053 1177.4 64.1453 1177.4 64.9753C1177.4 66.4753 1177.35 67.9753 1177.25 69.4753V69.5253C1177.22 69.7553 1177.2 69.9953 1177.2 70.2253C1177.13 70.6253 1177.07 71.0453 1177 71.4753C1176.93 72.1453 1176.9 72.8053 1176.9 73.4753C1176.13 73.2453 1175.57 72.1453 1175.2 70.1753C1175.17 70.0753 1175.15 69.9953 1175.15 69.9253C1175.15 69.8253 1175.13 69.7453 1175.1 69.6753C1174.73 67.7053 1174.18 66.5453 1173.45 66.1753C1172.72 65.8053 1171.93 66.5253 1171.1 68.3253C1170.73 69.0953 1170.43 69.6753 1170.2 70.0753C1170.13 70.1753 1170.07 70.2753 1170 70.3753C1169.87 70.5753 1169.78 70.6053 1169.75 70.4753C1169.72 70.3453 1169.7 70.2053 1169.7 70.0753C1169.6 68.7453 1170.02 67.5953 1170.95 66.6253C1171.22 66.3553 1171.35 65.9753 1171.35 65.4753C1171.18 65.1453 1171.02 64.9753 1170.85 64.9753C1170.68 64.9753 1170.52 64.9753 1170.35 64.9753C1170.18 64.9753 1170.02 64.9753 1169.85 64.9753C1169.68 64.9753 1169.52 64.9753 1169.35 64.9753C1169.02 64.9753 1168.68 64.9753 1168.35 64.9753C1168.35 64.4753 1168.42 63.9953 1168.55 63.5253C1168.58 63.3253 1168.65 63.1253 1168.75 62.9253C1168.82 62.4553 1168.85 62.1453 1168.85 61.9753C1168.85 61.8053 1168.85 61.6453 1168.85 61.4753C1168.68 61.4753 1168.52 61.4753 1168.35 61.4753C1168.18 61.4753 1168.02 61.4753 1167.85 61.4753C1167.35 61.8053 1167 62.1253 1166.8 62.4253C1166.67 62.6253 1166.52 62.8053 1166.35 62.9753C1166.18 63.1453 1166.02 63.3053 1165.85 63.4753C1166.18 62.6453 1166.42 61.7953 1166.55 60.9253C1166.65 60.2953 1166.73 59.6453 1166.8 58.9753C1166.83 58.4753 1166.85 57.9753 1166.85 57.4753C1166.85 56.4753 1166.85 55.4753 1166.85 54.4753C1166.85 53.6453 1166.85 52.8053 1166.85 51.9753C1166.38 53.2753 1165.68 54.4053 1164.75 55.3753C1164.15 55.9453 1163.65 56.6253 1163.25 57.4253C1163.02 57.8953 1162.82 58.3553 1162.65 58.8253C1162.35 57.9953 1161.98 57.1753 1161.55 56.3753C1161.42 56.1053 1161.33 55.8053 1161.3 55.4753C1161.17 54.5053 1160.75 53.5953 1160.05 52.7253C1159.92 52.5553 1159.68 52.5053 1159.35 52.5753C1157.92 52.8453 1157.02 53.7953 1156.65 55.4253C1156.62 55.6253 1156.5 55.7453 1156.3 55.7753C1154.9 56.0053 1154.07 55.5753 1153.8 54.4753C1153.67 53.9753 1153.52 53.4753 1153.35 52.9753C1152.15 53.3053 1151.27 54.1253 1150.7 55.4253C1150.47 55.9553 1150.18 56.4753 1149.85 56.9753C1149.52 56.8053 1149.22 56.5953 1148.95 56.3253C1148.35 55.5953 1147.85 54.7953 1147.45 53.9253C1147.25 53.4553 1147.03 52.9953 1146.8 52.5253C1146.73 52.3553 1146.67 52.2053 1146.6 52.0753C1146.23 51.3453 1145.85 50.6053 1145.45 49.8753C1145.35 49.7053 1145.27 49.5453 1145.2 49.3753C1145.03 49.0753 1144.9 48.7753 1144.8 48.4753C1144.8 50.6453 1144.8 52.8053 1144.8 54.9753C1144.8 55.6453 1144.8 56.3053 1144.8 56.9753C1143.4 56.3453 1142.18 55.2053 1141.15 53.5753C1140.52 52.5753 1139.9 51.5453 1139.3 50.4753C1138.63 51.1453 1138.38 52.3053 1138.55 53.9753C1138.72 55.4753 1138.8 56.9753 1138.8 58.4753C1136.2 55.7453 1134.2 52.7453 1132.8 49.4753C1132.2 50.5453 1131.98 52.0453 1132.15 53.9753C1132.25 55.3053 1132.3 56.6453 1132.3 57.9753C1131.37 56.5753 1130.35 55.0953 1129.25 53.5253C1129.12 53.3253 1128.98 53.1253 1128.85 52.9253C1128.65 52.6253 1128.47 52.3053 1128.3 51.9753C1128.3 54.3053 1128.25 56.6453 1128.15 58.9753C1128.12 59.6453 1128.08 60.3053 1128.05 60.9753C1128.05 61.1453 1127.97 61.3053 1127.8 61.4753C1127.7 60.5753 1127.52 59.7453 1127.25 58.9753C1127.18 58.7753 1127.1 58.5753 1127 58.3753C1126.53 57.2753 1126.13 56.1453 1125.8 54.9753C1125.47 55.3053 1125.2 55.6753 1125 56.0753C1124.53 56.9753 1124.28 57.9453 1124.25 58.9753C1124.22 59.3053 1124.22 59.6453 1124.25 59.9753L1124.3 60.4753C1123.1 60.4753 1121.95 60.2053 1120.85 59.6753C1120.42 59.4753 1120.02 59.2453 1119.65 58.9753C1119.15 58.6753 1118.68 58.3253 1118.25 57.9253C1117.72 57.4553 1117.2 56.9753 1116.7 56.4753C1116.53 56.3053 1116.38 56.1253 1116.25 55.9253C1116.05 55.6253 1115.87 55.3053 1115.7 54.9753C1115.9 56.3053 1116.13 57.6453 1116.4 58.9753C1116.63 60.1453 1116.88 61.3053 1117.15 62.4753C1117.18 62.6453 1117.2 62.8053 1117.2 62.9753C1117.23 63.2053 1116.85 62.5753 1116.05 61.0753C1115.65 60.3453 1115.15 59.6953 1114.55 59.1253C1114.52 59.0553 1114.47 59.0053 1114.4 58.9753C1113.87 58.4453 1113.33 57.9053 1112.8 57.3753C1112.57 57.1053 1112.32 56.8553 1112.05 56.6253C1111.82 56.6953 1111.7 56.8053 1111.7 56.9753C1111.7 57.6453 1111.7 58.3053 1111.7 58.9753C1111.7 59.9753 1111.7 60.9753 1111.7 61.9753C1111.47 60.9053 1111.08 59.9053 1110.55 58.9753C1110.35 58.6053 1110.12 58.2453 1109.85 57.8753C1109.42 57.2753 1108.95 56.7253 1108.45 56.2253C1108.28 56.0553 1108.03 55.9753 1107.7 55.9753C1107.7 56.9753 1107.7 57.9753 1107.7 58.9753C1107.7 59.3053 1107.7 59.6453 1107.7 59.9753C1107.7 60.6453 1107.7 61.3053 1107.7 61.9753C1106.7 60.9753 1105.75 59.9753 1104.85 58.9753C1103.35 57.3053 1101.97 55.6453 1100.7 53.9753C1100.97 55.3453 1101.13 56.7453 1101.2 58.1753C1101.1 57.5753 1100.97 56.9953 1100.8 56.4253C1100.57 55.7953 1100.45 55.1453 1100.45 54.4753C1100.45 54.3053 1100.53 54.1453 1100.7 53.9753C1100.37 53.4753 1100.2 52.9753 1100.2 52.4753C1099.53 52.8053 1099.2 53.6453 1099.2 54.9753C1099.2 55.8053 1099.1 56.6553 1098.9 57.5253C1098.8 58.0253 1098.68 58.5053 1098.55 58.9753C1098.45 59.3053 1098.33 59.6453 1098.2 59.9753C1097.6 59.7753 1097.1 59.4453 1096.7 58.9753C1096.1 58.2753 1095.77 57.2753 1095.7 55.9753C1095.7 55.6453 1095.5 55.4253 1095.1 55.3253C1094.83 55.2553 1094.52 55.3053 1094.15 55.4753C1093.58 55.7453 1093.42 56.4053 1093.65 57.4753C1093.32 57.4753 1093.05 57.3953 1092.85 57.2253C1092.38 56.8953 1092.03 56.4553 1091.8 55.9253C1091.07 54.3953 1090.3 54.0253 1089.5 54.8253C1089.1 55.2553 1088.8 55.8053 1088.6 56.4753C1088.37 57.2753 1088.13 58.1053 1087.9 58.9753C1087.83 59.1053 1087.78 59.2453 1087.75 59.3753C1087.68 59.6053 1087.48 59.8053 1087.15 59.9753C1086.62 59.7453 1086.2 59.4053 1085.9 58.9753C1085.53 58.4753 1085.32 57.8453 1085.25 57.0753C1085.18 56.3453 1084.9 55.5953 1084.4 54.8253C1084.23 54.5953 1084.15 54.3053 1084.15 53.9753C1083.08 54.2453 1082.67 55.0953 1082.9 56.5253C1083.03 57.3253 1083.12 58.1453 1083.15 58.9753C1083.15 59.1453 1083.15 59.3053 1083.15 59.4753C1082.95 59.3053 1082.78 59.1453 1082.65 58.9753C1081.92 58.2453 1081.33 57.2753 1080.9 56.0753C1080.73 55.6753 1080.52 55.2953 1080.25 54.9253C1080.02 54.6253 1079.82 54.3053 1079.65 53.9753C1078.38 55.3753 1077.52 56.9953 1077.05 58.8253C1077.05 58.8953 1077.05 58.9453 1077.05 58.9753C1076.75 60.0053 1076.35 61.0453 1075.85 62.0753C1075.55 62.6753 1075.27 63.2753 1075 63.8753C1074.73 64.4453 1074.28 64.6453 1073.65 64.4753C1073.28 63.9053 1073.02 63.0553 1072.85 61.9253C1072.68 60.9953 1072.45 60.1753 1072.15 59.4753C1071.98 59.8053 1071.85 60.0253 1071.75 60.1253C1071.68 60.5253 1071.65 60.8053 1071.65 60.9753C1071.22 60.4053 1070.92 59.7453 1070.75 58.9753C1070.68 58.6753 1070.65 58.3453 1070.65 57.9753C1070.65 57.6453 1070.47 57.3253 1070.1 57.0253C1069 56.0953 1068.22 56.2553 1067.75 57.5253C1067.55 58.0253 1067.33 58.5053 1067.1 58.9753C1066.8 59.5053 1066.47 60.0053 1066.1 60.4753C1066.13 59.9753 1066.15 59.4753 1066.15 58.9753C1066.05 57.7053 1065.72 56.5453 1065.15 55.4753C1064.85 54.9053 1064.27 54.9053 1063.4 55.4753C1062.87 55.8053 1062.43 56.3053 1062.1 56.9753C1061.93 57.3053 1061.77 57.6453 1061.6 57.9753C1060.87 57.7053 1060.32 57.1253 1059.95 56.2253C1059.88 56.0553 1059.6 56.0253 1059.1 56.1253C1057.73 56.3553 1056.73 57.3053 1056.1 58.9753C1056.1 58.1453 1056.1 57.3053 1056.1 56.4753C1056.1 55.6453 1056.1 54.8053 1056.1 53.9753C1054.73 54.2753 1053.93 55.2553 1053.7 56.9253C1053.63 57.4553 1053.37 57.8953 1052.9 58.2253C1052.7 58.3953 1052.43 58.4753 1052.1 58.4753C1051.5 58.2453 1051.3 57.5753 1051.5 56.4753C1051.67 55.4753 1051.37 54.6453 1050.6 53.9753C1049.1 55.5753 1047.85 57.2453 1046.85 58.9753C1045.85 59.3053 1044.93 59.8053 1044.1 60.4753C1043.93 60.6453 1043.78 60.8253 1043.65 61.0253C1043.28 61.4953 1042.93 61.9753 1042.6 62.4753C1042.6 61.9753 1042.6 61.4753 1042.6 60.9753C1042.6 60.3053 1042.53 59.6553 1042.4 59.0253V58.9753C1042.37 58.8053 1042.27 58.6453 1042.1 58.4753C1041.77 58.4753 1041.52 58.5553 1041.35 58.7253C1041.28 58.7953 1041.2 58.8753 1041.1 58.9753C1040.53 59.5753 1040.05 60.2453 1039.65 60.9753C1038.65 62.7453 1038.12 64.5753 1038.05 66.4753C1037.72 66.1453 1037.42 65.7953 1037.15 65.4253C1035.78 63.6253 1034.85 61.6553 1034.35 59.5253C1034.32 59.3253 1034.22 59.1453 1034.05 58.9753C1033.88 59.1453 1033.78 59.3253 1033.75 59.5253C1033.62 60.6553 1033.48 61.7953 1033.35 62.9253C1033.32 63.1253 1033.22 63.3053 1033.05 63.4753C1032.22 63.0053 1031.8 62.0053 1031.8 60.4753C1031.8 60.1453 1031.68 59.8253 1031.45 59.5253C1031.32 59.3253 1031.18 59.1453 1031.05 58.9753C1030.88 58.8053 1030.72 58.6453 1030.55 58.4753C1030.55 58.6453 1030.53 58.8053 1030.5 58.9753C1030.13 61.6053 1028.47 62.7953 1025.5 62.5253C1025.03 62.4953 1024.62 62.6953 1024.25 63.1253C1023.95 63.5253 1023.67 63.9453 1023.4 64.3753C1022.97 64.9753 1022.35 65.2053 1021.55 65.0753C1021.05 65.0053 1020.55 64.9753 1020.05 64.9753C1019.42 64.9453 1018.85 64.6953 1018.35 64.2253C1018.15 64.0553 1017.88 63.9753 1017.55 63.9753C1015.98 63.9753 1014.47 64.0453 1013 64.1753C1012.7 64.2053 1012.35 64.1953 1011.95 64.1253C1009.15 63.5953 1006.87 64.3953 1005.1 66.5253C1004.93 66.7253 1004.77 66.9453 1004.6 67.1753C1003.87 68.2053 1002.97 69.0953 1001.9 69.8253C1001.23 70.2953 1000.57 70.7453 999.9 71.1753C997.77 70.2053 995.65 69.2953 993.55 68.4253C993.22 68.2953 992.87 68.1953 992.5 68.1253C990.83 67.8253 989.27 67.1753 987.8 66.1753C987.53 65.9753 987.27 65.7753 987 65.5753C986.7 65.3453 986.38 65.2053 986.05 65.1753C984.25 65.0053 982.62 65.2953 981.15 66.0253C980.02 66.5953 978.98 67.4253 978.05 68.5253C977.35 69.3253 976.65 70.1253 975.95 70.9253C974.85 72.2253 973.68 72.8453 972.45 72.7753C971.65 72.7453 970.88 73.0453 970.15 73.6753C969.12 74.5453 968.23 75.4753 967.5 76.4753C967.1 76.2453 966.65 75.8753 966.15 75.3753C965.88 75.1053 965.5 74.9953 965 75.0253C960.7 75.2553 956.5 75.0553 952.4 74.4253C951.83 74.3553 951.65 73.8753 951.85 72.9753C951.98 72.4053 952.33 72.0753 952.9 71.9753C952.23 71.4453 951.4 71.2053 950.4 71.2753C948.73 71.4053 947.12 71.6953 945.55 72.1253C944.62 72.3553 943.72 72.7753 942.85 73.3753C940.58 74.9453 938.27 75.9753 935.9 76.4753C935.73 76.1453 935.7 75.8053 935.8 75.4753C935.87 75.3053 935.9 75.1453 935.9 74.9753C936.07 74.6453 936.18 74.4453 936.25 74.3753C936.52 73.9453 936.73 73.6453 936.9 73.4753C936.67 72.8753 936 72.6453 934.9 72.7753C933.73 72.9053 932.57 73.0453 931.4 73.1753C929.97 73.3453 928.6 73.5453 927.3 73.7753C926.67 73.9053 926.02 73.9953 925.35 74.0253C922.98 74.1253 921.88 72.9453 922.05 70.4753C922.08 70.1453 921.98 69.8453 921.75 69.5753C920.88 68.7453 919.93 68.7253 918.9 69.5253C918.53 69.8253 918.15 70.0753 917.75 70.2753C917.48 70.4053 917.18 70.4453 916.85 70.3753C913.32 69.5753 909.87 69.8053 906.5 71.0753C904.97 70.0453 903.47 68.9553 902 67.8253C901.7 67.5953 901.32 67.4053 900.85 67.2753C900.32 67.0753 899.83 66.7753 899.4 66.3753C899 65.9453 898.62 65.4953 898.25 65.0253C898.05 64.7553 897.87 64.4953 897.7 64.2253C897.63 64.1253 897.57 64.0053 897.5 63.8753C897.37 63.6053 897.22 63.3953 897.05 63.2253C896.88 63.0553 896.63 62.9753 896.3 62.9753C893.47 62.9753 890.65 63.1253 887.85 63.4253C887.52 63.4553 887.25 63.6553 887.05 64.0253C887.02 64.0253 887 64.0453 887 64.0753C886.7 64.6753 886.35 65.2053 885.95 65.6753C885.52 66.2053 884.95 66.6253 884.25 66.9253C881.85 67.9553 879.4 68.8453 876.9 69.5753C876.37 69.2753 875.82 68.9053 875.25 68.4753C872.95 66.6053 870.28 65.8953 867.25 66.3253C866.42 66.4253 865.6 66.5453 864.8 66.6753C863.53 66.8453 862.37 67.2953 861.3 68.0253C860.6 68.4953 859.88 68.8553 859.15 69.1253C858.55 69.3553 857.92 69.5253 857.25 69.6253C856.52 69.7553 856.18 69.5453 856.25 68.9753C856.28 68.4453 855.95 68.2053 855.25 68.2753C853.08 68.4053 850.92 68.4053 848.75 68.2753C845.42 68.1053 842.2 68.3953 839.1 69.1253C837.5 69.5253 835.88 69.8953 834.25 70.2253C833.58 70.3553 832.92 70.4953 832.25 70.6253C831.75 70.5253 831.23 70.4553 830.7 70.4253C830.07 70.4253 829.62 70.2453 829.35 69.8753C828.78 69.1053 828.07 68.7253 827.2 68.7253C826.53 68.7253 825.87 68.6753 825.2 68.5753C824.7 68.5053 824.25 68.3753 823.85 68.1753C823.58 68.0453 823.35 67.8253 823.15 67.5253C823.02 67.3253 822.87 67.2253 822.7 67.2253C817.93 66.8553 813.27 67.1953 808.7 68.2253C808 68.3953 807.3 68.5553 806.6 68.7253C805.97 68.8953 805.32 68.9553 804.65 68.9253C800.48 68.8253 796.3 68.6253 792.1 68.3253C788.4 68.0553 784.9 68.4553 781.6 69.5253C781.27 69.6553 780.93 69.7253 780.6 69.7253C780.27 69.7253 779.93 69.7053 779.6 69.6753C774.17 69.3053 768.73 69.4553 763.3 70.1253C763.33 69.9253 763.37 69.7053 763.4 69.4753C763.83 67.1753 763 66.4453 760.9 67.2753C760.13 67.5753 759.33 67.8053 758.5 67.9753C757.67 68.1453 756.85 68.3753 756.05 68.6753C755.52 68.8753 755 69.1453 754.5 69.4753C754.97 67.6453 754.47 66.7053 753 66.6753C751.4 66.6453 749.95 67.0953 748.65 68.0253C748.22 68.3253 747.67 68.5253 747 68.6253C745.73 68.7953 744.97 68.5453 744.7 67.8753C744.57 67.6053 744.5 67.3053 744.5 66.9753C744.47 66.3453 743.95 66.1253 742.95 66.3253C739.72 66.9953 736.55 67.8753 733.45 68.9753C732.72 68.9053 732.38 68.5753 732.45 67.9753H731.45C730.02 67.9453 728.65 68.2053 727.35 68.7753C727.08 68.9053 726.78 68.9453 726.45 68.8753C724.45 68.5453 722.75 69.0453 721.35 70.3753C720.28 71.4453 718.98 72.1453 717.45 72.4753C717.65 70.7453 716.83 70.1253 715 70.6253C713.83 70.9253 712.92 70.7953 712.25 70.2253C712.05 70.0553 711.78 69.9553 711.45 69.9253C708.38 69.7253 705.62 70.6253 703.15 72.6253C702.65 73.0253 702.1 73.3753 701.5 73.6753C700.77 74.0453 700.07 74.4753 699.4 74.9753C698.8 74.7453 698.57 74.0553 698.7 72.9253C698.83 72.1253 698.87 71.3053 698.8 70.4753C698.77 69.9053 698.3 69.7053 697.4 69.8753C696.37 70.0753 695.45 69.8953 694.65 69.3253C694.32 69.0953 693.9 68.9753 693.4 68.9753C691.4 68.9453 689.47 69.2753 687.6 69.9753C686.57 69.2753 685.53 68.5553 684.5 67.8253C683.9 67.4253 683.32 67.0253 682.75 66.6253C682.32 66.3553 681.87 66.1053 681.4 65.8753C680.6 65.4453 679.87 64.8553 679.2 64.1253C679.17 64.0953 679.13 64.0553 679.1 64.0253C678.9 63.8253 678.65 63.7253 678.35 63.7253C677.52 63.7253 676.73 63.8453 676 64.0753C675.67 64.1453 675.33 64.2453 675 64.3753C673.57 64.9453 672.18 65.6453 670.85 66.4753C669.12 67.6053 667.28 68.2753 665.35 68.4753C664.05 68.6053 663.02 68.5453 662.25 68.2753C661.65 68.0753 661.03 68.0553 660.4 68.2253C659.7 68.3953 659.05 68.6753 658.45 69.0753C656.82 70.1753 655.13 70.8453 653.4 71.0753C652.67 71.1753 651.93 71.4053 651.2 71.7753C650.27 72.2453 649.3 72.6453 648.3 72.9753C646.8 73.4453 645.6 73.7553 644.7 73.9253C644.6 73.9553 644.42 73.8553 644.15 73.6253C643.22 72.8253 642.1 72.4253 640.8 72.4253C634.93 72.4553 629.08 72.7053 623.25 73.1753C622.88 73.2053 622.53 73.4753 622.2 73.9753C621.4 75.2053 620.42 75.7453 619.25 75.5753C618.88 75.5053 618.57 75.2953 618.3 74.9253C617.3 73.5253 616.1 72.7553 614.7 72.6253C613.7 72.5253 612.8 72.2753 612 71.8753C611.47 71.6053 610.97 71.1953 610.5 70.6253C610.13 70.1953 609.68 69.9253 609.15 69.8253C608.85 69.7553 608.55 69.8253 608.25 70.0253C607.08 70.8253 606.15 70.8953 605.45 70.2253C605.12 69.8953 604.73 69.7753 604.3 69.8753C603.9 69.9453 603.53 70.1453 603.2 70.4753C602.53 70.4753 602.07 70.2753 601.8 69.8753C601.13 68.7753 600.08 68.3453 598.65 68.5753C597.12 68.8053 595.8 68.4253 594.7 67.4253C593.33 66.1253 592.07 66.0553 590.9 67.2253C590.73 67.3953 590.5 67.4253 590.2 67.3253C590 67.2553 589.8 67.2053 589.6 67.1753C589.1 67.0453 588.62 66.9753 588.15 66.9753C587.48 66.9753 586.98 66.8053 586.65 66.4753C586.15 65.9753 585.82 65.3053 585.65 64.4753C585.38 63.0753 584.72 62.0753 583.65 61.4753C583.65 61.6453 583.65 61.8053 583.65 61.9753C583.65 62.6453 583.65 63.3053 583.65 63.9753C583.65 64.4753 583.65 64.9753 583.65 65.4753C583.65 65.6453 583.65 65.8053 583.65 65.9753C583.15 65.6453 582.72 65.2553 582.35 64.8253C581.88 64.2553 581.45 63.6753 581.05 63.0753C580.78 62.6753 580.48 62.3053 580.15 61.9753C580.38 64.5453 579.38 65.7953 577.15 65.7253C576.98 65.7253 576.85 65.6253 576.75 65.4253C576.35 64.7553 575.63 64.3553 574.6 64.2253C574.43 64.2253 574.25 64.2453 574.05 64.2753C573.08 64.4053 572.1 64.4953 571.1 64.5253C569.1 64.5953 567.22 64.9253 565.45 65.5253C564.55 65.8253 563.6 66.0053 562.6 66.0753C561.7 66.1453 560.83 66.3553 560 66.7253C559.57 66.8953 559.1 66.9753 558.6 66.9753C557.47 66.9453 557.12 66.1053 557.55 64.4753C558.05 62.6753 557.48 62.1753 555.85 62.9753C555.18 63.3053 554.57 63.7753 554 64.3753C553.13 65.2053 552.3 65.8453 551.5 66.2753C551.23 66.4053 550.93 66.4953 550.6 66.5253C547.17 66.6953 543.82 66.5753 540.55 66.1753C539.92 66.0753 539.48 66.3553 539.25 67.0253C538.95 67.7553 538.5 68.3253 537.9 68.7253C537.67 68.8953 537.38 68.9753 537.05 68.9753C534.95 69.0753 533.22 68.2953 531.85 66.6253C531.65 66.3553 531.38 66.1253 531.05 65.9253C529.85 65.1953 528.97 65.1553 528.4 65.8253C527.53 66.8553 526.42 67.2453 525.05 66.9753C524.28 66.8453 523.57 66.6253 522.9 66.3253C522.33 66.0953 521.73 66.0453 521.1 66.1753C520.9 66.2053 520.72 66.2253 520.55 66.2253C518.72 66.3253 516.88 66.3953 515.05 66.4253C511.98 69.1253 508.62 71.4453 504.95 73.3753C504.15 73.7753 503.32 74.1053 502.45 74.3753C500.72 74.9753 498.9 75.2453 497 75.1753C495.9 75.1453 495.48 74.3953 495.75 72.9253C495.92 72.1253 496.12 71.3453 496.35 70.5753C496.45 70.1753 496.68 69.8253 497.05 69.5253C497.38 69.2553 497.75 68.7753 498.15 68.0753C498.38 67.6753 498.67 67.3053 499 66.9753C495.07 69.6753 491.22 72.0053 487.45 73.9753C487.12 74.1453 486.77 74.2753 486.4 74.3753C486.1 74.4453 485.78 74.4753 485.45 74.4753C485.12 72.2053 485.73 70.3253 487.3 68.8253C487.73 68.4253 488.1 67.9553 488.4 67.4253C489.6 65.3253 490.48 63.1453 491.05 60.8753C491.22 60.0753 491.35 59.2753 491.45 58.4753C489.88 58.3753 488.52 59.0053 487.35 60.3753C487.25 60.5053 487.15 60.6453 487.05 60.7753C485.15 62.9753 483.17 64.9453 481.1 66.6753C480.83 66.8753 480.58 67.1253 480.35 67.4253C479.82 68.0953 479.22 68.5453 478.55 68.7753C478.15 68.9053 477.75 69.1053 477.35 69.3753C476.92 69.4453 476.68 69.4553 476.65 69.4253C476.52 68.9553 476.52 68.5053 476.65 68.0753C476.85 67.8453 476.95 67.6453 476.95 67.4753C476.95 67.3053 476.95 67.1453 476.95 66.9753C476.95 66.8053 476.95 66.6453 476.95 66.4753C476.62 66.6453 476.35 66.8553 476.15 67.1253C474.78 68.8553 473.05 70.1253 470.95 70.9253C470.45 71.1253 469.95 71.3053 469.45 71.4753C469.95 70.6453 470.35 69.9253 470.65 69.3253C470.85 68.9253 471 68.4953 471.1 68.0253C471.27 67.0953 471.55 66.2453 471.95 65.4753C471.45 65.1453 470.98 65.0553 470.55 65.2253C469.82 65.5553 469.08 65.8953 468.35 66.2253C467.92 66.3953 467.45 66.4753 466.95 66.4753C466.62 65.6453 466.48 64.8053 466.55 63.9753C466.62 63.2753 466.7 62.5953 466.8 61.9253C466.83 61.5953 466.87 61.2753 466.9 60.9753C466.93 60.6453 466.95 60.3053 466.95 59.9753C466.78 60.1453 466.65 60.3253 466.55 60.5253C466.32 61.0953 466.02 61.6053 465.65 62.0753C464.92 63.0053 463.98 63.7953 462.85 64.4253C462.22 64.7953 461.55 65.0953 460.85 65.3253C460.55 65.4253 460.23 65.4753 459.9 65.4753C460.07 64.5753 460.08 63.7453 459.95 62.9753C459.78 62.0753 459.45 61.2453 458.95 60.4753C458.42 59.6753 457.65 59.7553 456.65 60.7253C456.48 60.8953 456.23 60.9753 455.9 60.9753C453.2 60.8453 450.55 60.9053 447.95 61.1753C447.42 61.2053 446.9 61.4753 446.4 61.9753C445.13 63.1753 443.63 63.7053 441.9 63.5753C440.9 63.5053 439.9 63.4053 438.9 63.2753C438.57 63.2453 438.22 63.1753 437.85 63.0753C436.88 62.8453 436 62.3553 435.2 61.6253C434.2 60.7553 433.57 60.8753 433.3 61.9753C433.03 62.9453 432.37 63.3253 431.3 63.1253C430.67 63.0253 430.03 62.9053 429.4 62.7753C429.2 62.7453 429.02 62.7253 428.85 62.7253C427.18 62.5553 425.52 62.4753 423.85 62.4753C423.18 62.4753 422.52 62.4253 421.85 62.3253C421.48 62.2553 421.15 62.2253 420.85 62.2253C417.52 62.0553 414.18 61.9753 410.85 61.9753C410.48 61.9753 410.15 61.9253 409.85 61.8253C409.65 61.7553 409.48 61.7453 409.35 61.7753C408.82 61.9053 408.32 62.1553 407.85 62.5253C407.02 63.1253 406.6 63.9453 406.6 64.9753C406.57 65.1453 406.57 65.3053 406.6 65.4753C406.73 66.4053 406.3 66.7953 405.3 66.6253C404.63 66.5253 403.97 66.4253 403.3 66.3253C402 66.1553 400.83 65.7053 399.8 64.9753C399.8 65.8053 399.8 66.6453 399.8 67.4753C399.8 68.3053 399.62 69.0253 399.25 69.6253C399.12 69.8553 398.8 69.9453 398.3 69.8753C397.17 69.7453 396 69.6953 394.8 69.7253C394.63 69.7253 394.47 69.8053 394.3 69.9753C394.7 67.9053 393.85 66.9753 391.75 67.1753C391.28 67.2053 390.83 67.0953 390.4 66.8253C389.17 66.1553 387.8 65.9253 386.3 66.1253C385.63 66.2253 384.93 66.4253 384.2 66.7253C383.77 66.8953 383.28 66.9953 382.75 67.0253C379.38 67.1253 376.2 66.8453 373.2 66.1753C372.57 66.0453 371.95 65.8953 371.35 65.7253C370.78 65.5553 370.23 65.3253 369.7 65.0253L369.65 64.9753C369.08 64.6753 368.47 64.4553 367.8 64.3253C367.43 64.2553 367.08 64.1453 366.75 63.9753C366.75 64.3053 366.75 64.6453 366.75 64.9753C366.75 65.6453 366.75 66.3053 366.75 66.9753C366.75 67.6453 366.7 68.3053 366.6 68.9753C366.53 69.4753 366.42 69.9753 366.25 70.4753C364.65 70.6453 363.67 69.8453 363.3 68.0753C363.27 67.8453 363.07 67.6953 362.7 67.6253C361.8 67.4553 361.15 67.9053 360.75 68.9753C360.42 69.8753 359.77 70.3553 358.8 70.4253C358.27 70.4553 357.75 70.6453 357.25 70.9753C356.25 71.6753 355.2 72.4753 354.1 73.3753C352.87 74.3753 351.4 74.7953 349.7 74.6253C348.7 74.5253 347.7 74.4753 346.7 74.4753C347.03 73.8053 347.37 73.3053 347.7 72.9753C347.87 72.8053 348 72.6253 348.1 72.4253C348.33 71.9553 348.52 71.4753 348.65 70.9753C348.68 70.8053 348.7 70.6453 348.7 70.4753C348.37 70.4753 348.03 70.4753 347.7 70.4753C347.37 70.4753 347.03 70.4753 346.7 70.4753C345.87 70.4753 345.05 70.4053 344.25 70.2753C343.28 70.1453 342.65 70.2953 342.35 70.7253C342.25 70.8953 342.07 70.9053 341.8 70.7753C342.07 70.2453 342.27 69.7753 342.4 69.3753C340.47 69.2053 338.98 69.6553 337.95 70.7253C338.12 70.3953 338.2 70.1453 338.2 69.9753C337.7 70.4753 337.17 70.9453 336.6 71.3753C335.83 71.9453 335.37 72.6453 335.2 73.4753C334.37 73.2453 334.28 72.6753 334.95 71.7753C335.12 71.5753 335.2 71.3053 335.2 70.9753V70.4753C333.7 70.6453 332.28 71.1053 330.95 71.8753C329.95 72.4453 329.02 73.1453 328.15 73.9753C327.55 74.5453 326.93 75.1253 326.3 75.7253C326.4 75.6253 326.47 75.5253 326.5 75.4253C326.57 74.9553 326.63 74.6753 326.7 74.5753C326.63 74.5053 326.52 74.3953 326.35 74.2253C326.18 74.0553 326 74.0553 325.8 74.2253C325.17 74.7253 324.58 75.3053 324.05 75.9753C323.98 76.0453 323.93 76.1053 323.9 76.1753C323.47 76.0453 323.03 75.9253 322.6 75.8253C321.83 75.6253 321.07 75.4553 320.3 75.3253C318.77 74.9953 317.23 74.7553 315.7 74.6253C314.47 74.4953 313.22 74.4253 311.95 74.4253C307.08 74.3553 302.22 74.3053 297.35 74.2753C297.12 74.2753 296.88 74.2753 296.65 74.2753C294.88 74.2453 293.12 74.2253 291.35 74.2253C289.95 74.1953 288.53 74.1753 287.1 74.1753C284.7 74.1753 282.3 74.1553 279.9 74.1253C279.07 74.1253 278.23 74.1253 277.4 74.1253C271.9 74.0953 266.42 74.0553 260.95 74.0253C251.92 73.9953 242.87 73.9753 233.8 73.9753C226.47 73.9753 219.12 74.2553 211.75 74.8253C207.35 75.1953 203.35 74.2253 199.75 71.9253C198.78 71.2953 197.8 70.8053 196.8 70.4753C196.7 70.4053 196.62 70.3753 196.55 70.3753C195.55 70.0453 194.57 69.8453 193.6 69.7753C192.9 69.7453 192.17 69.7053 191.4 69.6753C190.7 69.6053 190 69.5553 189.3 69.5253C188.13 69.4553 186.97 69.3953 185.8 69.3253C185.3 69.2953 184.8 69.2753 184.3 69.2753C180.1 69.0453 175.9 68.8453 171.7 68.6753C165.07 68.4053 158.47 68.2253 151.9 68.1253C148.47 68.0553 145.05 68.0253 141.65 68.0253C139.62 67.9953 137.58 67.9753 135.55 67.9753C133.05 67.9753 130.57 67.9753 128.1 67.9753C126.6 67.9753 125.12 67.9753 123.65 67.9753C122.05 67.9753 120.45 67.9753 118.85 67.9753H118.65C118.45 67.9753 118.25 67.9753 118.05 67.9753H117.9C113.3 67.9753 108.68 67.9753 104.05 67.9753C89.8501 67.9753 75.6501 67.9753 61.4501 67.9753C58.7801 67.9753 56.1301 67.7453 53.5001 67.2753C48.9001 66.4453 44.2501 65.7753 39.5501 65.2753C38.2801 65.1453 37.0201 65.0253 35.7501 64.9253C32.1801 64.5553 28.5701 64.3053 24.9001 64.1753C24.1001 64.1453 23.3001 64.1053 22.5001 64.0753C20.7701 64.0053 19.0301 63.9753 17.3001 63.9753C15.9701 63.9753 14.7701 63.7053 13.7001 63.1753C12.1001 62.3753 10.5201 61.7753 8.9501 61.3753C5.1801 60.4453 1.3201 59.7453 -2.6499 59.2753C-10.4199 58.3753 -18.4499 57.9453 -26.7499 57.9753C-28.7799 57.9753 -30.6999 57.6753 -32.4999 57.0753C-34.6999 56.3453 -36.8799 55.8053 -39.0499 55.4753C-44.5499 54.6453 -49.8299 53.5553 -54.8999 52.2253C-57.0299 51.6553 -59.1999 51.1753 -61.3999 50.7753C-67.3999 49.6753 -73.6499 49.1253 -80.1499 49.1253C-80.3499 49.0953 -80.5299 49.0953 -80.6999 49.1253C-81.3999 49.1253 -82.1299 49.1253 -82.8999 49.1253C-85.2699 49.1953 -87.6299 49.2453 -89.9999 49.2753C-91.0999 49.3053 -92.1999 49.3453 -93.2999 49.3753C-94.1699 49.3753 -95.0199 49.3953 -95.8499 49.4253C-96.3199 49.4253 -96.7699 49.4253 -97.1999 49.4253C-104.7 49.5553 -112.2 49.6753 -119.7 49.7753C-129.9 49.8753 -140.12 49.9553 -150.35 50.0253L-156.95 49.9753C-157.65 49.9753 -158.33 49.9753 -159 49.9753C-160 49.9753 -161 49.9753 -162 49.9753H-174.8C-184.9 49.9053 -195.02 49.8053 -205.15 49.6753V104.825C-204.45 104.925 -203.73 105.045 -203 105.175C-199.77 105.705 -196.48 105.905 -193.15 105.775C-186.08 105.445 -179.23 106.425 -172.6 108.725C-170.23 109.555 -167.75 110.155 -165.15 110.525C-163.05 110.825 -160.98 111.055 -158.95 111.225C-152.32 111.725 -145.68 112.255 -139.05 112.825C-137.68 112.925 -136.3 113.005 -134.9 113.075C-120.27 113.675 -105.6 113.975 -90.8999 113.975C-88.8999 113.975 -86.9699 113.745 -85.0999 113.275C-84.2999 113.075 -83.5699 112.955 -82.8999 112.925C-57.4999 112.295 -32.1199 111.975 -6.74991 111.975C-4.07991 111.975 -1.4499 111.705 1.1501 111.175C15.4201 108.205 30.1801 106.045 45.4501 104.675C50.7501 104.205 56.0801 103.975 61.4501 103.975C86.8201 103.975 112.2 103.975 137.6 103.975C161.63 103.975 185.67 104.155 209.7 104.525C220.43 104.695 231.13 104.945 241.8 105.275C257.17 105.745 272.52 105.695 287.85 105.125C297.62 104.795 306.97 105.805 315.9 108.175C330.9 112.205 346.28 114.195 362.05 114.125C387.32 114.025 412.62 114.505 437.95 115.575C438.68 115.605 439.43 115.645 440.2 115.675C442.87 115.775 445.55 116.075 448.25 116.575C449.12 116.705 449.98 116.875 450.85 117.075C450.68 116.875 450.53 116.655 450.4 116.425C450.33 116.325 450.27 116.225 450.2 116.125C449.37 114.925 448.62 113.695 447.95 112.425C447.72 111.955 447.52 111.475 447.35 110.975C447.68 111.145 448 111.345 448.3 111.575C448.67 111.845 449.05 112.055 449.45 112.225C450.45 112.695 451.4 113.145 452.3 113.575C454.03 114.405 455.73 115.275 457.4 116.175C458.93 117.005 460.45 117.895 461.95 118.825C462.38 119.095 462.85 119.305 463.35 119.475C462.72 118.405 462.15 117.325 461.65 116.225C461.18 115.155 460.8 114.055 460.5 112.925C460.43 112.655 460.35 112.405 460.25 112.175C462.75 112.975 464.93 114.275 466.8 116.075C466.87 116.145 466.93 116.205 467 116.275C467.43 116.705 467.8 117.195 468.1 117.725C467.97 117.225 467.83 116.745 467.7 116.275C466.9 113.745 465.82 111.295 464.45 108.925C464.12 108.355 463.75 107.845 463.35 107.375C463.52 107.405 463.68 107.445 463.85 107.475C464.72 107.645 465.52 107.905 466.25 108.275C469.08 109.605 471.63 111.345 473.9 113.475C473.57 113.145 473.32 112.775 473.15 112.375C472.55 110.975 472.07 109.525 471.7 108.025C471.5 107.155 471.28 106.295 471.05 105.425C470.62 103.795 470.73 102.645 471.4 101.975C472.97 103.275 474.32 104.925 475.45 106.925C475.58 107.195 475.75 107.425 475.95 107.625C475.95 107.555 475.95 107.505 475.95 107.475C475.95 107.175 475.92 106.875 475.85 106.575C476.08 106.805 476.33 107.045 476.6 107.275C476.93 107.545 477.3 107.645 477.7 107.575C478.03 108.405 478.4 109.225 478.8 110.025C479.37 111.195 480.25 111.945 481.45 112.275C481.92 112.405 482.25 112.355 482.45 112.125C483.65 110.725 484.13 109.005 483.9 106.975C484.23 106.975 484.55 107.005 484.85 107.075C485.22 107.175 485.47 107.355 485.6 107.625C485.77 108.025 485.9 108.475 486 108.975C486.1 109.475 486.17 109.975 486.2 110.475C486.27 112.575 486.2 114.625 486 116.625C485.97 116.925 485.93 117.205 485.9 117.475C485.83 118.045 486.17 118.205 486.9 117.975C487.83 117.705 488.38 117.855 488.55 118.425C488.62 118.625 488.75 118.745 488.95 118.775C489.42 118.905 489.85 118.875 490.25 118.675C490.52 118.545 490.63 118.325 490.6 118.025C490.57 117.755 490.57 117.525 490.6 117.325C490.7 116.625 491.17 116.325 492 116.425C492.1 116.625 492.22 116.825 492.35 117.025C492.55 117.295 492.75 117.555 492.95 117.825C492.95 117.855 492.97 117.895 493 117.925C493.13 118.125 493.45 118.305 493.95 118.475C494.05 118.375 494.15 118.275 494.25 118.175C494.28 118.105 494.33 118.045 494.4 117.975C494.93 117.305 495.52 116.725 496.15 116.225C496.35 116.055 496.53 116.055 496.7 116.225C496.87 116.395 496.98 116.505 497.05 116.575C496.98 116.675 496.92 116.955 496.85 117.425C496.82 117.525 496.75 117.625 496.65 117.725C497.28 117.125 497.9 116.545 498.5 115.975C499.33 115.145 500.25 114.445 501.25 113.875C502.58 113.105 504 112.645 505.5 112.475V112.975C505.5 113.305 505.42 113.575 505.25 113.775C504.58 114.675 504.67 115.245 505.5 115.475C505.67 114.645 506.13 113.945 506.9 113.375C507.47 112.945 508 112.475 508.5 111.975C508.5 112.145 508.42 112.395 508.25 112.725C509.28 111.655 510.77 111.205 512.7 111.375C512.57 111.775 512.37 112.245 512.1 112.775C512.37 112.905 512.55 112.895 512.65 112.725C512.95 112.295 513.58 112.145 514.55 112.275C515.35 112.405 516.17 112.475 517 112.475C517.33 112.475 517.67 112.475 518 112.475C518.33 112.475 518.67 112.475 519 112.475C519 112.645 518.98 112.805 518.95 112.975C518.82 113.475 518.63 113.955 518.4 114.425C518.3 114.625 518.17 114.805 518 114.975C517.67 115.305 517.33 115.805 517 116.475C518 116.475 519.02 116.525 520.05 116.625C521.75 116.795 523.22 116.375 524.45 115.375C525.52 114.475 526.55 113.675 527.55 112.975C528.05 112.645 528.57 112.455 529.1 112.425C530.07 112.355 530.72 111.875 531.05 110.975C531.45 109.905 532.1 109.455 533 109.625C533.37 109.695 533.57 109.845 533.6 110.075C533.97 111.845 534.95 112.645 536.55 112.475C536.72 111.975 536.83 111.475 536.9 110.975C537 110.305 537.05 109.645 537.05 108.975C537.05 108.305 537.05 107.645 537.05 106.975C537.05 106.645 537.05 106.305 537.05 105.975C537.38 106.145 537.73 106.255 538.1 106.325C538.8 106.455 539.43 106.695 540 107.025C540.53 107.325 541.08 107.555 541.65 107.725C542.25 107.895 542.87 108.045 543.5 108.175C546.53 108.845 549.73 109.125 553.1 109.025C553.6 108.995 554.07 108.895 554.5 108.725C555.23 108.425 555.93 108.225 556.6 108.125C558.1 107.925 559.47 108.155 560.7 108.825C561.13 109.095 561.58 109.205 562.05 109.175C564.15 108.975 565 109.905 564.6 111.975C564.77 111.805 564.93 111.725 565.1 111.725C566.3 111.695 567.47 111.745 568.6 111.875C569.1 111.945 569.42 111.855 569.55 111.625C569.92 111.025 570.1 110.305 570.1 109.475C570.1 108.645 570.1 107.805 570.1 106.975C571.13 107.705 572.3 108.155 573.6 108.325C574.3 108.425 574.98 108.525 575.65 108.625C576.65 108.795 577.08 108.405 576.95 107.475C576.82 106.205 577.23 105.225 578.2 104.525C578.67 104.155 579.17 103.905 579.7 103.775C579.83 103.745 580 103.755 580.2 103.825C580.5 103.925 580.82 103.975 581.15 103.975C584.48 103.975 587.82 104.055 591.15 104.225C591.45 104.225 591.78 104.255 592.15 104.325C592.82 104.425 593.48 104.475 594.15 104.475C595.82 104.475 597.48 104.555 599.15 104.725C599.32 104.725 599.5 104.745 599.7 104.775C600.33 104.905 600.97 105.025 601.6 105.125C602.7 105.325 603.38 104.945 603.65 103.975C603.92 102.875 604.55 102.755 605.55 103.625C606.35 104.355 607.22 104.845 608.15 105.075C608.52 105.175 608.87 105.245 609.2 105.275C610.2 105.405 611.2 105.505 612.2 105.575C613.93 105.705 615.43 105.175 616.7 103.975C617.2 103.475 617.72 103.205 618.25 103.175C620.85 102.905 623.5 102.845 626.2 102.975C626.53 102.975 626.78 102.895 626.95 102.725C627.95 101.755 628.73 101.675 629.3 102.475C630.27 103.905 630.58 105.575 630.25 107.475C630.58 107.475 630.9 107.425 631.2 107.325C631.9 107.095 632.57 106.795 633.2 106.425C634.9 105.455 636.12 104.155 636.85 102.525C636.95 102.325 637.08 102.145 637.25 101.975C637.25 102.305 637.23 102.645 637.2 102.975C637.07 103.975 636.95 104.975 636.85 105.975C636.78 106.805 636.92 107.645 637.25 108.475C637.75 108.475 638.22 108.395 638.65 108.225C639.38 107.895 640.12 107.555 640.85 107.225C641.28 107.055 641.75 107.145 642.25 107.475C641.85 108.245 641.57 109.095 641.4 110.025C641.3 110.495 641.15 110.925 640.95 111.325C640.65 111.925 640.25 112.645 639.75 113.475C640.25 113.305 640.75 113.125 641.25 112.925C643.35 112.125 645.08 110.855 646.45 109.125C646.65 108.855 646.92 108.645 647.25 108.475C647.25 108.645 647.25 108.805 647.25 108.975C647.25 109.145 647.25 109.305 647.25 109.475C647.25 109.645 647.15 109.845 646.95 110.075C646.82 110.505 646.82 110.955 646.95 111.425C646.98 111.455 647.22 111.445 647.65 111.375C648.05 111.105 648.45 110.905 648.85 110.775C649.52 110.545 650.12 110.095 650.65 109.425C650.88 109.125 651.13 108.875 651.4 108.675C653.6 106.845 655.7 104.745 657.7 102.375C658.87 101.005 660.23 100.375 661.8 100.475C661.4 103.605 660.38 106.595 658.75 109.425C658.45 109.955 658.08 110.425 657.65 110.825C656.05 112.325 655.42 114.205 655.75 116.475C656.08 116.475 656.42 116.445 656.75 116.375C657.12 116.275 657.47 116.145 657.8 115.975C661.53 114.005 665.37 111.675 669.3 108.975C668.97 109.305 668.68 109.675 668.45 110.075C668.05 110.775 667.68 111.255 667.35 111.525C666.98 111.825 666.75 112.175 666.65 112.575C666.42 113.345 666.22 114.125 666.05 114.925C665.78 116.395 666.2 117.145 667.3 117.175C669.2 117.245 671.02 116.975 672.75 116.375C673.62 116.105 674.45 115.775 675.25 115.375C678.92 113.445 682.3 111.125 685.4 108.425C687.23 108.395 689.05 108.325 690.85 108.225C691.02 108.225 691.2 108.205 691.4 108.175C692.03 108.045 692.63 108.095 693.2 108.325C693.87 108.625 694.58 108.845 695.35 108.975C696.72 109.245 697.83 108.855 698.7 107.825C699.27 107.155 700.15 107.195 701.35 107.925C701.68 108.125 701.95 108.355 702.15 108.625C703.52 110.295 705.25 111.075 707.35 110.975C707.68 110.975 707.97 110.895 708.2 110.725C708.8 110.325 709.25 109.755 709.55 109.025C709.78 108.355 710.22 108.075 710.85 108.175C714.15 108.575 717.5 108.695 720.9 108.525C721.23 108.495 721.53 108.405 721.8 108.275C722.6 107.845 723.43 107.205 724.3 106.375C724.87 105.775 725.48 105.305 726.15 104.975C727.78 104.175 728.35 104.675 727.85 106.475C727.42 108.105 727.77 108.945 728.9 108.975C729.4 108.975 729.87 108.895 730.3 108.725C731.13 108.355 732 108.145 732.9 108.075C733.9 108.005 734.85 107.825 735.75 107.525C737.52 106.925 739.42 106.595 741.45 106.525C742.45 106.495 743.43 106.405 744.4 106.275C744.6 106.245 744.77 106.225 744.9 106.225C745.93 106.355 746.65 106.755 747.05 107.425C747.15 107.625 747.28 107.725 747.45 107.725C749.68 107.795 750.68 106.545 750.45 103.975C750.78 104.305 751.08 104.675 751.35 105.075C751.75 105.675 752.18 106.255 752.65 106.825C753.02 107.255 753.45 107.645 753.95 107.975C753.95 107.805 753.95 107.645 753.95 107.475C753.95 106.975 753.95 106.475 753.95 105.975C753.95 105.305 753.95 104.645 753.95 103.975C753.95 103.805 753.95 103.645 753.95 103.475C755.02 104.075 755.68 105.075 755.95 106.475C756.12 107.305 756.45 107.975 756.95 108.475C757.28 108.805 757.78 108.975 758.45 108.975C758.92 108.975 759.4 109.045 759.9 109.175C760.1 109.205 760.3 109.255 760.5 109.325C760.8 109.425 761.03 109.395 761.2 109.225C762.37 108.055 763.63 108.125 765 109.425C766.13 110.425 767.47 110.805 769 110.575C770.43 110.345 771.48 110.775 772.15 111.875C772.38 112.275 772.83 112.475 773.5 112.475C773.83 112.145 774.2 111.945 774.6 111.875C775.03 111.775 775.42 111.895 775.75 112.225C776.45 112.895 777.38 112.825 778.55 112.025C778.85 111.825 779.15 111.755 779.45 111.825C779.98 111.925 780.43 112.195 780.8 112.625C781.27 113.195 781.77 113.605 782.3 113.875C783.1 114.275 784 114.525 785 114.625C786.4 114.755 787.6 115.525 788.6 116.925C788.87 117.295 789.18 117.505 789.55 117.575C790.72 117.745 791.7 117.205 792.5 115.975C792.83 115.475 793.2 115.205 793.6 115.175C799.4 114.705 805.23 114.455 811.1 114.425C812.4 114.425 813.52 114.825 814.45 115.625C814.72 115.855 814.9 115.955 815 115.925C815.9 115.755 817.1 115.445 818.6 114.975C819.6 114.645 820.58 114.245 821.55 113.775C822.28 113.405 823.02 113.175 823.75 113.075C825.48 112.845 827.15 112.175 828.75 111.075C829.35 110.675 830 110.395 830.7 110.225C831.33 110.055 831.95 110.075 832.55 110.275C833.32 110.545 834.35 110.605 835.65 110.475C837.58 110.275 839.42 109.605 841.15 108.475C842.48 107.645 843.87 106.945 845.3 106.375C846.37 105.945 847.5 105.725 848.7 105.725C849.03 105.725 849.32 105.855 849.55 106.125C850.22 106.855 850.95 107.445 851.75 107.875C852.22 108.105 852.67 108.355 853.1 108.625C853.67 109.025 854.23 109.425 854.8 109.825C855.83 110.555 856.87 111.275 857.9 111.975C859.77 111.275 861.7 110.945 863.7 110.975C864.2 110.975 864.62 111.095 864.95 111.325C865.75 111.895 866.67 112.075 867.7 111.875C868.6 111.705 869.07 111.905 869.1 112.475C869.17 113.305 869.13 114.125 869 114.925C868.87 116.055 869.1 116.745 869.7 116.975C870.37 116.475 871.07 116.045 871.8 115.675C872.4 115.375 872.95 115.025 873.45 114.625C875.95 112.625 878.72 111.725 881.75 111.925C882.08 111.955 882.35 112.055 882.55 112.225C883.22 112.795 884.13 112.925 885.3 112.625C887.13 112.125 887.95 112.745 887.75 114.475C889.28 114.145 890.58 113.445 891.65 112.375C893.05 111.045 894.75 110.545 896.75 110.875C897.08 110.945 897.38 110.905 897.65 110.775C898.95 110.205 900.32 109.945 901.75 109.975H902.75C902.68 110.575 903.03 110.905 903.8 110.975C906.9 109.875 910.05 108.995 913.25 108.325C914.25 108.125 914.77 108.345 914.8 108.975C914.8 109.305 914.87 109.605 915 109.875C915.27 110.545 916.03 110.795 917.3 110.625C917.97 110.525 918.52 110.325 918.95 110.025C920.25 109.095 921.7 108.645 923.3 108.675C924.77 108.705 925.27 109.645 924.8 111.475C925.3 111.145 925.82 110.875 926.35 110.675C927.15 110.375 927.97 110.145 928.8 109.975C929.63 109.805 930.45 109.575 931.25 109.275C933.35 108.445 934.18 109.175 933.75 111.475C933.72 111.705 933.68 111.925 933.65 112.125C939.05 111.455 944.47 111.305 949.9 111.675C950.23 111.705 950.57 111.725 950.9 111.725C951.23 111.725 951.57 111.655 951.9 111.525C955.2 110.455 958.72 110.055 962.45 110.325C966.62 110.625 970.78 110.825 974.95 110.925C975.62 110.955 976.27 110.895 976.9 110.725C977.6 110.555 978.3 110.395 979 110.225C983.6 109.195 988.27 108.855 993 109.225C993.17 109.225 993.32 109.325 993.45 109.525C993.65 109.825 993.88 110.045 994.15 110.175C994.55 110.375 995 110.505 995.5 110.575C996.17 110.675 996.83 110.725 997.5 110.725C998.37 110.725 999.08 111.105 999.65 111.875C999.92 112.245 1000.37 112.425 1001 112.425C1001.53 112.455 1002.05 112.525 1002.55 112.625C1003.22 112.495 1003.88 112.355 1004.55 112.225C1006.18 111.895 1007.8 111.525 1009.4 111.125C1012.53 110.395 1015.75 110.105 1019.05 110.275C1021.22 110.405 1023.38 110.405 1025.55 110.275C1026.25 110.205 1026.58 110.445 1026.55 110.975C1026.48 111.545 1026.82 111.755 1027.55 111.625C1028.22 111.525 1028.85 111.355 1029.45 111.125C1030.18 110.855 1030.9 110.495 1031.6 110.025C1032.67 109.295 1033.83 108.845 1035.1 108.675C1035.9 108.545 1036.72 108.425 1037.55 108.325C1040.62 107.895 1043.3 108.605 1045.6 110.475C1046.13 110.905 1046.67 111.275 1047.2 111.575C1049.7 110.845 1052.15 109.955 1054.55 108.925C1055.25 108.625 1055.82 108.205 1056.25 107.675C1056.65 107.205 1057 106.675 1057.3 106.075C1057.5 105.675 1057.78 105.455 1058.15 105.425C1060.95 105.125 1063.77 104.975 1066.6 104.975C1066.97 104.975 1067.23 105.055 1067.4 105.225C1067.57 105.395 1067.72 105.605 1067.85 105.875C1068.05 106.275 1068.3 106.655 1068.6 107.025C1068.97 107.495 1069.35 107.945 1069.75 108.375C1070.18 108.775 1070.67 109.075 1071.2 109.275C1071.67 109.405 1072.05 109.595 1072.35 109.825C1073.78 110.955 1075.27 112.045 1076.8 113.075C1080.17 111.805 1083.62 111.575 1087.15 112.375C1087.48 112.445 1087.78 112.405 1088.05 112.275C1088.45 112.075 1088.83 111.825 1089.2 111.525C1090.23 110.725 1091.18 110.745 1092.05 111.575C1092.28 111.845 1092.38 112.145 1092.35 112.475C1092.18 114.945 1093.3 116.125 1095.7 116.025C1096.37 115.995 1097.02 115.905 1097.65 115.775C1098.95 115.545 1100.3 115.345 1101.7 115.175C1102.87 115.045 1104.03 114.905 1105.2 114.775C1106.3 114.645 1106.97 114.875 1107.2 115.475C1107.03 115.645 1106.82 115.945 1106.55 116.375C1106.48 116.445 1106.37 116.645 1106.2 116.975C1106.2 117.145 1106.17 117.305 1106.1 117.475C1106 117.805 1106.03 118.145 1106.2 118.475C1108.57 117.975 1110.88 116.945 1113.15 115.375C1114.02 114.775 1114.92 114.355 1115.85 114.125C1117.42 113.695 1119.03 113.405 1120.7 113.275C1121.73 113.205 1122.58 113.445 1123.25 113.975C1122.68 114.075 1122.33 114.405 1122.2 114.975C1122 115.875 1122.18 116.355 1122.75 116.425C1126.82 117.055 1131 117.255 1135.3 117.025C1135.8 116.995 1136.18 117.105 1136.45 117.375C1136.95 117.875 1137.4 118.245 1137.8 118.475C1138.53 117.475 1139.42 116.545 1140.45 115.675C1141.18 115.045 1141.95 114.745 1142.75 114.775C1143.98 114.845 1145.15 114.225 1146.25 112.925C1146.95 112.125 1147.65 111.325 1148.35 110.525C1150.55 107.995 1153.22 106.875 1156.35 107.175C1156.68 107.205 1157 107.345 1157.3 107.575C1159 108.905 1160.83 109.755 1162.8 110.125C1163.17 110.195 1163.52 110.295 1163.85 110.425C1165.95 111.295 1168.07 112.205 1170.2 113.175C1170.87 112.745 1171.53 112.295 1172.2 111.825C1173.27 111.095 1174.17 110.205 1174.9 109.175C1176.77 106.575 1179.23 105.555 1182.3 106.125C1182.67 106.195 1183 106.205 1183.3 106.175C1184.77 106.045 1186.28 105.975 1187.85 105.975C1188.18 105.975 1188.45 106.055 1188.65 106.225C1189.15 106.695 1189.72 106.945 1190.35 106.975C1190.85 106.975 1191.35 107.005 1191.85 107.075C1192.65 107.205 1193.27 106.975 1193.7 106.375C1193.97 105.945 1194.25 105.525 1194.55 105.125C1194.92 104.695 1195.33 104.495 1195.8 104.525C1197.2 104.655 1198.3 104.475 1199.1 103.975C1200.13 103.305 1200.72 102.145 1200.85 100.475C1201.18 100.805 1201.48 101.155 1201.75 101.525C1201.98 101.825 1202.1 102.145 1202.1 102.475C1202.1 103.045 1202.17 103.545 1202.3 103.975C1202.47 104.675 1202.82 105.175 1203.35 105.475C1203.52 105.305 1203.62 105.125 1203.65 104.925C1203.72 104.595 1203.78 104.275 1203.85 103.975C1203.92 103.145 1204 102.325 1204.1 101.525C1204.13 101.325 1204.23 101.145 1204.4 100.975C1204.57 101.145 1204.67 101.325 1204.7 101.525C1204.9 102.355 1205.17 103.175 1205.5 103.975C1206 105.175 1206.67 106.325 1207.5 107.425C1207.77 107.795 1208.07 108.145 1208.4 108.475C1208.47 106.905 1208.83 105.405 1209.5 103.975C1209.63 103.645 1209.78 103.305 1209.95 102.975C1210.42 102.145 1210.98 101.395 1211.65 100.725C1211.82 100.555 1212.07 100.475 1212.4 100.475C1212.57 100.645 1212.67 100.825 1212.7 101.025C1212.83 101.655 1212.9 102.305 1212.9 102.975C1212.9 103.305 1212.9 103.625 1212.9 103.925C1212.9 104.125 1212.9 104.305 1212.9 104.475C1213.03 104.275 1213.17 104.095 1213.3 103.925C1213.5 103.625 1213.72 103.325 1213.95 103.025C1214.08 102.825 1214.23 102.645 1214.4 102.475C1215.23 101.805 1216.15 101.305 1217.15 100.975C1218.15 99.2453 1219.4 97.5753 1220.9 95.9753C1221.67 96.6453 1221.97 97.4753 1221.8 98.4753C1221.6 99.5753 1221.8 100.245 1222.4 100.475C1222.73 100.475 1223 100.395 1223.2 100.225C1223.67 99.8953 1223.93 99.4553 1224 98.9253C1224.23 97.2553 1225.03 96.2753 1226.4 95.9753C1226.4 96.8053 1226.4 97.6453 1226.4 98.4753C1226.4 99.3053 1226.4 100.145 1226.4 100.975C1227.03 99.3053 1228.03 98.3553 1229.4 98.1253C1229.9 98.0253 1230.18 98.0553 1230.25 98.2253C1230.62 99.1253 1231.18 99.7053 1231.95 99.9753C1232.12 99.6453 1232.28 99.3053 1232.45 98.9753C1232.78 98.3053 1233.22 97.8053 1233.75 97.4753C1234.62 96.9053 1235.2 96.9053 1235.5 97.4753C1236.3 98.9753 1236.62 100.645 1236.45 102.475C1237.12 101.575 1237.65 100.595 1238.05 99.5253C1238.52 98.2553 1239.3 98.0953 1240.4 99.0253C1240.77 99.3253 1240.95 99.6453 1240.95 99.9753C1240.98 101.175 1241.32 102.175 1241.95 102.975C1241.95 102.805 1241.98 102.525 1242.05 102.125C1242.15 102.025 1242.28 101.805 1242.45 101.475C1242.75 102.145 1242.98 102.905 1243.15 103.775C1243.15 103.845 1243.15 103.895 1243.15 103.925C1243.32 105.055 1243.58 105.905 1243.95 106.475C1244.58 106.645 1245.03 106.445 1245.3 105.875C1245.57 105.275 1245.85 104.675 1246.15 104.075C1246.22 103.975 1246.27 103.875 1246.3 103.775C1246.77 102.805 1247.12 101.825 1247.35 100.825C1247.82 98.9953 1248.68 97.3753 1249.95 95.9753C1250.12 96.3053 1250.32 96.6253 1250.55 96.9253C1250.82 97.2953 1251.03 97.6753 1251.2 98.0753C1251.73 99.5453 1252.48 100.675 1253.45 101.475C1253.45 100.475 1253.37 99.4953 1253.2 98.5253C1252.97 97.0953 1253.38 96.2453 1254.45 95.9753C1254.45 96.3053 1254.53 96.5953 1254.7 96.8253C1255.2 97.5953 1255.48 98.3453 1255.55 99.0753C1255.68 100.505 1256.32 101.475 1257.45 101.975C1257.78 101.805 1257.98 101.605 1258.05 101.375C1258.38 100.375 1258.68 99.4053 1258.95 98.4753C1259.15 97.8053 1259.45 97.2553 1259.85 96.8253C1260.65 96.0253 1261.42 96.3953 1262.15 97.9253C1262.38 98.4553 1262.73 98.8953 1263.2 99.2253C1263.4 99.3953 1263.67 99.4753 1264 99.4753C1263.77 98.4053 1263.93 97.7453 1264.5 97.4753C1264.83 97.3053 1265.13 97.2553 1265.4 97.3253C1265.8 97.4253 1266 97.6453 1266 97.9753C1266.1 100.105 1266.93 101.445 1268.5 101.975C1268.8 101.175 1269.03 100.355 1269.2 99.5253C1269.4 98.6553 1269.5 97.8053 1269.5 96.9753C1269.5 95.6453 1269.83 94.8053 1270.5 94.4753C1270.5 94.9753 1270.67 95.4753 1271 95.9753C1272.77 98.3453 1274.78 100.675 1277.05 102.975C1277.35 103.305 1277.67 103.645 1278 103.975C1278 103.645 1278 103.295 1278 102.925C1278 102.625 1278 102.305 1278 101.975C1278 100.645 1278 99.3053 1278 97.9753C1278.33 97.9753 1278.58 98.0553 1278.75 98.2253C1279.25 98.7253 1279.72 99.2753 1280.15 99.8753C1280.78 100.775 1281.28 101.725 1281.65 102.725C1281.78 103.125 1281.9 103.545 1282 103.975C1282 103.545 1282 103.105 1282 102.675C1282 101.445 1282 100.205 1282 98.9753C1282 98.8053 1282.12 98.6953 1282.35 98.6253C1282.62 98.8553 1282.87 99.1053 1283.1 99.3753C1283.7 99.9453 1284.28 100.525 1284.85 101.125C1285.25 101.525 1285.63 101.955 1286 102.425C1286.13 102.625 1286.27 102.845 1286.4 103.075C1287.2 104.575 1287.58 105.205 1287.55 104.975C1287.55 104.805 1287.53 104.645 1287.5 104.475C1287.33 103.775 1287.18 103.075 1287.05 102.375C1286.65 100.575 1286.32 98.7753 1286.05 96.9753C1286.22 97.3053 1286.4 97.6253 1286.6 97.9253C1286.73 98.1253 1286.88 98.3053 1287.05 98.4753C1287.55 98.9753 1288.07 99.4553 1288.6 99.9253C1289.4 100.625 1290.27 101.205 1291.2 101.675C1291.4 101.775 1291.62 101.875 1291.85 101.975C1292.72 102.305 1293.63 102.475 1294.6 102.475L1294.55 101.975C1294.55 101.905 1294.55 101.825 1294.55 101.725C1294.48 100.425 1294.73 99.2053 1295.3 98.0753C1295.5 97.6753 1295.77 97.3053 1296.1 96.9753C1296.43 98.1453 1296.83 99.2753 1297.3 100.375C1297.43 100.705 1297.57 101.055 1297.7 101.425C1297.87 102.055 1298 102.745 1298.1 103.475C1298.27 103.305 1298.35 103.145 1298.35 102.975C1298.38 102.445 1298.42 101.905 1298.45 101.375C1298.55 98.9053 1298.6 96.4453 1298.6 93.9753C1298.77 94.3053 1298.95 94.6253 1299.15 94.9253C1299.28 95.1253 1299.42 95.3253 1299.55 95.5253C1300.65 97.0953 1301.67 98.5753 1302.6 99.9753C1302.6 98.6453 1302.55 97.3053 1302.45 95.9753C1302.28 94.0453 1302.5 92.5453 1303.1 91.4753C1304.43 94.6053 1306.32 97.4953 1308.75 100.125C1308.85 100.225 1308.97 100.345 1309.1 100.475C1309.1 100.345 1309.1 100.205 1309.1 100.075C1309.1 98.7053 1309.02 97.3453 1308.85 95.9753C1308.68 94.3053 1308.93 93.1453 1309.6 92.4753C1310.2 93.5453 1310.82 94.5753 1311.45 95.5753C1312.48 97.2053 1313.72 98.3453 1315.15 98.9753C1315.15 98.3053 1315.15 97.6453 1315.15 96.9753C1315.15 94.8053 1315.15 92.6453 1315.15 90.4753C1315.32 90.9753 1315.53 91.4453 1315.8 91.8753C1316.2 92.6053 1316.58 93.3453 1316.95 94.0753C1317.25 94.6753 1317.53 95.2953 1317.8 95.9253C1318.2 96.7953 1318.7 97.5953 1319.3 98.3253C1319.4 98.4253 1319.52 98.5253 1319.65 98.6253C1319.78 98.7553 1319.95 98.8753 1320.15 98.9753C1320.25 98.8453 1320.35 98.7053 1320.45 98.5753C1320.65 98.1753 1320.83 97.7953 1321 97.4253C1321.57 96.1253 1322.45 95.3053 1323.65 94.9753C1323.82 95.4753 1323.97 95.9753 1324.1 96.4753C1324.37 97.5753 1325.2 98.0053 1326.6 97.7753C1326.8 97.7453 1326.92 97.6253 1326.95 97.4253C1327.32 95.7953 1328.22 94.8453 1329.65 94.5753C1329.98 94.5053 1330.22 94.5553 1330.35 94.7253C1331.05 95.5953 1331.47 96.5053 1331.6 97.4753C1331.63 97.6453 1331.67 97.8053 1331.7 97.9753C1331.73 98.1053 1331.78 98.2453 1331.85 98.3753C1332.28 99.1753 1332.65 99.9953 1332.95 100.825C1333.12 100.355 1333.32 99.8953 1333.55 99.4253C1333.82 98.8953 1334.13 98.4053 1334.5 97.9753C1334.67 97.7753 1334.85 97.5753 1335.05 97.3753C1335.98 96.4053 1336.68 95.2753 1337.15 93.9753C1337.15 94.8053 1337.15 95.6453 1337.15 96.4753C1337.15 96.9753 1337.15 97.4753 1337.15 97.9753C1337.15 98.4753 1337.15 98.9753 1337.15 99.4753C1337.15 100.645 1337.05 101.795 1336.85 102.925C1336.72 103.795 1336.48 104.645 1336.15 105.475C1336.32 105.305 1336.48 105.145 1336.65 104.975C1336.82 104.805 1336.97 104.625 1337.1 104.425C1337.3 104.125 1337.65 103.805 1338.15 103.475C1338.32 103.475 1338.48 103.475 1338.65 103.475C1338.82 103.475 1338.98 103.475 1339.15 103.475C1339.15 103.645 1339.15 103.805 1339.15 103.975C1339.15 104.145 1339.12 104.455 1339.05 104.925C1338.95 105.125 1338.88 105.325 1338.85 105.525C1338.72 105.995 1338.65 106.475 1338.65 106.975C1338.98 106.975 1339.32 106.975 1339.65 106.975C1339.82 106.975 1339.98 106.975 1340.15 106.975C1340.32 106.975 1340.5 106.975 1340.7 106.975C1340.87 106.975 1341.03 106.975 1341.2 106.975C1341.37 106.975 1341.53 107.145 1341.7 107.475C1341.7 107.975 1341.57 108.355 1341.3 108.625C1340.23 109.695 1339.82 110.975 1340.05 112.475C1340.08 112.605 1340.17 112.575 1340.3 112.375C1340.57 112.045 1340.95 111.355 1341.45 110.325C1342.28 108.525 1343.07 107.805 1343.8 108.175C1344.53 108.545 1345.08 109.705 1345.45 111.675C1345.48 111.745 1345.5 111.825 1345.5 111.925C1345.87 114.055 1346.43 115.245 1347.2 115.475C1347.2 114.805 1347.23 114.145 1347.3 113.475C1347.4 112.805 1347.48 112.155 1347.55 111.525V111.475C1347.65 109.975 1347.7 108.475 1347.7 106.975C1347.7 106.145 1347.7 105.305 1347.7 104.475C1348.2 105.105 1348.5 105.775 1348.6 106.475C1348.67 106.975 1348.8 107.425 1349 107.825C1349.47 108.755 1349.98 109.675 1350.55 110.575C1350.72 110.845 1350.88 111.095 1351.05 111.325C1351.15 111.495 1351.27 111.655 1351.4 111.825C1351.6 112.095 1351.88 112.155 1352.25 112.025C1352.35 111.755 1352.45 111.505 1352.55 111.275C1352.58 111.175 1352.62 111.075 1352.65 110.975C1352.85 110.475 1353.03 109.975 1353.2 109.475C1353.53 108.305 1353.87 107.145 1354.2 105.975C1354.37 105.305 1354.53 104.645 1354.7 103.975C1354.87 104.305 1355.03 104.805 1355.2 105.475C1355.2 105.645 1355.22 105.805 1355.25 105.975C1355.38 106.305 1355.5 106.655 1355.6 107.025C1355.67 107.325 1355.73 107.795 1355.8 108.425C1355.9 108.625 1356.03 108.975 1356.2 109.475C1356.2 108.805 1356.23 108.145 1356.3 107.475C1356.4 106.645 1356.43 105.805 1356.4 104.975C1356.37 103.175 1356.77 101.495 1357.6 99.9253C1357.9 99.3553 1358.1 98.7553 1358.2 98.1253C1358.2 98.5553 1358.2 99.0053 1358.2 99.4753C1358.2 100.305 1358.2 101.145 1358.2 101.975C1358.2 102.805 1358.2 103.645 1358.2 104.475C1358.2 105.305 1358.2 106.145 1358.2 106.975C1358.2 107.305 1358.2 107.645 1358.2 107.975C1358.37 107.805 1358.52 107.625 1358.65 107.425C1359.02 106.955 1359.28 106.445 1359.45 105.875C1359.62 105.275 1359.78 104.655 1359.95 104.025C1360.12 103.325 1360.38 102.645 1360.75 101.975C1361.22 101.145 1361.7 100.305 1362.2 99.4753C1363.17 101.105 1363.67 102.945 1363.7 104.975C1363.7 105.805 1363.77 106.625 1363.9 107.425C1363.93 107.625 1364 107.825 1364.1 108.025C1364.53 109.025 1364.87 109.855 1365.1 110.525C1365.13 110.595 1365.15 110.645 1365.15 110.675C1365.32 111.205 1365.2 111.675 1364.8 112.075C1364.4 112.505 1364.03 112.975 1363.7 113.475C1364.37 113.305 1365.02 113.095 1365.65 112.825C1365.85 112.755 1366.05 112.655 1366.25 112.525C1366.55 112.325 1366.87 112.155 1367.2 112.025C1368.23 111.655 1369.27 111.355 1370.3 111.125C1370.77 111.025 1371.25 110.975 1371.75 110.975C1371.92 111.145 1372 111.305 1372 111.475C1371.97 112.445 1372.38 112.925 1373.25 112.925C1373.92 112.955 1374.58 112.995 1375.25 113.025C1377.62 113.225 1379.75 112.655 1381.65 111.325C1382.22 110.925 1382.78 110.675 1383.35 110.575C1383.92 110.475 1384.45 110.325 1384.95 110.125C1385.55 109.895 1386.12 109.605 1386.65 109.275C1387.22 108.905 1387.8 108.555 1388.4 108.225C1388.97 107.895 1389.45 107.505 1389.85 107.075C1390.92 105.905 1392.38 105.505 1394.25 105.875C1394.58 105.945 1394.78 106.045 1394.85 106.175C1395.15 106.705 1395.25 107.305 1395.15 107.975C1395.08 108.675 1395.12 109.355 1395.25 110.025C1395.38 110.655 1395.62 111.275 1395.95 111.875C1396.18 112.275 1396.43 112.655 1396.7 113.025C1397.47 114.025 1398.67 114.375 1400.3 114.075C1400.63 114.005 1400.93 113.905 1401.2 113.775C1401.6 113.575 1402 113.375 1402.4 113.175C1403.33 112.705 1404.22 112.195 1405.05 111.625C1406.22 110.825 1407.45 110.275 1408.75 109.975C1410.05 109.705 1411.4 109.675 1412.8 109.875C1412.93 109.905 1413.07 109.945 1413.2 109.975C1413.37 110.045 1413.53 110.105 1413.7 110.175C1414.1 110.375 1414.62 110.405 1415.25 110.275C1416.15 110.105 1417.07 110.005 1418 109.975H1418.2C1418.4 109.975 1418.6 109.975 1418.8 109.975H1418.95C1419.72 110.005 1420.5 110.075 1421.3 110.175C1421.63 110.205 1421.8 110.455 1421.8 110.925C1423.17 110.725 1424.52 110.625 1425.85 110.625C1428.22 110.695 1430.53 110.475 1432.8 109.975C1433.5 109.845 1434.18 109.675 1434.85 109.475C1437.92 108.605 1441.08 108.055 1444.35 107.825C1445.42 107.755 1446.42 107.875 1447.35 108.175C1447.45 108.175 1447.53 108.195 1447.6 108.225C1447.73 108.295 1448.15 108.275 1448.85 108.175C1450.88 107.975 1452.88 107.675 1454.85 107.275C1454.92 107.275 1455 107.255 1455.1 107.225C1458.43 106.525 1461.68 105.095 1464.85 102.925C1465.05 102.795 1465.25 102.705 1465.45 102.675C1465.92 102.545 1466.4 102.445 1466.9 102.375C1467.73 102.275 1468.57 102.145 1469.4 101.975C1471.53 101.605 1473.4 101.925 1475 102.925C1475.3 103.125 1475.57 103.355 1475.8 103.625C1476.53 104.425 1477.42 104.955 1478.45 105.225C1478.72 105.295 1478.98 105.355 1479.25 105.425C1479.68 105.525 1480.12 105.625 1480.55 105.725C1481.35 105.895 1482.12 106.105 1482.85 106.375C1484.12 106.845 1485.5 107.055 1487 107.025C1487.67 106.995 1488.32 106.905 1488.95 106.775C1491.55 106.145 1494.08 106.155 1496.55 106.825C1496.85 106.925 1497.08 107.055 1497.25 107.225L1497.3 107.275C1497.87 107.875 1498.43 108.245 1499 108.375C1499.33 108.445 1499.57 108.395 1499.7 108.225C1500.1 107.755 1500.57 107.325 1501.1 106.925C1501.67 106.425 1502.32 105.955 1503.05 105.525C1503.68 105.155 1504.33 104.995 1505 105.025C1507.1 105.125 1508.78 104.445 1510.05 102.975C1510.22 102.805 1510.38 102.725 1510.55 102.725C1511.85 102.825 1512.9 103.545 1513.7 104.875C1513.93 105.275 1514.15 105.675 1514.35 106.075C1514.55 106.405 1514.97 106.625 1515.6 106.725C1516.57 106.895 1517.55 107.005 1518.55 107.075C1520.55 107.175 1522.55 107.295 1524.55 107.425C1524.88 107.455 1525.15 107.395 1525.35 107.225C1526.18 106.555 1527.25 106.295 1528.55 106.425C1528.88 106.455 1529.15 106.555 1529.35 106.725C1529.85 107.195 1530.42 107.445 1531.05 107.475C1531.55 107.475 1532.02 107.375 1532.45 107.175C1533.05 106.875 1533.65 106.655 1534.25 106.525C1535.65 106.155 1537.1 105.975 1538.6 105.975C1539.27 105.975 1539.82 106.145 1540.25 106.475C1541.02 107.005 1541.8 107.295 1542.6 107.325C1544.33 107.395 1545.8 106.895 1547 105.825C1547.77 105.155 1548.8 105.195 1550.1 105.925C1550.77 106.295 1551.45 106.595 1552.15 106.825C1553.32 107.195 1554.13 107.745 1554.6 108.475C1554.77 108.305 1554.92 108.125 1555.05 107.925C1555.58 107.125 1556.07 106.295 1556.5 105.425C1556.73 104.955 1557 104.655 1557.3 104.525C1558.33 104.155 1559.45 104.025 1560.65 104.125C1561.58 104.255 1562.6 104.675 1563.7 105.375C1564.33 105.775 1565 106.045 1565.7 106.175C1567 106.375 1568.32 106.405 1569.65 106.275C1569.82 106.245 1569.98 106.205 1570.15 106.175C1571.48 106.045 1572.82 105.975 1574.15 105.975C1574.65 105.975 1575.08 106.075 1575.45 106.275C1576.08 106.645 1576.78 106.645 1577.55 106.275C1578.35 105.875 1579.05 105.105 1579.65 103.975C1579.88 105.245 1580.57 106.025 1581.7 106.325C1582 106.425 1582.28 106.405 1582.55 106.275C1582.95 106.075 1583.27 105.775 1583.5 105.375C1583.77 104.945 1584.03 104.505 1584.3 104.075C1584.53 103.675 1584.82 103.305 1585.15 102.975C1585.32 103.305 1585.43 103.655 1585.5 104.025C1585.73 105.495 1586.62 106.095 1588.15 105.825L1588.7 105.725C1589.9 107.925 1591.73 108.925 1594.2 108.725C1595.87 108.555 1597.53 108.545 1599.2 108.675C1599.53 108.705 1599.78 108.675 1599.95 108.575C1600.82 108.045 1601.88 107.605 1603.15 107.275C1603.85 107.075 1604.55 106.895 1605.25 106.725C1606.38 106.495 1606.9 106.905 1606.8 107.975C1606.73 108.475 1606.73 108.725 1606.8 108.725C1608.9 108.955 1611.03 108.975 1613.2 108.775C1615.9 108.505 1618.42 108.105 1620.75 107.575C1621.75 107.345 1622.75 107.195 1623.75 107.125C1625.25 107.025 1626.75 106.905 1628.25 106.775C1628.58 106.745 1628.93 106.695 1629.3 106.625C1629.77 106.525 1630.23 106.425 1630.7 106.325C1633.03 105.795 1635.38 105.505 1637.75 105.475C1638.08 105.475 1638.28 105.545 1638.35 105.675C1638.75 106.445 1639.22 106.805 1639.75 106.775C1640.92 106.645 1642.1 106.395 1643.3 106.025C1643.97 105.825 1644.53 105.525 1645 105.125C1646.27 104.055 1647.7 103.505 1649.3 103.475C1649.63 103.475 1649.95 103.425 1650.25 103.325C1650.78 103.095 1651.32 102.925 1651.85 102.825C1653.15 102.595 1654.47 102.475 1655.8 102.475C1656.63 102.475 1657.47 102.475 1658.3 102.475C1659.03 102.475 1659.7 102.305 1660.3 101.975C1660.3 102.145 1660.3 102.305 1660.3 102.475C1660.3 102.805 1660.3 103.145 1660.3 103.475C1660.3 103.805 1660.3 104.145 1660.3 104.475C1660.3 104.805 1660.47 105.145 1660.8 105.475C1661.57 105.175 1662.37 104.795 1663.2 104.325C1663.6 104.095 1664 103.895 1664.4 103.725C1664.83 103.555 1665.25 103.575 1665.65 103.775C1665.92 103.905 1666.18 104.055 1666.45 104.225C1666.68 104.395 1666.97 104.475 1667.3 104.475C1669.83 104.475 1672.5 104.545 1675.3 104.675C1675.83 104.545 1676.37 104.345 1676.9 104.075C1677.37 103.845 1677.87 103.695 1678.4 103.625C1679.07 103.525 1679.57 103.305 1679.9 102.975C1679.9 103.145 1679.87 103.445 1679.8 103.875C1679.53 104.275 1679.23 104.645 1678.9 104.975C1678.73 105.145 1678.62 105.325 1678.55 105.525C1678.45 105.825 1678.35 106.125 1678.25 106.425C1678.18 106.625 1678.15 106.805 1678.15 106.975L1678.75 106.875C1679.18 106.445 1679.63 106.075 1680.1 105.775C1680.63 105.405 1681.17 105.045 1681.7 104.675C1682.17 104.375 1682.62 104.045 1683.05 103.675C1683.18 103.575 1683.33 103.455 1683.5 103.325C1684.73 102.295 1686.03 101.175 1687.4 99.9753C1687.23 100.475 1687.03 100.955 1686.8 101.425C1686.43 102.125 1686.08 102.825 1685.75 103.525C1685.48 103.995 1685.22 104.475 1684.95 104.975C1684.42 105.975 1684.02 107.005 1683.75 108.075C1683.68 108.345 1683.73 108.645 1683.9 108.975C1685.5 108.375 1687.03 107.595 1688.5 106.625C1688.93 106.355 1689.48 106.355 1690.15 106.625C1690.48 106.855 1690.85 106.875 1691.25 106.675C1693.38 105.505 1695.78 104.945 1698.45 104.975C1698.95 104.975 1699.42 105.055 1699.85 105.225C1700.25 105.395 1700.63 105.495 1701 105.525C1704.63 105.825 1708.28 106.055 1711.95 106.225C1712.28 106.225 1712.6 106.195 1712.9 106.125C1713.43 106.025 1713.97 105.905 1714.5 105.775C1714.6 105.745 1714.72 105.775 1714.85 105.875V60.6253C1714.72 60.6553 1714.58 60.6953 1714.45 60.7253C1713.28 60.9953 1712.07 61.1953 1710.8 61.3253C1706.13 61.7553 1701.52 62.2253 1696.95 62.7253C1695.52 62.8953 1694.13 62.9953 1692.8 63.0253C1672.73 63.6553 1652.68 63.9753 1632.65 63.9753C1625.68 63.9753 1618.72 63.9753 1611.75 63.9753C1602.85 63.9753 1593.93 63.9753 1585 63.9753C1581.47 63.9753 1577.93 63.9753 1574.4 63.9753C1567.8 63.9753 1561.17 63.9753 1554.5 63.9753C1554.23 63.9753 1553.97 63.9753 1553.7 63.9753C1550.67 63.9053 1547.75 63.4253 1544.95 62.5253C1544.65 62.4253 1544.37 62.3453 1544.1 62.2753C1540.4 61.2453 1536.52 60.9053 1532.45 61.2753C1526.68 61.8053 1521.02 61.8953 1515.45 61.5253C1514.68 61.4553 1513.93 61.3953 1513.2 61.3253C1508.93 60.9553 1504.7 60.3253 1500.5 59.4253C1499.1 59.1253 1497.7 58.8953 1496.3 58.7253C1493.07 58.3953 1489.85 58.0553 1486.65 57.7253C1485.25 57.5553 1483.85 57.4053 1482.45 57.2753C1480.42 57.0753 1478.38 56.9553 1476.35 56.9253C1450.28 56.2953 1424.23 55.9753 1398.2 55.9753Z" fill="#BC5C36"/>
<rect y="90.958" width="1440" height="54.0419" fill="#BC5C36"/>
</g>
<defs>
<clipPath id="clip0_883_626">
<rect width="1440" height="145" fill="white"/>
</clipPath>
</defs>
</svg>
