<svg width="33" height="33" viewBox="0 0 33 33" fill="none" xmlns="http://www.w3.org/2000/svg">
<path d="M13.684 13.6521C12.772 13.6521 12.052 14.4521 12.052 15.4281C12.052 16.4041 12.788 17.2041 13.684 17.2041C14.596 17.2041 15.316 16.4041 15.316 15.4281C15.332 14.4521 14.596 13.6521 13.684 13.6521ZM19.524 13.6521C18.612 13.6521 17.892 14.4521 17.892 15.4281C17.892 16.4041 18.628 17.2041 19.524 17.2041C20.436 17.2041 21.156 16.4041 21.156 15.4281C21.156 14.4521 20.436 13.6521 19.524 13.6521Z" fill="white"/>
<path d="M27.3 0.228088H5.85996C4.05196 0.228088 2.57996 1.70009 2.57996 3.52409V25.1561C2.57996 26.9801 4.05196 28.4521 5.85996 28.4521H24.004L23.156 25.4921L25.204 27.3961L27.14 29.1881L30.58 32.2281V3.52409C30.58 1.70009 29.108 0.228088 27.3 0.228088ZM21.124 21.1241C21.124 21.1241 20.548 20.4361 20.068 19.8281C22.164 19.2361 22.964 17.9241 22.964 17.9241C22.308 18.3561 21.684 18.6601 21.124 18.8681C20.324 19.2041 19.556 19.4281 18.804 19.5561C17.268 19.8441 15.86 19.7641 14.66 19.5401C13.748 19.3641 12.964 19.1081 12.308 18.8521C11.94 18.7081 11.54 18.5321 11.14 18.3081C11.092 18.2761 11.044 18.2601 10.996 18.2281C10.964 18.2121 10.948 18.1961 10.932 18.1801C10.644 18.0201 10.484 17.9081 10.484 17.9081C10.484 17.9081 11.252 19.1881 13.284 19.7961C12.804 20.4041 12.212 21.1241 12.212 21.1241C8.67596 21.0121 7.33196 18.6921 7.33196 18.6921C7.33196 13.5401 9.63596 9.36409 9.63596 9.36409C11.94 7.63609 14.132 7.68409 14.132 7.68409L14.292 7.87609C11.412 8.70809 10.084 9.97209 10.084 9.97209C10.084 9.97209 10.436 9.78009 11.028 9.50809C12.74 8.75609 14.1 8.54809 14.66 8.50009C14.756 8.48409 14.836 8.46809 14.932 8.46809C15.908 8.34009 17.012 8.30809 18.164 8.43609C19.684 8.61209 21.316 9.06009 22.98 9.97209C22.98 9.97209 21.716 8.77209 18.996 7.94009L19.22 7.68409C19.22 7.68409 21.412 7.63609 23.716 9.36409C23.716 9.36409 26.02 13.5401 26.02 18.6921C26.02 18.6921 24.66 21.0121 21.124 21.1241Z" fill="white"/>
</svg>
