<svg width="184" height="51" viewBox="0 0 184 51" fill="none" xmlns="http://www.w3.org/2000/svg">
<path d="M113.83 19.4883L113.88 19.3883L116.68 21.2383C117.18 21.5383 117.98 21.9883 119.08 22.5883L120.88 23.5883C121.31 23.8583 121.76 24.1083 122.23 24.3383C122.46 24.3683 122.7 24.4083 122.93 24.4383L123.98 24.6883C123.51 24.5183 123.05 24.3183 122.58 24.0883L121.88 23.6883L121.63 23.4383L121.53 23.2883V23.1883H121.58L121.73 23.1383H121.83C123.73 23.3083 125.33 23.6883 126.63 24.2883L128.63 25.2883C129.63 25.6583 130.36 26.1183 130.83 26.6883L131.48 27.5383L131.53 27.5883C131.73 28.2583 131.61 28.7583 131.18 29.0883L130.53 29.6383H130.43L129.98 29.8883C130.18 29.9183 130.4 29.9583 130.63 29.9883C131.13 29.9183 131.65 29.9683 132.18 30.1383C134.11 31.0083 134.93 32.4683 134.63 34.5383L133.63 33.4883C133.33 33.3883 133.03 33.4083 132.73 33.5383C131.23 34.0683 129.95 34.7883 128.88 35.6883C128.05 36.4183 126.98 36.9583 125.68 37.2883C125.08 37.3183 124.51 37.3583 123.98 37.3883C123.78 37.4583 123.56 37.5383 123.33 37.6383C122.76 37.8683 122.13 38.0583 121.43 38.1883C121.43 39.4883 120.8 40.3883 119.53 40.8883C120.53 39.8583 120.9 38.8883 120.63 37.9883L122.28 37.2883V37.2383C121.51 37.1383 120.8 36.9583 120.13 36.6883C119.33 36.3883 118.63 35.9683 118.03 35.4383C117.73 35.1683 117.43 35.0683 117.13 35.1383C116.83 35.1683 116.55 35.2083 116.28 35.2383C115.88 35.4083 115.36 35.6083 114.73 35.8383C113.96 36.1083 113.16 36.3083 112.33 36.4383C112.03 36.4383 111.81 36.3683 111.68 36.2383C111.55 36.0683 111.68 35.9383 112.08 35.8383C112.55 35.6383 112.91 35.4383 113.18 35.2383L111.33 35.0383C110.56 34.8683 110.48 34.6683 111.08 34.4383C111.78 34.4083 112.33 34.3583 112.73 34.2883C113.1 34.2183 113.06 34.1383 112.63 34.0383C112.16 33.9383 111.71 33.7683 111.28 33.5383C110.41 33.0683 110.53 32.8583 111.63 32.8883C112.16 32.9883 112.6 33.1583 112.93 33.3883C112.03 32.6183 111.66 32.1383 111.83 31.9383C112.06 31.8083 112.41 31.9083 112.88 32.2383C113.15 32.4083 113.45 32.5383 113.78 32.6383C114.91 32.9083 115.83 33.0383 116.53 33.0383C116.56 33.0083 116.6 32.9883 116.63 32.9883L120.43 31.1883L120.38 31.1383V31.0883H120.43C120.43 31.0583 120.45 31.0183 120.48 30.9883C120.48 30.9583 120.5 30.9383 120.53 30.9383C120.56 30.9083 120.6 30.8683 120.63 30.8383C120.66 30.8083 120.7 30.7883 120.73 30.7883C120.8 30.7583 120.85 30.7383 120.88 30.7383C120.91 30.7083 120.95 30.6883 120.98 30.6883L121.08 30.6383C120.58 30.6683 120.08 30.6883 119.58 30.6883H118.53L117.73 30.5883L117.48 30.4883L117.43 30.4383L117.28 30.1383V30.0883H117.33C117.53 29.7183 118.03 29.4383 118.83 29.2383L120.23 28.9383C119 28.9683 117.98 28.8683 117.18 28.6383L115.93 28.2883V28.2383C115.46 27.9083 115.33 27.6383 115.53 27.4383L115.73 27.2383L115.88 27.1383L115.93 27.0883C116.36 27.0183 117.13 27.0183 118.23 27.0883L120.13 27.1883C119.53 27.0883 118.9 26.8883 118.23 26.5883L117.08 26.0883C116.71 25.8883 116.31 25.6583 115.88 25.3883L115.18 24.8883L114.33 23.9383L114.28 23.8383V23.7883H114.33C114.4 23.5883 114.61 23.5383 114.98 23.6383L115.58 23.8383C115.98 23.9383 116.46 24.0683 117.03 24.2383L118.03 24.5383C117.6 24.3683 117.15 24.1583 116.68 23.8883L116.03 23.4883L114.23 22.0383L114.18 21.8883C114.01 21.4583 114.03 21.2583 114.23 21.2883L116.53 22.3883L115.08 21.2383L114.28 20.2883L113.88 19.6883V19.5883L113.83 19.4883ZM155.63 22.7383C155.66 22.7383 155.7 22.7183 155.73 22.6883L157.68 21.7883C158.11 21.3883 158.68 21.0683 159.38 20.8383L158.88 20.9883L159.58 20.7383C160.01 20.5383 160.48 20.3683 160.98 20.2383C163.41 19.3383 166.33 19.1683 169.73 19.7383C170.26 19.6683 170.8 19.7083 171.33 19.8383C173.26 20.7083 174.08 22.1683 173.78 24.2383L172.78 23.1883C172.48 23.1183 172.16 23.1383 171.83 23.2383C170.63 23.6683 169.58 24.2183 168.68 24.8883C168.81 25.0583 168.95 25.2583 169.08 25.4883C169.31 25.8583 169.56 26.3083 169.83 26.8383L170.38 28.3883C170.71 29.3183 171.06 30.0183 171.43 30.4883L172.73 32.4383L172.83 32.7383L172.88 32.7883L172.83 32.8883V32.9383L172.78 32.9883H172.73L172.28 32.7383C171.98 32.5683 171.55 32.1183 170.98 31.3883L171.23 31.7883C171.36 32.0883 171.28 32.2083 170.98 32.1383L170.43 31.6383C170.06 31.3383 169.75 31.0183 169.48 30.6883C169.88 31.2183 169.88 31.5883 169.48 31.7883H169.38L169.23 31.6383L168.53 30.7883L168.58 30.9883C168.71 31.5883 168.86 32.0383 169.03 32.3383L169.28 32.8883C169.41 33.1883 169.4 33.3183 169.23 33.2883C168.9 33.1883 168.6 32.9683 168.33 32.6383L168.28 32.5883L168.18 32.4383L167.78 31.2883L167.48 30.9883V31.0383C167.58 31.6383 167.66 32.2183 167.73 32.7883L167.78 33.2383C167.81 33.5083 167.75 33.6183 167.58 33.5883L167.53 33.6383H167.48L166.78 32.2883L166.43 31.2883C166.23 30.6183 166.1 29.9583 166.03 29.2883L165.93 29.5383L165.73 31.7883L165.78 32.7383C165.85 33.2683 165.86 33.7083 165.83 34.0383V34.0883H165.58L165.53 34.0383L165.43 33.9883L165.28 33.7883L164.88 32.9883L164.73 32.4383L164.58 30.8883V30.5383C164.57 30.8083 164.37 31.0283 163.98 31.1883V31.2383H163.88L163.58 31.0883L163.53 30.9883H163.48L163.33 30.6883L163.23 30.0383V29.1883L162.88 29.8383C162.65 30.2383 162.36 30.4083 162.03 30.3383H161.88L161.78 30.2383L161.43 28.9883V28.6883L161.58 27.7883C161.35 28.4583 161 28.6683 160.53 28.4383C160.36 29.4383 159.75 30.1683 158.68 30.6383C159.68 29.5683 160.03 28.5883 159.73 27.6883L160.58 27.3383L160.73 26.8383C160.5 26.7683 160.26 26.7083 160.03 26.6383C159.83 26.6683 159.63 26.6583 159.43 26.5883L159.33 26.4883V26.4383L159.28 26.3883C158.48 26.0883 157.76 25.6683 157.13 25.1383C156.86 24.9083 156.56 24.8183 156.23 24.8883C156.03 24.8883 155.85 24.9083 155.68 24.9383C155.31 25.1383 154.76 25.4583 154.03 25.8883C153.33 26.3183 152.58 26.6883 151.78 26.9883C151.48 27.0583 151.26 27.0183 151.13 26.8883C151 26.7583 151.08 26.6083 151.38 26.4383C151.85 26.1683 152.2 25.9083 152.43 25.6383L150.58 25.7883C149.75 25.7583 149.63 25.5683 150.23 25.2383C150.9 25.0383 151.41 24.8883 151.78 24.7883C152.15 24.6583 152.1 24.5683 151.63 24.5383C151.16 24.5383 150.7 24.4583 150.23 24.2883C149.3 23.9883 149.38 23.7583 150.48 23.5883C151.01 23.5883 151.48 23.6683 151.88 23.8383C150.81 23.2683 150.35 22.8683 150.48 22.6383C150.71 22.4683 151.1 22.5083 151.63 22.7383C151.9 22.8683 152.2 22.9383 152.53 22.9383C153.86 23.0083 154.9 22.9383 155.63 22.7383ZM69.1296 19.4383L69.0796 19.5883C69.2095 19.5183 69.3296 19.4683 69.4296 19.4383L69.5296 19.3883L70.0796 19.2383C70.4796 19.1683 70.8296 19.2883 71.1296 19.5883V19.6383L71.0296 20.1883L70.4296 21.6383C70.3296 21.8683 70.1796 22.1683 69.9796 22.5383L69.9296 22.6883L69.9796 23.2383C70.0496 23.2683 70.1296 23.2883 70.2296 23.2883C70.7596 23.2583 71.2996 23.3083 71.8296 23.4383C73.7596 24.3083 74.5796 25.7683 74.2796 27.8383L73.2796 26.7883C72.9796 26.6883 72.6596 26.7083 72.3296 26.8383C71.7296 27.0683 71.1496 27.3383 70.5796 27.6383L70.7796 28.3383C70.9796 29.0383 71.1296 29.5883 71.2296 29.9883L71.6296 31.0883C71.8596 31.7883 72.0995 32.3683 72.3296 32.8383L73.1796 34.3883L73.3796 34.9383L73.4296 35.1883V35.3383H73.3296L72.8796 35.1383L72.5296 34.8383L71.7796 33.9383H71.7296V33.8883H71.6296L71.4796 33.7383L70.4296 32.0883L70.2296 31.3383C70.0996 30.8683 69.9595 30.4883 69.8296 30.1883V30.2883L70.0796 32.2883L71.0296 34.8383L71.1296 35.3383V35.4883L71.0796 35.5383L70.9296 35.5883H70.7796L70.6796 35.5383L70.4796 35.3883L70.1296 34.8883H70.0796V34.8383L69.9296 34.5883L68.9296 32.2383C68.7596 31.7683 68.6296 31.3683 68.5296 31.0383V31.0883L68.6796 32.4383C68.7495 33.3383 68.9496 34.1383 69.2796 34.8383V34.9383L69.3296 35.3883C69.3296 35.6883 69.2296 35.8583 69.0296 35.8883H68.9796L68.8296 35.6883L67.9796 34.3383L67.0796 31.3883C67.0096 31.1583 66.9595 30.9583 66.9296 30.7883L67.0296 31.8883C67.0996 32.6883 67.1596 33.3083 67.2296 33.7383L67.2796 33.8383V34.7383L67.2296 35.0383V35.1383L67.1796 35.2383L67.0796 35.3383H67.0296L66.9796 35.2883C66.6096 34.9583 66.2996 34.1883 66.0296 32.9883L65.6796 30.4883C65.6496 30.4883 65.6296 30.5083 65.6296 30.5383L65.4796 31.4883C65.4096 32.1583 65.3796 32.6883 65.3796 33.0883V33.2883L65.2796 33.9383C65.2096 34.4083 65.0496 34.5083 64.7796 34.2383L64.7296 34.0383L64.4296 30.7383L64.1796 31.3883L64.0796 31.5883V31.6383C64.0796 31.7383 64.0596 31.8383 64.0296 31.9383V31.9883C63.9296 32.9183 63.9096 33.8583 63.9796 34.7883L64.4796 38.7883V38.9383C64.4096 39.1383 64.3596 39.1883 64.3296 39.0883C63.9995 39.0183 63.7096 38.6883 63.4796 38.0883L63.1296 37.0883V37.0383C62.8996 36.0083 62.7296 34.9583 62.6296 33.8883C62.4996 32.7883 62.4796 32.8583 62.5796 34.0883C62.5796 34.1183 62.5996 34.1583 62.6296 34.1883L62.6796 37.2383L62.5796 37.9883L62.5296 38.0383C62.2296 38.0383 62.0295 37.7883 61.9296 37.2883L61.7796 36.4883V36.4383C61.5096 35.9083 61.2996 35.2683 61.1296 34.5383L60.8296 33.3383C60.8296 33.1683 60.8296 32.9883 60.8296 32.7883C60.4995 33.4183 59.9495 33.8883 59.1796 34.1883C60.1796 33.1583 60.5496 32.1883 60.2796 31.2883L60.7796 31.0883C60.7796 30.9583 60.7796 30.8183 60.7796 30.6883V30.3383C60.6796 30.3083 60.5996 30.2683 60.5296 30.2383C60.0996 31.6683 59.7296 32.6683 59.4296 33.2383L58.9796 34.1383V34.2383H58.9296C58.6596 34.1383 58.5496 33.7583 58.5796 33.0883L58.6296 32.1383L58.6796 31.8883C58.7495 31.4183 58.8496 30.8183 58.9796 30.0883C59.0096 29.9583 59.0496 29.8183 59.0796 29.6883C58.9796 29.6583 58.9096 29.6183 58.8796 29.5883L57.5796 32.4383L57.4296 32.6883H57.3796C57.2096 32.6183 57.1496 32.4583 57.1796 32.1883L57.2296 31.7383L57.2796 31.6883C57.3096 30.9583 57.4296 30.2183 57.6296 29.4883C57.6996 29.2583 57.7496 29.0583 57.7796 28.8883C57.7496 28.8583 57.7296 28.8183 57.7296 28.7883L57.2296 29.8383L57.0296 30.0383L56.8796 30.1383V30.1883L56.8296 30.1383C56.8596 29.5683 56.9796 29.0183 57.1796 28.4883C57.0496 28.4183 56.9096 28.4083 56.7796 28.4383C56.5096 28.4683 56.2495 28.5083 55.9796 28.5383C55.5796 28.6683 55.0295 28.8583 54.3296 29.0883C53.5995 29.3883 52.7996 29.6083 51.9296 29.7383C51.6596 29.7383 51.4595 29.6583 51.3296 29.4883C51.1996 29.3183 51.3095 29.1883 51.6796 29.0883C52.1796 28.9183 52.5596 28.7383 52.8296 28.5383L50.9796 28.2883C50.1796 28.1183 50.0996 27.9183 50.7296 27.6883C51.4296 27.6583 51.9595 27.6083 52.3296 27.5383C52.7296 27.4683 52.6996 27.3883 52.2296 27.2883C51.7596 27.1883 51.3296 27.0183 50.9296 26.7883C50.0595 26.2883 50.1796 26.0683 51.2796 26.1383C51.8096 26.2383 52.2596 26.4083 52.6296 26.6383C51.6996 25.8683 51.3096 25.3883 51.4796 25.1883C51.7096 25.0883 52.0796 25.2083 52.5796 25.5383C52.8096 25.7083 53.0995 25.8383 53.4296 25.9383C54.4995 26.1683 55.3996 26.3083 56.1296 26.3383C56.1596 26.3383 56.1996 26.3183 56.2296 26.2883L57.9296 25.4883C58.1995 25.0883 58.4796 24.7583 58.7796 24.4883C59.4096 23.8883 59.9296 23.3383 60.3296 22.8383C60.3596 22.8383 60.3796 22.8183 60.3796 22.7883C60.9496 22.1883 61.7796 21.5883 62.8796 20.9883L64.6296 19.9883H64.7296C65.3996 19.6883 66.1496 19.4183 66.9796 19.1883L68.3796 18.8383C68.9096 18.8683 69.1596 19.0683 69.1296 19.4383ZM30.1796 10.3383C30.6796 10.2683 31.1996 10.3083 31.7296 10.4383C33.6595 11.3083 34.4796 12.7683 34.1796 14.8383L33.1796 13.7883C32.8795 13.7183 32.5796 13.7583 32.2796 13.8883C31.4496 14.1583 30.6796 14.5083 29.9796 14.9383L30.1796 15.3883L30.5296 15.8883C30.8996 16.2883 31.2996 16.5183 31.7296 16.5883L31.8296 16.6383L34.0296 16.7883C34.2296 16.7883 34.4496 16.7683 34.6796 16.7383C34.8795 16.7083 35.1295 16.6183 35.4296 16.4883V16.5383L35.2296 16.8883L35.1796 16.9383C34.9796 17.1683 34.4996 17.3683 33.7296 17.5383L33.7796 17.5883V17.6383L33.7296 17.6883L32.9296 17.9883L32.0296 17.8883C31.4996 17.8583 31.0295 17.7683 30.6295 17.6383C30.7995 17.7683 30.6295 17.8183 30.1295 17.7883H30.0796L29.3795 17.5383C29.1496 17.9383 28.7996 18.3583 28.3296 18.7883L28.2296 18.8383L27.5796 19.3883C27.0796 19.7883 26.3795 20.0883 25.4796 20.2883L25.4296 20.3383L24.4796 20.4383C23.8795 20.5083 23.5096 20.4183 23.3795 20.1883V20.0883L23.5796 19.8883L24.9296 18.9883C24.8996 18.9883 24.8596 19.0083 24.8296 19.0383C24.7996 19.0383 24.7596 19.0583 24.7296 19.0883C24.6595 19.0883 24.6096 19.1083 24.5796 19.1383H24.4796C24.4496 19.1383 24.4095 19.1583 24.3795 19.1883C24.3495 19.1883 24.3096 19.1883 24.2796 19.1883C24.2496 19.2183 24.2095 19.2383 24.1796 19.2383C24.1496 19.2683 24.0996 19.2883 24.0296 19.2883C23.9996 19.2883 23.9595 19.3083 23.9296 19.3383C23.8996 19.3383 23.8596 19.3383 23.8296 19.3383C23.7996 19.3683 23.7596 19.3883 23.7296 19.3883C23.6996 19.3883 23.6496 19.4083 23.5796 19.4383C23.5496 19.4383 23.5096 19.4383 23.4796 19.4383C23.4496 19.4383 23.4095 19.4583 23.3795 19.4883C23.3495 19.4883 23.2996 19.4883 23.2296 19.4883C23.1996 19.5183 23.1595 19.5383 23.1295 19.5383C23.0995 19.5383 23.0596 19.5383 23.0296 19.5383C22.9996 19.5383 22.9595 19.5583 22.9296 19.5883C22.8595 19.5883 22.7996 19.5883 22.7296 19.5883C22.6595 19.5883 22.5996 19.5883 22.5296 19.5883C22.4595 19.5883 22.3996 19.5883 22.3296 19.5883C22.2996 19.5883 22.2496 19.5883 22.1796 19.5883C22.1496 19.5583 22.1096 19.5383 22.0796 19.5383C22.0096 19.5083 21.9595 19.4883 21.9296 19.4883C21.8996 19.4583 21.8496 19.4183 21.7796 19.3883V19.3383L21.9296 18.9883L22.3795 18.6883L23.8795 18.2883C23.9496 18.2583 23.9996 18.2383 24.0296 18.2383C24.0596 18.2383 24.0995 18.2183 24.1295 18.1883H24.2296C24.2596 18.1583 24.3095 18.1383 24.3795 18.1383C24.4095 18.1383 24.4496 18.1183 24.4796 18.0883C24.5096 18.0883 24.5496 18.0883 24.5796 18.0883C24.6096 18.0883 24.6496 18.0683 24.6796 18.0383C24.7095 18.0383 24.7496 18.0383 24.7796 18.0383C24.8496 18.0083 24.8996 17.9683 24.9296 17.9383C24.9996 17.9083 25.0595 17.8883 25.1295 17.8883C25.1996 17.8583 25.2496 17.8383 25.2796 17.8383C25.3096 17.8083 25.3595 17.7683 25.4296 17.7383L23.8296 18.0883C23.7596 18.1183 23.6996 18.1383 23.6295 18.1383C23.5595 18.1383 23.4996 18.1583 23.4296 18.1883C23.3595 18.1883 23.2996 18.2083 23.2296 18.2383C23.1996 18.2383 23.1496 18.2383 23.0796 18.2383C23.0096 18.2383 22.9496 18.2583 22.8795 18.2883C22.8495 18.2883 22.7996 18.3083 22.7296 18.3383C22.6595 18.3383 22.5996 18.3383 22.5296 18.3383C22.4996 18.3383 22.4496 18.3383 22.3795 18.3383C22.3095 18.3383 22.2596 18.3583 22.2296 18.3883C22.1595 18.3883 22.1096 18.3883 22.0796 18.3883C22.0096 18.3883 21.9496 18.4083 21.8795 18.4383C21.8495 18.4383 21.7996 18.4383 21.7296 18.4383C21.6996 18.4383 21.6496 18.4583 21.5796 18.4883C21.5096 18.4883 21.4595 18.4883 21.4296 18.4883C21.3595 18.4883 21.3096 18.4883 21.2796 18.4883C21.2095 18.4883 21.1595 18.5083 21.1295 18.5383H20.9796C20.9796 19.8083 20.3496 20.7083 19.0796 21.2383C20.0096 20.2683 20.3996 19.3583 20.2296 18.4883H20.1796C20.1095 18.4883 20.0496 18.4883 19.9796 18.4883C19.9095 18.4883 19.8496 18.4683 19.7796 18.4383C19.7095 18.4383 19.6595 18.4383 19.6295 18.4383C19.5595 18.4083 19.4996 18.3883 19.4296 18.3883C19.3996 18.3583 19.3596 18.3383 19.3296 18.3383C19.2596 18.3083 19.2095 18.2683 19.1796 18.2383C19.1496 18.2083 19.1096 18.1683 19.0796 18.1383C19.0496 18.1083 19.0096 18.0883 18.9796 18.0883V18.0383L19.0796 17.8383V17.7883L19.5296 17.5883L20.5796 17.3383C20.4796 17.3083 20.3796 17.2683 20.2796 17.2383H20.2296C20.1996 17.2383 20.1496 17.2383 20.0796 17.2383C20.0496 17.2383 19.9996 17.2383 19.9296 17.2383C19.8996 17.2383 19.8496 17.2583 19.7796 17.2883C19.7496 17.2583 19.7095 17.2583 19.6796 17.2883C19.6095 17.2883 19.5596 17.2883 19.5296 17.2883C19.4595 17.2883 19.4095 17.2883 19.3795 17.2883C19.3495 17.2883 19.2996 17.2883 19.2296 17.2883C19.1996 17.2883 19.1496 17.2883 19.0796 17.2883C19.0496 17.2883 19.0096 17.2883 18.9796 17.2883C18.9496 17.2883 18.8996 17.2883 18.8296 17.2883C18.7996 17.2883 18.7596 17.2883 18.7296 17.2883C18.6595 17.2883 18.6096 17.2883 18.5796 17.2883C18.5496 17.2883 18.4996 17.2883 18.4296 17.2883C18.3996 17.2583 18.3596 17.2383 18.3296 17.2383C18.2996 17.2383 18.2596 17.2383 18.2296 17.2383C18.1595 17.2383 18.1096 17.2383 18.0796 17.2383L16.8795 17.1883C16.8095 17.1583 16.7496 17.1383 16.6796 17.1383C16.6095 17.1083 16.5596 17.0883 16.5296 17.0883C16.4595 17.0583 16.4095 17.0383 16.3795 17.0383C16.3495 17.0083 16.3296 16.9683 16.3296 16.9383C16.3296 16.9083 16.3296 16.8683 16.3296 16.8383C16.3296 16.8083 16.3495 16.7683 16.3795 16.7383C16.4095 16.7083 16.4496 16.6683 16.4796 16.6383L16.5296 16.5883C16.5596 16.5583 16.5995 16.5183 16.6295 16.4883V16.4383H16.6796L16.7296 16.3883L17.9296 16.0383C17.7995 15.9383 17.6796 15.8583 17.5796 15.7883C17.5496 15.7583 17.4996 15.7183 17.4296 15.6883C17.3595 15.6883 17.2996 15.6883 17.2296 15.6883C17.1996 15.6583 17.1595 15.6383 17.1295 15.6383C17.0595 15.6383 17.0096 15.6383 16.9796 15.6383C16.9095 15.6383 16.8596 15.6383 16.8296 15.6383C16.7996 15.6383 16.7496 15.6383 16.6796 15.6383C16.6496 15.6083 16.5996 15.5883 16.5296 15.5883C16.4996 15.5883 16.4595 15.5883 16.4296 15.5883C16.3996 15.5883 16.3496 15.5883 16.2796 15.5883C16.2496 15.5583 16.2095 15.5383 16.1796 15.5383H16.0796C15.7096 15.7683 15.1595 16.1083 14.4296 16.5383C13.7296 16.9383 12.9796 17.2883 12.1796 17.5883C11.9095 17.6583 11.6996 17.6183 11.5296 17.4883C11.3996 17.3583 11.4996 17.2083 11.8296 17.0383C12.2996 16.7683 12.6496 16.5083 12.8795 16.2383L10.9796 16.3883C10.1796 16.3583 10.0595 16.1683 10.6295 15.8383C11.2995 15.6683 11.8296 15.5183 12.2296 15.3883C12.5995 15.2583 12.5296 15.1683 12.0296 15.1383C11.5596 15.1383 11.1095 15.0683 10.6796 14.9383C9.70955 14.6083 9.77954 14.3683 10.8795 14.2383C11.4095 14.2083 11.8796 14.2683 12.2796 14.4383C11.2496 13.8683 10.7995 13.4683 10.9296 13.2383C11.1295 13.0683 11.4996 13.1083 12.0296 13.3383C12.2996 13.4683 12.6096 13.5383 12.9796 13.5383C14.2796 13.6083 15.2996 13.5583 16.0296 13.3883C16.0596 13.3583 16.1095 13.3383 16.1796 13.3383L16.4796 13.1883L16.4296 13.1383L16.0296 12.9383C15.9996 12.9083 15.9595 12.8883 15.9296 12.8883C15.9296 12.8583 15.9095 12.8183 15.8795 12.7883C15.8495 12.7583 15.8296 12.7183 15.8296 12.6883C15.7996 12.6583 15.7996 12.6183 15.8296 12.5883C15.8296 12.5183 15.8495 12.4683 15.8795 12.4383L15.9796 12.3383L16.2296 12.2883H16.5796L17.1796 12.3883H18.1295L20.7796 11.0883C23.3496 9.95827 26.4796 9.70827 30.1796 10.3383Z" fill="#9E4949"/>
</svg>
