<svg width="348" height="221" viewBox="0 0 348 221" fill="none" xmlns="http://www.w3.org/2000/svg">
<g clip-path="url(#clip0_891_552)">
<path d="M136.29 144.179C135.105 142.911 134.511 141.376 134.511 139.577C134.511 137.777 135.105 136.242 136.29 134.975C137.475 133.707 138.91 133.072 140.592 133.072C142.275 133.072 143.71 133.707 144.895 134.975C146.08 136.242 146.674 137.777 146.674 139.577C146.674 141.376 146.08 142.911 144.895 144.179C143.71 145.446 142.275 146.082 140.592 146.082C138.91 146.082 137.477 145.446 136.29 144.179Z" fill="#A85432"/>
<path d="M143.561 142.392L142.816 136.838C146.472 133.396 150.14 132.455 153.825 134.01L173.992 159.425L154.221 138.188C149.618 136.985 146.066 138.384 143.561 142.392ZM136.699 136.838L135.941 142.392C132.302 137.921 128.812 136.365 125.473 137.726L102.999 161.071L125.726 133.599C130.197 132.645 133.855 133.725 136.699 136.838Z" fill="#A85432"/>
</g>
<g clip-path="url(#clip1_891_552)">
<path d="M262.637 176.146C261.001 174.426 260.182 172.343 260.182 169.9C260.182 167.458 261.001 165.375 262.637 163.654C264.273 161.934 266.253 161.072 268.576 161.072C270.898 161.072 272.879 161.934 274.514 163.654C276.15 165.375 276.97 167.458 276.97 169.9C276.97 172.343 276.15 174.426 274.514 176.146C272.879 177.866 270.898 178.728 268.576 178.728C266.253 178.728 264.276 177.866 262.637 176.146Z" fill="#A85432"/>
<path d="M272.673 173.721L271.645 166.184C276.691 161.512 281.754 160.235 286.84 162.346L314.676 196.837L287.387 168.016C281.034 166.383 276.13 168.281 272.673 173.721ZM263.201 166.184L262.156 173.721C257.133 167.653 252.315 165.542 247.707 167.388L216.686 199.07L248.055 161.787C254.226 160.493 259.276 161.958 263.201 166.184Z" fill="#A85432"/>
</g>
<g clip-path="url(#clip2_891_552)">
<path d="M60.6368 53.0749C59.0012 51.3547 58.1817 49.2716 58.1817 46.8291C58.1817 44.3866 59.0012 42.3035 60.6368 40.5833C62.2725 38.863 64.2532 38.0012 66.5756 38.0012C68.8981 38.0012 70.8788 38.863 72.5144 40.5833C74.1501 42.3035 74.9696 44.3866 74.9696 46.8291C74.9696 49.2716 74.1501 51.3547 72.5144 53.0749C70.8788 54.7951 68.8981 55.657 66.5756 55.657C64.2532 55.657 62.2758 54.7951 60.6368 53.0749Z" fill="#A85432"/>
<path d="M70.673 50.6497L69.6445 43.1128C74.6908 38.4407 79.7538 37.1636 84.8399 39.2746L112.676 73.7662L85.3874 44.9447C79.0338 43.3117 74.1302 45.2099 70.673 50.6497ZM61.2008 43.1128L60.1557 50.6497C55.1326 44.5819 50.3152 42.4708 45.7068 44.3167L14.6856 75.9993L46.0552 38.7164C52.2262 37.4218 57.2759 38.8873 61.2008 43.1128Z" fill="#A85432"/>
</g>
<defs>
<clipPath id="clip0_891_552">
<rect width="71" height="28" fill="white" transform="translate(103 133.071)"/>
</clipPath>
<clipPath id="clip1_891_552">
<rect width="98" height="38" fill="white" transform="translate(216.687 161.071)"/>
</clipPath>
<clipPath id="clip2_891_552">
<rect width="98" height="38" fill="white" transform="translate(14.6874 38)"/>
</clipPath>
</defs>
</svg>
