<svg width="1440" height="150" viewBox="0 0 1440 150" fill="none" xmlns="http://www.w3.org/2000/svg">
<g clip-path="url(#clip0_853_555)">
<path fill-rule="evenodd" clip-rule="evenodd" d="M1584.96 87.8611L1496.46 68.0477C1409.29 48.2344 1232.29 8.60782 1056.61 15.2123C880.931 21.8167 703.932 74.6522 528.254 87.8611C352.576 101.07 175.578 74.6522 88.399 61.4433L-0.100342 48.2344V285.994H88.399C175.578 285.994 352.576 285.994 528.254 285.994C703.932 285.994 880.931 285.994 1056.61 285.994C1232.29 285.994 1409.29 285.994 1496.46 285.994H1584.96V87.8611Z" fill="#F77046"/>
<path fill-rule="evenodd" clip-rule="evenodd" d="M-0.100586 105.122L80.2994 87.1217C159.499 69.1217 320.299 33.1217 479.899 39.1217C639.499 45.1217 800.299 93.1217 959.899 105.122C1119.5 117.122 1280.3 93.1217 1359.5 81.1217L1439.9 69.1217V285.122H1359.5C1280.3 285.122 1119.5 285.122 959.899 285.122C800.299 285.122 639.499 285.122 479.899 285.122C320.299 285.122 159.499 285.122 80.2994 285.122H-0.100586V105.122Z" fill="#F9A151"/>
<path fill-rule="evenodd" clip-rule="evenodd" d="M1584.96 87.8611L1496.46 68.0477C1409.29 48.2344 1232.29 8.60782 1056.61 15.2123C880.931 21.8167 703.932 74.6522 528.254 87.8611C352.576 101.07 175.578 74.6522 88.399 61.4433L-0.100342 48.2344V285.994H88.399C175.578 285.994 352.576 285.994 528.254 285.994C703.932 285.994 880.931 285.994 1056.61 285.994C1232.29 285.994 1409.29 285.994 1496.46 285.994H1584.96V87.8611Z" fill="#F77046"/>
<path fill-rule="evenodd" clip-rule="evenodd" d="M-0.100586 105.122L80.2994 87.1217C159.499 69.1217 320.299 33.1217 479.899 39.1217C639.499 45.1217 800.299 93.1217 959.899 105.122C1119.5 117.122 1280.3 93.1217 1359.5 81.1217L1439.9 69.1217V285.122H1359.5C1280.3 285.122 1119.5 285.122 959.899 285.122C800.299 285.122 639.499 285.122 479.899 285.122C320.299 285.122 159.499 285.122 80.2994 285.122H-0.100586V105.122Z" fill="#F9A151"/>
</g>
<defs>
<clipPath id="clip0_853_555">
<rect width="1440" height="149" fill="white" transform="translate(0 0.5)"/>
</clipPath>
</defs>
</svg>
