<svg width="1440" height="145" viewBox="0 0 1440 145" fill="none" xmlns="http://www.w3.org/2000/svg">
<g clip-path="url(#clip0_883_622)">
<path d="M1251.5 76.9254C1251.17 76.9554 1250.83 76.9754 1250.5 76.9754C1251.4 77.2054 1251.73 77.1954 1251.5 76.9254ZM1100.45 62.4754C1100.45 63.1454 1100.57 63.7954 1100.8 64.4254C1100.97 64.9954 1101.1 65.5754 1101.2 66.1754C1101.13 64.7454 1100.97 63.3454 1100.7 61.9754C1100.53 62.1454 1100.45 62.3054 1100.45 62.4754ZM1415.1 41.8754C1414.8 42.0054 1414.48 42.1054 1414.15 42.1754C1414.15 42.2754 1414.15 42.3754 1414.15 42.4754C1414.15 42.8054 1414.15 43.1454 1414.15 43.4754C1414.15 43.8054 1414.08 44.1054 1413.95 44.3754C1413.92 44.4454 1413.7 44.4454 1413.3 44.3754C1413.03 43.9454 1412.78 43.4954 1412.55 43.0254C1412.42 42.7954 1412.3 42.5554 1412.2 42.3254C1411.57 42.2554 1410.97 42.0554 1410.4 41.7254C1410.37 41.8254 1410.33 41.9254 1410.3 42.0254C1410.2 42.3254 1410.15 42.6454 1410.15 42.9754C1410.15 43.1454 1409.98 43.3054 1409.65 43.4754C1409.65 43.3054 1409.62 42.9954 1409.55 42.5254C1409.45 42.3254 1409.32 42.1454 1409.15 41.9754C1408.82 41.6454 1408.33 41.3254 1407.7 41.0254H1407.65C1407.65 41.1554 1407.65 41.3054 1407.65 41.4754C1407.65 41.8054 1407.65 42.1454 1407.65 42.4754C1407.65 42.6454 1407.65 42.8054 1407.65 42.9754C1407.65 43.1454 1407.48 43.3054 1407.15 43.4754C1406.98 43.4754 1406.82 43.3054 1406.65 42.9754C1406.65 42.8054 1406.65 42.6454 1406.65 42.4754C1406.48 41.9754 1406.23 41.5954 1405.9 41.3254C1405.83 41.2554 1405.77 41.2054 1405.7 41.1754C1405.13 41.2754 1404.57 41.3954 1404 41.5254C1403.87 41.5554 1403.72 41.6054 1403.55 41.6754C1403.38 41.9054 1403.13 42.1454 1402.8 42.3754C1402.7 42.2754 1402.58 42.1754 1402.45 42.0754C1402.35 42.1054 1402.27 42.1454 1402.2 42.1754C1401.8 42.3754 1401.35 42.4754 1400.85 42.4754C1400.75 42.4754 1400.65 42.4754 1400.55 42.4754C1400.48 42.9754 1400.37 43.4754 1400.2 43.9754C1400.17 44.1454 1400.12 44.4554 1400.05 44.9254C1399.95 45.1254 1399.65 45.3054 1399.15 45.4754C1398.82 44.5054 1398.17 43.6554 1397.2 42.9254C1396.83 42.6254 1396.45 42.4254 1396.05 42.3254C1395.78 42.2554 1395.57 42.3554 1395.4 42.6254C1395.2 42.8554 1395.03 43.1054 1394.9 43.3754C1394.7 43.7754 1394.47 44.1554 1394.2 44.5254C1393.97 44.8254 1393.77 45.1454 1393.6 45.4754C1393.27 45.4754 1393.02 45.3954 1392.85 45.2254C1392.52 44.8954 1392.23 44.4954 1392 44.0254C1391.7 43.4554 1391.4 42.8554 1391.1 42.2254C1390.2 42.1554 1389.3 42.1054 1388.4 42.0754C1388.27 42.3454 1388.12 42.6054 1387.95 42.8754C1387.72 43.2754 1387.4 43.5754 1387 43.7754C1386.73 43.9054 1386.43 43.9754 1386.1 43.9754C1385.53 43.4754 1385.33 42.8054 1385.5 41.9754C1385.5 41.9054 1385.52 41.8454 1385.55 41.7754C1385.48 41.7454 1385.42 41.7254 1385.35 41.7254C1384.72 41.6254 1384.3 41.4054 1384.1 41.0754C1383.9 40.6754 1383.68 40.2754 1383.45 39.8754C1383.15 39.3754 1382.8 38.9554 1382.4 38.6254C1382.23 38.8254 1382.05 39.0254 1381.85 39.2254C1381.52 39.5554 1381.17 39.6554 1380.8 39.5254C1380.2 39.2954 1379.65 38.9954 1379.15 38.6254C1377.98 39.6554 1376.52 40.1254 1374.75 40.0254C1374.12 39.9954 1373.48 40.1554 1372.85 40.5254C1372.12 40.9554 1371.47 41.4254 1370.9 41.9254C1370.37 42.3254 1369.9 42.7554 1369.5 43.2254C1369.37 43.3954 1369.13 43.4454 1368.8 43.3754C1368.23 43.2454 1367.65 42.8754 1367.05 42.2754L1367 42.2254C1366.83 42.0554 1366.6 41.9254 1366.3 41.8254C1363.83 41.1554 1361.3 41.1454 1358.7 41.7754C1358.07 41.9054 1357.42 41.9954 1356.75 42.0254C1355.25 42.0554 1353.87 41.8454 1352.6 41.3754C1351.87 41.1054 1351.1 40.8954 1350.3 40.7254C1349.87 40.6254 1349.43 40.5254 1349 40.4254C1348.73 40.3554 1348.47 40.2954 1348.2 40.2254C1347.2 39.9554 1346.33 39.4254 1345.6 38.6254C1345.37 38.3554 1345.1 38.1254 1344.8 37.9254C1344.7 37.8554 1344.6 37.7954 1344.5 37.7254C1343.17 37.8554 1341.85 37.9454 1340.55 37.9754C1340.18 37.9754 1340 37.9954 1340 38.0254C1339.9 39.2254 1339.57 40.0454 1339 40.4754C1338.67 40.4754 1338.38 40.4054 1338.15 40.2754C1336.92 39.5454 1335.77 38.7454 1334.7 37.8754C1334.67 37.8754 1334.63 37.8954 1334.6 37.9254C1331.43 40.0954 1328.18 41.5254 1324.85 42.2254C1324.75 42.2554 1324.67 42.2754 1324.6 42.2754C1322.63 42.6754 1320.65 42.9754 1318.65 43.1754C1317.95 43.2754 1317.53 43.2954 1317.4 43.2254C1317.33 43.1954 1317.25 43.1754 1317.15 43.1754C1316.22 42.8754 1315.22 42.7554 1314.15 42.8254C1310.85 43.0554 1307.67 43.6054 1304.6 44.4754C1303.93 44.6754 1303.25 44.8454 1302.55 44.9754C1300.28 45.4754 1297.97 45.6954 1295.6 45.6254C1294.27 45.6254 1292.93 45.7254 1291.6 45.9254C1291.83 46.1954 1291.5 46.2054 1290.6 45.9754C1290.93 45.9754 1291.27 45.9554 1291.6 45.9254C1291.6 45.4554 1291.43 45.2054 1291.1 45.1754C1290.3 45.0754 1289.52 45.0054 1288.75 44.9754H1288.6C1288.4 44.9754 1288.2 44.9754 1288 44.9754H1287.8C1286.87 45.0054 1285.93 45.1054 1285 45.2754C1284.37 45.4054 1283.85 45.3754 1283.45 45.1754C1283.28 45.1054 1283.12 45.0454 1282.95 44.9754C1282.82 44.9454 1282.68 44.9054 1282.55 44.8754C1281.22 44.6754 1279.92 44.7054 1278.65 44.9754C1278.45 45.1754 1278.23 45.3754 1278 45.5754C1277.7 45.8754 1277.17 46.1554 1276.4 46.4254C1275.73 46.6254 1275.07 46.8054 1274.4 46.9754C1274.47 46.9054 1274.55 46.8254 1274.65 46.7254C1273.85 47.2554 1273.02 47.7454 1272.15 48.1754C1271.75 48.3754 1271.35 48.5754 1270.95 48.7754C1270.68 48.9054 1270.38 49.0054 1270.05 49.0754C1268.42 49.3754 1267.22 49.0254 1266.45 48.0254C1266.18 47.6554 1265.93 47.2754 1265.7 46.8754C1265.37 46.2754 1265.13 45.6554 1265 45.0254C1264.9 44.3554 1264.88 43.6754 1264.95 42.9754C1265.02 42.4054 1264.97 41.9054 1264.8 41.4754C1264.5 41.6454 1264.2 41.8054 1263.9 41.9754C1263.4 42.3054 1262.88 42.5754 1262.35 42.7754C1261.88 42.9054 1261.4 42.9754 1260.9 42.9754C1261.23 42.8054 1261.53 42.6054 1261.8 42.3754C1262.27 41.8754 1262.72 41.3454 1263.15 40.7754C1262.65 40.7454 1262.2 40.7754 1261.8 40.8754C1261.13 41.3754 1260.42 41.7954 1259.65 42.1254C1259.25 42.5254 1258.75 42.8954 1258.15 43.2254C1257.55 43.5554 1256.97 43.9054 1256.4 44.2754C1255.87 44.6054 1255.3 44.8954 1254.7 45.1254C1254.2 45.3254 1253.67 45.4754 1253.1 45.5754C1252.53 45.6754 1251.97 45.9254 1251.4 46.3254C1249.5 47.6554 1247.37 48.2254 1245 48.0254C1244.33 47.9954 1243.67 47.9554 1243 47.9254C1242.13 47.9254 1241.72 47.4454 1241.75 46.4754C1241.75 46.3054 1241.67 46.1454 1241.5 45.9754C1241 45.9754 1240.52 46.0254 1240.05 46.1254C1239.02 46.3554 1238 46.6554 1237 47.0254C1236.67 47.1554 1236.35 47.3254 1236.05 47.5254C1235.85 47.6554 1235.65 47.7554 1235.45 47.8254C1234.82 48.0954 1234.17 48.3054 1233.5 48.4754C1233.83 47.9754 1234.2 47.5054 1234.6 47.0754C1235 46.6754 1235.12 46.2054 1234.95 45.6754C1234.95 45.6454 1234.93 45.5954 1234.9 45.5254C1234.67 44.8554 1234.33 44.0254 1233.9 43.0254C1233.8 42.8254 1233.73 42.6254 1233.7 42.4254C1233.57 41.6254 1233.5 40.8054 1233.5 39.9754C1233.47 38.6054 1233.25 37.3454 1232.85 36.1754C1232.68 36.1054 1232.5 36.0454 1232.3 35.9754C1231.9 36.6754 1231.43 37.3754 1230.9 38.0754C1230.47 38.6754 1230.05 39.2954 1229.65 39.9254C1229.55 40.1254 1229.43 40.3254 1229.3 40.5254C1229.27 40.6254 1229.23 40.7454 1229.2 40.8754C1229.03 41.4454 1228.77 41.9554 1228.4 42.4254C1228.27 42.6254 1228.12 42.8054 1227.95 42.9754C1227.95 42.6454 1227.95 42.3054 1227.95 41.9754C1227.95 41.9454 1227.95 41.9054 1227.95 41.8754C1227.88 41.7454 1227.82 41.6054 1227.75 41.4754C1227.58 41.1454 1227.45 40.7954 1227.35 40.4254C1227.28 40.1254 1227.23 39.6554 1227.2 39.0254C1227.07 38.6554 1226.9 38.3254 1226.7 38.0254C1226.6 37.8554 1226.5 37.7254 1226.4 37.6254C1226.23 38.3954 1226.15 39.1754 1226.15 39.9754C1226.18 40.8054 1226.15 41.6454 1226.05 42.4754C1225.98 43.1454 1225.95 43.8054 1225.95 44.4754C1225.78 43.9754 1225.65 43.6254 1225.55 43.4254C1225.48 42.7954 1225.42 42.3254 1225.35 42.0254C1225.25 41.6554 1225.13 41.3054 1225 40.9754C1224.97 40.8054 1224.95 40.6454 1224.95 40.4754C1224.92 40.3054 1224.88 40.1754 1224.85 40.0754C1224.58 40.3454 1224.3 40.5954 1224 40.8254C1223.97 40.8554 1223.95 40.9054 1223.95 40.9754C1223.62 42.1454 1223.28 43.3054 1222.95 44.4754C1222.78 44.9754 1222.6 45.4754 1222.4 45.9754C1222.37 46.0754 1222.33 46.1754 1222.3 46.2754C1222.2 46.5054 1222.1 46.7554 1222 47.0254C1221.63 47.1554 1221.35 47.0954 1221.15 46.8254C1221.02 46.6554 1220.9 46.4954 1220.8 46.3254C1220.63 46.0954 1220.47 45.8454 1220.3 45.5754C1219.73 44.6754 1219.22 43.7554 1218.75 42.8254C1218.55 42.4254 1218.42 41.9754 1218.35 41.4754C1218.32 41.4754 1218.3 41.4954 1218.3 41.5254C1218.1 41.8254 1217.88 42.2754 1217.65 42.8754C1217.58 42.9454 1217.52 43.0054 1217.45 43.0754C1217.42 44.2054 1217.37 45.3454 1217.3 46.4754V46.5254C1217.23 47.1554 1217.15 47.8054 1217.05 48.4754C1216.98 49.1454 1216.95 49.8054 1216.95 50.4754C1216.18 50.2454 1215.62 49.0554 1215.25 46.9254C1215.25 46.8254 1215.23 46.7454 1215.2 46.6754C1214.83 44.7054 1214.28 43.5454 1213.55 43.1754C1212.82 42.8054 1212.03 43.5254 1211.2 45.3254C1210.7 46.3554 1210.33 47.0454 1210.1 47.3754C1209.97 47.5754 1209.88 47.6054 1209.85 47.4754C1209.62 45.9754 1210.02 44.6954 1211.05 43.6254C1211.32 43.3554 1211.45 42.9754 1211.45 42.4754C1211.28 42.1454 1211.12 41.9754 1210.95 41.9754C1210.78 41.9754 1210.62 41.9754 1210.45 41.9754C1210.28 41.9754 1210.12 41.9754 1209.95 41.9754C1209.78 41.9754 1209.62 41.9754 1209.45 41.9754C1209.12 41.9754 1208.78 41.9754 1208.45 41.9754C1208.45 41.4754 1208.52 40.9954 1208.65 40.5254C1208.68 40.3254 1208.75 40.1254 1208.85 39.9254C1208.92 39.4554 1208.95 39.1454 1208.95 38.9754C1208.95 38.8054 1208.95 38.6454 1208.95 38.4754C1208.78 38.4754 1208.62 38.4754 1208.45 38.4754C1208.28 38.4754 1208.12 38.4754 1207.95 38.4754C1207.45 38.8054 1207.1 39.1254 1206.9 39.4254C1206.77 39.6254 1206.62 39.8054 1206.45 39.9754C1206.28 40.1454 1206.12 40.3054 1205.95 40.4754C1206.28 39.6454 1206.52 38.7954 1206.65 37.9254C1206.78 37.1554 1206.88 36.3954 1206.95 35.6254C1206.52 36.0554 1206.1 36.5054 1205.7 36.9754C1205.4 37.3054 1205.08 37.6454 1204.75 37.9754C1204.75 37.8054 1204.75 37.6454 1204.75 37.4754C1204.75 37.1454 1204.75 36.8054 1204.75 36.4754C1204.75 36.1454 1204.75 35.8054 1204.75 35.4754C1204.75 35.3054 1204.75 35.1454 1204.75 34.9754C1204.58 35.3054 1204.47 35.6554 1204.4 36.0254C1204.3 36.4954 1204.15 36.9254 1203.95 37.3254C1203.62 37.9254 1203.28 38.5254 1202.95 39.1254C1202.62 39.6954 1202.2 40.3054 1201.7 40.9754C1200.97 41.1054 1200.47 40.7754 1200.2 39.9754C1200.03 39.4754 1199.83 38.9954 1199.6 38.5254C1198.8 36.9954 1197.93 35.5054 1197 34.0754C1196.7 33.6454 1196.38 33.2254 1196.05 32.8254C1195.92 32.8254 1195.8 32.8454 1195.7 32.8754C1195.6 34.1454 1195.1 34.8754 1194.2 35.0754C1193.7 35.1754 1193.23 35.1754 1192.8 35.0754C1192.57 35.0054 1192.33 34.8454 1192.1 34.5754C1191.6 33.9754 1191.07 33.4554 1190.5 33.0254C1190.4 33.1954 1190.3 33.3754 1190.2 33.5754C1190.1 33.7054 1190 33.8454 1189.9 33.9754C1189.7 33.8754 1189.53 33.7554 1189.4 33.6254C1189.27 33.5254 1189.15 33.4254 1189.05 33.3254C1188.85 33.0954 1188.67 32.8454 1188.5 32.5754C1188.43 32.7054 1188.4 32.8454 1188.4 32.9754C1188.27 34.6454 1188.2 36.3054 1188.2 37.9754C1188.2 39.3054 1188.2 40.6454 1188.2 41.9754C1188.2 42.6454 1188.2 43.3054 1188.2 43.9754C1187.7 43.6454 1187.25 43.2754 1186.85 42.8754C1186.25 42.2754 1185.67 41.6554 1185.1 41.0254C1184.33 40.1554 1183.45 39.4754 1182.45 38.9754C1181.45 38.4754 1180.37 38.2254 1179.2 38.2254C1178.87 38.2254 1178.62 38.3554 1178.45 38.6254C1177.02 40.6554 1175.08 41.4954 1172.65 41.1254C1171.98 41.0254 1171.37 41.0954 1170.8 41.3254C1169.4 41.8954 1167.68 42.1254 1165.65 42.0254C1165.32 41.9954 1165.03 41.9054 1164.8 41.7754C1164.2 41.4054 1163.9 40.9754 1163.9 40.4754C1163.9 37.9454 1162.67 36.9954 1160.2 37.6254C1160 37.6954 1159.8 37.7554 1159.6 37.8254C1158.77 38.1254 1157.93 38.4454 1157.1 38.7754C1157.13 39.0054 1157.18 39.2454 1157.25 39.4754C1157.28 39.6454 1157.3 39.8054 1157.3 39.9754C1157.33 40.1754 1157.1 39.8254 1156.6 38.9254C1155.97 39.1554 1155.33 39.3954 1154.7 39.6254C1154.17 39.8554 1153.63 40.0454 1153.1 40.1754C1150.73 40.6754 1148.4 41.2554 1146.1 41.9254C1145.5 42.0954 1144.92 42.2754 1144.35 42.4754C1143.08 42.4754 1141.83 42.4754 1140.6 42.4754C1140.27 42.4754 1139.95 42.5254 1139.65 42.6254C1138.95 42.8954 1138.13 43.0554 1137.2 43.1254C1136.53 43.1254 1135.83 43.0754 1135.1 42.9754C1135.27 42.8054 1135.4 42.6254 1135.5 42.4254C1135.57 42.2954 1135.63 42.1554 1135.7 42.0254C1135.83 41.6954 1135.97 41.3454 1136.1 40.9754C1136.5 39.5754 1136.17 38.9054 1135.1 38.9754C1134.77 38.9754 1134.47 39.0454 1134.2 39.1754C1133.1 39.7454 1131.98 40.1754 1130.85 40.4754C1129.82 40.7754 1128.75 40.9754 1127.65 41.0754C1126.65 41.1454 1125.63 41.1454 1124.6 41.0754C1124.4 41.0754 1124.22 41.0754 1124.05 41.0754C1123.32 41.0454 1122.6 41.0754 1121.9 41.1754C1121.8 41.1754 1121.7 41.1754 1121.6 41.1754C1120 41.4054 1119.15 41.0054 1119.05 39.9754C1119.55 39.9754 1119.98 39.8554 1120.35 39.6254C1120.82 39.3554 1121.22 38.8054 1121.55 37.9754C1121.55 37.8054 1121.55 37.6454 1121.55 37.4754C1121.55 37.3054 1121.55 37.1454 1121.55 36.9754C1121.38 36.9754 1121.22 36.9754 1121.05 36.9754C1120.05 36.9754 1119.05 36.9754 1118.05 36.9754C1117.62 36.9754 1117.2 36.9754 1116.8 36.9754C1116.7 37.2754 1116.58 37.5754 1116.45 37.8754C1116.32 38.1754 1116.18 38.4754 1116.05 38.7754C1116.02 38.8754 1115.97 38.9754 1115.9 39.0754C1115.63 39.5754 1115.4 40.0954 1115.2 40.6254C1115.13 40.6954 1115.08 40.7754 1115.05 40.8754C1114.78 41.4454 1114.33 41.6454 1113.7 41.4754C1113.33 40.9054 1113.07 40.0554 1112.9 38.9254C1112.9 38.8954 1112.9 38.8454 1112.9 38.7754C1112.73 37.9054 1112.5 37.1454 1112.2 36.4754C1112.03 36.8054 1111.9 37.0254 1111.8 37.1254C1111.73 37.5254 1111.7 37.8054 1111.7 37.9754C1111.27 37.4454 1110.98 36.8054 1110.85 36.0754C1110.58 36.2054 1110.33 36.3554 1110.1 36.5254C1109.33 37.0254 1108.48 37.1754 1107.55 36.9754C1107.72 36.8054 1107.88 36.6454 1108.05 36.4754C1108.38 36.1454 1108.73 35.8454 1109.1 35.5754C1109.4 35.3454 1109.73 35.1754 1110.1 35.0754C1110.23 35.0054 1110.38 34.8054 1110.55 34.4754C1110.38 34.3054 1110.22 34.2254 1110.05 34.2254C1109.35 34.1954 1108.67 34.1554 1108 34.1254C1107.93 34.2554 1107.87 34.3954 1107.8 34.5254C1107.4 35.5954 1106.87 36.5754 1106.2 37.4754C1106.3 36.2454 1106.2 35.0954 1105.9 34.0254C1104.67 33.9954 1103.45 33.9554 1102.25 33.9254C1102.22 33.9254 1102.2 33.9454 1102.2 33.9754C1102.03 34.3054 1101.87 34.6454 1101.7 34.9754C1101.13 34.7754 1100.68 34.3954 1100.35 33.8254C1100.25 33.8254 1100.15 33.8254 1100.05 33.8254C1099.32 33.7954 1098.85 33.6054 1098.65 33.2754C1097.55 33.6454 1096.73 34.5454 1096.2 35.9754C1096.2 35.1454 1096.2 34.3054 1096.2 33.4754C1096.2 33.1754 1096.2 32.8754 1096.2 32.5754C1095.83 32.6054 1095.45 32.6054 1095.05 32.5754C1094.78 32.5454 1094.5 32.5054 1094.2 32.4754C1093.97 32.8754 1093.82 33.3554 1093.75 33.9254C1093.68 34.4554 1093.42 34.8954 1092.95 35.2254C1092.75 35.3954 1092.48 35.4754 1092.15 35.4754C1091.55 35.2454 1091.35 34.5754 1091.55 33.4754C1091.58 33.2054 1091.6 32.9754 1091.6 32.7754C1091.43 32.8754 1091.23 32.9554 1091 33.0254C1090.67 33.1554 1090.33 33.3254 1090 33.5254C1089.5 33.8254 1089.03 34.1754 1088.6 34.5754C1088.1 35.0454 1087.58 35.4454 1087.05 35.7754C1086.98 35.8454 1086.93 35.9054 1086.9 35.9754C1085.9 36.3054 1084.98 36.8054 1084.15 37.4754C1083.98 37.6454 1083.83 37.8254 1083.7 38.0254C1083.47 38.3254 1083.25 38.6254 1083.05 38.9254C1082.92 39.0954 1082.78 39.2754 1082.65 39.4754C1082.65 39.3054 1082.65 39.1254 1082.65 38.9254C1082.65 38.6254 1082.65 38.3054 1082.65 37.9754C1082.65 37.3054 1082.58 36.6554 1082.45 36.0254C1082.42 35.8254 1082.32 35.6454 1082.15 35.4754C1081.82 35.4754 1081.57 35.5554 1081.4 35.7254C1080.73 36.3954 1080.17 37.1454 1079.7 37.9754C1079.53 38.3054 1079.38 38.6454 1079.25 38.9754C1078.78 39.9754 1078.47 41.0254 1078.3 42.1254C1078.23 42.5554 1078.18 43.0054 1078.15 43.4754C1078.08 43.4054 1078.03 43.3554 1078 43.3254C1077.73 43.0254 1077.48 42.7254 1077.25 42.4254C1076.42 41.3254 1075.75 40.1754 1075.25 38.9754C1074.98 38.3454 1074.77 37.6954 1074.6 37.0254C1074.33 37.1554 1074.05 37.2754 1073.75 37.3754C1073.68 37.9054 1073.63 38.4454 1073.6 38.9754C1073.53 39.2754 1073.48 39.5954 1073.45 39.9254C1073.42 40.1254 1073.32 40.3054 1073.15 40.4754C1072.62 40.1754 1072.27 39.6754 1072.1 38.9754C1071.97 38.5454 1071.9 38.0454 1071.9 37.4754C1071.9 37.1454 1071.78 36.8254 1071.55 36.5254C1071.28 36.1554 1070.98 35.8054 1070.65 35.4754C1070.52 37.1454 1069.93 38.3054 1068.9 38.9754C1068.63 39.1454 1068.35 39.2754 1068.05 39.3754C1068.02 39.4054 1068 39.4454 1068 39.4754C1068 39.4454 1068 39.4054 1068 39.3754C1067.33 39.5754 1066.52 39.6254 1065.55 39.5254C1065.08 39.4954 1064.67 39.6954 1064.3 40.1254C1064 40.5254 1063.72 40.9454 1063.45 41.3754C1063.15 41.7754 1062.78 42.0254 1062.35 42.1254C1062.12 42.1254 1061.87 42.1054 1061.6 42.0754C1061.1 42.0054 1060.6 41.9754 1060.1 41.9754C1059.73 41.9454 1059.4 41.8554 1059.1 41.7254C1058.83 41.5954 1058.6 41.4254 1058.4 41.2254C1058.2 41.0554 1057.93 40.9754 1057.6 40.9754C1056.73 40.9754 1055.9 41.0054 1055.1 41.0754C1054.43 41.0754 1053.8 41.1054 1053.2 41.1754C1053.13 41.1754 1053.08 41.1754 1053.05 41.1754C1052.75 41.2054 1052.42 41.1954 1052.05 41.1254C1051.68 41.0554 1051.32 41.0254 1050.95 41.0254C1050.15 40.9554 1049.4 41.0254 1048.7 41.2254C1047.13 41.6254 1045.8 42.6054 1044.7 44.1754C1044.17 44.9054 1043.55 45.5954 1042.85 46.2254C1042.58 46.4254 1042.3 46.6254 1042 46.8254C1041.33 47.2954 1040.67 47.7454 1040 48.1754C1037.83 47.2054 1035.7 46.2954 1033.6 45.4254C1033.27 45.2954 1032.92 45.1954 1032.55 45.1254C1030.58 44.7554 1028.77 43.9254 1027.1 42.6254L1027.05 42.5754C1026.85 42.4054 1026.63 42.2954 1026.4 42.2254C1026.3 42.1954 1026.2 42.1754 1026.1 42.1754C1025.33 42.1054 1024.62 42.1254 1023.95 42.2254C1023.18 42.2954 1022.47 42.4754 1021.8 42.7754C1020.47 43.3454 1019.25 44.2554 1018.15 45.5254C1017.45 46.3254 1016.75 47.1254 1016.05 47.9254C1014.95 49.2254 1013.78 49.8454 1012.55 49.7754C1011.72 49.7454 1010.93 50.0454 1010.2 50.6754C1009.17 51.5454 1008.28 52.4754 1007.55 53.4754C1007.15 53.2454 1006.7 52.8754 1006.2 52.3754C1005.93 52.1054 1005.55 51.9954 1005.05 52.0254C1000.75 52.2554 996.57 52.0554 992.5 51.4254C991.93 51.3554 991.75 50.8754 991.95 49.9754C992.02 49.7454 992.12 49.5454 992.25 49.3754C992.42 49.1754 992.67 49.0454 993 48.9754C992.33 48.4454 991.5 48.2054 990.5 48.2754C989.87 48.3454 989.23 48.4254 988.6 48.5254C987.6 48.6554 986.62 48.8554 985.65 49.1254C984.68 49.3554 983.77 49.7754 982.9 50.3754C980.63 51.9454 978.32 52.9754 975.95 53.4754C975.78 53.1454 975.75 52.8054 975.85 52.4754C975.92 52.3054 975.95 52.1454 975.95 51.9754C976.12 51.6454 976.23 51.4454 976.3 51.3754C976.57 50.9454 976.78 50.6454 976.95 50.4754C976.78 50.0754 976.42 49.8454 975.85 49.7754C975.58 49.7454 975.28 49.7454 974.95 49.7754C973.78 49.9054 972.62 50.0454 971.45 50.1754C970.05 50.3454 968.7 50.5454 967.4 50.7754C966.77 50.9054 966.12 50.9954 965.45 51.0254C963.08 51.1254 961.98 49.9454 962.15 47.4754C962.18 47.1454 962.08 46.8454 961.85 46.5754C960.98 45.7454 960.03 45.7254 959 46.5254C958.63 46.8254 958.25 47.0754 957.85 47.2754C957.55 47.4054 957.23 47.4454 956.9 47.3754C953.37 46.5754 949.92 46.8054 946.55 48.0754C945.02 47.0454 943.53 45.9554 942.1 44.8254C941.8 44.5954 941.42 44.4054 940.95 44.2754C940.42 44.0754 939.93 43.7754 939.5 43.3754C939.1 42.9454 938.72 42.4954 938.35 42.0254C938.05 41.6554 937.8 41.2754 937.6 40.8754C937.47 40.6054 937.32 40.3954 937.15 40.2254C936.98 40.0554 936.73 39.9754 936.4 39.9754C933.57 39.9754 930.73 40.1254 927.9 40.4254C927.53 40.4554 927.25 40.6754 927.05 41.0754C926.75 41.6754 926.4 42.2054 926 42.6754C925.57 43.2054 925 43.6254 924.3 43.9254C921.9 44.9554 919.45 45.8454 916.95 46.5754C916.42 46.2754 915.88 45.9054 915.35 45.4754C913.05 43.6054 910.38 42.8954 907.35 43.3254C906.52 43.4254 905.7 43.5454 904.9 43.6754C903.63 43.8454 902.45 44.2954 901.35 45.0254C900.65 45.4954 899.93 45.8554 899.2 46.1254C898.6 46.3554 897.97 46.5254 897.3 46.6254C896.57 46.7554 896.23 46.5454 896.3 45.9754C896.33 45.4454 896 45.2054 895.3 45.2754C893.13 45.4054 890.97 45.4054 888.8 45.2754C885.5 45.1054 882.3 45.3954 879.2 46.1254C877.6 46.5254 875.97 46.8954 874.3 47.2254C873.63 47.3554 872.97 47.4954 872.3 47.6254C871.8 47.5254 871.28 47.4554 870.75 47.4254C870.12 47.4254 869.67 47.2454 869.4 46.8754C868.97 46.3054 868.47 45.9554 867.9 45.8254C867.7 45.7554 867.48 45.7254 867.25 45.7254C866.58 45.7254 865.92 45.6754 865.25 45.5754C864.75 45.5054 864.3 45.3754 863.9 45.1754C863.63 45.0454 863.42 44.8454 863.25 44.5754L863.2 44.5254C863.07 44.3254 862.92 44.2254 862.75 44.2254C858.02 43.8554 853.37 44.1954 848.8 45.2254C848.07 45.3954 847.35 45.5554 846.65 45.7254C846.02 45.8954 845.37 45.9554 844.7 45.9254C840.53 45.8254 836.37 45.6254 832.2 45.3254C829.47 45.1254 826.83 45.2954 824.3 45.8254C823.93 45.6954 823.57 45.5554 823.2 45.4254C818.7 43.6554 814 42.2554 809.1 41.2254C808.33 41.0554 807.7 40.5954 807.2 39.8254C801.77 31.2954 793.02 29.4054 780.95 34.1754C779.58 34.7054 778.2 35.2254 776.8 35.7254C770.67 37.9554 765.42 40.1754 761.05 42.3754C760.25 42.7754 759.5 43.0054 758.8 43.0754C750.17 43.6754 741.5 43.8254 732.8 43.5254C729.47 43.3954 726.22 43.4754 723.05 43.7754C722.98 43.7054 722.92 43.6554 722.85 43.6254C722.42 43.3554 721.97 43.1054 721.5 42.8754C720.7 42.4454 719.97 41.8554 719.3 41.1254C719.07 40.8554 718.78 40.7254 718.45 40.7254C717.28 40.7254 716.17 40.9454 715.1 41.3754C713.67 41.9454 712.27 42.6454 710.9 43.4754C709.17 44.6054 707.33 45.2754 705.4 45.4754C704.1 45.6054 703.07 45.5454 702.3 45.2754C701.7 45.0754 701.08 45.0554 700.45 45.2254C699.75 45.3954 699.1 45.6754 698.5 46.0754C698.1 46.3454 697.72 46.5954 697.35 46.8254C696.08 47.4954 694.8 47.9054 693.5 48.0754C692.77 48.1754 692.03 48.4054 691.3 48.7754C690.73 49.0754 690.15 49.3454 689.55 49.5754C689.18 49.7054 688.8 49.8454 688.4 49.9754C688.17 50.0454 687.95 50.1054 687.75 50.1754C686.55 50.5454 685.57 50.7954 684.8 50.9254C684.7 50.9554 684.52 50.8554 684.25 50.6254C683.28 49.8254 682.15 49.4254 680.85 49.4254C678.52 49.4254 676.2 49.4754 673.9 49.5754C672.2 49.6454 670.52 49.7254 668.85 49.8254C667.02 49.9254 665.18 50.0454 663.35 50.1754C662.98 50.2054 662.63 50.4754 662.3 50.9754C661.5 52.2054 660.52 52.7454 659.35 52.5754C658.98 52.5054 658.67 52.2954 658.4 51.9254C657.4 50.5254 656.18 49.7554 654.75 49.6254C653.75 49.5254 652.85 49.2754 652.05 48.8754C651.52 48.6054 651.02 48.1954 650.55 47.6254C650.18 47.1954 649.73 46.9254 649.2 46.8254C648.9 46.7554 648.6 46.8254 648.3 47.0254C647.13 47.8254 646.2 47.8954 645.5 47.2254C645.17 46.8954 644.78 46.7754 644.35 46.8754C643.95 46.9454 643.58 47.1454 643.25 47.4754C642.58 47.4754 642.13 47.2754 641.9 46.8754C641.23 45.7754 640.18 45.3454 638.75 45.5754C637.62 45.7454 636.62 45.5954 635.75 45.1254C635.42 44.9254 635.1 44.6954 634.8 44.4254C633.43 43.1254 632.17 43.0554 631 44.2254C630.83 44.3954 630.6 44.4254 630.3 44.3254C630.1 44.2554 629.9 44.2054 629.7 44.1754C629.17 44.0454 628.67 43.9754 628.2 43.9754C627.53 43.9754 627.03 43.8054 626.7 43.4754C626.2 42.9754 625.87 42.3054 625.7 41.4754C625.43 40.0754 624.77 39.0754 623.7 38.4754C623.7 38.6454 623.7 38.8054 623.7 38.9754C623.7 39.6454 623.7 40.3054 623.7 40.9754C623.7 41.4754 623.7 41.9754 623.7 42.4754C623.7 42.6454 623.7 42.8054 623.7 42.9754C623.2 42.6454 622.77 42.2554 622.4 41.8254C621.93 41.2554 621.5 40.6754 621.1 40.0754C620.83 39.6754 620.53 39.3054 620.2 38.9754C620.43 41.5454 619.43 42.7954 617.2 42.7254C617.03 42.7254 616.9 42.6254 616.8 42.4254C616.4 41.7554 615.68 41.3554 614.65 41.2254C614.52 41.2254 614.35 41.2454 614.15 41.2754C613.18 41.4054 612.2 41.4954 611.2 41.5254C609.2 41.5954 607.32 41.9254 605.55 42.5254C604.65 42.8254 603.7 43.0054 602.7 43.0754C601.77 43.1454 600.88 43.3554 600.05 43.7254C599.62 43.8954 599.15 43.9754 598.65 43.9754C597.52 43.9454 597.17 43.1054 597.6 41.4754C598.1 39.6754 597.53 39.1754 595.9 39.9754C595.23 40.3054 594.62 40.7754 594.05 41.3754C593.18 42.2054 592.35 42.8454 591.55 43.2754C591.28 43.4054 590.98 43.4954 590.65 43.5254C587.25 43.6954 583.92 43.5754 580.65 43.1754C580.02 43.0754 579.58 43.3554 579.35 44.0254C579.12 44.5554 578.82 45.0254 578.45 45.4254C578.32 45.5254 578.17 45.6254 578 45.7254C577.8 45.8554 577.57 45.9454 577.3 45.9754C577.23 45.9754 577.18 45.9754 577.15 45.9754C576.78 46.0054 576.43 46.0054 576.1 45.9754C575.33 45.8754 574.62 45.6554 573.95 45.3254C573.18 44.9254 572.5 44.3554 571.9 43.6254C571.7 43.3554 571.43 43.1254 571.1 42.9254C569.9 42.1954 569.02 42.1554 568.45 42.8254C568.08 43.2554 567.7 43.5754 567.3 43.7754C566.63 44.0754 565.9 44.1454 565.1 43.9754C564.33 43.8454 563.62 43.6254 562.95 43.3254C562.38 43.0954 561.78 43.0454 561.15 43.1754C560.95 43.2054 560.77 43.2254 560.6 43.2254C558.8 43.3254 556.98 43.3954 555.15 43.4254C553.58 44.7954 551.95 46.0754 550.25 47.2754C548.65 48.3454 546.97 49.3454 545.2 50.2754C542.07 50.2454 538.92 50.2254 535.75 50.2254C534.75 50.1954 533.75 50.1754 532.75 50.1754C531.52 50.1754 530.3 50.1754 529.1 50.1754C527.87 50.1454 526.67 50.1254 525.5 50.1254C525.53 48.4554 526.17 47.0254 527.4 45.8254C527.83 45.4254 528.2 44.9554 528.5 44.4254C529.1 43.3554 529.63 42.2754 530.1 41.1754C530.83 39.3454 531.32 37.4454 531.55 35.4754C530.12 35.3754 528.85 35.9054 527.75 37.0754C527.65 37.1754 527.55 37.2754 527.45 37.3754C525.48 39.7454 523.4 41.8454 521.2 43.6754C520.93 43.8754 520.68 44.1254 520.45 44.4254C519.88 45.0954 519.27 45.5454 518.6 45.7754C518.2 45.9054 517.8 46.1054 517.4 46.3754C516.97 46.4454 516.73 46.4554 516.7 46.4254C516.57 45.9554 516.57 45.5054 516.7 45.0754C516.9 44.8454 517 44.6454 517 44.4754C517 44.3054 517 44.1454 517 43.9754C517 43.8054 517 43.6454 517 43.4754C516.67 43.6454 516.4 43.8554 516.2 44.1254C514.83 45.8554 513.1 47.1254 511 47.9254C510.5 48.1254 510 48.3054 509.5 48.4754C510 47.6454 510.4 46.9254 510.7 46.3254C510.9 45.9254 511.05 45.4954 511.15 45.0254C511.32 44.0954 511.6 43.2454 512 42.4754C511.5 42.1454 511.03 42.0554 510.6 42.2254C509.87 42.5554 509.13 42.8954 508.4 43.2254C507.97 43.3954 507.5 43.4754 507 43.4754C506.93 43.2754 506.87 43.0754 506.8 42.8754C506.6 42.2454 506.53 41.6054 506.6 40.9754C506.7 39.9754 506.82 38.9754 506.95 37.9754C506.98 37.6454 507 37.3054 507 36.9754C506.83 37.1454 506.7 37.3254 506.6 37.5254C505.87 39.1554 504.67 40.4554 503 41.4254H502.95C502.32 41.7954 501.65 42.0954 500.95 42.3254C500.65 42.4254 500.33 42.4754 500 42.4754C500.2 41.2754 500.15 40.1554 499.85 39.1254C499.65 38.5254 499.38 37.9754 499.05 37.4754C498.52 36.6754 497.75 36.7554 496.75 37.7254C496.58 37.8954 496.33 37.9754 496 37.9754C493.27 37.8454 490.6 37.9054 488 38.1754C487.47 38.2054 486.95 38.4754 486.45 38.9754C485.18 40.1754 483.68 40.7054 481.95 40.5754C480.95 40.5054 479.95 40.4054 478.95 40.2754C478.62 40.2454 478.27 40.1754 477.9 40.0754C476.97 39.8454 476.1 39.3554 475.3 38.6254C474.3 37.7554 473.67 37.8754 473.4 38.9754C473.13 39.9454 472.47 40.3254 471.4 40.1254C470.77 40.0254 470.13 39.9054 469.5 39.7754C469.3 39.7454 469.12 39.7254 468.95 39.7254C467.28 39.5554 465.6 39.4754 463.9 39.4754C463.23 39.4754 462.57 39.4254 461.9 39.3254C461.53 39.2554 461.2 39.2254 460.9 39.2254C460.37 39.1954 459.83 39.1754 459.3 39.1754C456.8 39.0454 454.32 38.9754 451.85 38.9754C451.52 38.9754 451.2 38.9754 450.9 38.9754C450.57 38.9754 450.25 38.9254 449.95 38.8254C449.75 38.7554 449.58 38.7454 449.45 38.7754C448.92 38.9054 448.42 39.1554 447.95 39.5254C447.32 39.9954 446.92 40.5954 446.75 41.3254C446.68 41.6554 446.67 42.0454 446.7 42.4754C446.83 43.4054 446.4 43.7954 445.4 43.6254C444.73 43.5254 444.07 43.4254 443.4 43.3254C442.93 43.2554 442.48 43.1754 442.05 43.0754C441.52 42.8754 441.02 42.6454 440.55 42.3754C440.65 42.1754 440.75 41.9954 440.85 41.8254C441.05 41.4254 441.2 40.9954 441.3 40.5254C441.5 39.5954 441.8 38.7454 442.2 37.9754C441.73 37.6454 441.27 37.5554 440.8 37.7254C440.07 38.0254 439.33 38.3454 438.6 38.6754C438.17 38.8054 437.68 38.8754 437.15 38.8754C436.82 38.0454 436.7 37.2054 436.8 36.3754C436.93 35.4054 437.07 34.4454 437.2 33.4754C437 33.4454 436.82 33.4054 436.65 33.3754C435.85 34.7754 434.68 35.8954 433.15 36.7254C432.52 37.0954 431.83 37.3954 431.1 37.6254C430.8 37.6954 430.48 37.7254 430.15 37.7254C430.25 37.2554 430.32 36.8254 430.35 36.4254C428.08 35.8954 425.87 34.8754 423.7 33.3754C423.5 33.2454 423.32 33.1254 423.15 33.0254C421.52 32.9954 419.9 33.0454 418.3 33.1754C417.77 33.2054 417.25 33.4554 416.75 33.9254C415.45 35.1254 413.93 35.6254 412.2 35.4254C411.2 35.3554 410.18 35.2454 409.15 35.0754C408.98 35.0754 408.83 35.0554 408.7 35.0254C406.33 35.1554 403.95 35.1554 401.55 35.0254C401.05 34.9954 400.67 35.1054 400.4 35.3754C399.9 35.8754 399.45 36.2454 399.05 36.4754C398.45 35.6454 397.73 34.8554 396.9 34.1254C396 34.0554 395.1 34.0054 394.2 33.9754C393.53 33.9454 392.87 33.8754 392.2 33.7754C391.83 33.7054 391.5 33.6554 391.2 33.6254C387.87 33.3954 384.52 33.2454 381.15 33.1754C380.82 33.1754 380.5 33.1254 380.2 33.0254C380 32.9554 379.83 32.9454 379.7 32.9754C379.17 33.0754 378.67 33.3054 378.2 33.6754C377.2 34.3454 376.75 35.3054 376.85 36.5754C376.98 37.5054 376.55 37.8954 375.55 37.7254C374.88 37.5954 374.22 37.4754 373.55 37.3754C372.25 37.1754 371.1 36.6954 370.1 35.9254C370.07 36.7554 370.03 37.5954 370 38.4254C370 39.2554 369.82 39.9754 369.45 40.5754C369.28 40.8054 368.95 40.8954 368.45 40.8254C367.35 40.6554 366.2 40.5754 365 40.5754C364.83 40.5754 364.65 40.6554 364.45 40.8254C364.92 38.7554 364.1 37.8054 362 37.9754C361.53 38.0054 361.08 37.8754 360.65 37.5754C359.42 36.9054 358.05 36.6554 356.55 36.8254C355.85 36.8954 355.13 37.0754 354.4 37.3754C353.97 37.5454 353.5 37.6254 353 37.6254C349.63 37.6554 346.45 37.3054 343.45 36.5754C342.82 36.4454 342.2 36.2754 341.6 36.0754C341.03 35.9054 340.5 35.6754 340 35.3754C339.43 35.0054 338.8 34.7554 338.1 34.6254C337.73 34.5554 337.38 34.4254 337.05 34.2254C337.05 34.5554 337.05 34.8954 337.05 35.2254C337.02 35.8954 337 36.5554 337 37.2254C336.97 37.8954 336.9 38.5554 336.8 39.2254C336.73 39.7254 336.6 40.2254 336.4 40.7254C334.8 40.8554 333.83 40.0454 333.5 38.2754C333.47 38.0454 333.27 37.8954 332.9 37.8254C332.03 37.6254 331.38 38.0554 330.95 39.1254C330.58 40.0254 329.92 40.4954 328.95 40.5254C328.38 40.5554 327.85 40.7254 327.35 41.0254C326.52 41.6254 325.63 42.2754 324.7 42.9754C324.53 43.1054 324.37 43.2454 324.2 43.3754C322.93 44.3454 321.45 44.7254 319.75 44.5254C318.75 44.3954 317.75 44.3254 316.75 44.3254C317.12 43.6554 317.47 43.1554 317.8 42.8254C317.97 42.6554 318.1 42.4754 318.2 42.2754C318.47 41.8454 318.67 41.3754 318.8 40.8754C318.83 40.7054 318.85 40.5454 318.85 40.3754C318.52 40.3454 318.18 40.3254 317.85 40.3254C317.52 40.3254 317.18 40.3254 316.85 40.3254C316.02 40.2954 315.2 40.2054 314.4 40.0754C313.43 39.9054 312.8 40.0454 312.5 40.4754C312.4 40.6454 312.22 40.6554 311.95 40.5254C312.22 39.9954 312.43 39.5254 312.6 39.1254C310.67 38.9254 309.17 39.3454 308.1 40.3754C308.27 40.0454 308.35 39.7954 308.35 39.6254C307.85 40.1254 307.32 40.5754 306.75 40.9754C306.15 41.4054 305.72 41.9454 305.45 42.5754C305.38 42.7454 305.33 42.9054 305.3 43.0754C304.93 42.9754 304.72 42.8054 304.65 42.5754C304.55 42.2754 304.7 41.8754 305.1 41.3754C305.27 41.1754 305.35 40.9054 305.35 40.5754V40.0754C303.85 40.2054 302.43 40.6454 301.1 41.3754C300.47 41.7054 299.9 42.0554 299.4 42.4254C299 42.7254 298.62 43.0554 298.25 43.4254C297.62 43.9554 296.98 44.5254 296.35 45.1254C296.45 45.0254 296.52 44.9254 296.55 44.8254C296.62 44.3554 296.68 44.0754 296.75 43.9754C296.68 43.9054 296.58 43.7954 296.45 43.6254C296.28 43.4554 296.1 43.4554 295.9 43.6254C295.23 44.0954 294.63 44.6554 294.1 45.3254C294.03 45.3954 293.98 45.4554 293.95 45.5254C293.85 45.6254 293.75 45.7254 293.65 45.8254C293.15 45.6554 292.83 45.4754 292.7 45.2754C292.67 45.2454 292.65 45.2054 292.65 45.1754C292.45 44.8754 292.27 44.5954 292.1 44.3254C291.97 44.1254 291.87 43.9254 291.8 43.7254C290.97 43.6254 290.48 43.9254 290.35 44.6254C290.32 44.8254 290.32 45.0554 290.35 45.3254C290.38 45.6254 290.27 45.8254 290 45.9254C289.57 46.1254 289.13 46.1554 288.7 46.0254C288.5 45.9954 288.37 45.8754 288.3 45.6754C288.13 45.1054 287.58 44.9454 286.65 45.1754C285.92 45.3754 285.58 45.2054 285.65 44.6754C285.68 44.4054 285.72 44.1254 285.75 43.8254C285.85 43.2954 285.92 42.7454 285.95 42.1754C286.05 40.7054 286.1 39.2054 286.1 37.6754C286.07 37.1754 286.02 36.6754 285.95 36.1754C285.85 35.6454 285.72 35.1754 285.55 34.7754C285.42 34.5054 285.18 34.3254 284.85 34.2254C284.55 34.1554 284.23 34.1254 283.9 34.1254C284.07 36.1554 283.53 37.8554 282.3 39.2254C282.1 39.4554 281.77 39.5054 281.3 39.3754C280.13 39.0054 279.27 38.2254 278.7 37.0254C278.33 36.2254 277.98 35.4054 277.65 34.5754C277.25 34.6454 276.88 34.5454 276.55 34.2754C276.32 34.0054 276.08 33.7554 275.85 33.5254C275.92 33.8254 275.93 34.1254 275.9 34.4254C275.9 34.4554 275.9 34.5054 275.9 34.5754C276.1 34.7754 276.32 34.9554 276.55 35.1254C277.42 35.6554 277.67 36.6054 277.3 37.9754C277.3 37.6454 277.22 37.4054 277.05 37.2754C276.38 36.6454 276 35.7454 275.9 34.5754C275.7 34.3754 275.55 34.1454 275.45 33.8754C274.35 31.8454 273.03 30.1554 271.5 28.8254C270.8 29.4954 270.65 30.6454 271.05 32.2754C271.28 33.1454 271.48 34.0054 271.65 34.8754C271.95 36.4054 272.38 37.8754 272.95 39.2754C273.12 39.6454 273.37 39.9954 273.7 40.3254C271.47 38.1954 268.97 36.4254 266.2 35.0254C265.47 34.6554 264.68 34.3754 263.85 34.1754C263.68 34.1454 263.52 34.1054 263.35 34.0754C263.75 34.5454 264.12 35.0554 264.45 35.6254C265.48 37.6254 266.37 39.6754 267.1 41.7754C267.23 42.2054 267.37 42.6454 267.5 43.0754C267.6 43.5454 267.72 44.0254 267.85 44.5254C268.45 45.6554 268.68 46.9054 268.55 48.2754C268.38 47.0054 268.15 45.7554 267.85 44.5254C267.55 43.9954 267.2 43.4954 266.8 43.0254C266.73 42.9554 266.67 42.8954 266.6 42.8254C266.2 42.4254 265.78 42.0554 265.35 41.7254C263.85 40.4554 262.12 39.4954 260.15 38.8254C260.25 39.0554 260.33 39.3054 260.4 39.5754C260.6 40.2754 260.8 40.9554 261 41.6254C261.17 42.0554 261.33 42.4754 261.5 42.8754C261.97 43.9754 262.5 45.0754 263.1 46.1754C262.6 46.0054 262.13 45.7754 261.7 45.4754C260.23 44.5054 258.75 43.5954 257.25 42.7254C256.48 42.3254 255.73 41.9054 255 41.4754C254.03 41.0054 253.1 40.5254 252.2 40.0254C251.3 39.5954 250.35 39.1254 249.35 38.6254C248.95 38.4554 248.58 38.2254 248.25 37.9254C247.95 37.6954 247.63 37.4954 247.3 37.3254C247.47 37.8254 247.65 38.3054 247.85 38.7754C248.32 39.6754 248.8 40.5454 249.3 41.3754C249.53 41.7754 249.78 42.1554 250.05 42.5254C250.12 42.6254 250.18 42.7254 250.25 42.8254C250.35 43.0554 250.48 43.2954 250.65 43.5254C250.98 43.9954 251.32 44.4554 251.65 44.9254C250.32 44.6554 249.12 43.9954 248.05 42.9254C247.92 42.7554 247.75 42.6054 247.55 42.4754C247.28 42.2454 247 42.0454 246.7 41.8754C246.33 41.6754 245.98 41.4954 245.65 41.3254C245.62 41.3254 245.58 41.3054 245.55 41.2754C244.78 40.9754 244.33 40.4954 244.2 39.8254C244.1 40.0954 243.88 40.2754 243.55 40.3754C242.95 40.6054 242.32 40.7554 241.65 40.8254C240.45 40.9254 239.38 40.6454 238.45 39.9754C238.12 39.7454 237.7 39.6254 237.2 39.6254C236.53 39.5954 235.87 39.5754 235.2 39.5754C236.2 39.9454 237 40.3054 237.6 40.6754C237.8 40.8054 237.98 40.9554 238.15 41.1254C238.12 41.3954 237.98 41.5954 237.75 41.7254C237.48 41.8554 237.12 41.9454 236.65 41.9754C234.78 41.9754 232.93 41.9954 231.1 42.0254C229.6 42.0554 228.12 42.0954 226.65 42.1254C226.48 42.1254 226.3 42.2054 226.1 42.3754C226.27 42.7054 226.42 42.9054 226.55 42.9754C226.92 43.0754 227.25 43.2554 227.55 43.5254C227.92 43.7954 228.27 44.0954 228.6 44.4254C228.77 44.5954 228.92 44.7554 229.05 44.9254C228.12 45.1254 227.28 44.9554 226.55 44.4254C225.48 43.6954 224.35 43.2054 223.15 42.9754C222.62 42.8454 222.07 42.6954 221.5 42.5254C221.07 42.3554 220.6 42.2554 220.1 42.2254C219.43 42.2254 218.75 42.2254 218.05 42.2254C218.22 42.7254 218.4 43.0054 218.6 43.0754C218.93 43.1754 219.23 43.2954 219.5 43.4254C219.9 43.6254 220.28 43.8754 220.65 44.1754C220.95 44.4054 221.25 44.6054 221.55 44.7754C221.22 44.7754 220.88 44.7754 220.55 44.7754C219.88 44.7454 219.2 44.7254 218.5 44.7254C217.5 44.6954 216.5 44.6754 215.5 44.6754C215.33 44.6454 215.17 44.6254 215 44.6254C215 44.7954 215 44.9554 215 45.1254C215 45.2954 215 45.4554 215 45.6254C215.3 46.4954 215.68 47.0554 216.15 47.3254C216.52 47.5554 216.95 47.6754 217.45 47.6754C217.32 48.7054 216.47 49.0954 214.9 48.8254C213.93 48.6954 212.95 48.6454 211.95 48.6754C208.52 48.8454 205.32 48.1454 202.35 46.5754C202.12 46.4454 201.83 46.3754 201.5 46.3754C200.43 46.2754 200.08 46.9254 200.45 48.3254C200.55 48.6554 200.65 48.9954 200.75 49.3254C200.85 49.4954 200.93 49.6454 201 49.7754C201.03 49.8454 201.07 49.9054 201.1 49.9754C200.8 49.9754 200.52 49.9754 200.25 49.9754C199.65 48.9454 199.03 47.9254 198.4 46.9254C196.5 43.8554 195.52 40.5554 195.45 37.0254C195.45 36.7554 195.38 36.4954 195.25 36.2254C193.62 38.3554 192.9 40.7554 193.1 43.4254C193.2 44.7554 193.33 46.0754 193.5 47.3754C193.67 48.4454 193.32 49.2554 192.45 49.8254C192.18 49.5554 191.95 49.2754 191.75 48.9754C189.28 44.6754 188.18 40.0254 188.45 35.0254C188.22 35.5254 188 36.0454 187.8 36.5754C187.87 37.5454 187.58 38.6454 186.95 39.8754C186.65 40.4454 186.42 41.0054 186.25 41.5754C186.58 39.8754 187.1 38.2054 187.8 36.5754C187.73 36.0054 187.55 35.4954 187.25 35.0254C187.12 35.2954 186.95 35.5454 186.75 35.7754C186.28 36.3454 185.87 36.9454 185.5 37.5754C184.07 40.1454 182.25 42.4954 180.05 44.6254C180.05 43.5554 180.05 42.4954 180.05 41.4254C180.05 40.0954 180.05 38.7554 180.05 37.4254C179.12 39.2954 178.05 41.1554 176.85 43.0254C176.32 43.8254 175.87 44.6554 175.5 45.5254C174.97 46.7954 174.22 47.6954 173.25 48.2254C173.25 48.0954 173.25 47.9554 173.25 47.8254C173.25 47.4254 173.25 47.0254 173.25 46.6254C173.25 46.0954 173.2 45.5554 173.1 45.0254C173.07 44.7554 172.98 44.4954 172.85 44.2254C172.85 44.4954 172.78 44.7254 172.65 44.9254C172.38 45.3954 172.03 45.8054 171.6 46.1754C171.37 46.3454 171.03 46.4554 170.6 46.5254C170.03 45.6554 169.85 44.6254 170.05 43.4254C170.28 42.1254 170.15 41.1954 169.65 40.6254C169.42 41.1254 169.3 41.6554 169.3 42.2254C169.27 43.1554 169.25 44.0954 169.25 45.0254C169.25 45.2954 169.25 45.5554 169.25 45.8254C168.98 45.4254 168.78 45.0054 168.65 44.5754C168.35 43.6754 167.87 42.9054 167.2 42.2754C166.83 41.9754 166.45 41.6954 166.05 41.4254C166.05 41.8254 166.05 42.2254 166.05 42.6254C166.05 43.6954 166 44.7554 165.9 45.8254C165.87 46.2254 165.78 46.6254 165.65 47.0254C165.52 46.7554 165.42 46.4954 165.35 46.2254C165.08 45.0954 164.53 43.8754 163.7 42.5754C163.53 42.3454 163.38 42.0954 163.25 41.8254C162.85 42.6254 162.58 43.4454 162.45 44.2754C162.18 46.1754 162.05 48.0754 162.05 49.9754C162.02 49.9754 161.98 49.9754 161.95 49.9754C161.85 49.8054 161.75 49.6254 161.65 49.4254C160.08 46.3554 158.62 43.5554 157.25 41.0254C156.92 41.6254 156.62 42.2754 156.35 42.9754C156.02 43.8054 155.75 44.6454 155.55 45.4754C155.35 46.4054 155.25 46.6554 155.25 46.2254C155.25 45.8254 155.18 45.5054 155.05 45.2754C154.35 46.1054 153.65 47.1054 152.95 48.2754C152.58 48.8754 152.2 49.4454 151.8 49.9754C150.73 49.9754 149.68 49.9754 148.65 49.9754C148.52 49.9754 148.38 49.9754 148.25 49.9754C148.28 49.4054 148.3 48.8254 148.3 48.2254C148.3 48.0554 148.32 47.8954 148.35 47.7254C148.35 46.5554 148.37 45.3954 148.4 44.2254C148.43 42.5554 148.4 40.8954 148.3 39.2254C148.27 38.8954 148.18 38.5554 148.05 38.2254C147.52 38.3554 147.05 38.5754 146.65 38.8754C146.52 38.9754 146.38 39.0754 146.25 39.1754C145.68 39.6454 145.12 40.1554 144.55 40.7254C144.32 40.9954 144.08 41.1554 143.85 41.2254C143.42 41.3254 142.95 41.3054 142.45 41.1754C141.58 40.9754 141.12 40.2754 141.05 39.0754C141.02 38.9054 141 38.7454 141 38.5754C140.83 38.7454 140.68 38.8954 140.55 39.0254C140.22 39.3954 139.93 39.7554 139.7 40.1254C138.73 41.5554 137.83 43.0254 137 44.5254C136.7 44.9954 136.47 45.4754 136.3 45.9754C136.13 46.4454 135.88 46.7454 135.55 46.8754C135.35 46.9754 135.1 46.9954 134.8 46.9254C134.7 46.7954 134.6 46.6554 134.5 46.5254C134.13 46.0254 133.83 45.5454 133.6 45.0754C133.27 44.4454 132.95 43.8254 132.65 43.2254C132.48 42.8254 132.35 42.3954 132.25 41.9254C132.18 41.5554 132.07 41.2054 131.9 40.8754C131.9 41.0454 131.9 41.2054 131.9 41.3754C131.9 41.7054 131.9 42.0454 131.9 42.3754C131.87 42.7054 131.85 43.0454 131.85 43.3754C131.85 43.5454 131.85 43.7054 131.85 43.8754C131.52 43.5454 131.2 43.1954 130.9 42.8254C130.2 41.9954 129.5 41.1954 128.8 40.4254C128.17 39.6954 127.5 39.1454 126.8 38.7754C126.2 38.4454 125.58 38.2554 124.95 38.2254C124.95 38.3954 124.97 38.5554 125 38.7254C125.13 39.0554 125.28 39.3954 125.45 39.7254C125.75 40.3954 126.03 41.0754 126.3 41.7754C126.4 42.0454 126.48 42.3054 126.55 42.5754C126.65 42.9754 126.75 43.3754 126.85 43.7754C126.68 43.6054 126.57 43.4254 126.5 43.2254C126.43 42.9954 126.37 42.7254 126.3 42.4254C126.3 42.3954 126.28 42.3454 126.25 42.2754C126.18 42.0754 126.2 41.9054 126.3 41.7754C125.7 41.5754 125.27 41.3554 125 41.1254C124.6 40.6954 124.23 40.3754 123.9 40.1754C124.13 40.8054 124.33 41.4054 124.5 41.9754C124.6 42.1754 124.67 42.3954 124.7 42.6254C124.97 43.3554 125.27 44.0954 125.6 44.8254C125.73 45.2154 125.8 45.6154 125.8 46.0254C125.79 45.8154 125.71 45.6354 125.55 45.4754C124.92 44.8054 124.17 44.2554 123.3 43.8254C122.67 43.5554 122.05 43.2554 121.45 42.9254C121.05 42.7254 120.75 42.4254 120.55 42.0254C120.35 41.6954 119.97 41.3754 119.4 41.0754C119.4 41.2454 119.4 41.4054 119.4 41.5754C119.4 42.0754 119.45 42.5754 119.55 43.0754C119.75 43.7754 120.02 44.4454 120.35 45.0754C120.02 44.7754 119.68 44.4454 119.35 44.0754C118.85 43.5754 118.32 43.1254 117.75 42.7254C117.35 42.4554 116.9 42.2454 116.4 42.0754C116.23 42.0454 116.07 42.0254 115.9 42.0254C116.03 42.5254 116.23 42.9954 116.5 43.4254C117.03 44.3554 117.57 45.2754 118.1 46.1754C118.53 46.9454 118.95 47.7454 119.35 48.5754C119.58 49.0454 119.83 49.5054 120.1 49.9754C119.67 49.3754 119.25 48.8754 118.85 48.4754C118.62 47.8754 118.4 47.4254 118.2 47.1254C118.1 46.9254 117.95 46.7754 117.75 46.6754C117.45 47.3454 116.95 47.6554 116.25 47.6254C114.25 47.5554 112.58 46.6754 111.25 44.9754C110.98 44.6054 110.75 44.2254 110.55 43.8254C110.42 43.5554 110.35 43.2554 110.35 42.9254C110.18 43.0954 110.03 43.2554 109.9 43.4254C109.7 43.7254 109.52 44.0554 109.35 44.4254C109.28 45.0554 109.22 45.5254 109.15 45.8254C109.05 46.1954 108.92 46.5454 108.75 46.8754C108.55 47.2054 108.37 47.5454 108.2 47.8754C107.73 46.8454 107.28 45.9754 106.85 45.2754C106.48 44.6454 106.08 44.0254 105.65 43.4254C105.15 42.6954 104.72 41.9754 104.35 41.2754C103.85 41.4454 103.53 41.6254 103.4 41.8254C103.17 42.1254 103 42.4454 102.9 42.7754C102.83 43.0754 102.8 43.3954 102.8 43.7254C102.8 43.8954 102.8 44.0554 102.8 44.2254C102.77 44.5554 102.75 44.8954 102.75 45.2254C102.75 45.3954 102.75 45.5554 102.75 45.7254C102.58 45.5554 102.4 45.4254 102.2 45.3254C101.9 45.0954 101.75 44.8954 101.75 44.7254C101.78 44.3954 101.8 44.0554 101.8 43.7254C101.8 43.5554 101.8 43.3954 101.8 43.2254C101.47 43.2254 101.15 43.2754 100.85 43.3754C100.65 43.4054 100.48 43.5254 100.35 43.7254C99.9201 44.3554 99.4801 44.9754 99.0501 45.5754C98.8201 45.3054 98.7001 45.0054 98.7001 44.6754C98.7001 44.5054 98.7201 44.3454 98.7501 44.1754C98.5501 44.5054 98.3701 44.7454 98.2001 44.8754C98.2301 44.3754 98.2501 44.0454 98.2501 43.8754C98.0801 44.0454 97.9201 44.1254 97.7501 44.1254C97.5801 44.1254 97.4201 44.1254 97.2501 44.1254C96.7201 44.2954 96.3501 44.4254 96.1501 44.5254C95.5201 44.8954 95.0001 45.1454 94.6001 45.2754C94.3301 44.9754 94.2001 44.7454 94.2001 44.5754C94.2001 44.4054 94.2201 44.2454 94.2501 44.0754V43.5754C93.9201 43.5754 93.6201 43.7454 93.3501 44.0754C93.0801 44.3754 92.8701 44.5254 92.7001 44.5254L92.7501 44.0254C92.5501 44.1954 92.3701 44.2754 92.2001 44.2754C92.2301 43.9454 92.2501 43.6954 92.2501 43.5254C91.9201 43.1954 91.6501 43.1054 91.4501 43.2754C90.9801 43.5754 90.5201 43.9254 90.0501 44.3254C89.5201 44.7954 89.1501 45.2554 88.9501 45.7254C88.7901 45.1954 88.7001 44.7954 88.7001 44.5254C88.7001 44.6354 88.6601 44.7654 88.6001 44.9254C88.5001 45.2554 88.3701 45.5054 88.2001 45.6754C88.4701 44.6054 88.3201 44.0554 87.7501 44.0254C86.3501 43.9254 85.2701 44.5054 84.5001 45.7754C83.3001 46.1454 82.6701 46.1554 82.6001 45.8254C82.3701 44.0554 81.2301 43.1954 79.2001 43.2254C79.1301 44.0554 79.1701 44.8954 79.3001 45.7254C79.4301 47.1954 78.7301 47.6054 77.2001 46.9754C76.3001 46.6054 75.4801 46.1054 74.7501 45.4754C73.8501 44.7454 72.9701 43.9754 72.1001 43.1754C71.8301 42.9454 71.5301 42.7454 71.2001 42.5754C72.0001 43.4054 72.6701 44.2454 73.2001 45.0754C73.6701 45.7754 74.1701 46.4254 74.7001 47.0254C74.9701 47.2954 75.2701 47.5054 75.6001 47.6754C75.1001 47.6754 74.6201 47.5954 74.1501 47.4254C73.6201 47.2254 73.1001 46.9554 72.6001 46.6254C71.8001 46.0954 71.0001 45.5554 70.2001 45.0254C69.5701 44.5954 68.8801 44.4254 68.1501 44.5254C68.4801 44.6954 68.6801 44.8454 68.7501 44.9754C68.8501 45.1754 68.9801 45.3554 69.1501 45.5254C69.3201 45.6954 69.4301 45.8754 69.5001 46.0754C69.5701 46.5454 69.6001 46.8554 69.6001 47.0254C69.4301 46.6954 69.2801 46.4954 69.1501 46.4254C68.9501 46.3254 68.7501 46.2054 68.5501 46.0754C68.1201 45.7054 67.6301 45.3754 67.1001 45.0754C66.9701 45.6754 67.0701 46.2454 67.4001 46.7754C67.8701 47.4454 68.3501 48.0954 68.8501 48.7254C69.1501 49.0954 69.3801 49.5054 69.5501 49.9754C69.2501 49.9754 68.9501 49.9754 68.6501 49.9754C67.6201 49.9754 66.5701 49.9754 65.5001 49.9754C63.9001 49.9754 62.3001 49.9754 60.7001 49.9754C60.6001 49.9754 60.5001 49.9754 60.4001 49.9754C59.8701 49.9754 59.3201 49.9754 58.7501 49.9754C58.6801 49.9754 58.6001 49.9754 58.5001 49.9754L58.4501 49.9254C58.1801 49.6554 57.9301 49.3954 57.7001 49.1254C56.6301 47.7954 55.5001 46.7954 54.3001 46.1254C54.1301 46.0254 53.9201 46.0954 53.6501 46.3254C53.4201 46.5554 53.2201 46.8454 53.0501 47.1754C53.0501 46.5054 53.0701 45.8454 53.1001 45.1754C53.1001 44.5054 53.0201 44.1454 52.8501 44.0754C52.0501 43.8054 51.2201 43.9254 50.3501 44.4254C49.5501 44.8954 48.8701 45.4954 48.3001 46.2254C47.7301 46.9954 46.9701 47.5454 46.0001 47.8754C45.7001 47.9754 45.3801 48.0254 45.0501 48.0254C45.0801 47.3554 45.2001 46.7254 45.4001 46.1254C45.5701 45.7254 45.7501 45.3254 45.9501 44.9254C46.0801 44.6554 46.1501 44.3554 46.1501 44.0254C46.1501 43.8554 46.1501 43.6954 46.1501 43.5254C45.9801 43.6954 45.8201 43.8554 45.6501 44.0254C45.6801 43.3554 45.8201 42.6754 46.0501 41.9754C46.1501 41.6754 46.2001 41.3554 46.2001 41.0254C46.0701 40.8554 45.9001 40.8454 45.7001 40.9754C45.0301 41.5054 44.4001 42.0554 43.8001 42.6254C43.2001 43.1954 42.6801 43.8254 42.2501 44.5254C42.1801 44.4954 42.1501 44.3054 42.1501 43.9754C42.1501 43.6454 42.2301 43.3454 42.4001 43.0754C42.6001 42.6754 42.7001 42.3054 42.7001 41.9754C42.3701 41.9754 42.0501 42.0054 41.7501 42.0754C41.5501 42.1454 41.3701 42.2554 41.2001 42.4254C41.0301 42.5954 40.9001 42.7754 40.8001 42.9754C40.2301 42.7754 39.6801 42.4454 39.1501 41.9754C38.8501 41.7454 38.5501 41.5254 38.2501 41.3254C37.5501 41.4954 37.0801 41.8454 36.8501 42.3754C36.7501 42.6754 36.6201 42.9554 36.4501 43.2254C36.0801 44.0554 35.8001 44.9254 35.6001 45.8254C35.1001 45.6254 34.8201 45.4254 34.7501 45.2254C34.5201 44.7554 34.3001 44.4754 34.1001 44.3754C33.4701 44.3054 33.0201 44.3454 32.7501 44.4754C32.3501 44.6454 31.9801 44.8954 31.6501 45.2254C31.1501 44.1254 30.5701 43.0054 29.9001 41.8754C29.6001 41.4054 29.2201 40.9954 28.7501 40.6254C28.2201 40.1254 27.5201 40.2954 26.6501 41.1254C26.4801 41.2954 26.3501 41.4754 26.2501 41.6754C25.4501 43.0054 24.2201 43.5054 22.5501 43.1754C21.9201 43.0754 21.2701 43.0054 20.6001 42.9754C18.9301 42.9454 17.2501 42.9054 15.5501 42.8754C14.3201 42.2454 13.0301 41.6554 11.7001 41.1254C10.6701 40.7254 9.70009 40.2254 8.80009 39.6254C8.33009 39.3254 7.6201 39.0454 6.6501 38.7754C6.3501 38.7054 6.05009 38.6254 5.75009 38.5254C4.88009 38.7554 4.1801 39.1054 3.6501 39.5754C2.0801 40.9754 0.330101 42.2254 -1.5999 43.3254C-1.8299 43.4554 -2.11991 43.5054 -2.44991 43.4754C-3.01991 43.0454 -3.3299 42.2254 -3.3999 41.0254C-3.3999 40.9954 -3.5699 40.9754 -3.8999 40.9754C-5.8699 40.9054 -7.8499 40.6954 -9.8499 40.3254C-9.8799 40.3254 -9.8999 40.1554 -9.8999 39.8254C-9.8999 38.2554 -10.3199 36.9254 -11.1499 35.8254C-11.3199 35.6254 -11.4999 35.4054 -11.6999 35.1754C-11.8999 34.9054 -12.2499 34.7954 -12.7499 34.8254C-13.8199 34.8954 -14.7999 35.1954 -15.6999 35.7254C-16.3999 36.1254 -17.0699 36.6754 -17.6999 37.3754C-18.1299 37.9054 -18.6699 38.3554 -19.2999 38.7254C-19.9999 39.1554 -20.7299 39.4254 -21.4999 39.5254C-21.7699 39.5554 -22.0299 39.3954 -22.2999 39.0254C-22.6999 38.5554 -23.0999 38.2454 -23.4999 38.0754C-24.2299 37.8754 -24.9999 37.9054 -25.7999 38.1754C-26.3299 38.3754 -26.8299 38.6554 -27.2999 39.0254C-28.5299 39.9954 -29.9199 40.4454 -31.4499 40.3754C-31.4499 40.2054 -31.4499 40.0454 -31.4499 39.8754C-31.4499 39.7054 -31.4499 39.5454 -31.4499 39.3754C-31.4199 39.0454 -31.3999 38.7054 -31.3999 38.3754C-31.3999 38.2054 -31.3999 38.0454 -31.3999 37.8754C-33.3299 38.3754 -35.2499 39.0454 -37.1499 39.8754C-37.6799 40.1054 -38.2199 40.0954 -38.7499 39.8254C-38.8799 39.7554 -39.0299 39.6454 -39.1999 39.4754C-39.4999 39.1454 -39.8999 38.9554 -40.3999 38.9254C-40.5699 38.9254 -40.7299 39.0254 -40.8999 39.2254C-41.5299 40.0554 -42.2699 40.7054 -43.0999 41.1754C-43.4699 41.3754 -43.8299 41.5454 -44.1999 41.6754C-44.5699 41.7754 -44.9199 41.6554 -45.2499 41.3254C-45.3799 41.1554 -45.5199 40.9954 -45.6499 40.8254C-45.9799 40.4554 -46.2699 40.0554 -46.4999 39.6254C-46.7699 39.0554 -47.0699 38.5254 -47.3999 38.0254C-47.5699 38.5254 -47.7999 39.0054 -48.0999 39.4754C-48.2699 39.7754 -48.3999 40.0954 -48.4999 40.4254C-48.9699 41.5554 -49.1199 42.7554 -48.9499 44.0254C-48.7799 44.8554 -48.9999 45.5054 -49.5999 45.9754C-49.9299 45.9754 -50.2199 45.9054 -50.4499 45.7754C-50.8499 45.5754 -51.1699 45.2754 -51.3999 44.8754C-51.6699 44.4054 -51.9199 43.9454 -52.1499 43.4754C-52.2199 43.2754 -52.3199 43.0754 -52.4499 42.8754C-52.6499 42.5754 -52.8299 42.2554 -52.9999 41.9254C-53.4999 42.4254 -53.8699 42.8954 -54.0999 43.3254C-54.5999 44.2554 -55.0799 45.1254 -55.5499 45.9254C-55.7799 46.3954 -56.0699 46.7754 -56.3999 47.0754C-56.5699 47.2454 -56.8199 47.3254 -57.1499 47.3254C-57.3199 46.9954 -57.5199 46.6754 -57.7499 46.3754C-58.0199 46.0054 -58.2299 45.6254 -58.3999 45.2254C-58.5299 44.9554 -58.6799 44.6954 -58.8499 44.4254C-59.0199 44.1554 -59.2299 44.0554 -59.4999 44.1254C-59.8999 44.2254 -60.2799 44.4254 -60.6499 44.7254C-61.6499 45.4254 -62.3199 46.2554 -62.6499 47.2254C-63.1499 47.0254 -63.4499 46.8254 -63.5499 46.6254C-63.6199 46.1554 -63.6699 45.8454 -63.6999 45.6754C-63.9299 44.8754 -64.0499 44.0454 -64.0499 43.1754C-64.2199 43.1754 -64.3799 43.1754 -64.5499 43.1754C-64.7199 43.1754 -64.8799 43.1754 -65.0499 43.1754C-65.5799 43.4754 -65.9799 43.7554 -66.2499 44.0254C-66.6499 43.7554 -66.9199 43.4554 -67.0499 43.1254C-67.2199 42.7954 -67.4199 42.6054 -67.6499 42.5754C-68.2499 42.4054 -68.7999 42.5254 -69.2999 42.9254C-69.6699 43.1954 -69.9299 43.5754 -70.0999 44.0754C-70.0999 44.2454 -70.0999 44.4054 -70.0999 44.5754C-70.2699 44.8754 -70.4299 45.0254 -70.5999 45.0254C-70.9299 44.8554 -71.0999 44.6954 -71.0999 44.5254C-71.0999 44.3554 -71.0999 44.1954 -71.0999 44.0254C-71.0999 43.6954 -71.0799 43.3554 -71.0499 43.0254C-71.0499 42.8554 -71.0499 42.6954 -71.0499 42.5254C-71.7199 42.8554 -72.2299 43.1954 -72.5999 43.5254C-72.7699 43.6554 -72.8999 43.8254 -72.9999 44.0254C-73.0699 44.4954 -73.0999 44.8054 -73.0999 44.9754C-73.4299 44.8054 -73.5999 44.6454 -73.5999 44.4754C-73.5999 44.1454 -73.6499 43.8254 -73.7499 43.5254C-73.8199 43.3254 -73.8699 43.1254 -73.8999 42.9254C-73.9999 42.6254 -74.0499 42.3054 -74.0499 41.9754C-74.5499 42.3054 -74.8999 42.6254 -75.0999 42.9254C-75.4299 43.4254 -75.7299 43.9454 -75.9999 44.4754C-76.2299 44.9454 -76.4999 45.3954 -76.7999 45.8254C-77.1999 45.8954 -77.4199 45.8754 -77.4499 45.7754C-77.5799 45.5054 -77.6299 45.2054 -77.5999 44.8754C-77.5999 44.5454 -77.5999 44.2054 -77.5999 43.8754C-77.5999 43.7054 -77.5999 43.5454 -77.5999 43.3754C-77.5699 43.0454 -77.5499 42.7054 -77.5499 42.3754C-78.4499 43.0454 -79.1199 43.8754 -79.5499 44.8754C-79.7799 45.3454 -80.0699 45.6954 -80.3999 45.9254C-80.5699 46.0254 -80.7999 45.9754 -81.0999 45.7754C-81.6999 45.3754 -81.8499 44.5554 -81.5499 43.3254C-81.3499 42.4554 -81.6999 42.1054 -82.5999 42.2754C-82.7599 42.4354 -82.9099 42.6054 -83.0499 42.7754C-82.9099 42.5954 -82.7799 42.2554 -82.6499 41.7754C-82.2799 40.3054 -82.4199 39.3054 -83.0499 38.7754C-84.7799 38.7454 -86.2499 39.4554 -87.4499 40.9254C-88.2199 41.9254 -89.0799 42.8754 -90.0499 43.7754C-90.6199 44.3454 -91.1799 44.9254 -91.7499 45.5254C-92.0499 45.8954 -92.3699 46.2454 -92.6999 46.5754C-92.6999 46.4054 -92.6799 46.2454 -92.6499 46.0754C-92.5199 45.4054 -92.3799 44.7454 -92.2499 44.0754C-92.1799 43.7454 -92.1199 43.4254 -92.0499 43.1254C-92.2799 43.2554 -92.4799 43.3254 -92.6499 43.3254C-92.6199 42.8254 -92.5999 42.4054 -92.5999 42.0754C-92.6299 41.5754 -92.6299 41.0754 -92.5999 40.5754C-92.5999 40.4054 -92.5799 40.2454 -92.5499 40.0754C-92.7199 40.0754 -92.8799 40.0754 -93.0499 40.0754C-93.3799 40.0754 -93.6999 40.1254 -93.9999 40.2254C-94.2299 40.7554 -94.4299 41.1954 -94.5999 41.5254C-94.5999 41.3554 -94.5999 41.1954 -94.5999 41.0254C-94.5999 40.8554 -94.5999 40.6954 -94.5999 40.5254C-94.5999 40.3554 -94.5799 40.1954 -94.5499 40.0254C-94.7199 39.5254 -94.8499 39.1754 -94.9499 38.9754C-95.1799 38.6754 -95.3199 38.5554 -95.3499 38.6254C-95.4799 38.8954 -95.6299 39.1454 -95.7999 39.3754C-95.9999 39.6054 -96.2299 39.8554 -96.4999 40.1254C-96.7699 40.5254 -96.9799 40.8054 -97.1499 40.9754C-97.1499 40.8054 -97.1499 40.6454 -97.1499 40.4754C-97.1499 40.3054 -97.1299 40.1454 -97.0999 39.9754C-97.0999 39.8054 -97.0999 39.6454 -97.0999 39.4754C-97.2699 38.9754 -97.4299 38.6454 -97.5999 38.4754C-97.9299 38.4754 -98.1799 38.5454 -98.3499 38.6754C-99.0199 39.3454 -99.5999 40.0954 -100.1 40.9254C-100.3 41.2554 -100.52 41.5554 -100.75 41.8254C-101.02 42.1954 -101.33 42.5454 -101.7 42.8754C-101.67 42.5454 -101.65 42.2054 -101.65 41.8754C-101.68 41.0454 -101.67 40.2054 -101.6 39.3754C-101.33 38.0754 -101.5 37.5754 -102.1 37.8754C-102.23 37.3754 -102.38 37.0454 -102.55 36.8754C-103.22 37.1754 -103.7 37.5054 -104 37.8754C-104.23 38.1754 -104.48 38.4554 -104.75 38.7254C-105.15 38.9554 -105.43 39.1454 -105.6 39.2754C-105.27 37.8454 -105.92 37.4054 -107.55 37.9754C-108.28 38.2054 -109 38.6054 -109.7 39.1754C-110.63 39.9054 -111.5 39.9954 -112.3 39.4254C-112.53 39.2254 -112.82 39.0954 -113.15 39.0254C-114.92 38.6554 -116.47 38.9454 -117.8 39.8754C-118.37 40.2754 -118.98 40.5554 -119.65 40.7254C-120.02 40.4954 -120.38 40.2554 -120.75 40.0254C-123.28 38.2254 -126.08 37.3054 -129.15 37.2754C-130.18 37.2754 -131.18 37.3254 -132.15 37.4254C-132.48 37.4554 -132.82 37.5554 -133.15 37.7254C-135.78 38.9954 -138.48 39.6754 -141.25 39.7754C-141.55 39.1054 -141.75 38.5254 -141.85 38.0254C-142.18 35.8254 -143.45 35.3054 -145.65 36.4754C-147.02 37.1754 -148.27 38.0954 -149.4 39.2254C-149.67 39.4954 -149.93 39.7454 -150.2 39.9754C-150.37 39.9454 -150.55 39.9254 -150.75 39.9254C-153.58 39.5254 -156.43 39.1554 -159.3 38.8254C-160.7 38.6254 -162.1 38.4554 -163.5 38.3254C-164.2 38.2254 -164.88 38.1454 -165.55 38.0754C-166.48 37.9754 -167.4 37.8754 -168.3 37.7754C-169.13 37.6754 -169.95 37.5954 -170.75 37.5254C-170.88 37.4954 -171.03 37.4754 -171.2 37.4754C-175.63 37.0454 -180.07 36.6254 -184.5 36.2254C-185.3 36.1254 -186.1 36.0454 -186.9 35.9754C-193 35.4454 -199.08 34.9254 -205.15 34.4254V57.6754C-195.02 57.8054 -184.9 57.9054 -174.8 57.9754H-162C-161 57.9754 -160 57.9754 -159 57.9754C-158.33 57.9754 -157.65 57.9754 -156.95 57.9754L-150.35 58.0254C-140.12 57.9554 -129.9 57.8754 -119.7 57.7754C-112.2 57.6754 -104.7 57.5554 -97.1999 57.4254C-96.7699 57.4254 -96.3199 57.4254 -95.8499 57.4254C-95.0199 57.3954 -94.1699 57.3754 -93.2999 57.3754C-92.1999 57.3454 -91.0999 57.3054 -89.9999 57.2754C-87.6299 57.2454 -85.2699 57.1954 -82.8999 57.1254C-82.1299 57.1254 -81.3999 57.1254 -80.6999 57.1254C-80.5299 57.0954 -80.3499 57.0954 -80.1499 57.1254C-73.6499 57.1254 -67.3999 57.6754 -61.3999 58.7754C-59.1999 59.1754 -57.0299 59.6554 -54.8999 60.2254C-49.8299 61.5554 -44.5499 62.6454 -39.0499 63.4754C-36.8799 63.8054 -34.6999 64.3454 -32.4999 65.0754C-30.6999 65.6754 -28.7799 65.9754 -26.7499 65.9754C-18.4499 65.9454 -10.4199 66.3754 -2.6499 67.2754C1.3201 67.7454 5.1801 68.4454 8.9501 69.3754C10.5201 69.7754 12.1001 70.3754 13.7001 71.1754C14.7701 71.7054 15.9701 71.9754 17.3001 71.9754C19.0301 71.9754 20.7701 72.0054 22.5001 72.0754C23.3001 72.1054 24.1001 72.1454 24.9001 72.1754C28.5701 72.3054 32.1801 72.5554 35.7501 72.9254C37.0201 73.0254 38.2801 73.1454 39.5501 73.2754C44.2501 73.7754 48.9001 74.4454 53.5001 75.2754C56.1301 75.7454 58.7801 75.9754 61.4501 75.9754C75.6501 75.9754 89.8501 75.9754 104.05 75.9754C108.68 75.9754 113.3 75.9754 117.9 75.9754H118.05C118.25 75.9754 118.45 75.9754 118.65 75.9754H118.85C120.45 75.9754 122.05 75.9754 123.65 75.9754C125.12 75.9754 126.6 75.9754 128.1 75.9754C130.57 75.9754 133.05 75.9754 135.55 75.9754C137.58 75.9754 139.62 75.9954 141.65 76.0254C145.05 76.0254 148.47 76.0554 151.9 76.1254C158.47 76.2254 165.07 76.4054 171.7 76.6754C175.9 76.8454 180.1 77.0454 184.3 77.2754C184.8 77.2754 185.3 77.2954 185.8 77.3254C186.97 77.3954 188.13 77.4554 189.3 77.5254C190 77.5554 190.7 77.6054 191.4 77.6754C192.17 77.7054 192.9 77.7454 193.6 77.7754C194.57 77.8454 195.55 78.0454 196.55 78.3754C196.62 78.3754 196.7 78.4054 196.8 78.4754C197.8 78.8054 198.78 79.2954 199.75 79.9254C203.35 82.2254 207.35 83.1954 211.75 82.8254C219.12 82.2554 226.47 81.9754 233.8 81.9754C242.87 81.9754 251.92 81.9954 260.95 82.0254C266.42 82.0554 271.9 82.0954 277.4 82.1254C278.23 82.1254 279.07 82.1254 279.9 82.1254C282.3 82.1554 284.7 82.1754 287.1 82.1754C288.53 82.1754 289.95 82.1954 291.35 82.2254C293.12 82.2254 294.88 82.2454 296.65 82.2754C296.88 82.2754 297.12 82.2754 297.35 82.2754C302.22 82.3054 307.08 82.3554 311.95 82.4254C313.22 82.4254 314.47 82.4954 315.7 82.6254C317.23 82.7554 318.77 82.9954 320.3 83.3254C321.07 83.4554 321.83 83.6254 322.6 83.8254C323.03 83.9254 323.47 84.0454 323.9 84.1754C323.93 84.1054 323.98 84.0454 324.05 83.9754C324.58 83.3054 325.17 82.7254 325.8 82.2254C326 82.0554 326.18 82.0554 326.35 82.2254C326.52 82.3954 326.63 82.5054 326.7 82.5754C326.63 82.6754 326.57 82.9554 326.5 83.4254C326.47 83.5254 326.4 83.6254 326.3 83.7254C326.93 83.1254 327.55 82.5454 328.15 81.9754C329.02 81.1454 329.95 80.4454 330.95 79.8754C332.28 79.1054 333.7 78.6454 335.2 78.4754V78.9754C335.2 79.3054 335.12 79.5754 334.95 79.7754C334.28 80.6754 334.37 81.2454 335.2 81.4754C335.37 80.6454 335.83 79.9454 336.6 79.3754C337.17 78.9454 337.7 78.4754 338.2 77.9754C338.2 78.1454 338.12 78.3954 337.95 78.7254C338.98 77.6554 340.47 77.2054 342.4 77.3754C342.27 77.7754 342.07 78.2454 341.8 78.7754C342.07 78.9054 342.25 78.8954 342.35 78.7254C342.65 78.2954 343.28 78.1454 344.25 78.2754C345.05 78.4054 345.87 78.4754 346.7 78.4754C347.03 78.4754 347.37 78.4754 347.7 78.4754C348.03 78.4754 348.37 78.4754 348.7 78.4754C348.7 78.6454 348.68 78.8054 348.65 78.9754C348.52 79.4754 348.33 79.9554 348.1 80.4254C348 80.6254 347.87 80.8054 347.7 80.9754C347.37 81.3054 347.03 81.8054 346.7 82.4754C347.7 82.4754 348.7 82.5254 349.7 82.6254C351.4 82.7954 352.87 82.3754 354.1 81.3754C355.2 80.4754 356.25 79.6754 357.25 78.9754C357.75 78.6454 358.27 78.4554 358.8 78.4254C359.77 78.3554 360.42 77.8754 360.75 76.9754C361.15 75.9054 361.8 75.4554 362.7 75.6254C363.07 75.6954 363.27 75.8454 363.3 76.0754C363.67 77.8454 364.65 78.6454 366.25 78.4754C366.42 77.9754 366.53 77.4754 366.6 76.9754C366.7 76.3054 366.75 75.6454 366.75 74.9754C366.75 74.3054 366.75 73.6454 366.75 72.9754C366.75 72.6454 366.75 72.3054 366.75 71.9754C367.08 72.1454 367.43 72.2554 367.8 72.3254C368.47 72.4554 369.08 72.6754 369.65 72.9754L369.7 73.0254C370.23 73.3254 370.78 73.5554 371.35 73.7254C371.95 73.8954 372.57 74.0454 373.2 74.1754C376.2 74.8454 379.38 75.1254 382.75 75.0254C383.28 74.9954 383.77 74.8954 384.2 74.7254C384.93 74.4254 385.63 74.2254 386.3 74.1254C387.8 73.9254 389.17 74.1554 390.4 74.8254C390.83 75.0954 391.28 75.2054 391.75 75.1754C393.85 74.9754 394.7 75.9054 394.3 77.9754C394.47 77.8054 394.63 77.7254 394.8 77.7254C396 77.6954 397.17 77.7454 398.3 77.8754C398.8 77.9454 399.12 77.8554 399.25 77.6254C399.62 77.0254 399.8 76.3054 399.8 75.4754C399.8 74.6454 399.8 73.8054 399.8 72.9754C400.83 73.7054 402 74.1554 403.3 74.3254C403.97 74.4254 404.63 74.5254 405.3 74.6254C406.3 74.7954 406.73 74.4054 406.6 73.4754C406.57 73.3054 406.57 73.1454 406.6 72.9754C406.6 71.9454 407.02 71.1254 407.85 70.5254C408.32 70.1554 408.82 69.9054 409.35 69.7754C409.48 69.7454 409.65 69.7554 409.85 69.8254C410.15 69.9254 410.48 69.9754 410.85 69.9754C414.18 69.9754 417.52 70.0554 420.85 70.2254C421.15 70.2254 421.48 70.2554 421.85 70.3254C422.52 70.4254 423.18 70.4754 423.85 70.4754C425.52 70.4754 427.18 70.5554 428.85 70.7254C429.02 70.7254 429.2 70.7454 429.4 70.7754C430.03 70.9054 430.67 71.0254 431.3 71.1254C432.37 71.3254 433.03 70.9454 433.3 69.9754C433.57 68.8754 434.2 68.7554 435.2 69.6254C436 70.3554 436.88 70.8454 437.85 71.0754C438.22 71.1754 438.57 71.2454 438.9 71.2754C439.9 71.4054 440.9 71.5054 441.9 71.5754C443.63 71.7054 445.13 71.1754 446.4 69.9754C446.9 69.4754 447.42 69.2054 447.95 69.1754C450.55 68.9054 453.2 68.8454 455.9 68.9754C456.23 68.9754 456.48 68.8954 456.65 68.7254C457.65 67.7554 458.42 67.6754 458.95 68.4754C459.45 69.2454 459.78 70.0754 459.95 70.9754C460.08 71.7454 460.07 72.5754 459.9 73.4754C460.23 73.4754 460.55 73.4254 460.85 73.3254C461.55 73.0954 462.22 72.7954 462.85 72.4254C463.98 71.7954 464.92 71.0054 465.65 70.0754C466.02 69.6054 466.32 69.0954 466.55 68.5254C466.65 68.3254 466.78 68.1454 466.95 67.9754C466.95 68.3054 466.93 68.6454 466.9 68.9754C466.87 69.2754 466.83 69.5954 466.8 69.9254C466.7 70.5954 466.62 71.2754 466.55 71.9754C466.48 72.8054 466.62 73.6454 466.95 74.4754C467.45 74.4754 467.92 74.3954 468.35 74.2254C469.08 73.8954 469.82 73.5554 470.55 73.2254C470.98 73.0554 471.45 73.1454 471.95 73.4754C471.55 74.2454 471.27 75.0954 471.1 76.0254C471 76.4954 470.85 76.9254 470.65 77.3254C470.35 77.9254 469.95 78.6454 469.45 79.4754C469.95 79.3054 470.45 79.1254 470.95 78.9254C473.05 78.1254 474.78 76.8554 476.15 75.1254C476.35 74.8554 476.62 74.6454 476.95 74.4754C476.95 74.6454 476.95 74.8054 476.95 74.9754C476.95 75.1454 476.95 75.3054 476.95 75.4754C476.95 75.6454 476.85 75.8454 476.65 76.0754C476.52 76.5054 476.52 76.9554 476.65 77.4254C476.68 77.4554 476.92 77.4454 477.35 77.3754C477.75 77.1054 478.15 76.9054 478.55 76.7754C479.22 76.5454 479.82 76.0954 480.35 75.4254C480.58 75.1254 480.83 74.8754 481.1 74.6754C483.17 72.9454 485.15 70.9754 487.05 68.7754C487.15 68.6454 487.25 68.5054 487.35 68.3754C488.52 67.0054 489.88 66.3754 491.45 66.4754C491.35 67.2754 491.22 68.0754 491.05 68.8754C490.48 71.1454 489.6 73.3254 488.4 75.4254C488.1 75.9554 487.73 76.4254 487.3 76.8254C485.73 78.3254 485.12 80.2054 485.45 82.4754C485.78 82.4754 486.1 82.4454 486.4 82.3754C486.77 82.2754 487.12 82.1454 487.45 81.9754C491.22 80.0054 495.07 77.6754 499 74.9754C498.67 75.3054 498.38 75.6754 498.15 76.0754C497.75 76.7754 497.38 77.2554 497.05 77.5254C496.68 77.8254 496.45 78.1754 496.35 78.5754C496.12 79.3454 495.92 80.1254 495.75 80.9254C495.48 82.3954 495.9 83.1454 497 83.1754C498.9 83.2454 500.72 82.9754 502.45 82.3754C503.32 82.1054 504.15 81.7754 504.95 81.3754C508.62 79.4454 511.98 77.1254 515.05 74.4254C516.88 74.3954 518.72 74.3254 520.55 74.2254C520.72 74.2254 520.9 74.2054 521.1 74.1754C521.73 74.0454 522.33 74.0954 522.9 74.3254C523.57 74.6254 524.28 74.8454 525.05 74.9754C526.42 75.2454 527.53 74.8554 528.4 73.8254C528.97 73.1554 529.85 73.1954 531.05 73.9254C531.38 74.1254 531.65 74.3554 531.85 74.6254C533.22 76.2954 534.95 77.0754 537.05 76.9754C537.38 76.9754 537.67 76.8954 537.9 76.7254C538.5 76.3254 538.95 75.7554 539.25 75.0254C539.48 74.3554 539.92 74.0754 540.55 74.1754C543.82 74.5754 547.17 74.6954 550.6 74.5254C550.93 74.4954 551.23 74.4054 551.5 74.2754C552.3 73.8454 553.13 73.2054 554 72.3754C554.57 71.7754 555.18 71.3054 555.85 70.9754C557.48 70.1754 558.05 70.6754 557.55 72.4754C557.12 74.1054 557.47 74.9454 558.6 74.9754C559.1 74.9754 559.57 74.8954 560 74.7254C560.83 74.3554 561.7 74.1454 562.6 74.0754C563.6 74.0054 564.55 73.8254 565.45 73.5254C567.22 72.9254 569.1 72.5954 571.1 72.5254C572.1 72.4954 573.08 72.4054 574.05 72.2754C574.25 72.2454 574.43 72.2254 574.6 72.2254C575.63 72.3554 576.35 72.7554 576.75 73.4254C576.85 73.6254 576.98 73.7254 577.15 73.7254C579.38 73.7954 580.38 72.5454 580.15 69.9754C580.48 70.3054 580.78 70.6754 581.05 71.0754C581.45 71.6754 581.88 72.2554 582.35 72.8254C582.72 73.2554 583.15 73.6454 583.65 73.9754C583.65 73.8054 583.65 73.6454 583.65 73.4754C583.65 72.9754 583.65 72.4754 583.65 71.9754C583.65 71.3054 583.65 70.6454 583.65 69.9754C583.65 69.8054 583.65 69.6454 583.65 69.4754C584.72 70.0754 585.38 71.0754 585.65 72.4754C585.82 73.3054 586.15 73.9754 586.65 74.4754C586.98 74.8054 587.48 74.9754 588.15 74.9754C588.62 74.9754 589.1 75.0454 589.6 75.1754C589.8 75.2054 590 75.2554 590.2 75.3254C590.5 75.4254 590.73 75.3954 590.9 75.2254C592.07 74.0554 593.33 74.1254 594.7 75.4254C595.8 76.4254 597.12 76.8054 598.65 76.5754C600.08 76.3454 601.13 76.7754 601.8 77.8754C602.07 78.2754 602.53 78.4754 603.2 78.4754C603.53 78.1454 603.9 77.9454 604.3 77.8754C604.73 77.7754 605.12 77.8954 605.45 78.2254C606.15 78.8954 607.08 78.8254 608.25 78.0254C608.55 77.8254 608.85 77.7554 609.15 77.8254C609.68 77.9254 610.13 78.1954 610.5 78.6254C610.97 79.1954 611.47 79.6054 612 79.8754C612.8 80.2754 613.7 80.5254 614.7 80.6254C616.1 80.7554 617.3 81.5254 618.3 82.9254C618.57 83.2954 618.88 83.5054 619.25 83.5754C620.42 83.7454 621.4 83.2054 622.2 81.9754C622.53 81.4754 622.88 81.2054 623.25 81.1754C629.08 80.7054 634.93 80.4554 640.8 80.4254C642.1 80.4254 643.22 80.8254 644.15 81.6254C644.42 81.8554 644.6 81.9554 644.7 81.9254C645.6 81.7554 646.8 81.4454 648.3 80.9754C649.3 80.6454 650.27 80.2454 651.2 79.7754C651.93 79.4054 652.67 79.1754 653.4 79.0754C655.13 78.8454 656.82 78.1754 658.45 77.0754C659.05 76.6754 659.7 76.3954 660.4 76.2254C661.03 76.0554 661.65 76.0754 662.25 76.2754C663.02 76.5454 664.05 76.6054 665.35 76.4754C667.28 76.2754 669.12 75.6054 670.85 74.4754C672.18 73.6454 673.57 72.9454 675 72.3754C675.33 72.2454 675.67 72.1454 676 72.0754C676.73 71.8454 677.52 71.7254 678.35 71.7254C678.65 71.7254 678.9 71.8254 679.1 72.0254C679.13 72.0554 679.17 72.0954 679.2 72.1254C679.87 72.8554 680.6 73.4454 681.4 73.8754C681.87 74.1054 682.32 74.3554 682.75 74.6254C683.32 75.0254 683.9 75.4254 684.5 75.8254C685.53 76.5554 686.57 77.2754 687.6 77.9754C689.47 77.2754 691.4 76.9454 693.4 76.9754C693.9 76.9754 694.32 77.0954 694.65 77.3254C695.45 77.8954 696.37 78.0754 697.4 77.8754C698.3 77.7054 698.77 77.9054 698.8 78.4754C698.87 79.3054 698.83 80.1254 698.7 80.9254C698.57 82.0554 698.8 82.7454 699.4 82.9754C700.07 82.4754 700.77 82.0454 701.5 81.6754C702.1 81.3754 702.65 81.0254 703.15 80.6254C705.62 78.6254 708.38 77.7254 711.45 77.9254C711.78 77.9554 712.05 78.0554 712.25 78.2254C712.92 78.7954 713.83 78.9254 715 78.6254C716.83 78.1254 717.65 78.7454 717.45 80.4754C718.98 80.1454 720.28 79.4454 721.35 78.3754C722.75 77.0454 724.45 76.5454 726.45 76.8754C726.78 76.9454 727.08 76.9054 727.35 76.7754C728.65 76.2054 730.02 75.9454 731.45 75.9754H732.45C732.38 76.5754 732.72 76.9054 733.45 76.9754C736.55 75.8754 739.72 74.9954 742.95 74.3254C743.95 74.1254 744.47 74.3454 744.5 74.9754C744.5 75.3054 744.57 75.6054 744.7 75.8754C744.97 76.5454 745.73 76.7954 747 76.6254C747.67 76.5254 748.22 76.3254 748.65 76.0254C749.95 75.0954 751.4 74.6454 753 74.6754C754.47 74.7054 754.97 75.6454 754.5 77.4754C755 77.1454 755.52 76.8754 756.05 76.6754C756.85 76.3754 757.67 76.1454 758.5 75.9754C759.33 75.8054 760.13 75.5754 760.9 75.2754C763 74.4454 763.83 75.1754 763.4 77.4754C763.37 77.7054 763.33 77.9254 763.3 78.1254C768.73 77.4554 774.17 77.3054 779.6 77.6754C779.93 77.7054 780.27 77.7254 780.6 77.7254C780.93 77.7254 781.27 77.6554 781.6 77.5254C784.9 76.4554 788.4 76.0554 792.1 76.3254C796.3 76.6254 800.48 76.8254 804.65 76.9254C805.32 76.9554 805.97 76.8954 806.6 76.7254C807.3 76.5554 808 76.3954 808.7 76.2254C813.27 75.1954 817.93 74.8554 822.7 75.2254C822.87 75.2254 823.02 75.3254 823.15 75.5254C823.35 75.8254 823.58 76.0454 823.85 76.1754C824.25 76.3754 824.7 76.5054 825.2 76.5754C825.87 76.6754 826.53 76.7254 827.2 76.7254C828.07 76.7254 828.78 77.1054 829.35 77.8754C829.62 78.2454 830.07 78.4254 830.7 78.4254C831.23 78.4554 831.75 78.5254 832.25 78.6254C832.92 78.4954 833.58 78.3554 834.25 78.2254C835.88 77.8954 837.5 77.5254 839.1 77.1254C842.2 76.3954 845.42 76.1054 848.75 76.2754C850.92 76.4054 853.08 76.4054 855.25 76.2754C855.95 76.2054 856.28 76.4454 856.25 76.9754C856.18 77.5454 856.52 77.7554 857.25 77.6254C857.92 77.5254 858.55 77.3554 859.15 77.1254C859.88 76.8554 860.6 76.4954 861.3 76.0254C862.37 75.2954 863.53 74.8454 864.8 74.6754C865.6 74.5454 866.42 74.4254 867.25 74.3254C870.28 73.8954 872.95 74.6054 875.25 76.4754C875.82 76.9054 876.37 77.2754 876.9 77.5754C879.4 76.8454 881.85 75.9554 884.25 74.9254C884.95 74.6254 885.52 74.2054 885.95 73.6754C886.35 73.2054 886.7 72.6754 887 72.0754C887 72.0454 887.02 72.0254 887.05 72.0254C887.25 71.6554 887.52 71.4554 887.85 71.4254C890.65 71.1254 893.47 70.9754 896.3 70.9754C896.63 70.9754 896.88 71.0554 897.05 71.2254C897.22 71.3954 897.37 71.6054 897.5 71.8754C897.57 72.0054 897.63 72.1254 897.7 72.2254C897.87 72.4954 898.05 72.7554 898.25 73.0254C898.62 73.4954 899 73.9454 899.4 74.3754C899.83 74.7754 900.32 75.0754 900.85 75.2754C901.32 75.4054 901.7 75.5954 902 75.8254C903.47 76.9554 904.97 78.0454 906.5 79.0754C909.87 77.8054 913.32 77.5754 916.85 78.3754C917.18 78.4454 917.48 78.4054 917.75 78.2754C918.15 78.0754 918.53 77.8254 918.9 77.5254C919.93 76.7254 920.88 76.7454 921.75 77.5754C921.98 77.8454 922.08 78.1454 922.05 78.4754C921.88 80.9454 922.98 82.1254 925.35 82.0254C926.02 81.9954 926.67 81.9054 927.3 81.7754C928.6 81.5454 929.97 81.3454 931.4 81.1754C932.57 81.0454 933.73 80.9054 934.9 80.7754C936 80.6454 936.67 80.8754 936.9 81.4754C936.73 81.6454 936.52 81.9454 936.25 82.3754C936.18 82.4454 936.07 82.6454 935.9 82.9754C935.9 83.1454 935.87 83.3054 935.8 83.4754C935.7 83.8054 935.73 84.1454 935.9 84.4754C938.27 83.9754 940.58 82.9454 942.85 81.3754C943.72 80.7754 944.62 80.3554 945.55 80.1254C947.12 79.6954 948.73 79.4054 950.4 79.2754C951.4 79.2054 952.23 79.4454 952.9 79.9754C952.33 80.0754 951.98 80.4054 951.85 80.9754C951.65 81.8754 951.83 82.3554 952.4 82.4254C956.5 83.0554 960.7 83.2554 965 83.0254C965.5 82.9954 965.88 83.1054 966.15 83.3754C966.65 83.8754 967.1 84.2454 967.5 84.4754C968.23 83.4754 969.12 82.5454 970.15 81.6754C970.88 81.0454 971.65 80.7454 972.45 80.7754C973.68 80.8454 974.85 80.2254 975.95 78.9254C976.65 78.1254 977.35 77.3254 978.05 76.5254C978.98 75.4254 980.02 74.5954 981.15 74.0254C982.62 73.2954 984.25 73.0054 986.05 73.1754C986.38 73.2054 986.7 73.3454 987 73.5754C987.27 73.7754 987.53 73.9754 987.8 74.1754C989.27 75.1754 990.83 75.8254 992.5 76.1254C992.87 76.1954 993.22 76.2954 993.55 76.4254C995.65 77.2954 997.77 78.2054 999.9 79.1754C1000.57 78.7454 1001.23 78.2954 1001.9 77.8254C1002.97 77.0954 1003.87 76.2054 1004.6 75.1754C1004.77 74.9454 1004.93 74.7254 1005.1 74.5254C1006.87 72.3954 1009.15 71.5954 1011.95 72.1254C1012.35 72.1954 1012.7 72.2054 1013 72.1754C1014.47 72.0454 1015.98 71.9754 1017.55 71.9754C1017.88 71.9754 1018.15 72.0554 1018.35 72.2254C1018.85 72.6954 1019.42 72.9454 1020.05 72.9754C1020.55 72.9754 1021.05 73.0054 1021.55 73.0754C1022.35 73.2054 1022.97 72.9754 1023.4 72.3754C1023.67 71.9454 1023.95 71.5254 1024.25 71.1254C1024.62 70.6954 1025.03 70.4954 1025.5 70.5254C1028.47 70.7954 1030.13 69.6054 1030.5 66.9754C1030.53 66.8054 1030.55 66.6454 1030.55 66.4754C1030.72 66.6454 1030.88 66.8054 1031.05 66.9754C1031.18 67.1454 1031.32 67.3254 1031.45 67.5254C1031.68 67.8254 1031.8 68.1454 1031.8 68.4754C1031.8 70.0054 1032.22 71.0054 1033.05 71.4754C1033.22 71.3054 1033.32 71.1254 1033.35 70.9254C1033.48 69.7954 1033.62 68.6554 1033.75 67.5254C1033.78 67.3254 1033.88 67.1454 1034.05 66.9754C1034.22 67.1454 1034.32 67.3254 1034.35 67.5254C1034.85 69.6554 1035.78 71.6254 1037.15 73.4254C1037.42 73.7954 1037.72 74.1454 1038.05 74.4754C1038.12 72.5754 1038.65 70.7454 1039.65 68.9754C1040.05 68.2454 1040.53 67.5754 1041.1 66.9754C1041.2 66.8754 1041.28 66.7954 1041.35 66.7254C1041.52 66.5554 1041.77 66.4754 1042.1 66.4754C1042.27 66.6454 1042.37 66.8054 1042.4 66.9754V67.0254C1042.53 67.6554 1042.6 68.3054 1042.6 68.9754C1042.6 69.4754 1042.6 69.9754 1042.6 70.4754C1042.93 69.9754 1043.28 69.4954 1043.65 69.0254C1043.78 68.8254 1043.93 68.6454 1044.1 68.4754C1044.93 67.8054 1045.85 67.3054 1046.85 66.9754C1047.85 65.2454 1049.1 63.5754 1050.6 61.9754C1051.37 62.6454 1051.67 63.4754 1051.5 64.4754C1051.3 65.5754 1051.5 66.2454 1052.1 66.4754C1052.43 66.4754 1052.7 66.3954 1052.9 66.2254C1053.37 65.8954 1053.63 65.4554 1053.7 64.9254C1053.93 63.2554 1054.73 62.2754 1056.1 61.9754C1056.1 62.8054 1056.1 63.6454 1056.1 64.4754C1056.1 65.3054 1056.1 66.1454 1056.1 66.9754C1056.73 65.3054 1057.73 64.3554 1059.1 64.1254C1059.6 64.0254 1059.88 64.0554 1059.95 64.2254C1060.32 65.1254 1060.87 65.7054 1061.6 65.9754C1061.77 65.6454 1061.93 65.3054 1062.1 64.9754C1062.43 64.3054 1062.87 63.8054 1063.4 63.4754C1064.27 62.9054 1064.85 62.9054 1065.15 63.4754C1065.72 64.5454 1066.05 65.7054 1066.15 66.9754C1066.15 67.4754 1066.13 67.9754 1066.1 68.4754C1066.47 68.0054 1066.8 67.5054 1067.1 66.9754C1067.33 66.5054 1067.55 66.0254 1067.75 65.5254C1068.22 64.2554 1069 64.0954 1070.1 65.0254C1070.47 65.3254 1070.65 65.6454 1070.65 65.9754C1070.65 66.3454 1070.68 66.6754 1070.75 66.9754C1070.92 67.7454 1071.22 68.4054 1071.65 68.9754C1071.65 68.8054 1071.68 68.5254 1071.75 68.1254C1071.85 68.0254 1071.98 67.8054 1072.15 67.4754C1072.45 68.1754 1072.68 68.9954 1072.85 69.9254C1073.02 71.0554 1073.28 71.9054 1073.65 72.4754C1074.28 72.6454 1074.73 72.4454 1075 71.8754C1075.27 71.2754 1075.55 70.6754 1075.85 70.0754C1076.35 69.0454 1076.75 68.0054 1077.05 66.9754C1077.05 66.9454 1077.05 66.8954 1077.05 66.8254C1077.52 64.9954 1078.38 63.3754 1079.65 61.9754C1079.82 62.3054 1080.02 62.6254 1080.25 62.9254C1080.52 63.2954 1080.73 63.6754 1080.9 64.0754C1081.33 65.2754 1081.92 66.2454 1082.65 66.9754C1082.78 67.1454 1082.95 67.3054 1083.15 67.4754C1083.15 67.3054 1083.15 67.1454 1083.15 66.9754C1083.12 66.1454 1083.03 65.3254 1082.9 64.5254C1082.67 63.0954 1083.08 62.2454 1084.15 61.9754C1084.15 62.3054 1084.23 62.5954 1084.4 62.8254C1084.9 63.5954 1085.18 64.3454 1085.25 65.0754C1085.32 65.8454 1085.53 66.4754 1085.9 66.9754C1086.2 67.4054 1086.62 67.7454 1087.15 67.9754C1087.48 67.8054 1087.68 67.6054 1087.75 67.3754C1087.78 67.2454 1087.83 67.1054 1087.9 66.9754C1088.13 66.1054 1088.37 65.2754 1088.6 64.4754C1088.8 63.8054 1089.1 63.2554 1089.5 62.8254C1090.3 62.0254 1091.07 62.3954 1091.8 63.9254C1092.03 64.4554 1092.38 64.8954 1092.85 65.2254C1093.05 65.3954 1093.32 65.4754 1093.65 65.4754C1093.42 64.4054 1093.58 63.7454 1094.15 63.4754C1094.52 63.3054 1094.83 63.2554 1095.1 63.3254C1095.5 63.4254 1095.7 63.6454 1095.7 63.9754C1095.77 65.2754 1096.1 66.2754 1096.7 66.9754C1097.1 67.4454 1097.6 67.7754 1098.2 67.9754C1098.33 67.6454 1098.45 67.3054 1098.55 66.9754C1098.68 66.5054 1098.8 66.0254 1098.9 65.5254C1099.1 64.6554 1099.2 63.8054 1099.2 62.9754C1099.2 61.6454 1099.53 60.8054 1100.2 60.4754C1100.2 60.9754 1100.37 61.4754 1100.7 61.9754C1101.97 63.6454 1103.35 65.3054 1104.85 66.9754C1105.75 67.9754 1106.7 68.9754 1107.7 69.9754C1107.7 69.3054 1107.7 68.6454 1107.7 67.9754C1107.7 67.6454 1107.7 67.3054 1107.7 66.9754C1107.7 65.9754 1107.7 64.9754 1107.7 63.9754C1108.03 63.9754 1108.28 64.0554 1108.45 64.2254C1108.95 64.7254 1109.42 65.2754 1109.85 65.8754C1110.12 66.2454 1110.35 66.6054 1110.55 66.9754C1111.08 67.9054 1111.47 68.9054 1111.7 69.9754C1111.7 68.9754 1111.7 67.9754 1111.7 66.9754C1111.7 66.3054 1111.7 65.6454 1111.7 64.9754C1111.7 64.8054 1111.82 64.6954 1112.05 64.6254C1112.32 64.8554 1112.57 65.1054 1112.8 65.3754C1113.33 65.9054 1113.87 66.4454 1114.4 66.9754C1114.47 67.0054 1114.52 67.0554 1114.55 67.1254C1115.15 67.6954 1115.65 68.3454 1116.05 69.0754C1116.85 70.5754 1117.23 71.2054 1117.2 70.9754C1117.2 70.8054 1117.18 70.6454 1117.15 70.4754C1116.88 69.3054 1116.63 68.1454 1116.4 66.9754C1116.13 65.6454 1115.9 64.3054 1115.7 62.9754C1115.87 63.3054 1116.05 63.6254 1116.25 63.9254C1116.38 64.1254 1116.53 64.3054 1116.7 64.4754C1117.2 64.9754 1117.72 65.4554 1118.25 65.9254C1118.68 66.3254 1119.15 66.6754 1119.65 66.9754C1120.02 67.2454 1120.42 67.4754 1120.85 67.6754C1121.95 68.2054 1123.1 68.4754 1124.3 68.4754L1124.25 67.9754C1124.22 67.6454 1124.22 67.3054 1124.25 66.9754C1124.28 65.9454 1124.53 64.9754 1125 64.0754C1125.2 63.6754 1125.47 63.3054 1125.8 62.9754C1126.13 64.1454 1126.53 65.2754 1127 66.3754C1127.1 66.5754 1127.18 66.7754 1127.25 66.9754C1127.52 67.7454 1127.7 68.5754 1127.8 69.4754C1127.97 69.3054 1128.05 69.1454 1128.05 68.9754C1128.08 68.3054 1128.12 67.6454 1128.15 66.9754C1128.25 64.6454 1128.3 62.3054 1128.3 59.9754C1128.47 60.3054 1128.65 60.6254 1128.85 60.9254C1128.98 61.1254 1129.12 61.3254 1129.25 61.5254C1130.35 63.0954 1131.37 64.5754 1132.3 65.9754C1132.3 64.6454 1132.25 63.3054 1132.15 61.9754C1131.98 60.0454 1132.2 58.5454 1132.8 57.4754C1134.2 60.7454 1136.2 63.7454 1138.8 66.4754C1138.8 64.9754 1138.72 63.4754 1138.55 61.9754C1138.38 60.3054 1138.63 59.1454 1139.3 58.4754C1139.9 59.5454 1140.52 60.5754 1141.15 61.5754C1142.18 63.2054 1143.4 64.3454 1144.8 64.9754C1144.8 64.3054 1144.8 63.6454 1144.8 62.9754C1144.8 60.8054 1144.8 58.6454 1144.8 56.4754C1144.9 56.7754 1145.03 57.0754 1145.2 57.3754C1145.27 57.5454 1145.35 57.7054 1145.45 57.8754C1145.85 58.6054 1146.23 59.3454 1146.6 60.0754C1146.67 60.2054 1146.73 60.3554 1146.8 60.5254C1147.03 60.9954 1147.25 61.4554 1147.45 61.9254C1147.85 62.7954 1148.35 63.5954 1148.95 64.3254C1149.22 64.5954 1149.52 64.8054 1149.85 64.9754C1150.18 64.4754 1150.47 63.9554 1150.7 63.4254C1151.27 62.1254 1152.15 61.3054 1153.35 60.9754C1153.52 61.4754 1153.67 61.9754 1153.8 62.4754C1154.07 63.5754 1154.9 64.0054 1156.3 63.7754C1156.5 63.7454 1156.62 63.6254 1156.65 63.4254C1157.02 61.7954 1157.92 60.8454 1159.35 60.5754C1159.68 60.5054 1159.92 60.5554 1160.05 60.7254C1160.75 61.5954 1161.17 62.5054 1161.3 63.4754C1161.33 63.8054 1161.42 64.1054 1161.55 64.3754C1161.98 65.1754 1162.35 65.9954 1162.65 66.8254C1162.82 66.3554 1163.02 65.8954 1163.25 65.4254C1163.65 64.6254 1164.15 63.9454 1164.75 63.3754C1165.68 62.4054 1166.38 61.2754 1166.85 59.9754C1166.85 60.8054 1166.85 61.6454 1166.85 62.4754C1166.85 63.4754 1166.85 64.4754 1166.85 65.4754C1166.85 65.9754 1166.83 66.4754 1166.8 66.9754C1166.73 67.6454 1166.65 68.2954 1166.55 68.9254C1166.42 69.7954 1166.18 70.6454 1165.85 71.4754C1166.02 71.3054 1166.18 71.1454 1166.35 70.9754C1166.52 70.8054 1166.67 70.6254 1166.8 70.4254C1167 70.1254 1167.35 69.8054 1167.85 69.4754C1168.02 69.4754 1168.18 69.4754 1168.35 69.4754C1168.52 69.4754 1168.68 69.4754 1168.85 69.4754C1168.85 69.6454 1168.85 69.8054 1168.85 69.9754C1168.85 70.1454 1168.82 70.4554 1168.75 70.9254C1168.65 71.1254 1168.58 71.3254 1168.55 71.5254C1168.42 71.9954 1168.35 72.4754 1168.35 72.9754C1168.68 72.9754 1169.02 72.9754 1169.35 72.9754C1169.52 72.9754 1169.68 72.9754 1169.85 72.9754C1170.02 72.9754 1170.18 72.9754 1170.35 72.9754C1170.52 72.9754 1170.68 72.9754 1170.85 72.9754C1171.02 72.9754 1171.18 73.1454 1171.35 73.4754C1171.35 73.9754 1171.22 74.3554 1170.95 74.6254C1170.02 75.5954 1169.6 76.7454 1169.7 78.0754C1169.7 78.2054 1169.72 78.3454 1169.75 78.4754C1169.78 78.6054 1169.87 78.5754 1170 78.3754C1170.07 78.2754 1170.13 78.1754 1170.2 78.0754C1170.43 77.6754 1170.73 77.0954 1171.1 76.3254C1171.93 74.5254 1172.72 73.8054 1173.45 74.1754C1174.18 74.5454 1174.73 75.7054 1175.1 77.6754C1175.13 77.7454 1175.15 77.8254 1175.15 77.9254C1175.15 77.9954 1175.17 78.0754 1175.2 78.1754C1175.57 80.1454 1176.13 81.2454 1176.9 81.4754C1176.9 80.8054 1176.93 80.1454 1177 79.4754C1177.07 79.0454 1177.13 78.6254 1177.2 78.2254C1177.2 77.9954 1177.22 77.7554 1177.25 77.5254V77.4754C1177.35 75.9754 1177.4 74.4754 1177.4 72.9754C1177.4 72.1454 1177.4 71.3054 1177.4 70.4754C1177.9 71.1054 1178.2 71.7754 1178.3 72.4754C1178.37 72.9754 1178.5 73.4254 1178.7 73.8254C1179.17 74.7554 1179.68 75.6754 1180.25 76.5754C1180.42 76.8454 1180.58 77.0954 1180.75 77.3254C1180.85 77.4954 1180.97 77.6554 1181.1 77.8254C1181.3 78.0954 1181.58 78.1554 1181.95 78.0254C1182.05 77.7554 1182.15 77.5054 1182.25 77.2754C1182.28 77.1754 1182.32 77.0754 1182.35 76.9754C1182.55 76.4754 1182.73 75.9754 1182.9 75.4754C1183.23 74.3054 1183.57 73.1454 1183.9 71.9754C1184.07 71.3054 1184.23 70.6454 1184.4 69.9754C1184.57 70.3054 1184.73 70.8054 1184.9 71.4754C1184.9 71.6454 1184.92 71.8054 1184.95 71.9754C1185.08 72.3054 1185.2 72.6554 1185.3 73.0254C1185.37 73.3254 1185.43 73.7954 1185.5 74.4254C1185.6 74.6254 1185.73 74.9754 1185.9 75.4754C1185.9 74.8054 1185.93 74.1454 1186 73.4754C1186.1 72.6454 1186.13 71.8054 1186.1 70.9754C1186.07 69.5754 1186.32 68.2454 1186.85 66.9754C1186.98 66.6054 1187.13 66.2554 1187.3 65.9254C1187.6 65.3554 1187.8 64.7554 1187.9 64.1254C1187.9 64.5554 1187.9 65.0054 1187.9 65.4754C1187.9 65.9754 1187.9 66.4754 1187.9 66.9754C1187.9 67.3054 1187.9 67.6454 1187.9 67.9754C1187.9 68.8054 1187.9 69.6454 1187.9 70.4754C1187.9 71.3054 1187.9 72.1454 1187.9 72.9754C1187.9 73.3054 1187.9 73.6454 1187.9 73.9754C1188.07 73.8054 1188.22 73.6254 1188.35 73.4254C1188.72 72.9554 1188.98 72.4454 1189.15 71.8754C1189.32 71.2754 1189.48 70.6554 1189.65 70.0254C1189.82 69.3254 1190.08 68.6454 1190.45 67.9754C1190.65 67.6454 1190.85 67.3054 1191.05 66.9754C1191.32 66.4754 1191.6 65.9754 1191.9 65.4754C1192.2 65.9454 1192.45 66.4454 1192.65 66.9754C1193.12 68.2054 1193.37 69.5454 1193.4 70.9754C1193.4 71.8054 1193.47 72.6254 1193.6 73.4254C1193.63 73.6254 1193.7 73.8254 1193.8 74.0254C1194.23 75.0254 1194.57 75.8554 1194.8 76.5254C1194.83 76.5954 1194.85 76.6454 1194.85 76.6754C1195.02 77.2054 1194.9 77.6754 1194.5 78.0754C1194.37 78.2454 1194.23 78.4054 1194.1 78.5754C1193.83 78.8454 1193.6 79.1454 1193.4 79.4754C1194.07 79.3054 1194.72 79.0954 1195.35 78.8254C1195.52 78.7554 1195.68 78.6954 1195.85 78.6254C1195.88 78.5954 1195.92 78.5554 1195.95 78.5254C1196.25 78.3254 1196.57 78.1554 1196.9 78.0254C1197.9 77.6554 1198.92 77.3554 1199.95 77.1254C1200.42 77.0254 1200.9 76.9754 1201.4 76.9754C1201.57 77.1454 1201.65 77.3054 1201.65 77.4754C1201.62 78.1054 1201.78 78.5254 1202.15 78.7254C1202.35 78.8554 1202.6 78.9254 1202.9 78.9254C1203.6 78.9554 1204.28 78.9954 1204.95 79.0254C1205.98 79.1254 1206.97 79.0754 1207.9 78.8754C1209.13 78.6054 1210.28 78.0954 1211.35 77.3254C1211.92 76.9254 1212.48 76.6754 1213.05 76.5754C1213.62 76.4754 1214.15 76.3254 1214.65 76.1254C1215.25 75.8954 1215.82 75.6054 1216.35 75.2754C1216.92 74.9054 1217.5 74.5554 1218.1 74.2254C1218.67 73.8954 1219.15 73.5054 1219.55 73.0754C1220.62 71.9054 1222.08 71.5054 1223.95 71.8754C1224.28 71.9454 1224.48 72.0454 1224.55 72.1754C1224.82 72.7054 1224.92 73.3054 1224.85 73.9754C1224.78 74.6754 1224.8 75.3554 1224.9 76.0254C1225.03 76.6554 1225.27 77.2754 1225.6 77.8754C1225.83 78.2754 1226.08 78.6554 1226.35 79.0254C1226.42 79.1254 1226.48 79.2054 1226.55 79.2754C1227.32 80.0754 1228.45 80.3454 1229.95 80.0754C1230.28 80.0054 1230.58 79.9054 1230.85 79.7754C1231.15 79.6454 1231.43 79.5054 1231.7 79.3754C1231.83 79.3054 1231.97 79.2454 1232.1 79.1754C1233.03 78.7054 1233.92 78.1954 1234.75 77.6254C1235.92 76.8254 1237.15 76.2754 1238.45 75.9754C1239.75 75.7054 1241.1 75.6754 1242.5 75.8754C1242.63 75.9054 1242.77 75.9454 1242.9 75.9754C1243.07 76.0454 1243.23 76.1054 1243.4 76.1754C1243.8 76.3754 1244.32 76.4054 1244.95 76.2754C1245.85 76.1054 1246.77 76.0054 1247.7 75.9754H1247.9C1248.1 75.9754 1248.3 75.9754 1248.5 75.9754H1248.65C1249.42 76.0054 1250.2 76.0754 1251 76.1754C1251.33 76.2054 1251.5 76.4554 1251.5 76.9254C1252.83 76.7254 1254.17 76.6254 1255.5 76.6254C1257.9 76.6954 1260.23 76.4754 1262.5 75.9754C1263.2 75.8454 1263.88 75.6754 1264.55 75.4754C1267.62 74.6054 1270.78 74.0554 1274.05 73.8254C1275.12 73.7554 1276.12 73.8754 1277.05 74.1754C1279.58 73.7454 1282.15 73.4254 1284.75 73.2254C1287.15 73.0554 1289.57 72.9754 1292 72.9754C1292.67 72.9754 1293.33 72.9754 1294 72.9754C1299.13 72.9054 1304.1 72.3954 1308.9 71.4254C1309.97 71.1954 1311.05 70.9454 1312.15 70.6754C1317.98 69.2454 1323.95 68.4754 1330.05 68.3754C1343.15 68.1754 1356.25 67.7054 1369.35 66.9754C1373.58 66.7454 1377.82 66.4754 1382.05 66.1754C1384.12 66.0454 1386.25 65.7054 1388.45 65.1754C1391.58 64.3754 1394.83 63.9754 1398.2 63.9754C1424.23 63.9754 1450.28 64.2954 1476.35 64.9254C1478.38 64.9554 1480.42 65.0754 1482.45 65.2754C1483.85 65.4054 1485.25 65.5554 1486.65 65.7254C1489.85 66.0554 1493.07 66.3954 1496.3 66.7254C1497.7 66.8954 1499.1 67.1254 1500.5 67.4254C1504.7 68.3254 1508.93 68.9554 1513.2 69.3254C1513.93 69.3954 1514.68 69.4554 1515.45 69.5254C1521.02 69.8954 1526.68 69.8054 1532.45 69.2754C1536.52 68.9054 1540.4 69.2454 1544.1 70.2754C1544.37 70.3454 1544.65 70.4254 1544.95 70.5254C1547.75 71.4254 1550.67 71.9054 1553.7 71.9754C1553.97 71.9754 1554.23 71.9754 1554.5 71.9754C1561.17 71.9754 1567.8 71.9754 1574.4 71.9754C1577.93 71.9754 1581.47 71.9754 1585 71.9754C1593.93 71.9754 1602.85 71.9754 1611.75 71.9754C1618.72 71.9754 1625.68 71.9754 1632.65 71.9754C1652.68 71.9754 1672.73 71.6554 1692.8 71.0254C1694.13 70.9954 1695.52 70.8954 1696.95 70.7254C1701.52 70.2254 1706.13 69.7554 1710.8 69.3254C1712.07 69.1954 1713.28 68.9954 1714.45 68.7254C1714.58 68.6954 1714.72 68.6554 1714.85 68.6254V61.9754C1714.72 61.9754 1714.58 61.9754 1714.45 61.9754C1707.25 61.9754 1700.03 61.9754 1692.8 61.9754C1666.73 61.9754 1640.68 62.1554 1614.65 62.5254C1613.68 62.5254 1612.72 62.5454 1611.75 62.5754C1601.72 62.6754 1591.73 62.6054 1581.8 62.3754C1572.47 62.1454 1563.17 61.7754 1553.9 61.2754C1551 61.1054 1548.1 60.9454 1545.2 60.7754C1544.26 60.7154 1543.33 60.6454 1542.4 60.5754C1552.17 61.0454 1568.01 61.2754 1589.9 61.2754C1617.33 61.2454 1634.3 60.8454 1640.8 60.0754C1647.3 59.2754 1635.55 58.4754 1605.55 57.6754C1601.45 57.5754 1597.65 57.4754 1594.15 57.3754C1594.12 57.4054 1594.08 57.4254 1594.05 57.4254V57.3754C1571.88 56.7454 1561.42 56.3554 1562.65 56.2254C1565.15 55.8954 1567.67 55.5954 1570.2 55.3254C1570.9 55.2254 1571.62 55.1454 1572.35 55.0754C1572.55 55.0454 1572.77 55.0054 1573 54.9754C1573.9 54.8754 1574.78 54.7954 1575.65 54.7254C1574.85 54.5554 1574.03 54.4754 1573.2 54.4754C1573.13 54.4754 1573.08 54.4754 1573.05 54.4754C1572.72 54.4754 1572.43 54.3954 1572.2 54.2254C1571.97 54.0954 1571.75 53.9054 1571.55 53.6754C1571.52 53.6454 1571.48 53.6054 1571.45 53.5754C1570.92 53.0454 1570.45 52.6954 1570.05 52.5254C1567.75 51.6554 1565.25 51.2954 1562.55 51.4254C1562.22 51.4554 1561.92 51.5454 1561.65 51.6754C1561.25 51.8754 1560.85 52.0054 1560.45 52.0754C1558.45 52.3454 1556.45 52.4754 1554.45 52.4754C1553.78 52.4754 1553.27 52.3054 1552.9 51.9754C1550.8 50.0454 1548.48 48.8754 1545.95 48.4754C1543.38 48.0754 1540.72 47.9054 1537.95 47.9754C1537.45 47.9754 1536.98 47.9054 1536.55 47.7754C1535.98 47.5754 1535.67 47.2754 1535.6 46.8754C1535.47 45.9754 1535.47 45.0954 1535.6 44.2254C1535.73 43.2954 1536.02 42.3754 1536.45 41.4754C1533.25 41.4754 1530.07 41.3954 1526.9 41.2254C1526.57 41.2254 1526.38 41.1054 1526.35 40.8754C1526.25 40.3054 1525.98 39.7954 1525.55 39.3254C1524.88 38.5954 1524.43 37.9954 1524.2 37.5254C1523.3 37.5554 1522.43 37.6554 1521.6 37.8254C1521.07 37.9254 1520.53 38.0954 1520 38.3254C1519.7 38.4254 1519.38 38.4754 1519.05 38.4754C1518.28 38.4754 1517.55 38.6054 1516.85 38.8754C1516.42 39.3054 1515.87 39.6054 1515.2 39.7754C1515.03 39.8754 1514.88 39.9954 1514.75 40.1254C1514.28 40.5254 1513.72 40.8254 1513.05 41.0254C1511.85 41.3954 1510.68 41.6454 1509.55 41.7754C1509.02 41.8054 1508.55 41.4454 1508.15 40.6754C1508.08 40.5454 1507.88 40.4754 1507.55 40.4754C1506.25 40.5054 1504.95 40.6054 1503.65 40.7754C1503.62 40.7754 1503.6 40.7954 1503.6 40.8254C1503.43 41.0954 1503.18 41.3054 1502.85 41.4754C1502.75 41.2754 1502.67 41.0954 1502.6 40.9254C1501.87 41.0254 1501.15 41.1554 1500.45 41.3254C1499.98 41.4254 1499.52 41.5254 1499.05 41.6254L1499 41.6754C1498.4 42.1454 1497.92 42.1954 1497.55 41.8254C1496.22 41.9254 1494.87 42.0254 1493.5 42.1254C1492.5 42.1954 1491.5 42.3454 1490.5 42.5754C1488.17 43.1054 1485.67 43.5054 1483 43.7754C1480.83 43.9754 1478.68 43.9554 1476.55 43.7254C1476.48 43.7254 1476.48 43.4754 1476.55 42.9754C1476.65 41.9054 1476.13 41.4954 1475 41.7254C1474.3 41.8954 1473.6 42.0754 1472.9 42.2754C1471.63 42.6054 1470.57 43.0454 1469.7 43.5754C1469.53 43.6754 1469.28 43.7054 1468.95 43.6754C1467.28 43.5454 1465.62 43.5554 1463.95 43.7254C1461.48 43.9254 1459.65 42.9254 1458.45 40.7254L1457.9 40.8254C1456.8 41.0254 1456.05 40.7554 1455.65 40.0254C1455.22 39.8254 1454.8 39.5954 1454.4 39.3254C1454.3 39.2554 1454.2 39.1954 1454.1 39.1254C1453.83 39.5254 1453.57 39.9454 1453.3 40.3754C1453.07 40.7754 1452.75 41.0754 1452.35 41.2754C1452.08 41.4054 1451.8 41.4254 1451.5 41.3254C1450.33 41.0254 1449.63 40.2454 1449.4 38.9754C1448.8 40.1054 1448.1 40.8754 1447.3 41.2754C1446.53 41.6454 1445.83 41.6454 1445.2 41.2754C1444.83 41.0754 1444.4 40.9754 1443.9 40.9754C1442.57 40.9754 1441.23 41.0454 1439.9 41.1754C1439.73 41.2054 1439.57 41.2454 1439.4 41.2754C1439 41.3054 1438.62 41.3454 1438.25 41.3754C1438.25 41.5754 1438.25 41.7754 1438.25 41.9754C1438.05 41.7754 1437.87 41.5754 1437.7 41.3754C1436.93 41.3454 1436.18 41.2754 1435.45 41.1754C1434.75 41.0454 1434.08 40.7754 1433.45 40.3754C1432.65 39.8754 1431.9 39.5254 1431.2 39.3254C1431.2 39.3554 1431.2 39.4054 1431.2 39.4754C1431.2 39.6454 1431.2 39.8054 1431.2 39.9754C1431.2 40.1454 1431.2 40.3054 1431.2 40.4754C1431.03 40.1454 1430.83 39.7054 1430.6 39.1754H1430.55L1430.45 39.1254H1430.4C1430 39.0954 1429.6 39.0954 1429.2 39.1254C1429.2 39.2254 1429.2 39.3454 1429.2 39.4754C1429.23 39.9754 1429.23 40.4754 1429.2 40.9754C1429.2 41.3054 1429.2 41.7254 1429.2 42.2254C1429.03 42.2254 1428.83 42.1554 1428.6 42.0254C1428.67 42.3254 1428.73 42.6454 1428.8 42.9754C1428.9 43.6454 1429.02 44.3054 1429.15 44.9754C1429.18 45.1454 1429.2 45.3054 1429.2 45.4754C1428.87 45.1454 1428.55 44.7954 1428.25 44.4254C1427.72 43.7954 1427.17 43.1954 1426.6 42.6254C1426.27 42.2954 1425.95 41.9554 1425.65 41.6254C1425.38 42.0554 1425.12 42.4954 1424.85 42.9254C1424.72 43.1254 1424.57 43.3054 1424.4 43.4754C1423.93 42.7454 1423.1 42.1954 1421.9 41.8254C1421.2 41.5954 1420.52 41.2954 1419.85 40.9254C1419.65 40.7954 1419.45 40.6954 1419.25 40.6254C1419.35 41.0154 1419.45 41.2954 1419.55 41.4754C1419.44 41.3054 1419.31 41.1354 1419.15 40.9754C1418.28 40.7754 1417.93 41.1054 1418.1 41.9754C1418.37 43.2054 1418.2 44.0254 1417.6 44.4254C1417.3 44.6254 1417.07 44.6754 1416.9 44.5754C1416.57 44.3454 1416.3 43.9754 1416.1 43.4754C1415.83 42.8754 1415.5 42.3454 1415.1 41.8754ZM629.85 52.7254C630.52 52.9554 631.17 53.2054 631.8 53.4754C622.33 53.0754 612.9 52.6454 603.5 52.1754C605.93 50.1754 608.8 49.0254 612.1 48.7254C614.17 48.5254 616.42 48.6554 618.85 49.1254C620.98 49.5254 623.25 50.2054 625.65 51.1754C627.02 51.7054 628.42 52.2254 629.85 52.7254ZM439.9 43.8754C439.8 43.8754 439.7 43.8954 439.6 43.9254C439.7 43.7554 439.8 43.6054 439.9 43.4754C439.9 43.5754 439.9 43.7054 439.9 43.8754Z" fill="#D67540"/>
<rect y="56.6194" width="1440" height="88.3804" fill="#D67540"/>
</g>
<defs>
<clipPath id="clip0_883_622">
<rect width="1440" height="145" fill="white"/>
</clipPath>
</defs>
</svg>
