<svg width="1440" height="149" viewBox="0 0 1440 149" fill="none" xmlns="http://www.w3.org/2000/svg">
<g clip-path="url(#clip0_883_635)">
<path fill-rule="evenodd" clip-rule="evenodd" d="M-144.964 100.529L-56.4647 110.382C30.7139 120.235 207.713 139.941 383.391 136.657C559.069 133.372 736.068 107.098 911.746 100.529C1087.42 93.9606 1264.42 107.098 1351.6 113.666L1440.1 120.235L1440.1 1.99987L1351.6 1.99988C1264.42 1.99989 1087.42 1.9999 911.746 1.99992C736.068 1.99994 559.069 1.99995 383.391 1.99997C207.713 1.99998 30.7139 2 -56.4647 2L-144.964 2.00001L-144.964 100.529Z" fill="#FEE57B"/>
<path fill-rule="evenodd" clip-rule="evenodd" d="M1426.61 37.9964L1346.76 50.9469C1268.1 63.8375 1108.39 89.7384 948.845 94.7194C789.294 99.7004 627.504 83.8811 467.805 85.8821C308.106 87.883 148.101 107.824 69.2977 117.735L-10.7044 127.705L-16.0624 20.4244L64.2374 16.414C143.339 12.4635 303.939 4.44261 463.34 -3.51839C622.741 -11.4794 783.341 -19.5002 942.743 -27.4612C1102.14 -35.4222 1262.74 -43.4431 1341.85 -47.3936L1422.15 -51.4041L1426.61 37.9964Z" fill="#F9A151"/>
<path fill-rule="evenodd" clip-rule="evenodd" d="M1440.1 36.9457L1359.7 45.8969C1280.5 54.8481 1119.7 72.7505 960.101 69.7668C800.501 66.783 639.701 42.9132 480.101 36.9457C320.501 30.9783 159.7 42.9132 80.5005 48.8807L0.100583 54.8481L0.100564 -52.5661L80.5005 -52.5661C159.7 -52.5661 320.5 -52.5661 480.101 -52.5662C639.701 -52.5662 800.501 -52.5662 960.101 -52.5662C1119.7 -52.5662 1280.5 -52.5662 1359.7 -52.5662L1440.1 -52.5662L1440.1 36.9457Z" fill="#F3CE4E"/>
</g>
<defs>
<clipPath id="clip0_883_635">
<rect width="1440" height="149" fill="white" transform="translate(1440 149) rotate(180)"/>
</clipPath>
</defs>
</svg>
