<svg width="184" height="51" viewBox="0 0 184 51" fill="none" xmlns="http://www.w3.org/2000/svg">
<path d="M70.0103 19.6008L69.9603 19.5008L67.1603 21.3508C66.6603 21.6508 65.8603 22.1008 64.7603 22.7008L62.9603 23.7008C62.5303 23.9708 62.0803 24.2208 61.6103 24.4508C61.3803 24.4808 61.1403 24.5208 60.9103 24.5508L59.8603 24.8008C60.3303 24.6308 60.7903 24.4308 61.2603 24.2008L61.9603 23.8008L62.2103 23.5508L62.3103 23.4008V23.3008H62.2603L62.1103 23.2508H62.0103C60.1103 23.4208 58.5103 23.8008 57.2103 24.4008L55.2103 25.4008C54.2103 25.7708 53.4803 26.2308 53.0103 26.8008L52.3603 27.6508L52.3103 27.7008C52.1103 28.3708 52.2303 28.8708 52.6603 29.2008L53.3103 29.7508H53.4103L53.8603 30.0008C53.6603 30.0308 53.4403 30.0708 53.2103 30.1008C52.7103 30.0308 52.1903 30.0808 51.6603 30.2508C49.7303 31.1208 48.9103 32.5808 49.2103 34.6508L50.2103 33.6008C50.5103 33.5008 50.8103 33.5208 51.1103 33.6508C52.6103 34.1808 53.8903 34.9008 54.9603 35.8008C55.7903 36.5308 56.8603 37.0708 58.1603 37.4008C58.7603 37.4308 59.3303 37.4708 59.8603 37.5008C60.0603 37.5708 60.2803 37.6508 60.5103 37.7508C61.0803 37.9808 61.7103 38.1708 62.4103 38.3008C62.4103 39.6008 63.0403 40.5008 64.3103 41.0008C63.3103 39.9708 62.9403 39.0008 63.2103 38.1008L61.5603 37.4008V37.3508C62.3303 37.2508 63.0403 37.0708 63.7103 36.8008C64.5103 36.5008 65.2103 36.0808 65.8103 35.5508C66.1103 35.2808 66.4103 35.1808 66.7103 35.2508C67.0103 35.2808 67.2903 35.3208 67.5603 35.3508C67.9603 35.5208 68.4803 35.7208 69.1103 35.9508C69.8803 36.2208 70.6803 36.4208 71.5103 36.5508C71.8103 36.5508 72.0303 36.4808 72.1603 36.3508C72.2903 36.1808 72.1603 36.0508 71.7603 35.9508C71.2903 35.7508 70.9303 35.5508 70.6603 35.3508L72.5103 35.1508C73.2803 34.9808 73.3603 34.7808 72.7603 34.5508C72.0603 34.5208 71.5103 34.4708 71.1103 34.4008C70.7403 34.3308 70.7803 34.2508 71.2103 34.1508C71.6803 34.0508 72.1303 33.8808 72.5603 33.6508C73.4303 33.1808 73.3103 32.9708 72.2103 33.0008C71.6803 33.1008 71.2403 33.2708 70.9103 33.5008C71.8103 32.7308 72.1803 32.2508 72.0103 32.0508C71.7803 31.9208 71.4303 32.0208 70.9603 32.3508C70.6903 32.5208 70.3903 32.6508 70.0603 32.7508C68.9303 33.0208 68.0103 33.1508 67.3103 33.1508C67.2803 33.1208 67.2403 33.1008 67.2103 33.1008L63.4103 31.3008L63.4603 31.2508V31.2008H63.4103C63.4103 31.1708 63.3903 31.1308 63.3603 31.1008C63.3603 31.0708 63.3403 31.0508 63.3103 31.0508C63.2803 31.0208 63.2403 30.9808 63.2103 30.9508C63.1803 30.9208 63.1403 30.9008 63.1103 30.9008C63.0403 30.8708 62.9903 30.8508 62.9603 30.8508C62.9303 30.8208 62.8903 30.8008 62.8603 30.8008L62.7603 30.7508C63.2603 30.7808 63.7603 30.8008 64.2603 30.8008H65.3103L66.1103 30.7008L66.3603 30.6008L66.4103 30.5508L66.5603 30.2508V30.2008H66.5103C66.3103 29.8308 65.8103 29.5508 65.0103 29.3508L63.6103 29.0508C64.8403 29.0808 65.8603 28.9808 66.6603 28.7508L67.9103 28.4008V28.3508C68.3803 28.0208 68.5103 27.7508 68.3103 27.5508L68.1103 27.3508L67.9603 27.2508L67.9103 27.2008C67.4803 27.1308 66.7103 27.1308 65.6103 27.2008L63.7103 27.3008C64.3103 27.2008 64.9403 27.0008 65.6103 26.7008L66.7603 26.2008C67.1303 26.0008 67.5303 25.7708 67.9603 25.5008L68.6603 25.0008L69.5103 24.0508L69.5603 23.9508V23.9008H69.5103C69.4403 23.7008 69.2303 23.6508 68.8603 23.7508L68.2603 23.9508C67.8603 24.0508 67.3803 24.1808 66.8103 24.3508L65.8103 24.6508C66.2403 24.4808 66.6903 24.2708 67.1603 24.0008L67.8103 23.6008L69.6103 22.1508L69.6603 22.0008C69.8303 21.5708 69.8103 21.3708 69.6103 21.4008L67.3103 22.5008L68.7603 21.3508L69.5603 20.4008L69.9603 19.8008V19.7008L70.0103 19.6008ZM28.2103 22.8508C28.1803 22.8508 28.1403 22.8308 28.1103 22.8008L26.1603 21.9008C25.7303 21.5008 25.1603 21.1808 24.4603 20.9508L24.9603 21.1008L24.2603 20.8508C23.8303 20.6508 23.3603 20.4808 22.8603 20.3508C20.4303 19.4508 17.5103 19.2808 14.1103 19.8508C13.5803 19.7808 13.0403 19.8208 12.5103 19.9508C10.5803 20.8208 9.76029 22.2808 10.0603 24.3508L11.0603 23.3008C11.3603 23.2308 11.6803 23.2508 12.0103 23.3508C13.2103 23.7808 14.2603 24.3308 15.1603 25.0008C15.0303 25.1708 14.8903 25.3708 14.7603 25.6008C14.5303 25.9708 14.2803 26.4208 14.0103 26.9508L13.4603 28.5008C13.1303 29.4308 12.7803 30.1308 12.4103 30.6008L11.1103 32.5508L11.0103 32.8508L10.9603 32.9008L11.0103 33.0008V33.0508L11.0603 33.1008H11.1103L11.5603 32.8508C11.8603 32.6808 12.2903 32.2308 12.8603 31.5008L12.6103 31.9008C12.4803 32.2008 12.5603 32.3208 12.8603 32.2508L13.4103 31.7508C13.7803 31.4508 14.0903 31.1308 14.3603 30.8008C13.9603 31.3308 13.9603 31.7008 14.3603 31.9008H14.4603L14.6103 31.7508L15.3103 30.9008L15.2603 31.1008C15.1303 31.7008 14.9803 32.1508 14.8103 32.4508L14.5603 33.0008C14.4303 33.3008 14.4403 33.4308 14.6103 33.4008C14.9403 33.3008 15.2403 33.0808 15.5103 32.7508L15.5603 32.7008L15.6603 32.5508L16.0603 31.4008L16.3603 31.1008V31.1508C16.2603 31.7508 16.1803 32.3308 16.1103 32.9008L16.0603 33.3508C16.0303 33.6208 16.0903 33.7308 16.2603 33.7008L16.3103 33.7508H16.3603L17.0603 32.4008L17.4103 31.4008C17.6103 30.7308 17.7403 30.0708 17.8103 29.4008L17.9103 29.6508L18.1103 31.9008L18.0603 32.8508C17.9903 33.3808 17.9803 33.8208 18.0103 34.1508V34.2008H18.2603L18.3103 34.1508L18.4103 34.1008L18.5603 33.9008L18.9603 33.1008L19.1103 32.5508L19.2603 31.0008V30.6508C19.2703 30.9208 19.4703 31.1408 19.8603 31.3008V31.3508H19.9603L20.2603 31.2008L20.3103 31.1008H20.3603L20.5103 30.8008L20.6103 30.1508V29.3008L20.9603 29.9508C21.1903 30.3508 21.4803 30.5208 21.8103 30.4508H21.9603L22.0603 30.3508L22.4103 29.1008V28.8008L22.2603 27.9008C22.4903 28.5708 22.8403 28.7808 23.3103 28.5508C23.4803 29.5508 24.0903 30.2808 25.1603 30.7508C24.1603 29.6808 23.8103 28.7008 24.1103 27.8008L23.2603 27.4508L23.1103 26.9508C23.3403 26.8808 23.5803 26.8208 23.8103 26.7508C24.0103 26.7808 24.2103 26.7708 24.4103 26.7008L24.5103 26.6008V26.5508L24.5603 26.5008C25.3603 26.2008 26.0803 25.7808 26.7103 25.2508C26.9803 25.0208 27.2803 24.9308 27.6103 25.0008C27.8103 25.0008 27.9903 25.0208 28.1603 25.0508C28.5303 25.2508 29.0803 25.5708 29.8103 26.0008C30.5103 26.4308 31.2603 26.8008 32.0603 27.1008C32.3603 27.1708 32.5803 27.1308 32.7103 27.0008C32.8403 26.8708 32.7603 26.7208 32.4603 26.5508C31.9903 26.2808 31.6403 26.0208 31.4103 25.7508L33.2603 25.9008C34.0903 25.8708 34.2103 25.6808 33.6103 25.3508C32.9403 25.1508 32.4303 25.0008 32.0603 24.9008C31.6903 24.7708 31.7403 24.6808 32.2103 24.6508C32.6803 24.6508 33.1403 24.5708 33.6103 24.4008C34.5403 24.1008 34.4603 23.8708 33.3603 23.7008C32.8303 23.7008 32.3603 23.7808 31.9603 23.9508C33.0303 23.3808 33.4903 22.9808 33.3603 22.7508C33.1303 22.5808 32.7403 22.6208 32.2103 22.8508C31.9403 22.9808 31.6403 23.0508 31.3103 23.0508C29.9803 23.1208 28.9403 23.0508 28.2103 22.8508ZM114.71 19.5508L114.76 19.7008C114.63 19.6308 114.51 19.5808 114.41 19.5508L114.31 19.5008L113.76 19.3508C113.36 19.2808 113.01 19.4008 112.71 19.7008V19.7508L112.81 20.3008L113.41 21.7508C113.51 21.9808 113.66 22.2808 113.86 22.6508L113.91 22.8008L113.86 23.3508C113.79 23.3808 113.71 23.4008 113.61 23.4008C113.08 23.3708 112.54 23.4208 112.01 23.5508C110.08 24.4208 109.26 25.8808 109.56 27.9508L110.56 26.9008C110.86 26.8008 111.18 26.8208 111.51 26.9508C112.11 27.1808 112.69 27.4508 113.26 27.7508L113.06 28.4508C112.86 29.1508 112.71 29.7008 112.61 30.1008L112.21 31.2008C111.98 31.9008 111.74 32.4808 111.51 32.9508L110.66 34.5008L110.46 35.0508L110.41 35.3008V35.4508H110.51L110.96 35.2508L111.31 34.9508L112.06 34.0508H112.11V34.0008H112.21L112.36 33.8508L113.41 32.2008L113.61 31.4508C113.74 30.9808 113.88 30.6008 114.01 30.3008V30.4008L113.76 32.4008L112.81 34.9508L112.71 35.4508V35.6008L112.76 35.6508L112.91 35.7008H113.06L113.16 35.6508L113.36 35.5008L113.71 35.0008H113.76V34.9508L113.91 34.7008L114.91 32.3508C115.08 31.8808 115.21 31.4808 115.31 31.1508V31.2008L115.16 32.5508C115.09 33.4508 114.89 34.2508 114.56 34.9508V35.0508L114.51 35.5008C114.51 35.8008 114.61 35.9708 114.81 36.0008H114.86L115.01 35.8008L115.86 34.4508L116.76 31.5008C116.83 31.2708 116.88 31.0708 116.91 30.9008L116.81 32.0008C116.74 32.8008 116.68 33.4208 116.61 33.8508L116.56 33.9508V34.8508L116.61 35.1508V35.2508L116.66 35.3508L116.76 35.4508H116.81L116.86 35.4008C117.23 35.0708 117.54 34.3008 117.81 33.1008L118.16 30.6008C118.19 30.6008 118.21 30.6208 118.21 30.6508L118.36 31.6008C118.43 32.2708 118.46 32.8008 118.46 33.2008V33.4008L118.56 34.0508C118.63 34.5208 118.79 34.6208 119.06 34.3508L119.11 34.1508L119.41 30.8508L119.66 31.5008L119.76 31.7008V31.7508C119.76 31.8508 119.78 31.9508 119.81 32.0508V32.1008C119.91 33.0308 119.93 33.9708 119.86 34.9008L119.36 38.9008V39.0508C119.43 39.2508 119.48 39.3008 119.51 39.2008C119.84 39.1308 120.13 38.8008 120.36 38.2008L120.71 37.2008V37.1508C120.94 36.1208 121.11 35.0708 121.21 34.0008C121.34 32.9008 121.36 32.9708 121.26 34.2008C121.26 34.2308 121.24 34.2708 121.21 34.3008L121.16 37.3508L121.26 38.1008L121.31 38.1508C121.61 38.1508 121.81 37.9008 121.91 37.4008L122.06 36.6008V36.5508C122.33 36.0208 122.54 35.3808 122.71 34.6508L123.01 33.4508C123.01 33.2808 123.01 33.1008 123.01 32.9008C123.34 33.5308 123.89 34.0008 124.66 34.3008C123.66 33.2708 123.29 32.3008 123.56 31.4008L123.06 31.2008C123.06 31.0708 123.06 30.9308 123.06 30.8008V30.4508C123.16 30.4208 123.24 30.3808 123.31 30.3508C123.74 31.7808 124.11 32.7808 124.41 33.3508L124.86 34.2508V34.3508H124.91C125.18 34.2508 125.29 33.8708 125.26 33.2008L125.21 32.2508L125.16 32.0008C125.09 31.5308 124.99 30.9308 124.86 30.2008C124.83 30.0708 124.79 29.9308 124.76 29.8008C124.86 29.7708 124.93 29.7308 124.96 29.7008L126.26 32.5508L126.41 32.8008H126.46C126.63 32.7308 126.69 32.5708 126.66 32.3008L126.61 31.8508L126.56 31.8008C126.53 31.0708 126.41 30.3308 126.21 29.6008C126.14 29.3708 126.09 29.1708 126.06 29.0008C126.09 28.9708 126.11 28.9308 126.11 28.9008L126.61 29.9508L126.81 30.1508L126.96 30.2508V30.3008L127.01 30.2508C126.98 29.6808 126.86 29.1308 126.66 28.6008C126.79 28.5308 126.93 28.5208 127.06 28.5508C127.33 28.5808 127.59 28.6208 127.86 28.6508C128.26 28.7808 128.81 28.9708 129.51 29.2008C130.24 29.5008 131.04 29.7208 131.91 29.8508C132.18 29.8508 132.38 29.7708 132.51 29.6008C132.64 29.4308 132.53 29.3008 132.16 29.2008C131.66 29.0308 131.28 28.8508 131.01 28.6508L132.86 28.4008C133.66 28.2308 133.74 28.0308 133.11 27.8008C132.41 27.7708 131.88 27.7208 131.51 27.6508C131.11 27.5808 131.14 27.5008 131.61 27.4008C132.08 27.3008 132.51 27.1308 132.91 26.9008C133.78 26.4008 133.66 26.1808 132.56 26.2508C132.03 26.3508 131.58 26.5208 131.21 26.7508C132.14 25.9808 132.53 25.5008 132.36 25.3008C132.13 25.2008 131.76 25.3208 131.26 25.6508C131.03 25.8208 130.74 25.9508 130.41 26.0508C129.34 26.2808 128.44 26.4208 127.71 26.4508C127.68 26.4508 127.64 26.4308 127.61 26.4008L125.91 25.6008C125.64 25.2008 125.36 24.8708 125.06 24.6008C124.43 24.0008 123.91 23.4508 123.51 22.9508C123.48 22.9508 123.46 22.9308 123.46 22.9008C122.89 22.3008 122.06 21.7008 120.96 21.1008L119.21 20.1008H119.11C118.44 19.8008 117.69 19.5308 116.86 19.3008L115.46 18.9508C114.93 18.9808 114.68 19.1808 114.71 19.5508ZM153.66 10.4508C153.16 10.3808 152.64 10.4208 152.11 10.5508C150.18 11.4208 149.36 12.8808 149.66 14.9508L150.66 13.9008C150.96 13.8308 151.26 13.8708 151.56 14.0008C152.39 14.2708 153.16 14.6208 153.86 15.0508L153.66 15.5008L153.31 16.0008C152.94 16.4008 152.54 16.6308 152.11 16.7008L152.01 16.7508L149.81 16.9008C149.61 16.9008 149.39 16.8808 149.16 16.8508C148.96 16.8208 148.71 16.7308 148.41 16.6008V16.6508L148.61 17.0008L148.66 17.0508C148.86 17.2808 149.34 17.4808 150.11 17.6508L150.06 17.7008V17.7508L150.11 17.8008L150.91 18.1008L151.81 18.0008C152.34 17.9708 152.81 17.8808 153.21 17.7508C153.04 17.8808 153.21 17.9308 153.71 17.9008H153.76L154.46 17.6508C154.69 18.0508 155.04 18.4708 155.51 18.9008L155.61 18.9508L156.26 19.5008C156.76 19.9008 157.46 20.2008 158.36 20.4008L158.41 20.4508L159.36 20.5508C159.96 20.6208 160.33 20.5308 160.46 20.3008V20.2008L160.26 20.0008L158.91 19.1008C158.94 19.1008 158.98 19.1208 159.01 19.1508C159.04 19.1508 159.08 19.1708 159.11 19.2008C159.18 19.2008 159.23 19.2208 159.26 19.2508H159.36C159.39 19.2508 159.43 19.2708 159.46 19.3008C159.49 19.3008 159.53 19.3008 159.56 19.3008C159.59 19.3308 159.63 19.3508 159.66 19.3508C159.69 19.3808 159.74 19.4008 159.81 19.4008C159.84 19.4008 159.88 19.4208 159.91 19.4508C159.94 19.4508 159.98 19.4508 160.01 19.4508C160.04 19.4808 160.08 19.5008 160.11 19.5008C160.14 19.5008 160.19 19.5208 160.26 19.5508C160.29 19.5508 160.33 19.5508 160.36 19.5508C160.39 19.5508 160.43 19.5708 160.46 19.6008C160.49 19.6008 160.54 19.6008 160.61 19.6008C160.64 19.6308 160.68 19.6508 160.71 19.6508C160.74 19.6508 160.78 19.6508 160.81 19.6508C160.84 19.6508 160.88 19.6708 160.91 19.7008C160.98 19.7008 161.04 19.7008 161.11 19.7008C161.18 19.7008 161.24 19.7008 161.31 19.7008C161.38 19.7008 161.44 19.7008 161.51 19.7008C161.54 19.7008 161.59 19.7008 161.66 19.7008C161.69 19.6708 161.73 19.6508 161.76 19.6508C161.83 19.6208 161.88 19.6008 161.91 19.6008C161.94 19.5708 161.99 19.5308 162.06 19.5008V19.4508L161.91 19.1008L161.46 18.8008L159.96 18.4008C159.89 18.3708 159.84 18.3508 159.81 18.3508C159.78 18.3508 159.74 18.3308 159.71 18.3008H159.61C159.58 18.2708 159.53 18.2508 159.46 18.2508C159.43 18.2508 159.39 18.2308 159.36 18.2008C159.33 18.2008 159.29 18.2008 159.26 18.2008C159.23 18.2008 159.19 18.1808 159.16 18.1508C159.13 18.1508 159.09 18.1508 159.06 18.1508C158.99 18.1208 158.94 18.0808 158.91 18.0508C158.84 18.0208 158.78 18.0008 158.71 18.0008C158.64 17.9708 158.59 17.9508 158.56 17.9508C158.53 17.9208 158.48 17.8808 158.41 17.8508L160.01 18.2008C160.08 18.2308 160.14 18.2508 160.21 18.2508C160.28 18.2508 160.34 18.2708 160.41 18.3008C160.48 18.3008 160.54 18.3208 160.61 18.3508C160.64 18.3508 160.69 18.3508 160.76 18.3508C160.83 18.3508 160.89 18.3708 160.96 18.4008C160.99 18.4008 161.04 18.4208 161.11 18.4508C161.18 18.4508 161.24 18.4508 161.31 18.4508C161.34 18.4508 161.39 18.4508 161.46 18.4508C161.53 18.4508 161.58 18.4708 161.61 18.5008C161.68 18.5008 161.73 18.5008 161.76 18.5008C161.83 18.5008 161.89 18.5208 161.96 18.5508C161.99 18.5508 162.04 18.5508 162.11 18.5508C162.14 18.5508 162.19 18.5708 162.26 18.6008C162.33 18.6008 162.38 18.6008 162.41 18.6008C162.48 18.6008 162.53 18.6008 162.56 18.6008C162.63 18.6008 162.68 18.6208 162.71 18.6508H162.86C162.86 19.9208 163.49 20.8208 164.76 21.3508C163.83 20.3808 163.44 19.4708 163.61 18.6008H163.66C163.73 18.6008 163.79 18.6008 163.86 18.6008C163.93 18.6008 163.99 18.5808 164.06 18.5508C164.13 18.5508 164.18 18.5508 164.21 18.5508C164.28 18.5208 164.34 18.5008 164.41 18.5008C164.44 18.4708 164.48 18.4508 164.51 18.4508C164.58 18.4208 164.63 18.3808 164.66 18.3508C164.69 18.3208 164.73 18.2808 164.76 18.2508C164.79 18.2208 164.83 18.2008 164.86 18.2008V18.1508L164.76 17.9508V17.9008L164.31 17.7008L163.26 17.4508C163.36 17.4208 163.46 17.3808 163.56 17.3508H163.61C163.64 17.3508 163.69 17.3508 163.76 17.3508C163.79 17.3508 163.84 17.3508 163.91 17.3508C163.94 17.3508 163.99 17.3708 164.06 17.4008C164.09 17.3708 164.13 17.3708 164.16 17.4008C164.23 17.4008 164.28 17.4008 164.31 17.4008C164.38 17.4008 164.43 17.4008 164.46 17.4008C164.49 17.4008 164.54 17.4008 164.61 17.4008C164.64 17.4008 164.69 17.4008 164.76 17.4008C164.79 17.4008 164.83 17.4008 164.86 17.4008C164.89 17.4008 164.94 17.4008 165.01 17.4008C165.04 17.4008 165.08 17.4008 165.11 17.4008C165.18 17.4008 165.23 17.4008 165.26 17.4008C165.29 17.4008 165.34 17.4008 165.41 17.4008C165.44 17.3708 165.48 17.3508 165.51 17.3508C165.54 17.3508 165.58 17.3508 165.61 17.3508C165.68 17.3508 165.73 17.3508 165.76 17.3508L166.96 17.3008C167.03 17.2708 167.09 17.2508 167.16 17.2508C167.23 17.2208 167.28 17.2008 167.31 17.2008C167.38 17.1708 167.43 17.1508 167.46 17.1508C167.49 17.1208 167.51 17.0808 167.51 17.0508C167.51 17.0208 167.51 16.9808 167.51 16.9508C167.51 16.9208 167.49 16.8808 167.46 16.8508C167.43 16.8208 167.39 16.7808 167.36 16.7508L167.31 16.7008C167.28 16.6708 167.24 16.6308 167.21 16.6008V16.5508H167.16L167.11 16.5008L165.91 16.1508C166.04 16.0508 166.16 15.9708 166.26 15.9008C166.29 15.8708 166.34 15.8308 166.41 15.8008C166.48 15.8008 166.54 15.8008 166.61 15.8008C166.64 15.7708 166.68 15.7508 166.71 15.7508C166.78 15.7508 166.83 15.7508 166.86 15.7508C166.93 15.7508 166.98 15.7508 167.01 15.7508C167.04 15.7508 167.09 15.7508 167.16 15.7508C167.19 15.7208 167.24 15.7008 167.31 15.7008C167.34 15.7008 167.38 15.7008 167.41 15.7008C167.44 15.7008 167.49 15.7008 167.56 15.7008C167.59 15.6708 167.63 15.6508 167.66 15.6508H167.76C168.13 15.8808 168.68 16.2208 169.41 16.6508C170.11 17.0508 170.86 17.4008 171.66 17.7008C171.93 17.7708 172.14 17.7308 172.31 17.6008C172.44 17.4708 172.34 17.3208 172.01 17.1508C171.54 16.8808 171.19 16.6208 170.96 16.3508L172.86 16.5008C173.66 16.4708 173.78 16.2808 173.21 15.9508C172.54 15.7808 172.01 15.6308 171.61 15.5008C171.24 15.3708 171.31 15.2808 171.81 15.2508C172.28 15.2508 172.73 15.1808 173.16 15.0508C174.13 14.7208 174.06 14.4808 172.96 14.3508C172.43 14.3208 171.96 14.3808 171.56 14.5508C172.59 13.9808 173.04 13.5808 172.91 13.3508C172.71 13.1808 172.34 13.2208 171.81 13.4508C171.54 13.5808 171.23 13.6508 170.86 13.6508C169.56 13.7208 168.54 13.6708 167.81 13.5008C167.78 13.4708 167.73 13.4508 167.66 13.4508L167.36 13.3008L167.41 13.2508L167.81 13.0508C167.84 13.0208 167.88 13.0008 167.91 13.0008C167.91 12.9708 167.93 12.9308 167.96 12.9008C167.99 12.8708 168.01 12.8308 168.01 12.8008C168.04 12.7708 168.04 12.7308 168.01 12.7008C168.01 12.6308 167.99 12.5808 167.96 12.5508L167.86 12.4508L167.61 12.4008H167.26L166.66 12.5008H165.71L163.06 11.2008C160.49 10.0708 157.36 9.82082 153.66 10.4508Z" fill="#9E4949"/>
</svg>
