<svg width="180" height="245" viewBox="0 0 180 245" fill="none" xmlns="http://www.w3.org/2000/svg">
<g clip-path="url(#clip0_891_553)">
<path d="M97.9495 47.216C96.3138 45.4958 95.4943 43.4127 95.4943 40.9702C95.4943 38.5277 96.3138 36.4446 97.9495 34.7244C99.5851 33.0042 101.566 32.1423 103.888 32.1423C106.211 32.1423 108.191 33.0042 109.827 34.7244C111.463 36.4446 112.282 38.5277 112.282 40.9702C112.282 43.4127 111.463 45.4958 109.827 47.216C108.191 48.9362 106.211 49.7981 103.888 49.7981C101.566 49.7981 99.5884 48.9362 97.9495 47.216Z" fill="#A85432"/>
<path d="M107.986 44.7908L106.957 37.254C112.003 32.5818 117.066 31.3047 122.153 33.4158L149.989 67.9073L122.7 39.0858C116.346 37.4528 111.443 39.3511 107.986 44.7908ZM98.5134 37.254L97.4683 44.7908C92.4452 38.723 87.6278 36.612 83.0194 38.4578L51.9983 70.1404L83.3678 32.8575C89.5388 31.563 94.5885 33.0284 98.5134 37.254Z" fill="#A85432"/>
</g>
<g clip-path="url(#clip1_891_553)">
<path d="M46.2899 107.179C45.1049 105.912 44.5111 104.377 44.5111 102.577C44.5111 100.778 45.1049 99.2426 46.2899 97.9751C47.4749 96.7075 48.9099 96.0725 50.5925 96.0725C52.2751 96.0725 53.7101 96.7075 54.8951 97.9751C56.0801 99.2426 56.6738 100.778 56.6738 102.577C56.6738 104.377 56.0801 105.912 54.8951 107.179C53.7101 108.447 52.2751 109.082 50.5925 109.082C48.9099 109.082 47.4773 108.447 46.2899 107.179Z" fill="#A85432"/>
<path d="M53.5611 105.392L52.8159 99.839C56.4719 96.3963 60.14 95.4553 63.8248 97.0108L83.9918 122.426L64.2215 101.189C59.6184 99.9855 56.0657 101.384 53.5611 105.392ZM46.6985 99.839L45.9414 105.392C42.3022 100.921 38.812 99.3659 35.4733 100.726L12.9988 124.071L35.7257 96.5995C40.1965 95.6456 43.855 96.7254 46.6985 99.839Z" fill="#A85432"/>
</g>
<g clip-path="url(#clip2_891_553)">
<path d="M98.2899 163.179C97.1049 161.911 96.5111 160.376 96.5111 158.577C96.5111 156.777 97.1049 155.242 98.2899 153.975C99.4749 152.707 100.91 152.072 102.592 152.072C104.275 152.072 105.71 152.707 106.895 153.975C108.08 155.242 108.674 156.777 108.674 158.577C108.674 160.376 108.08 161.911 106.895 163.179C105.71 164.446 104.275 165.082 102.592 165.082C100.91 165.082 99.4773 164.446 98.2899 163.179Z" fill="#A85432"/>
<path d="M105.561 161.392L104.816 155.838C108.472 152.396 112.14 151.455 115.825 153.01L135.992 178.425L116.221 157.188C111.618 155.985 108.066 157.384 105.561 161.392ZM98.6985 155.838L97.9414 161.392C94.3022 156.921 90.812 155.365 87.4733 156.726L64.9988 180.071L87.7257 152.599C92.1965 151.645 95.855 152.725 98.6985 155.838Z" fill="#A85432"/>
</g>
<defs>
<clipPath id="clip0_891_553">
<rect width="98" height="38" fill="white" transform="translate(52 32.1411)"/>
</clipPath>
<clipPath id="clip1_891_553">
<rect width="71" height="28" fill="white" transform="translate(13 96.0715)"/>
</clipPath>
<clipPath id="clip2_891_553">
<rect width="71" height="28" fill="white" transform="translate(65 152.071)"/>
</clipPath>
</defs>
</svg>
