<svg width="1440" height="145" viewBox="0 0 1440 145" fill="none" xmlns="http://www.w3.org/2000/svg">
<g clip-path="url(#clip0_883_619)">
<path d="M463.35 84.4102C463.68 84.4634 464.02 84.4988 464.35 84.4988C463.45 84.9065 463.12 84.8887 463.35 84.4102ZM614.4 58.7994C614.4 59.9869 614.28 61.1389 614.05 62.2555C613.88 63.2658 613.75 64.2937 613.65 65.3572C613.72 62.8227 613.88 60.3413 614.15 57.9132C614.32 58.2145 614.4 58.4981 614.4 58.7994ZM299.75 22.2884C300.05 22.5188 300.37 22.6961 300.7 22.8202C300.7 22.9974 300.7 23.1746 300.7 23.3519C300.7 23.9367 300.7 24.5394 300.7 25.1242C300.7 25.7091 300.77 26.2408 300.9 26.7194C300.93 26.8434 301.15 26.8434 301.55 26.7194C301.82 25.9573 302.07 25.1597 302.3 24.3267C302.43 23.919 302.55 23.4936 302.65 23.086C303.28 22.9619 303.88 22.6075 304.45 22.0226C304.48 22.1998 304.52 22.3771 304.55 22.5543C304.65 23.086 304.7 23.6532 304.7 24.238C304.7 24.5394 304.87 24.8229 305.2 25.1242C305.2 24.8229 305.23 24.2735 305.3 23.4405C305.4 23.086 305.53 22.767 305.7 22.4657C306.03 21.8808 306.52 21.3136 307.15 20.7819H307.2C307.2 21.0123 307.2 21.2782 307.2 21.5795C307.2 22.1644 307.2 22.767 307.2 23.3519C307.2 23.6532 307.2 23.9367 307.2 24.238C307.2 24.5394 307.37 24.8229 307.7 25.1242C307.87 25.1242 308.03 24.8229 308.2 24.238C308.2 23.9367 308.2 23.6532 308.2 23.3519C308.37 22.4657 308.62 21.7922 308.95 21.3136C309.02 21.1896 309.08 21.1009 309.15 21.0478C309.72 21.225 310.28 21.4377 310.85 21.6681C310.98 21.7213 311.13 21.8099 311.3 21.934C311.47 22.3416 311.72 22.767 312.05 23.1746C312.15 22.9974 312.27 22.8201 312.4 22.6429C312.5 22.6961 312.58 22.767 312.65 22.8202C313.05 23.1746 313.5 23.3519 314 23.3519C314.1 23.3519 314.2 23.3519 314.3 23.3519C314.37 24.238 314.48 25.1242 314.65 26.0104C314.68 26.3117 314.73 26.8612 314.8 27.6942C314.9 28.0487 315.2 28.3677 315.7 28.669C316.03 26.9498 316.68 25.4433 317.65 24.1494C318.02 23.6177 318.4 23.2632 318.8 23.086C319.07 22.9619 319.28 23.1392 319.45 23.6177C319.65 24.0254 319.82 24.4685 319.95 24.947C320.15 25.656 320.38 26.3295 320.65 26.9852C320.88 27.5169 321.08 28.0841 321.25 28.669C321.58 28.669 321.83 28.5272 322 28.2259C322.33 27.641 322.62 26.9321 322.85 26.099C323.15 25.0888 323.45 24.0254 323.75 22.9088C324.65 22.7847 325.55 22.6961 326.45 22.6429C326.58 23.1215 326.73 23.5823 326.9 24.0608C327.13 24.7698 327.45 25.3015 327.85 25.6559C328.12 25.8864 328.42 26.0104 328.75 26.0104C329.32 25.1242 329.52 23.9367 329.35 22.4657C329.35 22.3416 329.33 22.2353 329.3 22.1112C329.37 22.058 329.43 22.0226 329.5 22.0226C330.13 21.8453 330.55 21.4554 330.75 20.8705C330.95 20.1616 331.17 19.4526 331.4 18.7437C331.7 17.8575 332.05 17.1131 332.45 16.5282C332.62 16.8827 332.8 17.2372 333 17.5916C333.33 18.1765 333.68 18.3538 334.05 18.1234C334.65 17.7157 335.2 17.184 335.7 16.5282C336.87 18.3538 338.33 19.1868 340.1 19.0095C340.73 18.9564 341.37 19.2399 342 19.8957C342.73 20.6578 343.38 21.4909 343.95 22.3771C344.48 23.086 344.95 23.8481 345.35 24.6811C345.48 24.9824 345.72 25.0711 346.05 24.947C346.62 24.7166 347.2 24.0608 347.8 22.9974L347.85 22.9088C348.02 22.6075 348.25 22.3771 348.55 22.1998C351.02 21.0123 353.55 20.9946 356.15 22.1112C356.78 22.3416 357.43 22.5011 358.1 22.5543C359.6 22.6075 360.98 22.2353 362.25 21.4023C362.98 20.9237 363.75 20.5515 364.55 20.2502C364.98 20.073 365.42 19.8957 365.85 19.7185C366.12 19.5944 366.38 19.4881 366.65 19.364C367.65 18.8855 368.52 17.9461 369.25 16.5282C369.48 16.0497 369.75 15.642 370.05 15.2876C370.15 15.1635 370.25 15.0571 370.35 14.9331C371.68 15.1635 373 15.323 374.3 15.3762C374.67 15.3762 374.85 15.4116 374.85 15.4648C374.95 17.5916 375.28 19.045 375.85 19.8071C376.18 19.8071 376.47 19.683 376.7 19.4526C377.93 18.1588 379.08 16.7409 380.15 15.1989C380.18 15.1989 380.22 15.2344 380.25 15.2876C383.42 19.1336 386.67 21.6681 390 22.9088C390.1 22.9619 390.18 22.9974 390.25 22.9974C392.22 23.7063 394.2 24.2381 396.2 24.5925C396.9 24.7698 397.32 24.8052 397.45 24.6811C397.52 24.628 397.6 24.5925 397.7 24.5925C398.63 24.0608 399.63 23.8481 400.7 23.9722C404 24.3798 407.18 25.3546 410.25 26.8966C410.92 27.2511 411.6 27.5524 412.3 27.7828C414.57 28.669 416.88 29.0589 419.25 28.9348C420.58 28.9348 421.92 29.1121 423.25 29.4666C423.02 29.9451 423.35 29.9628 424.25 29.5552C423.92 29.5552 423.58 29.5197 423.25 29.4666C423.25 28.6335 423.42 28.1904 423.75 28.1373C424.55 27.96 425.33 27.836 426.1 27.7828H426.25C426.45 27.7828 426.65 27.7828 426.85 27.7828H427.05C427.98 27.836 428.92 28.0132 429.85 28.3145C430.48 28.5449 431 28.4918 431.4 28.1373C431.57 28.0132 431.73 27.9069 431.9 27.7828C432.03 27.7296 432.17 27.6587 432.3 27.6056C433.63 27.2511 434.93 27.3043 436.2 27.7828C436.4 28.1373 436.62 28.4917 436.85 28.8462C437.15 29.3779 437.68 29.8742 438.45 30.3527C439.12 30.7072 439.78 31.0262 440.45 31.3276C440.38 31.2035 440.3 31.0617 440.2 30.8845C441 31.8238 441.83 32.6923 442.7 33.4544C443.1 33.8089 443.5 34.1634 443.9 34.5178C444.17 34.7482 444.47 34.9255 444.8 35.0495C446.43 35.5813 447.63 34.9609 448.4 33.1885C448.67 32.5328 448.92 31.8593 449.15 31.1503C449.48 30.0869 449.72 28.988 449.85 27.8714C449.95 26.6839 449.97 25.4787 449.9 24.238C449.83 23.2278 449.88 22.3416 450.05 21.5795C450.35 21.8808 450.65 22.1644 450.95 22.4657C451.45 23.0506 451.97 23.5291 452.5 23.8836C452.97 24.114 453.45 24.238 453.95 24.238C453.62 23.9367 453.32 23.5823 453.05 23.1746C452.58 22.2884 452.13 21.3491 451.7 20.3388C452.2 20.2857 452.65 20.3388 453.05 20.5161C453.72 21.4023 454.43 22.1466 455.2 22.7315C455.6 23.4405 456.1 24.0963 456.7 24.6811C457.3 25.266 457.88 25.8864 458.45 26.5421C458.98 27.127 459.55 27.641 460.15 28.0487C460.65 28.4031 461.18 28.669 461.75 28.8462C462.32 29.0235 462.88 29.4666 463.45 30.1755C465.35 32.5328 467.48 33.543 469.85 33.1885C470.52 33.1354 471.18 33.0645 471.85 33.0113C472.72 33.0113 473.13 32.1606 473.1 30.4414C473.1 30.1401 473.18 29.8565 473.35 29.5552C473.85 29.5552 474.33 29.6438 474.8 29.821C475.83 30.2287 476.85 30.7604 477.85 31.4162C478.18 31.6466 478.5 31.9479 478.8 32.3024C479 32.5328 479.2 32.71 479.4 32.8341C480.03 33.3126 480.68 33.6848 481.35 33.9861C481.02 33.0999 480.65 32.2669 480.25 31.5048C479.85 30.7958 479.73 29.9628 479.9 29.0235C479.9 28.9703 479.92 28.8817 479.95 28.7576C480.18 27.5701 480.52 26.099 480.95 24.3267C481.05 23.9722 481.12 23.6177 481.15 23.2632C481.28 21.8453 481.35 20.392 481.35 18.9209C481.38 16.4928 481.6 14.2596 482 12.1859C482.17 12.0618 482.35 11.9555 482.55 11.8314C482.95 13.0721 483.42 14.3127 483.95 15.5534C484.38 16.6168 484.8 17.7157 485.2 18.8323C485.3 19.1868 485.42 19.5413 485.55 19.8957C485.58 20.073 485.62 20.2857 485.65 20.5161C485.82 21.5263 486.08 22.4302 486.45 23.2632C486.58 23.6177 486.73 23.9367 486.9 24.238C486.9 23.6532 486.9 23.0506 486.9 22.4657C486.9 22.4125 486.9 22.3416 486.9 22.2884C486.97 22.058 487.03 21.8099 487.1 21.5795C487.27 20.9946 487.4 20.3743 487.5 19.7185C487.57 19.1868 487.62 18.3538 487.65 17.2372C487.78 16.5814 487.95 15.9965 488.15 15.4648C488.25 15.1635 488.35 14.9331 488.45 14.7558C488.62 16.1206 488.7 17.503 488.7 18.9209C488.67 20.392 488.7 21.8808 488.8 23.3519C488.87 24.5394 488.9 25.7091 488.9 26.8966C489.07 26.0104 489.2 25.3901 489.3 25.0356C489.37 23.919 489.43 23.086 489.5 22.5543C489.6 21.8985 489.72 21.2782 489.85 20.6933C489.88 20.392 489.9 20.1084 489.9 19.8071C489.93 19.5058 489.97 19.2754 490 19.0982C490.27 19.5767 490.55 20.0198 490.85 20.4274C490.88 20.4806 490.9 20.5692 490.9 20.6933C491.23 22.767 491.57 24.8229 491.9 26.8966C492.07 27.7828 492.25 28.669 492.45 29.5552C492.48 29.7324 492.52 29.9096 492.55 30.0869C492.65 30.4945 492.75 30.9376 492.85 31.4162C493.22 31.6466 493.5 31.5402 493.7 31.0617C493.83 30.7604 493.95 30.4768 494.05 30.1755C494.22 29.7679 494.38 29.3248 494.55 28.8462C495.12 27.2511 495.63 25.6205 496.1 23.9722C496.3 23.2632 496.43 22.4657 496.5 21.5795C496.53 21.5795 496.55 21.6149 496.55 21.6681C496.75 22.1998 496.97 22.9974 497.2 24.0608C497.27 24.1849 497.33 24.2912 497.4 24.4153C497.43 26.4181 497.48 28.4386 497.55 30.4414V30.53C497.62 31.6466 497.7 32.7986 497.8 33.9861C497.87 35.1736 497.9 36.3434 497.9 37.5309C498.67 37.1232 499.23 35.0141 499.6 31.2389C499.6 31.0617 499.62 30.9199 499.65 30.7958C500.02 27.3043 500.57 25.2483 501.3 24.5925C502.03 23.9367 502.82 25.2129 503.65 28.4031C504.15 30.2287 504.52 31.4516 504.75 32.0365C504.88 32.391 504.97 32.4441 505 32.2137C505.23 29.5552 504.83 27.2865 503.8 25.3901C503.53 24.9116 503.4 24.238 503.4 23.3519C503.57 22.767 503.73 22.4657 503.9 22.4657C504.07 22.4657 504.23 22.4657 504.4 22.4657C504.57 22.4657 504.73 22.4657 504.9 22.4657C505.07 22.4657 505.23 22.4657 505.4 22.4657C505.73 22.4657 506.07 22.4657 506.4 22.4657C506.4 21.5795 506.33 20.7287 506.2 19.8957C506.17 19.5413 506.1 19.1868 506 18.8323C505.93 17.9993 505.9 17.4499 505.9 17.1485C505.9 16.8472 505.9 16.5637 505.9 16.2624C506.07 16.2624 506.23 16.2624 506.4 16.2624C506.57 16.2624 506.73 16.2624 506.9 16.2624C507.4 16.8472 507.75 17.4144 507.95 17.9461C508.08 18.3006 508.23 18.6196 508.4 18.9209C508.57 19.2222 508.73 19.5058 508.9 19.8071C508.57 18.336 508.33 16.8295 508.2 15.2876C508.07 13.9228 507.97 12.5758 507.9 11.2111C508.33 11.9732 508.75 12.7708 509.15 13.6038C509.45 14.1887 509.77 14.7913 510.1 15.3762C510.1 15.0749 510.1 14.7913 510.1 14.49C510.1 13.9051 510.1 13.3025 510.1 12.7176C510.1 12.1327 510.1 11.5301 510.1 10.9452C510.1 10.6439 510.1 10.3603 510.1 10.059C510.27 10.6439 510.38 11.2643 510.45 11.92C510.55 12.7531 510.7 13.5152 510.9 14.2241C511.23 15.2876 511.57 16.351 511.9 17.4144C512.23 18.4247 512.65 19.5058 513.15 20.6933C513.88 20.9237 514.38 20.3388 514.65 18.9209C514.82 18.0347 515.02 17.184 515.25 16.351C516.05 13.6392 516.92 10.9984 517.85 8.46391C518.15 7.70179 518.47 6.95739 518.8 6.24844C518.93 6.24844 519.05 6.28388 519.15 6.33706C519.25 8.58797 519.75 9.88181 520.65 10.2363C521.15 10.4135 521.62 10.4135 522.05 10.2363C522.28 10.1122 522.52 9.82864 522.75 9.3501C523.25 8.28667 523.78 7.36503 524.35 6.60291C524.45 6.90421 524.55 7.22324 524.65 7.57772C524.75 7.80813 524.85 8.05626 524.95 8.28667C525.15 8.10943 525.32 7.89675 525.45 7.66634C525.58 7.4891 525.7 7.31186 525.8 7.13463C526 6.72698 526.18 6.28389 526.35 5.80534C526.42 6.03575 526.45 6.28388 526.45 6.51429C526.58 9.47416 526.65 12.4163 526.65 15.3762C526.65 17.7334 526.65 20.1084 526.65 22.4657C526.65 23.6532 526.65 24.8229 526.65 26.0104C527.15 25.4255 527.6 24.7698 528 24.0608C528.6 22.9974 529.18 21.8985 529.75 20.7819C530.52 19.2399 531.4 18.0347 532.4 17.1485C533.4 16.2624 534.48 15.8193 535.65 15.8193C535.98 15.8193 536.23 16.0497 536.4 16.5282C537.83 20.1261 539.77 21.6149 542.2 20.9592C542.87 20.7819 543.48 20.906 544.05 21.3136C545.45 22.3239 547.17 22.7315 549.2 22.5543C549.53 22.5011 549.82 22.3416 550.05 22.1112C550.65 21.4554 550.95 20.6933 550.95 19.8071C550.95 15.323 552.18 13.6392 554.65 14.7558C554.85 14.8799 555.05 14.9862 555.25 15.1103C556.08 15.642 556.92 16.2092 557.75 16.7941C557.72 17.2017 557.67 17.6271 557.6 18.0347C557.57 18.336 557.55 18.6196 557.55 18.9209C557.52 19.2754 557.75 18.6551 558.25 17.0599C558.88 17.4676 559.52 17.8929 560.15 18.3006C560.68 18.7082 561.22 19.045 561.75 19.2754C564.12 20.1616 566.45 21.1896 568.75 22.3771C569.35 22.6784 569.93 22.9974 570.5 23.3519C571.77 23.3519 573.02 23.3519 574.25 23.3519C574.58 23.3519 574.9 23.4405 575.2 23.6177C575.9 24.0963 576.72 24.3798 577.65 24.5039C578.32 24.5039 579.02 24.4153 579.75 24.238C579.58 23.9367 579.45 23.6177 579.35 23.2632C579.28 23.0328 579.22 22.7847 579.15 22.5543C579.02 21.9694 578.88 21.3491 578.75 20.6933C578.35 18.212 578.68 17.0245 579.75 17.1485C580.08 17.1485 580.38 17.2726 580.65 17.503C581.75 18.5133 582.87 19.2754 584 19.8071C585.03 20.3388 586.1 20.6933 587.2 20.8705C588.2 20.9946 589.22 20.9946 590.25 20.8705C590.45 20.8705 590.63 20.8705 590.8 20.8705C591.53 20.8174 592.25 20.8705 592.95 21.0478C593.05 21.0478 593.15 21.0478 593.25 21.0478C594.85 21.4554 595.7 20.7465 595.8 18.9209C595.3 18.9209 594.87 18.7082 594.5 18.3006C594.03 17.822 593.63 16.8472 593.3 15.3762C593.3 15.0749 593.3 14.7913 593.3 14.49C593.3 14.1887 593.3 13.9051 593.3 13.6038C593.47 13.6038 593.63 13.6038 593.8 13.6038C594.8 13.6038 595.8 13.6038 596.8 13.6038C597.23 13.6038 597.65 13.6038 598.05 13.6038C598.15 14.1355 598.27 14.6672 598.4 15.1989C598.53 15.7306 598.67 16.2624 598.8 16.7941C598.83 16.9713 598.88 17.1485 598.95 17.3258C599.22 18.212 599.45 19.1336 599.65 20.073C599.72 20.197 599.77 20.3388 599.8 20.5161C600.07 21.5263 600.52 21.8808 601.15 21.5795C601.52 20.5692 601.78 19.0627 601.95 17.0599C601.95 17.0068 601.95 16.9181 601.95 16.7941C602.12 15.2521 602.35 13.9051 602.65 12.7176C602.82 13.3025 602.95 13.6924 603.05 13.8697C603.12 14.5786 603.15 15.0749 603.15 15.3762C603.58 14.4368 603.87 13.3025 604 12.0087C604.27 12.2391 604.52 12.5049 604.75 12.8062C605.52 13.6924 606.37 13.9583 607.3 13.6038C607.13 13.3025 606.97 13.0189 606.8 12.7176C606.47 12.1327 606.12 11.601 605.75 11.1225C605.45 10.7148 605.12 10.4135 604.75 10.2363C604.62 10.1122 604.47 9.75774 604.3 9.17286C604.47 8.87155 604.63 8.72976 604.8 8.72976C605.5 8.67659 606.18 8.6057 606.85 8.55252C606.92 8.78293 606.98 9.03107 607.05 9.26147C607.45 11.1579 607.98 12.8948 608.65 14.49C608.55 12.31 608.65 10.2717 608.95 8.37529C610.18 8.32212 611.4 8.25122 612.6 8.19805C612.63 8.19805 612.65 8.2335 612.65 8.28667C612.82 8.87155 612.98 9.47416 613.15 10.059C613.72 9.70457 614.17 9.03107 614.5 8.02081C614.6 8.02081 614.7 8.02081 614.8 8.02081C615.53 7.96764 616 7.63089 616.2 7.046C617.3 7.70178 618.12 9.29692 618.65 11.8314C618.65 10.3603 618.65 8.87155 618.65 7.40048C618.65 6.86877 618.65 6.33706 618.65 5.80534C619.02 5.85852 619.4 5.85852 619.8 5.80534C620.07 5.75217 620.35 5.68128 620.65 5.62811C620.88 6.33706 621.03 7.1878 621.1 8.19805C621.17 9.13741 621.43 9.91725 621.9 10.5021C622.1 10.8034 622.37 10.9452 622.7 10.9452C623.3 10.5376 623.5 9.35009 623.3 7.40048C623.27 6.92194 623.25 6.51429 623.25 6.15982C623.42 6.33705 623.62 6.47884 623.85 6.60291C624.18 6.83332 624.52 7.13462 624.85 7.4891C625.35 8.02081 625.82 8.64114 626.25 9.3501C626.75 10.1831 627.27 10.8921 627.8 11.4769C627.87 11.601 627.92 11.7074 627.95 11.8314C628.95 12.4163 629.87 13.3025 630.7 14.49C630.87 14.7913 631.02 15.1103 631.15 15.4648C631.38 15.9965 631.6 16.5282 631.8 17.0599C631.93 17.3612 632.07 17.6803 632.2 18.0347C632.2 17.7334 632.2 17.4144 632.2 17.0599C632.2 16.5282 632.2 15.9611 632.2 15.3762C632.2 14.1887 632.27 13.0366 632.4 11.92C632.43 11.5656 632.53 11.2465 632.7 10.9452C633.03 10.9452 633.28 11.087 633.45 11.3883C634.12 12.5758 634.68 13.9051 635.15 15.3762C635.32 15.9611 635.47 16.5637 635.6 17.1485C636.07 18.9209 636.38 20.7819 636.55 22.7315C636.62 23.4937 636.67 24.2912 636.7 25.1242C636.77 25.0002 636.82 24.9115 636.85 24.8584C637.12 24.3267 637.37 23.795 637.6 23.2632C638.43 21.3136 639.1 19.2754 639.6 17.1485C639.87 16.032 640.08 14.8799 640.25 13.6924C640.52 13.9228 640.8 14.1355 641.1 14.3127C641.17 15.2521 641.22 16.2092 641.25 17.1485C641.32 17.6803 641.37 18.2474 641.4 18.8323C641.43 19.1868 641.53 19.5058 641.7 19.8071C642.23 19.2754 642.58 18.3892 642.75 17.1485C642.88 16.3864 642.95 15.5002 642.95 14.49C642.95 13.9051 643.07 13.3379 643.3 12.8062C643.57 12.1504 643.87 11.5301 644.2 10.9452C644.33 13.9051 644.92 15.9611 645.95 17.1485C646.22 17.4499 646.5 17.6803 646.8 17.8575C646.83 17.9107 646.85 17.9816 646.85 18.0347C646.85 17.9816 646.85 17.9107 646.85 17.8575C647.52 18.212 648.33 18.3006 649.3 18.1234C649.77 18.0702 650.18 18.4247 650.55 19.1868C650.85 19.8957 651.13 20.6401 651.4 21.4023C651.7 22.1112 652.07 22.5543 652.5 22.7315C652.73 22.7315 652.98 22.6961 653.25 22.6429C653.75 22.5188 654.25 22.4657 654.75 22.4657C655.12 22.4125 655.45 22.253 655.75 22.0226C656.02 21.7922 656.25 21.4909 656.45 21.1364C656.65 20.8351 656.92 20.6933 657.25 20.6933C658.12 20.6933 658.95 20.7465 659.75 20.8705C660.42 20.8705 661.05 20.9237 661.65 21.0478C661.72 21.0478 661.77 21.0478 661.8 21.0478C662.1 21.1009 662.43 21.0832 662.8 20.9592C663.17 20.8351 663.53 20.7819 663.9 20.7819C664.7 20.6578 665.45 20.7819 666.15 21.1364C667.72 21.8453 669.05 23.5823 670.15 26.3649C670.68 27.6587 671.3 28.8817 672 29.9983C672.27 30.3527 672.55 30.7072 672.85 31.0617C673.52 31.8947 674.18 32.6923 674.85 33.4544C677.02 31.7352 679.15 30.1223 681.25 28.5804C681.58 28.35 681.93 28.1727 682.3 28.0487C684.27 27.3929 686.08 25.9218 687.75 23.6177L687.8 23.5291C688 23.2278 688.22 23.0328 688.45 22.9088C688.55 22.8556 688.65 22.8202 688.75 22.8202C689.52 22.6961 690.23 22.7315 690.9 22.9088C691.67 23.0328 692.38 23.3519 693.05 23.8836C694.38 24.8938 695.6 26.5067 696.7 28.7576C697.4 30.1755 698.1 31.5934 698.8 33.0113C699.9 35.3154 701.07 36.4143 702.3 36.2902C703.13 36.237 703.92 36.7687 704.65 37.8853C705.68 39.4273 706.57 41.0756 707.3 42.848C707.7 42.4403 708.15 41.7846 708.65 40.8984C708.92 40.4198 709.3 40.2249 709.8 40.278C714.1 40.6857 718.28 40.3312 722.35 39.2146C722.92 39.0906 723.1 38.2398 722.9 36.6447C722.83 36.237 722.73 35.8826 722.6 35.5813C722.43 35.2268 722.18 34.9964 721.85 34.8723C722.52 33.9329 723.35 33.5076 724.35 33.6316C724.98 33.7557 725.62 33.8975 726.25 34.0747C727.25 34.3051 728.23 34.6596 729.2 35.1382C730.17 35.5458 731.08 36.2902 731.95 37.3536C734.22 40.1363 736.53 41.9618 738.9 42.848C739.07 42.2631 739.1 41.6605 739 41.0756C738.93 40.7743 738.9 40.4907 738.9 40.1894C738.73 39.6045 738.62 39.2501 738.55 39.126C738.28 38.3639 738.07 37.8322 737.9 37.5309C738.07 36.8219 738.43 36.4143 739 36.2902C739.27 36.237 739.57 36.237 739.9 36.2902C741.07 36.5206 742.23 36.7687 743.4 36.9992C744.8 37.3005 746.15 37.6549 747.45 38.0626C748.08 38.293 748.73 38.4525 749.4 38.5057C751.77 38.6829 752.87 36.5915 752.7 32.2137C752.67 31.6289 752.77 31.0971 753 30.6186C753.87 29.1475 754.82 29.1121 755.85 30.53C756.22 31.0617 756.6 31.5048 757 31.8593C757.3 32.0897 757.62 32.1606 757.95 32.0365C761.48 30.6186 764.93 31.0262 768.3 33.2772C769.83 31.4516 771.32 29.5197 772.75 27.5169C773.05 27.1093 773.43 26.7725 773.9 26.5421C774.43 26.1877 774.92 25.656 775.35 24.947C775.75 24.1849 776.13 23.3873 776.5 22.5543C776.8 21.8985 777.05 21.225 777.25 20.5161C777.38 20.0375 777.53 19.6653 777.7 19.364C777.87 19.0627 778.12 18.9209 778.45 18.9209C781.28 18.9209 784.12 19.1868 786.95 19.7185C787.32 19.7717 787.6 20.1616 787.8 20.8705C788.1 21.934 788.45 22.8733 788.85 23.7063C789.28 24.6457 789.85 25.3901 790.55 25.9218C792.95 27.7474 795.4 29.3248 797.9 30.6186C798.43 30.0869 798.97 29.4311 799.5 28.669C801.8 25.3546 804.47 24.0963 807.5 24.8584C808.33 25.0356 809.15 25.2483 809.95 25.4787C811.22 25.78 812.4 26.5776 813.5 27.8714C814.2 28.7044 814.92 29.3425 815.65 29.821C816.25 30.2287 816.88 30.53 817.55 30.7072C818.28 30.9376 818.62 30.5654 818.55 29.5552C818.52 28.6158 818.85 28.1904 819.55 28.3145C821.72 28.5449 823.88 28.5449 826.05 28.3145C829.35 28.0132 832.55 28.5272 835.65 29.821C837.25 30.53 838.88 31.1858 840.55 31.7706C841.22 32.0011 841.88 32.2492 842.55 32.4796C843.05 32.3024 843.57 32.1783 844.1 32.1251C844.73 32.1251 845.18 31.8061 845.45 31.1503C845.88 30.1401 846.38 29.5197 846.95 29.2893C847.15 29.1653 847.37 29.1121 847.6 29.1121C848.27 29.1121 848.93 29.0235 849.6 28.8462C850.1 28.7222 850.55 28.4918 850.95 28.1373C851.22 27.9069 851.43 27.5524 851.6 27.0738L851.65 26.9852C851.78 26.6308 851.93 26.4535 852.1 26.4535C856.83 25.7977 861.48 26.4003 866.05 28.2259C866.78 28.5272 867.5 28.8108 868.2 29.1121C868.83 29.4134 869.48 29.5197 870.15 29.4666C874.32 29.2893 878.48 28.9348 882.65 28.4031C885.38 28.0487 888.02 28.35 890.55 29.2893C890.92 29.0589 891.28 28.8108 891.65 28.5804C896.15 25.4433 900.85 22.9619 905.75 21.1364C906.52 20.8351 907.15 20.0198 907.65 18.6551C913.08 3.5367 921.83 0.186914 933.9 8.64115C935.27 9.5805 936.65 10.5021 938.05 11.3883C944.18 15.3407 949.43 19.2754 953.8 23.1746C954.6 23.8836 955.35 24.2912 956.05 24.4153C964.68 25.4787 973.35 25.7446 982.05 25.2129C985.38 24.9824 988.63 25.1242 991.8 25.6559C991.87 25.5319 991.93 25.4433 992 25.3901C992.43 24.9116 992.88 24.4685 993.35 24.0608C994.15 23.2987 994.88 22.253 995.55 20.9592C995.78 20.4806 996.07 20.2502 996.4 20.2502C997.57 20.2502 998.68 20.6401 999.75 21.4023C1001.18 22.4125 1002.58 23.6532 1003.95 25.1242C1005.68 27.127 1007.52 28.3145 1009.45 28.669C1010.75 28.8994 1011.78 28.7931 1012.55 28.3145C1013.15 27.96 1013.77 27.9246 1014.4 28.2259C1015.1 28.5272 1015.75 29.0235 1016.35 29.7324C1016.75 30.211 1017.13 30.654 1017.5 31.0617C1018.77 32.2492 1020.05 32.9759 1021.35 33.2772C1022.08 33.4544 1022.82 33.862 1023.55 34.5178C1024.12 35.0495 1024.7 35.5281 1025.3 35.9357C1025.67 36.1661 1026.05 36.4143 1026.45 36.6447C1026.68 36.7687 1026.9 36.8751 1027.1 36.9992C1028.3 37.6549 1029.28 38.098 1030.05 38.3284C1030.15 38.3816 1030.33 38.2044 1030.6 37.7967C1031.57 36.3788 1032.7 35.6699 1034 35.6699C1036.33 35.6699 1038.65 35.7585 1040.95 35.9357C1042.65 36.0598 1044.33 36.2016 1046 36.3788C1047.83 36.5561 1049.67 36.7687 1051.5 36.9992C1051.87 37.0523 1052.22 37.5309 1052.55 38.4171C1053.35 40.5971 1054.33 41.5542 1055.5 41.2529C1055.87 41.1288 1056.18 40.7566 1056.45 40.1008C1057.45 37.6195 1058.67 36.2548 1060.1 36.0243C1061.1 35.8471 1062 35.404 1062.8 34.6951C1063.33 34.2165 1063.83 33.4899 1064.3 32.4796C1064.67 31.7175 1065.12 31.2389 1065.65 31.0617C1065.95 30.9376 1066.25 31.0617 1066.55 31.4162C1067.72 32.8341 1068.65 32.9581 1069.35 31.7706C1069.68 31.1858 1070.07 30.9731 1070.5 31.1503C1070.9 31.2744 1071.27 31.6289 1071.6 32.2137C1072.27 32.2137 1072.72 31.8593 1072.95 31.1503C1073.62 29.2007 1074.67 28.4386 1076.1 28.8462C1077.23 29.1475 1078.23 28.8817 1079.1 28.0487C1079.43 27.6942 1079.75 27.2865 1080.05 26.808C1081.42 24.5039 1082.68 24.3798 1083.85 26.4535C1084.02 26.7548 1084.25 26.808 1084.55 26.6308C1084.75 26.5067 1084.95 26.4181 1085.15 26.3649C1085.68 26.1345 1086.18 26.0104 1086.65 26.0104C1087.32 26.0104 1087.82 25.7091 1088.15 25.1242C1088.65 24.238 1088.98 23.0506 1089.15 21.5795C1089.42 19.0982 1090.08 17.3258 1091.15 16.2624C1091.15 16.5637 1091.15 16.8472 1091.15 17.1485C1091.15 18.336 1091.15 19.5058 1091.15 20.6933C1091.15 21.5795 1091.15 22.4657 1091.15 23.3519C1091.15 23.6532 1091.15 23.9367 1091.15 24.238C1091.65 23.6532 1092.08 22.9619 1092.45 22.1998C1092.92 21.1896 1093.35 20.1616 1093.75 19.0982C1094.02 18.3892 1094.32 17.7334 1094.65 17.1485C1094.42 21.7036 1095.42 23.919 1097.65 23.795C1097.82 23.795 1097.95 23.6177 1098.05 23.2632C1098.45 22.0758 1099.17 21.3668 1100.2 21.1364C1100.33 21.1364 1100.5 21.1718 1100.7 21.225C1101.67 21.4554 1102.65 21.6149 1103.65 21.6681C1105.65 21.7922 1107.53 22.3771 1109.3 23.4405C1110.2 23.9722 1111.15 24.2912 1112.15 24.4153C1113.08 24.5394 1113.97 24.9116 1114.8 25.5673C1115.23 25.8686 1115.7 26.0104 1116.2 26.0104C1117.33 25.9573 1117.68 24.4685 1117.25 21.5795C1116.75 18.3892 1117.32 17.503 1118.95 18.9209C1119.62 19.5058 1120.23 20.3388 1120.8 21.4023C1121.67 22.8733 1122.5 24.0076 1123.3 24.7698C1123.57 25.0002 1123.87 25.1597 1124.2 25.2129C1127.6 25.5142 1130.93 25.3015 1134.2 24.5925C1134.83 24.4153 1135.27 24.9116 1135.5 26.099C1135.73 27.0384 1136.03 27.8714 1136.4 28.5804C1136.53 28.7576 1136.68 28.9348 1136.85 29.1121C1137.05 29.3425 1137.28 29.502 1137.55 29.5552C1137.62 29.5552 1137.67 29.5552 1137.7 29.5552C1138.07 29.6083 1138.42 29.6083 1138.75 29.5552C1139.52 29.3779 1140.23 28.988 1140.9 28.4031C1141.67 27.6942 1142.35 26.6839 1142.95 25.3901C1143.15 24.9116 1143.42 24.5039 1143.75 24.1494C1144.95 22.8556 1145.83 22.7847 1146.4 23.9722C1146.77 24.7343 1147.15 25.3015 1147.55 25.6559C1148.22 26.1877 1148.95 26.3117 1149.75 26.0104C1150.52 25.78 1151.23 25.3901 1151.9 24.8584C1152.47 24.4507 1153.07 24.3621 1153.7 24.5925C1153.9 24.6457 1154.08 24.6811 1154.25 24.6811C1156.05 24.8584 1157.87 24.9824 1159.7 25.0356C1161.27 27.4638 1162.9 29.7324 1164.6 31.8593C1166.2 33.7557 1167.88 35.5281 1169.65 37.1764C1172.78 37.1232 1175.93 37.0878 1179.1 37.0878C1180.1 37.0346 1181.1 36.9992 1182.1 36.9992C1183.33 36.9992 1184.55 36.9992 1185.75 36.9992C1186.98 36.946 1188.18 36.9105 1189.35 36.9105C1189.32 33.9507 1188.68 31.4162 1187.45 29.2893C1187.02 28.5804 1186.65 27.7474 1186.35 26.808C1185.75 24.9116 1185.22 22.9974 1184.75 21.0478C1184.02 17.8043 1183.53 14.4368 1183.3 10.9452C1184.73 10.768 1186 11.7074 1187.1 13.781C1187.2 13.9583 1187.3 14.1355 1187.4 14.3127C1189.37 18.5133 1191.45 22.2353 1193.65 25.4787C1193.92 25.8332 1194.17 26.2763 1194.4 26.808C1194.97 27.9955 1195.58 28.7931 1196.25 29.2007C1196.65 29.4311 1197.05 29.7856 1197.45 30.2641C1197.88 30.3882 1198.12 30.4059 1198.15 30.3527C1198.28 29.5197 1198.28 28.7222 1198.15 27.96C1197.95 27.5524 1197.85 27.1979 1197.85 26.8966C1197.85 26.5953 1197.85 26.3117 1197.85 26.0104C1197.85 25.7091 1197.85 25.4255 1197.85 25.1242C1198.18 25.4255 1198.45 25.7977 1198.65 26.2763C1200.02 29.3425 1201.75 31.5934 1203.85 33.0113C1204.35 33.3658 1204.85 33.6848 1205.35 33.9861C1204.85 32.515 1204.45 31.2389 1204.15 30.1755C1203.95 29.4666 1203.8 28.7044 1203.7 27.8714C1203.53 26.2231 1203.25 24.7166 1202.85 23.3519C1203.35 22.767 1203.82 22.6075 1204.25 22.9088C1204.98 23.4937 1205.72 24.0963 1206.45 24.6811C1206.88 24.9824 1207.35 25.1242 1207.85 25.1242C1207.92 24.7698 1207.98 24.4153 1208.05 24.0608C1208.25 22.9442 1208.32 21.8099 1208.25 20.6933C1208.15 18.9209 1208.03 17.1485 1207.9 15.3762C1207.87 14.7913 1207.85 14.1887 1207.85 13.6038C1208.02 13.9051 1208.15 14.2241 1208.25 14.5786C1208.98 17.4676 1210.18 19.7717 1211.85 21.4909H1211.9C1212.53 22.1466 1213.2 22.6784 1213.9 23.086C1214.2 23.2632 1214.52 23.3519 1214.85 23.3519C1214.65 21.225 1214.7 19.2399 1215 17.4144C1215.2 16.351 1215.47 15.3762 1215.8 14.49C1216.33 13.0721 1217.1 13.2139 1218.1 14.9331C1218.27 15.2344 1218.52 15.3762 1218.85 15.3762C1221.58 15.1458 1224.25 15.2521 1226.85 15.7306C1227.38 15.7838 1227.9 16.2624 1228.4 17.1485C1229.67 19.2754 1231.17 20.2148 1232.9 19.9843C1233.9 19.8603 1234.9 19.683 1235.9 19.4526C1236.23 19.3995 1236.58 19.2754 1236.95 19.0982C1237.88 18.6905 1238.75 17.822 1239.55 16.5282C1240.55 14.9862 1241.18 15.1989 1241.45 17.1485C1241.72 18.8678 1242.38 19.5413 1243.45 19.1868C1244.08 19.0095 1244.72 18.7969 1245.35 18.5664C1245.55 18.5133 1245.73 18.4778 1245.9 18.4778C1247.57 18.1765 1249.25 18.0347 1250.95 18.0347C1251.62 18.0347 1252.28 17.9461 1252.95 17.7689C1253.32 17.6448 1253.65 17.5916 1253.95 17.5916C1254.48 17.5385 1255.02 17.503 1255.55 17.503C1258.05 17.2726 1260.53 17.1485 1263 17.1485C1263.33 17.1485 1263.65 17.1485 1263.95 17.1485C1264.28 17.1485 1264.6 17.0599 1264.9 16.8827C1265.1 16.7586 1265.27 16.7409 1265.4 16.7941C1265.93 17.0245 1266.43 17.4676 1266.9 18.1234C1267.53 18.9564 1267.93 20.0198 1268.1 21.3136C1268.17 21.8985 1268.18 22.5897 1268.15 23.3519C1268.02 25.0002 1268.45 25.6914 1269.45 25.3901C1270.12 25.2129 1270.78 25.0356 1271.45 24.8584C1271.92 24.7343 1272.37 24.5925 1272.8 24.4153C1273.33 24.0608 1273.83 23.6532 1274.3 23.1746C1274.2 22.8202 1274.1 22.5011 1274 22.1998C1273.8 21.4909 1273.65 20.7287 1273.55 19.8957C1273.35 18.2474 1273.05 16.7409 1272.65 15.3762C1273.12 14.7913 1273.58 14.6318 1274.05 14.9331C1274.78 15.4648 1275.52 16.032 1276.25 16.6168C1276.68 16.8472 1277.17 16.9713 1277.7 16.9713C1278.03 15.5002 1278.15 14.0114 1278.05 12.5404C1277.92 10.8212 1277.78 9.11969 1277.65 7.40048C1277.85 7.34731 1278.03 7.27641 1278.2 7.22324C1279 9.70457 1280.17 11.6896 1281.7 13.1607C1282.33 13.8165 1283.02 14.3482 1283.75 14.7558C1284.05 14.8799 1284.37 14.9331 1284.7 14.9331C1284.6 14.1001 1284.53 13.3379 1284.5 12.629C1286.77 11.6896 1288.98 9.88181 1291.15 7.22324C1291.35 6.99283 1291.53 6.78015 1291.7 6.60291C1293.33 6.54974 1294.95 6.63836 1296.55 6.86877C1297.08 6.92194 1297.6 7.36504 1298.1 8.19805C1299.4 10.3249 1300.92 11.2111 1302.65 10.8566C1303.65 10.7325 1304.67 10.5376 1305.7 10.2363C1305.87 10.2363 1306.02 10.2008 1306.15 10.1477C1308.52 10.3781 1310.9 10.3781 1313.3 10.1477C1313.8 10.0945 1314.18 10.2895 1314.45 10.768C1314.95 11.6542 1315.4 12.31 1315.8 12.7176C1316.4 11.2465 1317.12 9.84636 1317.95 8.55252C1318.85 8.42846 1319.75 8.33984 1320.65 8.28667C1321.32 8.2335 1321.98 8.10943 1322.65 7.93219C1323.02 7.80813 1323.35 7.71951 1323.65 7.66634C1326.98 7.25869 1330.33 6.99284 1333.7 6.86877C1334.03 6.86877 1334.35 6.78015 1334.65 6.60291C1334.85 6.47884 1335.02 6.46112 1335.15 6.51429C1335.68 6.69153 1336.18 7.09918 1336.65 7.75496C1337.65 8.94245 1338.1 10.6439 1338 12.8948C1337.87 14.5432 1338.3 15.2344 1339.3 14.9331C1339.97 14.7027 1340.63 14.49 1341.3 14.3127C1342.6 13.9583 1343.75 13.1075 1344.75 11.7428C1344.78 13.2139 1344.82 14.7027 1344.85 16.1737C1344.85 17.6448 1345.03 18.9209 1345.4 19.9843C1345.57 20.392 1345.9 20.5515 1346.4 20.4274C1347.5 20.1261 1348.65 19.9843 1349.85 19.9843C1350.02 19.9843 1350.2 20.1261 1350.4 20.4274C1349.93 16.7586 1350.75 15.0749 1352.85 15.3762C1353.32 15.4293 1353.77 15.1989 1354.2 14.6672C1355.43 13.4797 1356.8 13.0366 1358.3 13.3379C1359 13.462 1359.72 13.781 1360.45 14.3127C1360.88 14.614 1361.35 14.7558 1361.85 14.7558C1365.22 14.809 1368.4 14.1887 1371.4 12.8948C1372.03 12.6644 1372.65 12.3631 1373.25 12.0087C1373.82 11.7074 1374.35 11.2997 1374.85 10.768C1375.42 10.1122 1376.05 9.66912 1376.75 9.43871C1377.12 9.31465 1377.47 9.08424 1377.8 8.72976C1377.8 9.31465 1377.8 9.91725 1377.8 10.5021C1377.83 11.6896 1377.85 12.8594 1377.85 14.0469C1377.88 15.2344 1377.95 16.4041 1378.05 17.5916C1378.12 18.4778 1378.25 19.364 1378.45 20.2502C1380.05 20.4806 1381.02 19.045 1381.35 15.9079C1381.38 15.5002 1381.58 15.2344 1381.95 15.1103C1382.82 14.7558 1383.47 15.518 1383.9 17.4144C1384.27 19.0095 1384.93 19.8426 1385.9 19.8957C1386.47 19.9489 1387 20.2502 1387.5 20.7819C1388.33 21.8453 1389.22 22.9974 1390.15 24.238C1390.32 24.4685 1390.48 24.7166 1390.65 24.947C1391.92 26.6662 1393.4 27.3397 1395.1 26.9852C1396.1 26.7548 1397.1 26.6308 1398.1 26.6308C1397.73 25.4433 1397.38 24.5571 1397.05 23.9722C1396.88 23.6709 1396.75 23.3519 1396.65 22.9974C1396.38 22.2353 1396.18 21.4023 1396.05 20.5161C1396.02 20.2148 1396 19.9312 1396 19.6299C1396.33 19.5767 1396.67 19.5413 1397 19.5413C1397.33 19.5413 1397.67 19.5413 1398 19.5413C1398.83 19.4881 1399.65 19.3286 1400.45 19.0982C1401.42 18.7969 1402.05 19.045 1402.35 19.8071C1402.45 20.1084 1402.63 20.1261 1402.9 19.8957C1402.63 18.9564 1402.42 18.1234 1402.25 17.4144C1404.18 17.0599 1405.68 17.8043 1406.75 19.6299C1406.58 19.045 1406.5 18.6019 1406.5 18.3006C1407 19.1868 1407.53 19.9843 1408.1 20.6933C1408.7 21.4554 1409.13 22.4125 1409.4 23.5291C1409.47 23.8304 1409.52 24.114 1409.55 24.4153C1409.92 24.238 1410.13 23.9367 1410.2 23.5291C1410.3 22.9974 1410.15 22.2884 1409.75 21.4023C1409.58 21.0478 1409.5 20.5692 1409.5 19.9843V19.0982C1411 19.3286 1412.42 20.1084 1413.75 21.4023C1414.38 21.9871 1414.95 22.6075 1415.45 23.2632C1415.85 23.795 1416.23 24.3798 1416.6 25.0356C1417.23 25.975 1417.87 26.9852 1418.5 28.0487C1418.4 27.8714 1418.33 27.6942 1418.3 27.5169C1418.23 26.6839 1418.17 26.1877 1418.1 26.0104C1418.17 25.8864 1418.27 25.6914 1418.4 25.3901C1418.57 25.0888 1418.75 25.0888 1418.95 25.3901C1419.62 26.2231 1420.22 27.2156 1420.75 28.4031C1420.82 28.5272 1420.87 28.6335 1420.9 28.7576C1421 28.9348 1421.1 29.1121 1421.2 29.2893C1421.7 28.988 1422.02 28.669 1422.15 28.3145C1422.18 28.2613 1422.2 28.1904 1422.2 28.1373C1422.4 27.6056 1422.58 27.1093 1422.75 26.6308C1422.88 26.2763 1422.98 25.9218 1423.05 25.5673C1423.88 25.3901 1424.37 25.9218 1424.5 27.1625C1424.53 27.5169 1424.53 27.9246 1424.5 28.4031C1424.47 28.9348 1424.58 29.2893 1424.85 29.4666C1425.28 29.821 1425.72 29.8742 1426.15 29.6438C1426.35 29.5906 1426.48 29.3779 1426.55 29.0235C1426.72 28.0132 1427.27 27.7296 1428.2 28.1373C1428.93 28.4918 1429.27 28.1904 1429.2 27.2511C1429.17 26.7725 1429.13 26.2763 1429.1 25.7446C1429 24.8052 1428.93 23.8304 1428.9 22.8202C1428.8 20.2148 1428.75 17.5562 1428.75 14.8445C1428.78 13.9583 1428.83 13.0721 1428.9 12.1859C1429 11.2465 1429.13 10.4135 1429.3 9.70457C1429.43 9.22603 1429.67 8.907 1430 8.72976C1430.3 8.6057 1430.62 8.55252 1430.95 8.55252C1430.78 12.1504 1431.32 15.1635 1432.55 17.5916C1432.75 17.9993 1433.08 18.0879 1433.55 17.8575C1434.72 17.2017 1435.58 15.8193 1436.15 13.6924C1436.52 12.2745 1436.87 10.8212 1437.2 9.3501C1437.6 9.47416 1437.97 9.29692 1438.3 8.81838C1438.53 8.33984 1438.77 7.89675 1439 7.4891C1438.93 8.02081 1438.92 8.55253 1438.95 9.08424C1438.95 9.13741 1438.95 9.22603 1438.95 9.3501C1438.75 9.70457 1438.53 10.0236 1438.3 10.3249C1437.43 11.2643 1437.18 12.948 1437.55 15.3762C1437.55 14.7913 1437.63 14.3659 1437.8 14.1355C1438.47 13.0189 1438.85 11.4238 1438.95 9.3501C1439.15 8.99562 1439.3 8.58797 1439.4 8.10943C1440.5 4.51151 1441.82 1.5162 1443.35 -0.841064C1444.05 0.346427 1444.2 2.38466 1443.8 5.27363C1443.57 6.8156 1443.37 8.33984 1443.2 9.88181C1442.9 12.5935 1442.47 15.1989 1441.9 17.6803C1441.73 18.336 1441.48 18.9564 1441.15 19.5413C1443.38 15.7661 1445.88 12.629 1448.65 10.1477C1449.38 9.49188 1450.17 8.99562 1451 8.64115C1451.17 8.58797 1451.33 8.51708 1451.5 8.46391C1451.1 9.29692 1450.73 10.2008 1450.4 11.2111C1449.37 14.7558 1448.48 18.3892 1447.75 22.1112C1447.62 22.8733 1447.48 23.6532 1447.35 24.4153C1447.25 25.2483 1447.13 26.099 1447 26.9852C1446.4 28.988 1446.17 31.2035 1446.3 33.6316C1446.47 31.3807 1446.7 29.1653 1447 26.9852C1447.3 26.0459 1447.65 25.1597 1448.05 24.3267C1448.12 24.2026 1448.18 24.0963 1448.25 23.9722C1448.65 23.2632 1449.07 22.6075 1449.5 22.0226C1451 19.7717 1452.73 18.0702 1454.7 16.8827C1454.6 17.2903 1454.52 17.7334 1454.45 18.212C1454.25 19.4526 1454.05 20.6579 1453.85 21.8453C1453.68 22.6075 1453.52 23.3519 1453.35 24.0608C1452.88 26.0104 1452.35 27.96 1451.75 29.9097C1452.25 29.6083 1452.72 29.2007 1453.15 28.669C1454.62 26.9498 1456.1 25.3369 1457.6 23.795C1458.37 23.086 1459.12 22.3416 1459.85 21.5795C1460.82 20.7465 1461.75 19.8957 1462.65 19.0095C1463.55 18.2474 1464.5 17.4144 1465.5 16.5282C1465.9 16.2269 1466.27 15.8193 1466.6 15.2876C1466.9 14.8799 1467.22 14.5254 1467.55 14.2241C1467.38 15.1103 1467.2 15.9611 1467 16.7941C1466.53 18.3892 1466.05 19.9312 1465.55 21.4023C1465.32 22.1112 1465.07 22.7847 1464.8 23.4405C1464.73 23.6177 1464.67 23.795 1464.6 23.9722C1464.5 24.3798 1464.37 24.8052 1464.2 25.2129C1463.87 26.0459 1463.53 26.8612 1463.2 27.6942C1464.53 27.2156 1465.73 26.0459 1466.8 24.1494C1466.93 23.8481 1467.1 23.5823 1467.3 23.3519C1467.57 22.9442 1467.85 22.5897 1468.15 22.2884C1468.52 21.934 1468.87 21.6149 1469.2 21.3136C1469.23 21.3136 1469.27 21.2782 1469.3 21.225C1470.07 20.6933 1470.52 19.8426 1470.65 18.6551C1470.75 19.1336 1470.97 19.4526 1471.3 19.6299C1471.9 20.0375 1472.53 20.3034 1473.2 20.4274C1474.4 20.6047 1475.47 20.1084 1476.4 18.9209C1476.73 18.5133 1477.15 18.3006 1477.65 18.3006C1478.32 18.2474 1478.98 18.212 1479.65 18.212C1478.65 18.8678 1477.85 19.5058 1477.25 20.1616C1477.05 20.392 1476.87 20.6579 1476.7 20.9592C1476.73 21.4377 1476.87 21.7922 1477.1 22.0226C1477.37 22.253 1477.73 22.4125 1478.2 22.4657C1480.07 22.4657 1481.92 22.5011 1483.75 22.5543C1485.25 22.6075 1486.73 22.6784 1488.2 22.7315C1488.37 22.7315 1488.55 22.8733 1488.75 23.1746C1488.58 23.7595 1488.43 24.114 1488.3 24.238C1487.93 24.4153 1487.6 24.7343 1487.3 25.2129C1486.93 25.6914 1486.58 26.2231 1486.25 26.808C1486.08 27.1093 1485.93 27.3929 1485.8 27.6942C1486.73 28.0487 1487.57 27.7474 1488.3 26.808C1489.37 25.5142 1490.5 24.6457 1491.7 24.238C1492.23 24.0076 1492.78 23.7418 1493.35 23.4405C1493.78 23.1392 1494.25 22.9619 1494.75 22.9088C1495.42 22.9088 1496.1 22.9088 1496.8 22.9088C1496.63 23.795 1496.45 24.2912 1496.25 24.4153C1495.92 24.5925 1495.62 24.8052 1495.35 25.0356C1494.95 25.3901 1494.57 25.8332 1494.2 26.3649C1493.9 26.7725 1493.6 27.127 1493.3 27.4283C1493.63 27.4283 1493.97 27.4283 1494.3 27.4283C1494.97 27.3752 1495.65 27.3397 1496.35 27.3397C1497.35 27.2865 1498.35 27.2511 1499.35 27.2511C1499.52 27.1979 1499.68 27.1625 1499.85 27.1625C1499.85 27.4638 1499.85 27.7474 1499.85 28.0487C1499.85 28.35 1499.85 28.6335 1499.85 28.9348C1499.55 30.4768 1499.17 31.4693 1498.7 31.9479C1498.33 32.3555 1497.9 32.5682 1497.4 32.5682C1497.53 34.3938 1498.38 35.085 1499.95 34.6064C1500.92 34.376 1501.9 34.2874 1502.9 34.3406C1506.33 34.6419 1509.53 33.4012 1512.5 30.6186C1512.73 30.3882 1513.02 30.2641 1513.35 30.2641C1514.42 30.0869 1514.77 31.2389 1514.4 33.7203C1514.3 34.3051 1514.2 34.9077 1514.1 35.4926C1514 35.7939 1513.92 36.0598 1513.85 36.2902C1513.82 36.4143 1513.78 36.5206 1513.75 36.6447C1514.05 36.6447 1514.33 36.6447 1514.6 36.6447C1515.2 34.8191 1515.82 33.0113 1516.45 31.2389C1518.35 25.7977 1519.33 19.9489 1519.4 13.6924C1519.4 13.2139 1519.47 12.7531 1519.6 12.2745C1521.23 16.0497 1521.95 20.3034 1521.75 25.0356C1521.65 27.3929 1521.52 29.7324 1521.35 32.0365C1521.18 33.9329 1521.53 35.3686 1522.4 36.3788C1522.67 35.9003 1522.9 35.404 1523.1 34.8723C1525.57 27.2511 1526.67 19.0095 1526.4 10.1477C1526.63 11.0338 1526.85 11.9555 1527.05 12.8948C1526.98 14.6141 1527.27 16.5637 1527.9 18.7437C1528.2 19.7539 1528.43 20.7465 1528.6 21.7567C1528.27 18.7437 1527.75 15.7838 1527.05 12.8948C1527.12 11.8846 1527.3 10.9807 1527.6 10.1477C1527.73 10.6262 1527.9 11.0693 1528.1 11.4769C1528.57 12.4872 1528.98 13.5506 1529.35 14.6672C1530.78 19.2222 1532.6 23.3873 1534.8 27.1625C1534.8 25.266 1534.8 23.3873 1534.8 21.4909C1534.8 19.1336 1534.8 16.7586 1534.8 14.4014C1535.73 17.7157 1536.8 21.0123 1538 24.3267C1538.53 25.7446 1538.98 27.2156 1539.35 28.7576C1539.88 31.0085 1540.63 32.6037 1541.6 33.543C1541.6 33.3126 1541.6 33.0645 1541.6 32.8341C1541.6 32.1251 1541.6 31.4162 1541.6 30.7072C1541.6 29.7679 1541.65 28.8108 1541.75 27.8714C1541.78 27.3929 1541.87 26.9321 1542 26.4535C1542 26.9321 1542.07 27.3397 1542.2 27.6942C1542.47 28.5272 1542.82 29.2539 1543.25 29.9097C1543.48 30.211 1543.82 30.4059 1544.25 30.53C1544.82 28.988 1545 27.1625 1544.8 25.0356C1544.57 22.7315 1544.7 21.0832 1545.2 20.073C1545.43 20.9592 1545.55 21.8985 1545.55 22.9088C1545.58 24.5571 1545.6 26.2231 1545.6 27.8714C1545.6 28.35 1545.6 28.8108 1545.6 29.2893C1545.87 28.5804 1546.07 27.836 1546.2 27.0738C1546.5 25.4787 1546.98 24.114 1547.65 22.9974C1548.02 22.4657 1548.4 21.9694 1548.8 21.4909C1548.8 22.1998 1548.8 22.9088 1548.8 23.6177C1548.8 25.5142 1548.85 27.3929 1548.95 29.2893C1548.98 29.9983 1549.07 30.7072 1549.2 31.4162C1549.33 30.9376 1549.43 30.4768 1549.5 29.9983C1549.77 27.9955 1550.32 25.8332 1551.15 23.5291C1551.32 23.1215 1551.47 22.6784 1551.6 22.1998C1552 23.6177 1552.27 25.0711 1552.4 26.5421C1552.67 29.9096 1552.8 33.2772 1552.8 36.6447C1552.83 36.6447 1552.87 36.6447 1552.9 36.6447C1553 36.3434 1553.1 36.0243 1553.2 35.6699C1554.77 30.2287 1556.23 25.266 1557.6 20.7819C1557.93 21.8453 1558.23 22.9974 1558.5 24.238C1558.83 25.7091 1559.1 27.1979 1559.3 28.669C1559.5 30.3173 1559.6 30.7604 1559.6 29.9983C1559.6 29.2893 1559.67 28.7222 1559.8 28.3145C1560.5 29.7856 1561.2 31.558 1561.9 33.6316C1562.27 34.6951 1562.65 35.7053 1563.05 36.6447C1564.12 36.6447 1565.17 36.6447 1566.2 36.6447C1566.33 36.6447 1566.47 36.6447 1566.6 36.6447C1566.57 35.6344 1566.55 34.6064 1566.55 33.543C1566.55 33.2417 1566.53 32.9581 1566.5 32.6568C1566.5 30.5832 1566.48 28.5272 1566.45 26.4535C1566.42 23.4937 1566.45 20.5515 1566.55 17.5916C1566.58 17.0068 1566.67 16.4041 1566.8 15.8193C1567.33 16.0497 1567.8 16.4396 1568.2 16.9713C1568.33 17.1485 1568.47 17.3258 1568.6 17.503C1569.17 18.336 1569.73 19.24 1570.3 20.2502C1570.53 20.7287 1570.77 21.0123 1571 21.1364C1571.43 21.3136 1571.9 21.2782 1572.4 21.0478C1573.27 20.6933 1573.73 19.4526 1573.8 17.3258C1573.83 17.0245 1573.85 16.7409 1573.85 16.4396C1574.02 16.7409 1574.17 17.0068 1574.3 17.2372C1574.63 17.8929 1574.92 18.531 1575.15 19.1868C1576.12 21.7213 1577.02 24.3267 1577.85 26.9852C1578.15 27.8182 1578.38 28.669 1578.55 29.5552C1578.72 30.3882 1578.97 30.9199 1579.3 31.1503C1579.5 31.3276 1579.75 31.363 1580.05 31.2389C1580.15 31.0085 1580.25 30.7604 1580.35 30.53C1580.72 29.6438 1581.02 28.7931 1581.25 27.96C1581.58 26.8434 1581.9 25.7446 1582.2 24.6811C1582.37 23.9722 1582.5 23.2101 1582.6 22.3771C1582.67 21.7213 1582.78 21.1009 1582.95 20.5161C1582.95 20.8174 1582.95 21.1009 1582.95 21.4023C1582.95 21.9871 1582.95 22.5897 1582.95 23.1746C1582.98 23.7595 1583 24.3621 1583 24.947C1583 25.2483 1583 25.5319 1583 25.8332C1583.33 25.2483 1583.65 24.628 1583.95 23.9722C1584.65 22.5011 1585.35 21.0832 1586.05 19.7185C1586.68 18.4247 1587.35 17.4498 1588.05 16.7941C1588.65 16.2092 1589.27 15.8724 1589.9 15.8193C1589.9 16.1206 1589.88 16.4041 1589.85 16.7055C1589.72 17.2903 1589.57 17.8929 1589.4 18.4778C1589.1 19.6653 1588.82 20.8705 1588.55 22.1112C1588.45 22.5897 1588.37 23.0506 1588.3 23.5291C1588.2 24.238 1588.1 24.947 1588 25.6559C1588.17 25.3546 1588.28 25.0356 1588.35 24.6811C1588.42 24.2735 1588.48 23.795 1588.55 23.2632C1588.55 23.2101 1588.57 23.1215 1588.6 22.9974C1588.67 22.6429 1588.65 22.3416 1588.55 22.1112C1589.15 21.7567 1589.58 21.3668 1589.85 20.9592C1590.25 20.197 1590.62 19.6299 1590.95 19.2754C1590.72 20.392 1590.52 21.4554 1590.35 22.4657C1590.25 22.8201 1590.18 23.2101 1590.15 23.6177C1589.88 24.9116 1589.58 26.2231 1589.25 27.5169C1589.12 28.2082 1589.05 28.9171 1589.05 29.6438C1589.06 29.2716 1589.14 28.9526 1589.3 28.669C1589.93 27.4815 1590.68 26.5067 1591.55 25.7446C1592.18 25.266 1592.8 24.7343 1593.4 24.1494C1593.8 23.795 1594.1 23.2632 1594.3 22.5543C1594.5 21.9694 1594.88 21.4022 1595.45 20.8705C1595.45 21.1718 1595.45 21.4554 1595.45 21.7567C1595.45 22.6429 1595.4 23.5291 1595.3 24.4153C1595.1 25.6559 1594.83 26.8434 1594.5 27.96C1594.83 27.4283 1595.17 26.8434 1595.5 26.1877C1596 25.3015 1596.53 24.5039 1597.1 23.795C1597.5 23.3164 1597.95 22.9442 1598.45 22.6429C1598.62 22.5897 1598.78 22.5543 1598.95 22.5543C1598.82 23.4405 1598.62 24.2735 1598.35 25.0356C1597.82 26.6839 1597.28 28.3145 1596.75 29.9097C1596.32 31.2744 1595.9 32.6923 1595.5 34.1633C1595.27 34.9964 1595.02 35.8117 1594.75 36.6447C1595.18 35.5813 1595.6 34.6951 1596 33.9861C1596.23 32.9227 1596.45 32.1251 1596.65 31.5934C1596.75 31.2389 1596.9 30.9731 1597.1 30.7958C1597.4 31.9833 1597.9 32.5328 1598.6 32.4796C1600.6 32.3555 1602.27 30.7958 1603.6 27.7828C1603.87 27.127 1604.1 26.4535 1604.3 25.7446C1604.43 25.266 1604.5 24.7343 1604.5 24.1494C1604.67 24.4507 1604.82 24.7343 1604.95 25.0356C1605.15 25.5673 1605.33 26.1522 1605.5 26.808C1605.57 27.9246 1605.63 28.7576 1605.7 29.2893C1605.8 29.9451 1605.93 30.5654 1606.1 31.1503C1606.3 31.7352 1606.48 32.3378 1606.65 32.9227C1607.12 31.0971 1607.57 29.5552 1608 28.3145C1608.37 27.1979 1608.77 26.099 1609.2 25.0356C1609.7 23.7418 1610.13 22.4657 1610.5 21.225C1611 21.5263 1611.32 21.8453 1611.45 22.1998C1611.68 22.7315 1611.85 23.2987 1611.95 23.8836C1612.02 24.4153 1612.05 24.9824 1612.05 25.5673C1612.05 25.8686 1612.05 26.1522 1612.05 26.4535C1612.08 27.0384 1612.1 27.641 1612.1 28.2259C1612.1 28.5272 1612.1 28.8108 1612.1 29.1121C1612.27 28.8108 1612.45 28.5804 1612.65 28.4031C1612.95 27.9955 1613.1 27.641 1613.1 27.3397C1613.07 26.7548 1613.05 26.1522 1613.05 25.5673C1613.05 25.266 1613.05 24.9824 1613.05 24.6811C1613.38 24.6811 1613.7 24.7698 1614 24.947C1614.2 25.0002 1614.37 25.2129 1614.5 25.5673C1614.93 26.6839 1615.37 27.7828 1615.8 28.8462C1616.03 28.3677 1616.15 27.836 1616.15 27.2511C1616.15 26.9498 1616.13 26.6662 1616.1 26.3649C1616.3 26.9498 1616.48 27.3752 1616.65 27.6056C1616.62 26.7194 1616.6 26.1345 1616.6 25.8332C1616.77 26.1345 1616.93 26.2763 1617.1 26.2763C1617.27 26.2763 1617.43 26.2763 1617.6 26.2763C1618.13 26.5776 1618.5 26.808 1618.7 26.9852C1619.33 27.641 1619.85 28.0841 1620.25 28.3145C1620.52 27.7828 1620.65 27.3752 1620.65 27.0738C1620.65 26.7725 1620.63 26.489 1620.6 26.1877V25.3015C1620.93 25.3015 1621.23 25.6028 1621.5 26.1877C1621.77 26.7194 1621.98 26.9852 1622.15 26.9852L1622.1 26.099C1622.3 26.4003 1622.48 26.5421 1622.65 26.5421C1622.62 25.9573 1622.6 25.5142 1622.6 25.2129C1622.93 24.628 1623.2 24.4685 1623.4 24.7698C1623.87 25.3015 1624.33 25.9218 1624.8 26.6308C1625.33 27.4638 1625.7 28.2791 1625.9 29.1121C1626.06 28.1727 1626.15 27.4638 1626.15 26.9852C1626.15 27.1802 1626.19 27.4106 1626.25 27.6942C1626.35 28.2791 1626.48 28.7222 1626.65 29.0235C1626.38 27.127 1626.53 26.1522 1627.1 26.099C1628.5 25.9218 1629.58 26.9498 1630.35 29.2007C1631.55 29.8565 1632.18 29.8742 1632.25 29.2893C1632.48 26.1522 1633.62 24.628 1635.65 24.6811C1635.72 26.1522 1635.68 27.641 1635.55 29.1121C1635.42 31.7175 1636.12 32.4441 1637.65 31.3276C1638.55 30.6718 1639.37 29.7856 1640.1 28.669C1641 27.3752 1641.88 26.0104 1642.75 24.5925C1643.02 24.1849 1643.32 23.8304 1643.65 23.5291C1642.85 25.0002 1642.18 26.489 1641.65 27.96C1641.18 29.2007 1640.68 30.3527 1640.15 31.4162C1639.88 31.8947 1639.58 32.2669 1639.25 32.5682C1639.75 32.5682 1640.23 32.4264 1640.7 32.1251C1641.23 31.7706 1641.75 31.2921 1642.25 30.7072C1643.05 29.7679 1643.85 28.8108 1644.65 27.8714C1645.28 27.1093 1645.97 26.808 1646.7 26.9852C1646.37 27.2865 1646.17 27.5524 1646.1 27.7828C1646 28.1373 1645.87 28.4563 1645.7 28.7576C1645.53 29.0589 1645.42 29.3779 1645.35 29.7324C1645.28 30.5654 1645.25 31.1149 1645.25 31.4162C1645.42 30.8313 1645.57 30.4768 1645.7 30.3527C1645.9 30.1755 1646.1 29.9628 1646.3 29.7324C1646.73 29.0766 1647.22 28.4917 1647.75 27.96C1647.88 29.0235 1647.78 30.0337 1647.45 30.9731C1646.98 32.1606 1646.5 33.3126 1646 34.4292C1645.7 35.085 1645.47 35.8117 1645.3 36.6447C1645.6 36.6447 1645.9 36.6447 1646.2 36.6447C1647.23 36.6447 1648.28 36.6447 1649.35 36.6447C1650.95 36.6447 1652.55 36.6447 1654.15 36.6447C1654.25 36.6447 1654.35 36.6447 1654.45 36.6447C1654.98 36.6447 1655.53 36.6447 1656.1 36.6447C1656.17 36.6447 1656.25 36.6447 1656.35 36.6447L1656.4 36.5561C1656.67 36.0775 1656.92 35.6167 1657.15 35.1382C1658.22 32.7809 1659.35 31.0085 1660.55 29.821C1660.72 29.6438 1660.93 29.7679 1661.2 30.1755C1661.43 30.5832 1661.63 31.0971 1661.8 31.682C1661.8 30.4945 1661.78 29.3248 1661.75 28.1373C1661.75 26.9498 1661.83 26.3117 1662 26.1877C1662.8 25.7091 1663.63 25.9218 1664.5 26.808C1665.3 27.641 1665.98 28.7044 1666.55 29.9983C1667.12 31.363 1667.88 32.3378 1668.85 32.9227C1669.15 33.0999 1669.47 33.1885 1669.8 33.1885C1669.77 32.0011 1669.65 30.8845 1669.45 29.821C1669.28 29.1121 1669.1 28.4031 1668.9 27.6942C1668.77 27.2156 1668.7 26.6839 1668.7 26.099C1668.7 25.7977 1668.7 25.5142 1668.7 25.2129C1668.87 25.5142 1669.03 25.7977 1669.2 26.099C1669.17 24.9116 1669.03 23.7063 1668.8 22.4657C1668.7 21.934 1668.65 21.3668 1668.65 20.7819C1668.78 20.4806 1668.95 20.4629 1669.15 20.6933C1669.82 21.6327 1670.45 22.6075 1671.05 23.6177C1671.65 24.628 1672.17 25.7446 1672.6 26.9852C1672.67 26.9321 1672.7 26.5953 1672.7 26.0104C1672.7 25.4255 1672.62 24.8938 1672.45 24.4153C1672.25 23.7063 1672.15 23.0506 1672.15 22.4657C1672.48 22.4657 1672.8 22.5188 1673.1 22.6429C1673.3 22.767 1673.48 22.9619 1673.65 23.2632C1673.82 23.5645 1673.95 23.8836 1674.05 24.238C1674.62 23.8836 1675.17 23.2987 1675.7 22.4657C1676 22.058 1676.3 21.6681 1676.6 21.3136C1677.3 21.6149 1677.77 22.2353 1678 23.1746C1678.1 23.7063 1678.23 24.2026 1678.4 24.6811C1678.77 26.1522 1679.05 27.6942 1679.25 29.2893C1679.75 28.9348 1680.03 28.5804 1680.1 28.2259C1680.33 27.3929 1680.55 26.8966 1680.75 26.7194C1681.38 26.5953 1681.83 26.6662 1682.1 26.8966C1682.5 27.1979 1682.87 27.641 1683.2 28.2259C1683.7 26.2763 1684.28 24.2912 1684.95 22.2884C1685.25 21.4554 1685.63 20.7287 1686.1 20.073C1686.63 19.1868 1687.33 19.4881 1688.2 20.9592C1688.37 21.2605 1688.5 21.5795 1688.6 21.934C1689.4 24.2912 1690.63 25.1774 1692.3 24.5925C1692.93 24.4153 1693.58 24.2912 1694.25 24.238C1695.92 24.1849 1697.6 24.114 1699.3 24.0608C1700.53 22.9442 1701.82 21.8985 1703.15 20.9592C1704.18 20.2502 1705.15 19.364 1706.05 18.3006C1706.52 17.7689 1707.23 17.2726 1708.2 16.7941C1708.5 16.67 1708.8 16.5282 1709.1 16.351C1709.97 16.7586 1710.67 17.379 1711.2 18.212C1712.77 20.6933 1714.52 22.9088 1716.45 24.8584C1716.68 25.0888 1716.97 25.1774 1717.3 25.1242C1717.87 24.3621 1718.18 22.9088 1718.25 20.7819C1718.25 20.7287 1718.42 20.6933 1718.75 20.6933C1720.72 20.5692 1722.7 20.197 1724.7 19.5413C1724.73 19.5413 1724.75 19.24 1724.75 18.6551C1724.75 15.8724 1725.17 13.5152 1726 11.5656C1726.17 11.2111 1726.35 10.8212 1726.55 10.4135C1726.75 9.93498 1727.1 9.74002 1727.6 9.79319C1728.67 9.91726 1729.65 10.449 1730.55 11.3883C1731.25 12.0973 1731.92 13.0721 1732.55 14.3127C1732.98 15.2521 1733.52 16.0497 1734.15 16.7055C1734.85 17.4676 1735.58 17.9461 1736.35 18.1234C1736.62 18.1765 1736.88 17.8929 1737.15 17.2372C1737.55 16.4041 1737.95 15.8547 1738.35 15.5534C1739.08 15.1989 1739.85 15.2521 1740.65 15.7306C1741.18 16.0851 1741.68 16.5814 1742.15 17.2372C1743.38 18.9564 1744.77 19.7539 1746.3 19.6299C1746.3 19.3286 1746.3 19.045 1746.3 18.7437C1746.3 18.4424 1746.3 18.1588 1746.3 17.8575C1746.27 17.2726 1746.25 16.67 1746.25 16.0851C1746.25 15.7838 1746.25 15.5002 1746.25 15.1989C1748.18 16.0851 1750.1 17.2726 1752 18.7437C1752.53 19.1513 1753.07 19.1336 1753.6 18.6551C1753.73 18.531 1753.88 18.336 1754.05 18.0347C1754.35 17.4499 1754.75 17.1131 1755.25 17.0599C1755.42 17.0599 1755.58 17.2372 1755.75 17.5916C1756.38 19.0627 1757.12 20.2148 1757.95 21.0478C1758.32 21.4022 1758.68 21.7036 1759.05 21.934C1759.42 22.1112 1759.77 21.8985 1760.1 21.3136C1760.23 21.0123 1760.37 20.7287 1760.5 20.4274C1760.83 19.7717 1761.12 19.0627 1761.35 18.3006C1761.62 17.2903 1761.92 16.351 1762.25 15.4648C1762.42 16.351 1762.65 17.2017 1762.95 18.0347C1763.12 18.5664 1763.25 19.1336 1763.35 19.7185C1763.82 21.7213 1763.97 23.8481 1763.8 26.099C1763.63 27.5701 1763.85 28.7222 1764.45 29.5552C1764.78 29.5552 1765.07 29.4311 1765.3 29.2007C1765.7 28.8462 1766.02 28.3145 1766.25 27.6056C1766.52 26.7725 1766.77 25.9573 1767 25.1242C1767.07 24.7698 1767.17 24.4153 1767.3 24.0608C1767.5 23.5291 1767.68 22.9619 1767.85 22.3771C1768.35 23.2632 1768.72 24.0963 1768.95 24.8584C1769.45 26.5067 1769.93 28.0487 1770.4 29.4666C1770.63 30.2996 1770.92 30.9731 1771.25 31.5048C1771.42 31.8061 1771.67 31.9479 1772 31.9479C1772.17 31.363 1772.37 30.7958 1772.6 30.2641C1772.87 29.6084 1773.08 28.9348 1773.25 28.2259C1773.38 27.7474 1773.53 27.2865 1773.7 26.808C1773.87 26.3295 1774.08 26.1522 1774.35 26.2763C1774.75 26.4535 1775.13 26.808 1775.5 27.3397C1776.5 28.5804 1777.17 30.0514 1777.5 31.7706C1778 31.4162 1778.3 31.0617 1778.4 30.7072C1778.47 29.8742 1778.52 29.3248 1778.55 29.0235C1778.78 27.6056 1778.9 26.1345 1778.9 24.5925C1779.07 24.5925 1779.23 24.5925 1779.4 24.5925C1779.57 24.5925 1779.73 24.5925 1779.9 24.5925C1780.43 25.1242 1780.83 25.6205 1781.1 26.099C1781.5 25.6205 1781.77 25.0888 1781.9 24.5039C1782.07 23.919 1782.27 23.5823 1782.5 23.5291C1783.1 23.2278 1783.65 23.4405 1784.15 24.1494C1784.52 24.628 1784.78 25.3015 1784.95 26.1877C1784.95 26.489 1784.95 26.7725 1784.95 27.0738C1785.12 27.6056 1785.28 27.8714 1785.45 27.8714C1785.78 27.5701 1785.95 27.2865 1785.95 26.9852C1785.95 26.6839 1785.95 26.4003 1785.95 26.099C1785.95 25.5142 1785.93 24.9116 1785.9 24.3267C1785.9 24.0254 1785.9 23.7418 1785.9 23.4405C1786.57 24.0254 1787.08 24.628 1787.45 25.2129C1787.62 25.4433 1787.75 25.7446 1787.85 26.099C1787.92 26.9321 1787.95 27.4815 1787.95 27.7828C1788.28 27.4815 1788.45 27.1979 1788.45 26.8966C1788.45 26.3117 1788.5 25.7446 1788.6 25.2129C1788.67 24.8584 1788.72 24.5039 1788.75 24.1494C1788.85 23.6177 1788.9 23.0506 1788.9 22.4657C1789.4 23.0506 1789.75 23.6177 1789.95 24.1494C1790.28 25.0356 1790.58 25.9573 1790.85 26.8966C1791.08 27.7296 1791.35 28.5272 1791.65 29.2893C1792.05 29.4134 1792.27 29.3779 1792.3 29.2007C1792.43 28.7222 1792.48 28.1904 1792.45 27.6056C1792.45 27.0207 1792.45 26.4181 1792.45 25.8332C1792.45 25.5319 1792.45 25.2483 1792.45 24.947C1792.42 24.3621 1792.4 23.7595 1792.4 23.1746C1793.3 24.3621 1793.97 25.8332 1794.4 27.6056C1794.63 28.4386 1794.92 29.0589 1795.25 29.4666C1795.42 29.6438 1795.65 29.5552 1795.95 29.2007C1796.55 28.4917 1796.7 27.0384 1796.4 24.8584C1796.2 23.3164 1796.55 22.6961 1797.45 22.9974C1797.61 23.281 1797.76 23.5823 1797.9 23.8836C1797.76 23.5645 1797.63 22.9619 1797.5 22.1112C1797.13 19.5058 1797.27 17.7334 1797.9 16.7941C1799.63 16.7409 1801.1 17.9993 1802.3 20.6047C1803.07 22.3771 1803.93 24.0608 1804.9 25.6559C1805.47 26.6662 1806.03 27.6942 1806.6 28.7576C1806.9 29.4134 1807.22 30.0337 1807.55 30.6186C1807.55 30.3173 1807.53 30.0337 1807.5 29.7324C1807.37 28.5449 1807.23 27.3752 1807.1 26.1877C1807.03 25.6028 1806.97 25.0356 1806.9 24.5039C1807.13 24.7343 1807.33 24.8584 1807.5 24.8584C1807.47 23.9722 1807.45 23.2278 1807.45 22.6429C1807.48 21.7567 1807.48 20.8705 1807.45 19.9843C1807.45 19.683 1807.43 19.3995 1807.4 19.0982C1807.57 19.0982 1807.73 19.0982 1807.9 19.0982C1808.23 19.0982 1808.55 19.1868 1808.85 19.364C1809.08 20.3034 1809.28 21.0832 1809.45 21.6681C1809.45 21.3668 1809.45 21.0832 1809.45 20.7819C1809.45 20.4806 1809.45 20.197 1809.45 19.8957C1809.45 19.5944 1809.43 19.3108 1809.4 19.0095C1809.57 18.1234 1809.7 17.503 1809.8 17.1485C1810.03 16.6168 1810.17 16.4041 1810.2 16.5282C1810.33 17.0068 1810.48 17.4499 1810.65 17.8575C1810.85 18.2651 1811.08 18.7082 1811.35 19.1868C1811.62 19.8957 1811.83 20.392 1812 20.6933C1812 20.392 1812 20.1084 1812 19.8071C1812 19.5058 1811.98 19.2222 1811.95 18.9209C1811.95 18.6196 1811.95 18.336 1811.95 18.0347C1812.12 17.1485 1812.28 16.5637 1812.45 16.2624C1812.78 16.2624 1813.03 16.3864 1813.2 16.6168C1813.87 17.8043 1814.45 19.1336 1814.95 20.6047C1815.15 21.1896 1815.37 21.7213 1815.6 22.1998C1815.87 22.8556 1816.18 23.4759 1816.55 24.0608C1816.52 23.4759 1816.5 22.8733 1816.5 22.2884C1816.53 20.8174 1816.52 19.3286 1816.45 17.8575C1816.18 15.5534 1816.35 14.6672 1816.95 15.1989C1817.08 14.3127 1817.23 13.7279 1817.4 13.4266C1818.07 13.9583 1818.55 14.5432 1818.85 15.1989C1819.08 15.7306 1819.33 16.2269 1819.6 16.7055C1820 17.1131 1820.28 17.4498 1820.45 17.6803C1820.12 15.1458 1820.77 14.3659 1822.4 15.3762C1823.13 15.7838 1823.85 16.4928 1824.55 17.503C1825.48 18.7969 1826.35 18.9564 1827.15 17.9461C1827.38 17.5916 1827.67 17.3612 1828 17.2372C1829.77 16.5814 1831.32 17.0954 1832.65 18.7437C1833.22 19.4526 1833.83 19.9489 1834.5 20.2502C1834.87 19.8426 1835.23 19.4172 1835.6 19.0095C1838.13 15.8193 1840.93 14.1887 1844 14.1355C1845.03 14.1355 1846.03 14.2241 1847 14.4014C1847.33 14.4545 1847.67 14.6318 1848 14.9331C1850.63 17.184 1853.33 18.3892 1856.1 18.5664C1856.4 17.379 1856.6 16.351 1856.7 15.4648C1857.03 11.5656 1858.3 10.6439 1860.5 12.7176C1861.87 13.9583 1863.12 15.5889 1864.25 17.5916C1864.52 18.0702 1864.78 18.5133 1865.05 18.9209C1865.22 18.8678 1865.4 18.8323 1865.6 18.8323C1868.43 18.1234 1871.28 17.4676 1874.15 16.8827C1875.55 16.5282 1876.95 16.2269 1878.35 15.9965C1879.05 15.8193 1879.73 15.6775 1880.4 15.5534C1881.33 15.3762 1882.25 15.1989 1883.15 15.0217C1883.98 14.8445 1884.8 14.7027 1885.6 14.5786C1885.73 14.5254 1885.88 14.49 1886.05 14.49C1890.48 13.7279 1894.92 12.9835 1899.35 12.2745C1900.15 12.0973 1900.95 11.9555 1901.75 11.8314C1907.85 10.8921 1913.93 9.97043 1920 9.08424V50.292C1909.87 50.5224 1899.75 50.6996 1889.65 50.8237H1876.85C1875.85 50.8237 1874.85 50.8237 1873.85 50.8237C1873.18 50.8237 1872.5 50.8237 1871.8 50.8237L1865.2 50.9123C1854.97 50.7882 1844.75 50.6464 1834.55 50.4692C1827.05 50.292 1819.55 50.0793 1812.05 49.8489C1811.62 49.8489 1811.17 49.8489 1810.7 49.8489C1809.87 49.7957 1809.02 49.7603 1808.15 49.7603C1807.05 49.7071 1805.95 49.6362 1804.85 49.583C1802.48 49.5298 1800.12 49.4412 1797.75 49.3172C1796.98 49.3172 1796.25 49.3172 1795.55 49.3172C1795.38 49.264 1795.2 49.264 1795 49.3172C1788.5 49.3172 1782.25 50.292 1776.25 52.2416C1774.05 52.9505 1771.88 53.8013 1769.75 54.8115C1764.68 57.1688 1759.4 59.1007 1753.9 60.5718C1751.73 61.1566 1749.55 62.1137 1747.35 63.4076C1745.55 64.471 1743.63 65.0027 1741.6 65.0027C1733.3 64.9495 1725.27 65.7116 1717.5 67.3068C1713.53 68.1398 1709.67 69.3805 1705.9 71.0288C1704.33 71.7377 1702.75 72.8011 1701.15 74.219C1700.08 75.1584 1698.88 75.6369 1697.55 75.6369C1695.82 75.6369 1694.08 75.6901 1692.35 75.8142C1691.55 75.8674 1690.75 75.9382 1689.95 75.9914C1686.28 76.2218 1682.67 76.6649 1679.1 77.3207C1677.83 77.4979 1676.57 77.7106 1675.3 77.941C1670.6 78.8272 1665.95 80.0147 1661.35 81.4858C1658.72 82.3188 1656.07 82.7264 1653.4 82.7264C1639.2 82.7264 1625 82.7264 1610.8 82.7264C1606.17 82.7264 1601.55 82.7264 1596.95 82.7264H1596.8C1596.6 82.7264 1596.4 82.7264 1596.2 82.7264H1596C1594.4 82.7264 1592.8 82.7264 1591.2 82.7264C1589.73 82.7264 1588.25 82.7264 1586.75 82.7264C1584.28 82.7264 1581.8 82.7264 1579.3 82.7264C1577.27 82.7264 1575.23 82.7619 1573.2 82.8151C1569.8 82.8151 1566.38 82.8682 1562.95 82.9923C1556.38 83.1695 1549.78 83.4886 1543.15 83.9671C1538.95 84.2684 1534.75 84.6229 1530.55 85.0305C1530.05 85.0305 1529.55 85.066 1529.05 85.1192C1527.88 85.2432 1526.72 85.3496 1525.55 85.4736C1524.85 85.5268 1524.15 85.6154 1523.45 85.7395C1522.68 85.7927 1521.95 85.8636 1521.25 85.9167C1520.28 86.0408 1519.3 86.3953 1518.3 86.9802C1518.23 86.9802 1518.15 87.0333 1518.05 87.1574C1517.05 87.7423 1516.07 88.6107 1515.1 89.7273C1511.5 93.8038 1507.5 95.523 1503.1 94.8672C1495.73 93.857 1488.38 93.3607 1481.05 93.3607C1471.98 93.3607 1462.93 93.3962 1453.9 93.4493C1448.43 93.5025 1442.95 93.5734 1437.45 93.6266C1436.62 93.6266 1435.78 93.6266 1434.95 93.6266C1432.55 93.6797 1430.15 93.7152 1427.75 93.7152C1426.32 93.7152 1424.9 93.7506 1423.5 93.8038C1421.73 93.8038 1419.97 93.8392 1418.2 93.8924C1417.97 93.8924 1417.73 93.8924 1417.5 93.8924C1412.63 93.9456 1407.77 94.0342 1402.9 94.1583C1401.63 94.1583 1400.38 94.2823 1399.15 94.5127C1397.62 94.7432 1396.08 95.1685 1394.55 95.7534C1393.78 95.9838 1393.02 96.2851 1392.25 96.6396C1391.82 96.8168 1391.38 97.0295 1390.95 97.2599C1390.92 97.1359 1390.87 97.0295 1390.8 96.9055C1390.27 95.718 1389.68 94.69 1389.05 93.8038C1388.85 93.5025 1388.67 93.5025 1388.5 93.8038C1388.33 94.1051 1388.22 94.3001 1388.15 94.4241C1388.22 94.6014 1388.28 95.0976 1388.35 95.9306C1388.38 96.1079 1388.45 96.2851 1388.55 96.4624C1387.92 95.3989 1387.3 94.371 1386.7 93.3607C1385.83 91.8896 1384.9 90.649 1383.9 89.6387C1382.57 88.274 1381.15 87.4587 1379.65 87.1574V88.0436C1379.65 88.6285 1379.73 89.107 1379.9 89.4615C1380.57 91.0566 1380.48 92.0669 1379.65 92.4745C1379.48 91.0034 1379.02 89.7628 1378.25 88.7525C1377.68 87.9904 1377.15 87.1574 1376.65 86.2712C1376.65 86.5725 1376.73 87.0156 1376.9 87.6005C1375.87 85.704 1374.38 84.9065 1372.45 85.2078C1372.58 85.9167 1372.78 86.7497 1373.05 87.6891C1372.78 87.9195 1372.6 87.9018 1372.5 87.6005C1372.2 86.8384 1371.57 86.5725 1370.6 86.8029C1369.8 87.0333 1368.98 87.1574 1368.15 87.1574C1367.82 87.1574 1367.48 87.1574 1367.15 87.1574C1366.82 87.1574 1366.48 87.1574 1366.15 87.1574C1366.15 87.4587 1366.17 87.7423 1366.2 88.0436C1366.33 88.9298 1366.52 89.7805 1366.75 90.6135C1366.85 90.968 1366.98 91.287 1367.15 91.5883C1367.48 92.1732 1367.82 93.0594 1368.15 94.2469C1367.15 94.2469 1366.15 94.3355 1365.15 94.5127C1363.45 94.8141 1361.98 94.0697 1360.75 92.2973C1359.65 90.7021 1358.6 89.2842 1357.6 88.0436C1357.1 87.4587 1356.58 87.1219 1356.05 87.0688C1355.08 86.9447 1354.43 86.094 1354.1 84.4988C1353.7 82.6024 1353.05 81.8048 1352.15 82.1061C1351.78 82.2302 1351.58 82.496 1351.55 82.9037C1351.18 86.0408 1350.2 87.4587 1348.6 87.1574C1348.43 86.2712 1348.32 85.385 1348.25 84.4988C1348.15 83.3113 1348.1 82.1416 1348.1 80.9541C1348.1 79.7666 1348.1 78.5968 1348.1 77.4093C1348.1 76.8244 1348.1 76.2218 1348.1 75.6369C1347.77 75.9382 1347.42 76.1332 1347.05 76.2573C1346.38 76.4877 1345.77 76.8776 1345.2 77.4093L1345.15 77.4979C1344.62 78.0297 1344.07 78.4373 1343.5 78.7386C1342.9 79.0399 1342.28 79.3058 1341.65 79.5362C1338.65 80.7237 1335.47 81.2199 1332.1 81.0427C1331.57 80.9895 1331.08 80.8123 1330.65 80.511C1329.92 79.9793 1329.22 79.6248 1328.55 79.4476C1327.05 79.0931 1325.68 79.5007 1324.45 80.6882C1324.02 81.1668 1323.57 81.3617 1323.1 81.3085C1321 80.9541 1320.15 82.6024 1320.55 86.2712C1320.38 85.9699 1320.22 85.8281 1320.05 85.8281C1318.85 85.7749 1317.68 85.8636 1316.55 86.094C1316.05 86.218 1315.73 86.0585 1315.6 85.6509C1315.23 84.5874 1315.05 83.3113 1315.05 81.8403C1315.05 80.3692 1315.05 78.8804 1315.05 77.4093C1314.02 78.7032 1312.85 79.5007 1311.55 79.802C1310.88 79.9793 1310.22 80.1565 1309.55 80.3337C1308.55 80.635 1308.12 79.9438 1308.25 78.2955C1308.28 77.9942 1308.28 77.7106 1308.25 77.4093C1308.25 75.5838 1307.83 74.1304 1307 73.067C1306.53 72.4112 1306.03 71.9681 1305.5 71.7377C1305.37 71.6845 1305.2 71.7023 1305 71.8263C1304.7 72.0036 1304.37 72.0922 1304 72.0922C1300.67 72.0922 1297.33 72.234 1294 72.5353C1293.7 72.5353 1293.37 72.5885 1293 72.7125C1292.33 72.8898 1291.67 72.9784 1291 72.9784C1289.33 72.9784 1287.67 73.1202 1286 73.4215C1285.83 73.4215 1285.65 73.4569 1285.45 73.5101C1284.82 73.7405 1284.18 73.9532 1283.55 74.1304C1282.48 74.4849 1281.82 73.8114 1281.55 72.0922C1281.28 70.1426 1280.65 69.9299 1279.65 71.4719C1278.85 72.7657 1277.97 73.6342 1277 74.0418C1276.63 74.219 1276.28 74.3431 1275.95 74.3963C1274.95 74.6267 1273.95 74.8039 1272.95 74.928C1271.22 75.1584 1269.72 74.219 1268.45 72.0922C1267.95 71.206 1267.43 70.7275 1266.9 70.6743C1264.3 70.1957 1261.65 70.0894 1258.95 70.3198C1258.62 70.3198 1258.37 70.178 1258.2 69.8767C1257.2 68.1575 1256.43 68.0157 1255.9 69.4336C1255.4 70.7984 1255.07 72.2694 1254.9 73.8646C1254.77 75.2293 1254.78 76.7004 1254.95 78.2955C1254.62 78.2955 1254.3 78.2069 1254 78.0296C1253.3 77.622 1252.63 77.0903 1252 76.4345C1250.87 75.3179 1249.93 73.9177 1249.2 72.2694C1248.83 71.4364 1248.53 70.5325 1248.3 69.5222C1248.2 69.1678 1248.07 68.8487 1247.9 68.5474C1247.9 69.1323 1247.92 69.7349 1247.95 70.3198C1247.98 70.8515 1248.02 71.4187 1248.05 72.0036C1248.15 73.1911 1248.23 74.3963 1248.3 75.6369C1248.37 77.108 1248.23 78.5968 1247.9 80.0679C1247.4 80.0679 1246.93 79.9261 1246.5 79.6248C1245.77 79.0399 1245.03 78.4373 1244.3 77.8524C1243.87 77.5511 1243.4 77.7106 1242.9 78.2955C1243.3 79.6602 1243.58 81.1668 1243.75 82.8151C1243.85 83.6481 1244 84.4102 1244.2 85.1192C1244.5 86.1826 1244.9 87.4587 1245.4 88.9298C1244.9 88.6285 1244.4 88.3094 1243.9 87.9549C1241.8 86.537 1240.07 84.2861 1238.7 81.2199C1238.5 80.7414 1238.23 80.3692 1237.9 80.0679C1237.9 80.3692 1237.9 80.6528 1237.9 80.9541C1237.9 81.2554 1237.9 81.539 1237.9 81.8403C1237.9 82.1416 1238 82.496 1238.2 82.9037C1238.33 83.6658 1238.33 84.4634 1238.2 85.2964C1238.17 85.3496 1237.93 85.3318 1237.5 85.2078C1237.1 84.7292 1236.7 84.3748 1236.3 84.1444C1235.63 83.7367 1235.03 82.9391 1234.5 81.7516C1234.27 81.2199 1234.02 80.7768 1233.75 80.4224C1231.68 77.3561 1229.7 73.8646 1227.8 69.9653C1227.7 69.7349 1227.6 69.4868 1227.5 69.2564C1226.33 66.8282 1224.97 65.7116 1223.4 65.8889C1223.5 67.3068 1223.63 68.7247 1223.8 70.1426C1224.37 74.1659 1225.25 78.0296 1226.45 81.7516C1226.75 82.691 1227.12 83.524 1227.55 84.233C1229.12 86.8915 1229.73 90.2236 1229.4 94.2469C1229.07 94.2469 1228.75 94.1937 1228.45 94.0697C1228.08 93.8924 1227.73 93.662 1227.4 93.3607C1223.63 89.8691 1219.78 85.7395 1215.85 80.9541C1216.18 81.539 1216.47 82.1947 1216.7 82.9037C1217.1 84.1443 1217.47 84.9951 1217.8 85.4736C1218.17 86.0053 1218.4 86.6257 1218.5 87.3346C1218.73 88.6993 1218.93 90.0818 1219.1 91.4997C1219.37 94.1051 1218.95 95.4344 1217.85 95.4875C1215.95 95.6116 1214.13 95.1331 1212.4 94.0697C1211.53 93.5911 1210.7 93.0062 1209.9 92.2973C1206.23 88.8766 1202.87 84.7647 1199.8 79.9793C1197.97 79.9261 1196.13 79.802 1194.3 79.6248C1194.13 79.6248 1193.95 79.5893 1193.75 79.5362C1193.12 79.3058 1192.52 79.3944 1191.95 79.802C1191.28 80.3337 1190.57 80.7237 1189.8 80.9541C1188.43 81.4326 1187.32 80.7414 1186.45 78.9158C1185.88 77.7283 1185 77.7992 1183.8 79.0931C1183.47 79.4475 1183.2 79.8552 1183 80.3337C1181.63 83.2936 1179.9 84.6761 1177.8 84.4988C1177.47 84.4988 1177.18 84.357 1176.95 84.0557C1176.35 83.3468 1175.9 82.3365 1175.6 81.0427C1175.37 79.8552 1174.93 79.3589 1174.3 79.5362C1171.03 80.2451 1167.68 80.4578 1164.25 80.1565C1163.92 80.1033 1163.62 79.9438 1163.35 79.7134C1162.55 78.9513 1161.72 77.817 1160.85 76.3459C1160.28 75.2825 1159.67 74.4495 1159 73.8646C1157.37 72.4467 1156.8 73.3329 1157.3 76.5231C1157.73 79.4121 1157.38 80.9009 1156.25 80.9541C1155.75 80.9541 1155.28 80.8123 1154.85 80.511C1154.02 79.8552 1153.15 79.483 1152.25 79.3589C1151.25 79.2349 1150.3 78.9158 1149.4 78.3841C1147.63 77.3207 1145.75 76.7358 1143.75 76.6118C1142.75 76.5586 1141.77 76.3991 1140.8 76.1686C1140.6 76.1155 1140.42 76.08 1140.25 76.08C1139.22 76.3104 1138.5 77.0194 1138.1 78.2069C1138 78.5614 1137.87 78.7386 1137.7 78.7386C1135.47 78.8627 1134.47 76.6472 1134.7 72.0922C1134.37 72.6771 1134.07 73.3329 1133.8 74.0418C1133.4 75.1052 1132.97 76.1332 1132.5 77.1435C1132.13 77.9056 1131.7 78.5968 1131.2 79.1817C1131.2 78.8804 1131.2 78.5968 1131.2 78.2955C1131.2 77.4093 1131.2 76.5231 1131.2 75.6369C1131.2 74.4495 1131.2 73.2797 1131.2 72.0922C1131.2 71.7909 1131.2 71.5073 1131.2 71.206C1130.13 72.2694 1129.47 74.0418 1129.2 76.5231C1129.03 77.9942 1128.7 79.1817 1128.2 80.0679C1127.87 80.6528 1127.37 80.9541 1126.7 80.9541C1126.23 80.9541 1125.75 81.0781 1125.25 81.3085C1125.05 81.3617 1124.85 81.4503 1124.65 81.5744C1124.35 81.7516 1124.12 81.6985 1123.95 81.3972C1122.78 79.3235 1121.52 79.4475 1120.15 81.7516C1119.05 83.524 1117.73 84.1975 1116.2 83.7899C1114.77 83.3822 1113.72 84.1444 1113.05 86.094C1112.78 86.8029 1112.32 87.1574 1111.65 87.1574C1111.32 86.5725 1110.95 86.218 1110.55 86.094C1110.12 85.9167 1109.73 86.1294 1109.4 86.7143C1108.7 87.9018 1107.77 87.7777 1106.6 86.3598C1106.3 86.0053 1106 85.8813 1105.7 86.0053C1105.17 86.1826 1104.72 86.6611 1104.35 87.4232C1103.88 88.4335 1103.38 89.1602 1102.85 89.6387C1102.05 90.3477 1101.15 90.7908 1100.15 90.968C1098.75 91.1984 1097.55 92.5631 1096.55 95.0445C1096.28 95.7002 1095.97 96.0724 1095.6 96.1965C1094.43 96.4978 1093.45 95.5407 1092.65 93.3607C1092.32 92.4745 1091.97 91.996 1091.6 91.9428C1085.77 91.1098 1079.92 90.6667 1074.05 90.6135C1072.75 90.6135 1071.63 91.3225 1070.7 92.7404C1070.43 93.148 1070.25 93.3252 1070.15 93.2721C1069.25 92.9708 1068.05 92.4213 1066.55 91.5883C1065.55 91.0034 1064.58 90.2945 1063.65 89.4615C1062.92 88.8057 1062.18 88.398 1061.45 88.2208C1059.72 87.8132 1058.03 86.6257 1056.4 84.6761C1055.8 83.9671 1055.15 83.4708 1054.45 83.1695C1053.82 82.8682 1053.2 82.9037 1052.6 83.2582C1051.83 83.7367 1050.8 83.843 1049.5 83.6126C1047.57 83.2582 1045.73 82.0707 1044 80.0679C1042.67 78.5968 1041.28 77.3562 1039.85 76.3459C1039.52 76.1155 1039.18 75.9382 1038.85 75.8142C1038.12 75.4065 1037.33 75.1939 1036.5 75.1939C1036.2 75.1939 1035.95 75.3711 1035.75 75.7256C1035.72 75.7787 1035.68 75.8496 1035.65 75.9028C1034.98 77.1966 1034.25 78.2423 1033.45 79.0045C1032.98 79.4121 1032.53 79.8552 1032.1 80.3337C1031.53 81.0427 1030.95 81.7516 1030.35 82.4606C1029.32 83.7544 1028.28 85.0305 1027.25 86.2712C1025.38 85.0305 1023.45 84.4457 1021.45 84.4988C1020.95 84.4988 1020.53 84.7115 1020.2 85.1192C1019.4 86.1294 1018.48 86.4484 1017.45 86.094C1016.55 85.7927 1016.08 86.1471 1016.05 87.1574C1015.98 88.6285 1016.02 90.0818 1016.15 91.4997C1016.28 93.5025 1016.05 94.7254 1015.45 95.1331C1014.78 94.2469 1014.08 93.4848 1013.35 92.829C1012.75 92.2973 1012.2 91.6769 1011.7 90.968C1009.23 87.4232 1006.47 85.8281 1003.4 86.1826C1003.07 86.2357 1002.8 86.413 1002.6 86.7143C1001.93 87.7245 1001.02 87.955 999.85 87.4232C998.02 86.5371 997.2 87.6359 997.4 90.7021C995.87 90.1173 994.57 88.8766 993.5 86.9802C992.1 84.6229 990.4 83.7367 988.4 84.3216C988.07 84.4457 987.77 84.3748 987.5 84.1444C986.2 83.1341 984.83 82.6733 983.4 82.7264H982.4C982.47 83.7899 982.13 84.3748 981.4 84.4988C978.3 82.5492 975.13 80.9895 971.9 79.802C970.9 79.4475 970.38 79.8375 970.35 80.9541C970.35 81.539 970.28 82.0707 970.15 82.5492C969.88 83.7367 969.12 84.1798 967.85 83.8785C967.18 83.7013 966.63 83.3468 966.2 82.8151C964.9 81.1668 963.45 80.3692 961.85 80.4224C960.38 80.4755 959.88 82.1416 960.35 85.385C959.85 84.8001 959.33 84.3216 958.8 83.9671C958 83.4354 957.18 83.0278 956.35 82.7264C955.52 82.4251 954.72 82.0175 953.95 81.4858C951.85 80.0147 951.02 81.3085 951.45 85.385C951.48 85.7927 951.52 86.1826 951.55 86.5371C946.12 85.3496 940.68 85.0837 935.25 85.7395C934.92 85.7927 934.58 85.8281 934.25 85.8281C933.92 85.8281 933.58 85.704 933.25 85.4736C929.95 83.5772 926.45 82.8682 922.75 83.3468C918.55 83.8785 914.37 84.233 910.2 84.4102C909.53 84.4634 908.88 84.357 908.25 84.0557C907.55 83.7544 906.85 83.4708 906.15 83.1695C901.58 81.344 896.92 80.7414 892.15 81.3972C891.98 81.3972 891.83 81.5744 891.7 81.9289C891.5 82.4606 891.27 82.8505 891 83.0809C890.6 83.4354 890.15 83.6658 889.65 83.7899C888.98 83.9671 888.32 84.0557 887.65 84.0557C886.78 84.0557 886.07 84.7292 885.5 86.094C885.23 86.7497 884.78 87.0688 884.15 87.0688C883.62 87.1219 883.1 87.246 882.6 87.4232C881.93 87.1928 881.27 86.9447 880.6 86.7143C878.97 86.1294 877.35 85.4736 875.75 84.7647C872.65 83.4708 869.43 82.9569 866.1 83.2582C863.93 83.4886 861.77 83.4886 859.6 83.2582C858.9 83.1341 858.57 83.5595 858.6 84.4988C858.67 85.5091 858.33 85.8813 857.6 85.6509C856.93 85.4736 856.3 85.1723 855.7 84.7647C854.97 84.2861 854.25 83.6481 853.55 82.8151C852.48 81.5212 851.32 80.7237 850.05 80.4224C849.25 80.1919 848.43 79.9793 847.6 79.802C844.57 79.0399 841.9 80.2983 839.6 83.6126C839.03 84.3748 838.48 85.0305 837.95 85.5622C835.45 84.2684 833 82.691 830.6 80.8654C829.9 80.3337 829.33 79.5893 828.9 78.65C828.5 77.817 828.15 76.8776 827.85 75.8142C827.85 75.761 827.83 75.7256 827.8 75.7256C827.6 75.0698 827.33 74.7153 827 74.6621C824.2 74.1304 821.38 73.8646 818.55 73.8646C818.22 73.8646 817.97 74.0064 817.8 74.3077C817.63 74.609 817.48 74.9812 817.35 75.4597C817.28 75.6901 817.22 75.9028 817.15 76.08C816.98 76.5586 816.8 77.0194 816.6 77.4979C816.23 78.331 815.85 79.1285 815.45 79.8906C815.02 80.5996 814.53 81.1313 814 81.4858C813.53 81.7162 813.15 82.0529 812.85 82.4606C811.38 84.4634 809.88 86.3953 808.35 88.2208C804.98 85.9699 801.53 85.5623 798 86.9802C797.67 87.1042 797.37 87.0333 797.1 86.8029C796.7 86.4484 796.32 86.0053 795.95 85.4736C794.92 84.0557 793.97 84.0912 793.1 85.5622C792.87 86.0408 792.77 86.5725 792.8 87.1574C792.97 91.5352 791.87 93.6266 789.5 93.4493C788.83 93.3962 788.18 93.2366 787.55 93.0062C786.25 92.5986 784.88 92.2441 783.45 91.9428C782.28 91.7124 781.12 91.4643 779.95 91.2339C778.85 91.0034 778.18 91.4111 777.95 92.4745C778.12 92.7758 778.33 93.3075 778.6 94.0697C778.67 94.1937 778.78 94.5482 778.95 95.1331C778.95 95.4344 778.98 95.718 779.05 96.0193C779.15 96.6041 779.12 97.2068 778.95 97.7916C776.58 96.9055 774.27 95.0799 772 92.2973C771.13 91.2339 770.23 90.4895 769.3 90.0818C767.73 89.3197 766.12 88.8057 764.45 88.5753C763.45 88.4512 762.62 88.8766 761.95 89.8159C762.52 89.9932 762.87 90.5781 763 91.5883C763.2 93.1835 763.02 94.0342 762.45 94.1583C758.35 95.2749 754.15 95.6293 749.85 95.2217C749.35 95.1685 748.97 95.3635 748.7 95.842C748.2 96.7282 747.75 97.384 747.35 97.7916C746.62 96.0193 745.73 94.3709 744.7 92.829C743.97 91.7124 743.2 91.1807 742.4 91.2339C741.17 91.3579 740 90.259 738.9 87.9549C738.2 86.537 737.5 85.1192 736.8 83.7013C735.87 81.7516 734.83 80.2806 733.7 79.2703C732.23 77.9765 730.6 77.4625 728.8 77.7638C728.47 77.817 728.15 78.0651 727.85 78.4727C727.58 78.8272 727.32 79.1817 727.05 79.5362C725.58 81.3085 724.02 82.4606 722.35 82.9923C721.98 83.1164 721.63 83.2936 721.3 83.524C719.2 85.066 717.08 86.6788 714.95 88.398C714.28 87.6359 713.62 86.8384 712.95 86.0053C711.88 84.7115 710.98 83.1341 710.25 81.3085C710.08 80.9009 709.92 80.511 709.75 80.1565C707.98 76.3813 705.7 74.9634 702.9 75.9028C702.5 76.0269 702.15 76.0446 701.85 75.9914C700.38 75.761 698.87 75.6369 697.3 75.6369C696.97 75.6369 696.7 75.7787 696.5 76.08C696 76.9131 695.43 77.3561 694.8 77.4093C694.3 77.4093 693.8 77.4625 693.3 77.5866C692.5 77.817 691.88 77.4093 691.45 76.3459C691.18 75.5838 690.9 74.8394 690.6 74.1304C690.23 73.3683 689.82 73.0138 689.35 73.067C686.38 73.5455 684.72 71.4364 684.35 66.7751C684.32 66.4738 684.3 66.1902 684.3 65.8889C684.13 66.1902 683.97 66.4738 683.8 66.7751C683.67 67.0764 683.53 67.3954 683.4 67.7499C683.17 68.2816 683.05 68.8487 683.05 69.4336C683.05 72.1454 682.63 73.9177 681.8 74.7508C681.63 74.4495 681.53 74.1304 681.5 73.7759C681.37 71.7732 681.23 69.7526 681.1 67.7499C681.07 67.3954 680.97 67.0764 680.8 66.7751C680.63 67.0764 680.53 67.3954 680.5 67.7499C680 71.525 679.07 75.0166 677.7 78.2069C677.43 78.8627 677.13 79.483 676.8 80.0679C676.73 76.7004 676.2 73.4569 675.2 70.3198C674.8 69.026 674.32 67.8385 673.75 66.7751C673.65 66.5978 673.57 66.456 673.5 66.332C673.33 66.0307 673.08 65.8889 672.75 65.8889C672.58 66.1902 672.48 66.4738 672.45 66.7751V66.8637C672.32 67.9803 672.25 69.1323 672.25 70.3198C672.25 71.206 672.25 72.0922 672.25 72.9784C671.92 72.0922 671.57 71.2414 671.2 70.4084C671.07 70.054 670.92 69.7349 670.75 69.4336C669.92 68.2461 669 67.36 668 66.7751C667 63.7089 665.75 60.749 664.25 57.9132C663.48 59.1007 663.18 60.5718 663.35 62.3441C663.55 64.2937 663.35 65.4812 662.75 65.8889C662.42 65.8889 662.15 65.7471 661.95 65.4458C661.48 64.8609 661.22 64.0811 661.15 63.1417C660.92 60.1818 660.12 58.4449 658.75 57.9132C658.75 59.3843 658.75 60.8731 658.75 62.3441C658.75 63.8152 658.75 65.304 658.75 66.7751C658.12 63.8152 657.12 62.1314 655.75 61.7238C655.25 61.5466 654.97 61.5997 654.9 61.901C654.53 63.4962 653.98 64.5241 653.25 65.0027C653.08 64.4178 652.92 63.8152 652.75 63.2303C652.42 62.0428 651.98 61.1566 651.45 60.5718C650.58 59.5615 650 59.5615 649.7 60.5718C649.13 62.4682 648.8 64.5241 648.7 66.7751C648.7 67.6613 648.72 68.5474 648.75 69.4336C648.38 68.6006 648.05 67.7144 647.75 66.7751C647.52 65.9421 647.3 65.0913 647.1 64.2051C646.63 61.9542 645.85 61.6706 644.75 63.3189C644.38 63.8506 644.2 64.4178 644.2 65.0027C644.2 65.6585 644.17 66.2434 644.1 66.7751C643.93 68.1398 643.63 69.3096 643.2 70.3198C643.2 70.0185 643.17 69.5223 643.1 68.8133C643 68.6361 642.87 68.2461 642.7 67.6613C642.4 68.9019 642.17 70.3553 642 72.0036C641.83 74.0064 641.57 75.5129 641.2 76.5231C640.57 76.8244 640.12 76.47 639.85 75.4597C639.58 74.3963 639.3 73.3329 639 72.2694C638.5 70.4439 638.1 68.6006 637.8 66.7751C637.8 66.7219 637.8 66.6333 637.8 66.5092C637.33 63.2658 636.47 60.3945 635.2 57.9132C635.03 58.4981 634.83 59.0652 634.6 59.5969C634.33 60.2527 634.12 60.9262 633.95 61.6352C633.52 63.762 632.93 65.4812 632.2 66.7751C632.07 67.0764 631.9 67.36 631.7 67.6613C631.7 67.36 631.7 67.0764 631.7 66.7751C631.73 65.304 631.82 63.8506 631.95 62.4327C632.18 59.8982 631.77 58.3917 630.7 57.9132C630.7 58.4981 630.62 59.0121 630.45 59.4197C629.95 60.7844 629.67 62.1137 629.6 63.4076C629.53 64.7723 629.32 65.8889 628.95 66.7751C628.65 67.5372 628.23 68.1398 627.7 68.5474C627.37 68.2461 627.17 67.8917 627.1 67.484C627.07 67.2536 627.02 67.0055 626.95 66.7751C626.72 65.2331 626.48 63.762 626.25 62.3441C626.05 61.1566 625.75 60.1818 625.35 59.4197C624.55 58.0018 623.78 58.6576 623.05 61.3693C622.82 62.3087 622.47 63.0885 622 63.6734C621.8 63.9747 621.53 64.1165 621.2 64.1165C621.43 62.2201 621.27 61.0503 620.7 60.5718C620.33 60.2704 620.02 60.1818 619.75 60.3059C619.35 60.4831 619.15 60.8731 619.15 61.4579C619.08 63.762 618.75 65.5344 618.15 66.7751C617.75 67.6081 617.25 68.193 616.65 68.5474C616.52 67.9626 616.4 67.36 616.3 66.7751C616.17 65.9421 616.05 65.0913 615.95 64.2051C615.75 62.6631 615.65 61.1566 615.65 59.6856C615.65 57.3283 615.32 55.8395 614.65 55.2546C614.65 56.1408 614.48 57.027 614.15 57.9132C612.88 60.8731 611.5 63.8152 610 66.7751C609.1 68.5474 608.15 70.3198 607.15 72.0922C607.15 70.9047 607.15 69.7349 607.15 68.5474C607.15 67.9626 607.15 67.36 607.15 66.7751C607.15 65.0027 607.15 63.2303 607.15 61.4579C606.82 61.4579 606.57 61.5997 606.4 61.901C605.9 62.7872 605.43 63.762 605 64.8255C604.73 65.4812 604.5 66.1193 604.3 66.7751C603.77 68.4234 603.38 70.1958 603.15 72.0922C603.15 70.3198 603.15 68.5474 603.15 66.7751C603.15 65.5876 603.15 64.4178 603.15 63.2303C603.15 62.929 603.03 62.7341 602.8 62.61C602.53 63.0176 602.28 63.4607 602.05 63.9393C601.52 64.8786 600.98 65.8357 600.45 66.7751C600.38 66.8282 600.33 66.9169 600.3 67.0409C599.7 68.0512 599.2 69.2032 598.8 70.4971C598 73.1556 597.62 74.2722 597.65 73.8646C597.65 73.5633 597.67 73.2797 597.7 72.9784C597.97 70.9047 598.22 68.8487 598.45 66.7751C598.72 64.4178 598.95 62.0428 599.15 59.6856C598.98 60.2704 598.8 60.8376 598.6 61.3693C598.47 61.7238 598.32 62.0428 598.15 62.3441C597.65 63.2303 597.13 64.0811 596.6 64.9141C596.17 65.623 595.7 66.2434 595.2 66.7751C594.83 67.2536 594.43 67.6612 594 68.0157C592.9 68.9551 591.75 69.4336 590.55 69.4336L590.6 68.5474C590.63 67.9626 590.63 67.36 590.6 66.7751C590.57 64.9495 590.32 63.2303 589.85 61.6352C589.65 60.9262 589.38 60.2704 589.05 59.6856C588.72 61.7592 588.32 63.762 587.85 65.7116C587.75 66.0661 587.67 66.4206 587.6 66.7751C587.33 68.1398 587.15 69.6109 587.05 71.206C586.88 70.9047 586.8 70.6211 586.8 70.3198C586.77 69.1323 586.73 67.9626 586.7 66.7751C586.6 62.6454 586.55 58.4981 586.55 54.3684C586.38 54.9533 586.2 55.5205 586 56.0522C585.87 56.4067 585.73 56.7611 585.6 57.1156C584.5 59.8982 583.48 62.5214 582.55 65.0027C582.55 62.6454 582.6 60.2704 582.7 57.9132C582.87 54.4925 582.65 51.8339 582.05 49.9375C580.65 55.7332 578.65 61.0503 576.05 65.8889C576.05 63.2303 576.13 60.5718 576.3 57.9132C576.47 54.9533 576.22 52.8974 575.55 51.7099C574.95 53.6063 574.33 55.4319 573.7 57.2042C572.67 60.0932 571.45 62.1137 570.05 63.2303C570.05 62.0428 570.05 60.8731 570.05 59.6856C570.05 55.8395 570.05 52.0112 570.05 48.1651C569.95 48.6968 569.82 49.2285 569.65 49.7603C569.58 50.0616 569.5 50.3451 569.4 50.6464C569 51.9403 568.62 53.2518 568.25 54.5457C568.18 54.7761 568.12 55.0419 568.05 55.3432C567.82 56.1763 567.6 56.9915 567.4 57.8246C567 59.3665 566.5 60.7844 565.9 62.0783C565.63 62.5568 565.33 62.929 565 63.2303C564.67 62.3441 564.38 61.4225 564.15 60.4831C563.58 58.179 562.7 56.7257 561.5 56.1408C561.33 57.027 561.18 57.9132 561.05 58.7994C560.78 60.749 559.95 61.5111 558.55 61.1035C558.35 61.0503 558.23 60.8376 558.2 60.4831C557.83 57.5942 556.93 55.9104 555.5 55.4319C555.17 55.3078 554.93 55.3964 554.8 55.6977C554.1 57.2397 553.68 58.8525 553.55 60.5718C553.52 61.1566 553.43 61.6884 553.3 62.1669C552.87 63.5848 552.5 65.0381 552.2 66.5092C552.03 65.6762 551.83 64.8609 551.6 64.0279C551.2 62.61 550.7 61.4048 550.1 60.3945C549.17 58.6753 548.47 56.6725 548 54.3684C548 55.8395 548 57.3283 548 58.7994C548 60.5718 548 62.3441 548 64.1165C548 65.0027 548.02 65.8889 548.05 66.7751C548.12 67.9626 548.2 69.1146 548.3 70.2312C548.43 71.7732 548.67 73.2797 549 74.7508C548.83 74.4495 548.67 74.1659 548.5 73.8646C548.33 73.5633 548.18 73.2442 548.05 72.8898C547.85 72.358 547.5 71.7909 547 71.206C546.83 71.206 546.67 71.206 546.5 71.206C546.33 71.206 546.17 71.206 546 71.206C546 71.5073 546 71.7909 546 72.0922C546 72.3935 546.03 72.9429 546.1 73.7759C546.2 74.1304 546.27 74.4849 546.3 74.8394C546.43 75.6724 546.5 76.5231 546.5 77.4093C546.17 77.4093 545.83 77.4093 545.5 77.4093C545.33 77.4093 545.17 77.4093 545 77.4093C544.83 77.4093 544.67 77.4093 544.5 77.4093C544.33 77.4093 544.17 77.4093 544 77.4093C543.83 77.4093 543.67 77.7106 543.5 78.2955C543.5 79.1817 543.63 79.8552 543.9 80.3337C544.83 82.0529 545.25 84.0912 545.15 86.4484C545.15 86.6788 545.13 86.927 545.1 87.1574C545.07 87.3878 544.98 87.3346 544.85 86.9802C544.78 86.8029 544.72 86.6257 544.65 86.4484C544.42 85.7395 544.12 84.7115 543.75 83.3468C542.92 80.1565 542.13 78.8804 541.4 79.5362C540.67 80.1919 540.12 82.2479 539.75 85.7395C539.72 85.8635 539.7 86.0053 539.7 86.1826C539.7 86.3066 539.68 86.4484 539.65 86.6257C539.28 90.1172 538.72 92.0669 537.95 92.4745C537.95 91.287 537.92 90.1173 537.85 88.9298C537.78 88.1676 537.72 87.4232 537.65 86.7143C537.65 86.3066 537.63 85.8813 537.6 85.4736V85.385C537.5 82.7264 537.45 80.0679 537.45 77.4093C537.45 75.9382 537.45 74.4495 537.45 72.9784C536.95 74.095 536.65 75.2825 536.55 76.5231C536.48 77.4093 536.35 78.2069 536.15 78.9158C535.68 80.5641 535.17 82.1947 534.6 83.7899C534.43 84.2684 534.27 84.7115 534.1 85.1192C534 85.4205 533.88 85.704 533.75 86.0053C533.55 86.4839 533.27 86.5902 532.9 86.3598C532.8 85.8813 532.7 85.4382 532.6 85.0305C532.57 84.8533 532.53 84.6761 532.5 84.4988C532.3 83.6126 532.12 82.7264 531.95 81.8403C531.62 79.7666 531.28 77.7106 530.95 75.6369C530.78 74.4495 530.62 73.2797 530.45 72.0922C530.28 72.6771 530.12 73.5633 529.95 74.7508C529.95 75.0521 529.93 75.3356 529.9 75.6369C529.77 76.2218 529.65 76.8422 529.55 77.4979C529.48 78.0297 529.42 78.8627 529.35 79.9793C529.25 80.3337 529.12 80.9541 528.95 81.8403C528.95 80.6528 528.92 79.483 528.85 78.2955C528.75 76.8244 528.72 75.3356 528.75 73.8646C528.78 71.3832 528.53 69.026 528 66.7751C527.87 66.1193 527.72 65.499 527.55 64.9141C527.25 63.9038 527.05 62.8404 526.95 61.7238C526.95 62.4859 526.95 63.2835 526.95 64.1165C526.95 65.0027 526.95 65.8889 526.95 66.7751C526.95 67.36 526.95 67.9626 526.95 68.5474C526.95 70.0185 526.95 71.5073 526.95 72.9784C526.95 74.4495 526.95 75.9382 526.95 77.4093C526.95 77.9942 526.95 78.5968 526.95 79.1817C526.78 78.8804 526.63 78.5614 526.5 78.2069C526.13 77.3739 525.87 76.47 525.7 75.4597C525.53 74.3963 525.37 73.2974 525.2 72.1808C525.03 70.9401 524.77 69.7349 524.4 68.5474C524.2 67.9626 524 67.36 523.8 66.7751C523.53 65.8889 523.25 65.0027 522.95 64.1165C522.65 64.9495 522.4 65.8357 522.2 66.7751C521.73 68.9551 521.48 71.3301 521.45 73.8646C521.45 75.3356 521.38 76.789 521.25 78.2069C521.22 78.5614 521.15 78.9158 521.05 79.2703C520.62 81.0427 520.28 82.5138 520.05 83.7013C520.02 83.8253 520 83.9139 520 83.9671C519.83 84.9065 519.95 85.7395 520.35 86.4484C520.48 86.7497 520.62 87.0333 520.75 87.3346C521.02 87.8132 521.25 88.3449 521.45 88.9298C520.78 88.6285 520.13 88.2563 519.5 87.7777C519.33 87.6536 519.17 87.5473 519 87.4232C518.97 87.3701 518.93 87.2992 518.9 87.246C518.6 86.8915 518.28 86.5902 517.95 86.3598C516.95 85.704 515.93 85.1723 514.9 84.7647C514.43 84.5874 513.95 84.4988 513.45 84.4988C513.28 84.8001 513.2 85.0837 513.2 85.385C513.23 86.5016 513.07 87.246 512.7 87.6005C512.5 87.8309 512.25 87.9549 511.95 87.9549C511.25 88.0081 510.57 88.079 509.9 88.1322C508.87 88.3094 507.88 88.2208 506.95 87.8663C505.72 87.3878 504.57 86.4839 503.5 85.1192C502.93 84.4102 502.37 83.9671 501.8 83.7899C501.23 83.6126 500.7 83.3468 500.2 82.9923C499.6 82.5847 499.03 82.0707 498.5 81.4858C497.93 80.83 497.35 80.2097 496.75 79.6248C496.18 79.0399 495.7 78.3487 495.3 77.5866C494.23 75.5129 492.77 74.8039 490.9 75.4597C490.57 75.5838 490.37 75.761 490.3 75.9914C490.03 76.9308 489.93 77.9942 490 79.1817C490.07 80.4224 490.05 81.6276 489.95 82.8151C489.82 83.9317 489.58 85.0305 489.25 86.094C489.02 86.8029 488.77 87.4764 488.5 88.1322C488.43 88.3094 488.37 88.4512 488.3 88.5753C487.53 89.9932 486.4 90.4717 484.9 89.9932C484.57 89.8691 484.27 89.6919 484 89.4615C483.7 89.2311 483.42 88.9829 483.15 88.7525C483.02 88.6285 482.88 88.5221 482.75 88.398C481.82 87.565 480.93 86.6611 480.1 85.6509C478.93 84.233 477.7 83.2582 476.4 82.7264C475.1 82.2479 473.75 82.1947 472.35 82.5492C472.22 82.6024 472.08 82.6733 471.95 82.7264C471.78 82.8505 471.62 82.9569 471.45 83.0809C471.05 83.4354 470.53 83.4886 469.9 83.2582C469 82.9569 468.08 82.7796 467.15 82.7264H466.95C466.75 82.7264 466.55 82.7264 466.35 82.7264H466.2C465.43 82.7796 464.65 82.9037 463.85 83.0809C463.52 83.1341 463.35 83.5772 463.35 84.4102C462.02 84.0557 460.68 83.8785 459.35 83.8785C456.95 84.0026 454.62 83.6126 452.35 82.7264C451.65 82.496 450.97 82.1947 450.3 81.8403C447.23 80.2983 444.07 79.3235 440.8 78.9158C439.73 78.7918 438.73 79.0045 437.8 79.5362C435.27 78.774 432.7 78.2069 430.1 77.8524C427.7 77.5511 425.28 77.4093 422.85 77.4093C422.18 77.4093 421.52 77.4093 420.85 77.4093C415.72 77.2853 410.75 76.3813 405.95 74.6621C404.88 74.2545 403.8 73.8114 402.7 73.3329C396.87 70.7984 390.9 69.4336 384.8 69.2564C371.7 68.9019 358.6 68.0689 345.5 66.7751C341.27 66.3674 337.03 65.8889 332.8 65.3572C330.73 65.1268 328.6 64.5241 326.4 63.5848C323.27 62.1669 320.02 61.4579 316.65 61.4579C290.62 61.4579 264.57 62.0251 238.5 63.1417C236.47 63.1949 234.43 63.4075 232.4 63.762C231 63.9924 229.6 64.2583 228.2 64.5596C225 65.1445 221.78 65.7471 218.55 66.332C217.15 66.6333 215.75 67.0409 214.35 67.5726C210.15 69.1678 205.92 70.2844 201.65 70.9401C200.92 71.0642 200.17 71.1706 199.4 71.2946C193.83 71.9504 188.17 71.7909 182.4 70.8515C178.33 70.1957 174.45 70.7984 170.75 72.6239C170.48 72.748 170.2 72.8898 169.9 73.067C167.1 74.6621 164.18 75.5129 161.15 75.6369C160.88 75.6369 160.62 75.6369 160.35 75.6369C153.68 75.6369 147.05 75.6369 140.45 75.6369C136.92 75.6369 133.38 75.6369 129.85 75.6369C120.92 75.6369 112 75.6369 103.1 75.6369C96.13 75.6369 89.17 75.6369 82.2 75.6369C62.17 75.6369 42.12 75.0698 22.05 73.9532C20.72 73.9 19.33 73.7228 17.9 73.4215C13.33 72.5353 8.72005 71.7023 4.05005 70.9401C2.78005 70.7097 1.57002 70.3553 0.400024 69.8767C0.270024 69.8236 0.13 69.7527 0 69.6995V57.9132C0.13 57.9132 0.270024 57.9132 0.400024 57.9132C7.60002 57.9132 14.82 57.9132 22.05 57.9132C48.12 57.9132 74.17 58.2322 100.2 58.888C101.17 58.888 102.13 58.9234 103.1 58.9766C113.13 59.1538 123.12 59.0298 133.05 58.6221C142.38 58.2145 151.68 57.5587 160.95 56.6725C163.85 56.3712 166.75 56.0876 169.65 55.7863C170.59 55.68 171.52 55.5559 172.45 55.4319C162.68 56.2649 146.84 56.6725 124.95 56.6725C97.52 56.6193 80.55 55.9104 74.05 54.5457C67.55 53.1278 79.3 51.7099 109.3 50.292C113.4 50.1147 117.2 49.9375 120.7 49.7603C120.73 49.8134 120.77 49.8489 120.8 49.8489V49.7603C142.97 48.6437 153.43 47.9524 152.2 47.722C149.7 47.1371 147.18 46.6054 144.65 46.1269C143.95 45.9496 143.23 45.8079 142.5 45.6838C142.3 45.6306 142.08 45.5597 141.85 45.5066C140.95 45.3293 140.07 45.1875 139.2 45.0635C140 44.7622 140.82 44.6204 141.65 44.6204C141.72 44.6204 141.77 44.6204 141.8 44.6204C142.13 44.6204 142.42 44.4786 142.65 44.1773C142.88 43.9469 143.1 43.6101 143.3 43.2025C143.33 43.1493 143.37 43.0784 143.4 43.0252C143.93 42.0859 144.4 41.4655 144.8 41.1642C147.1 39.6223 149.6 38.9842 152.3 39.2146C152.63 39.2678 152.93 39.4273 153.2 39.6577C153.6 40.0122 154 40.2426 154.4 40.3667C156.4 40.8452 158.4 41.0756 160.4 41.0756C161.07 41.0756 161.58 40.7743 161.95 40.1894C164.05 36.7687 166.37 34.6951 168.9 33.9861C171.47 33.2772 174.13 32.9759 176.9 33.0999C177.4 33.0999 177.87 32.9759 178.3 32.7455C178.87 32.391 179.18 31.8593 179.25 31.1503C179.38 29.5552 179.38 27.9955 179.25 26.4535C179.12 24.8052 178.83 23.1746 178.4 21.5795C181.6 21.5795 184.78 21.4377 187.95 21.1364C188.28 21.1364 188.47 20.9237 188.5 20.5161C188.6 19.5058 188.87 18.6019 189.3 17.7689C189.97 16.475 190.42 15.4116 190.65 14.5786C191.55 14.6318 192.42 14.809 193.25 15.1103C193.78 15.2876 194.32 15.5889 194.85 15.9965C195.15 16.1737 195.47 16.2624 195.8 16.2624C196.57 16.2624 197.3 16.4928 198 16.9713C198.43 17.7334 198.98 18.2651 199.65 18.5664C199.82 18.7437 199.97 18.9564 200.1 19.1868C200.57 19.8957 201.13 20.4274 201.8 20.7819C203 21.4377 204.17 21.8808 205.3 22.1112C205.83 22.1644 206.3 21.5263 206.7 20.1616C206.77 19.9312 206.97 19.8071 207.3 19.8071C208.6 19.8603 209.9 20.0375 211.2 20.3388C211.23 20.3388 211.25 20.3743 211.25 20.4274C211.42 20.906 211.67 21.2782 212 21.5795C212.1 21.225 212.18 20.906 212.25 20.6047C212.98 20.7819 213.7 21.0123 214.4 21.3136C214.87 21.4909 215.33 21.6681 215.8 21.8453L215.85 21.934C216.45 22.767 216.93 22.8556 217.3 22.1998C218.63 22.3771 219.98 22.5543 221.35 22.7315C222.35 22.8556 223.35 23.1215 224.35 23.5291C226.68 24.4685 229.18 25.1774 231.85 25.6559C234.02 26.0104 236.17 25.975 238.3 25.5673C238.37 25.5673 238.37 25.1242 238.3 24.238C238.2 22.3416 238.72 21.6149 239.85 22.0226C240.55 22.3239 241.25 22.6429 241.95 22.9974C243.22 23.5823 244.28 24.3621 245.15 25.3015C245.32 25.4787 245.57 25.5319 245.9 25.4787C247.57 25.2483 249.23 25.266 250.9 25.5673C253.37 25.9218 255.2 24.1494 256.4 20.2502L256.95 20.4274C258.05 20.7819 258.8 20.3034 259.2 19.0095C259.63 18.6551 260.05 18.2474 260.45 17.7689C260.55 17.6448 260.65 17.5385 260.75 17.4144C261.02 18.1234 261.28 18.8678 261.55 19.6299C261.78 20.3388 262.1 20.8705 262.5 21.225C262.77 21.4554 263.05 21.4909 263.35 21.3136C264.52 20.7819 265.22 19.3995 265.45 17.1485C266.05 19.1513 266.75 20.5161 267.55 21.225C268.32 21.8808 269.02 21.8808 269.65 21.225C270.02 20.8705 270.45 20.6933 270.95 20.6933C272.28 20.6933 273.62 20.8174 274.95 21.0478C275.12 21.1009 275.28 21.1718 275.45 21.225C275.85 21.2782 276.23 21.3491 276.6 21.4023C276.6 21.7567 276.6 22.1112 276.6 22.4657C276.8 22.1112 276.98 21.7567 277.15 21.4023C277.92 21.3491 278.67 21.225 279.4 21.0478C280.1 20.8174 280.77 20.3388 281.4 19.6299C282.2 18.7437 282.95 18.1234 283.65 17.7689C283.65 17.8221 283.65 17.9107 283.65 18.0347C283.65 18.336 283.65 18.6196 283.65 18.9209C283.65 19.2222 283.65 19.5058 283.65 19.8071C283.82 19.2222 284.02 18.4424 284.25 17.503H284.3L284.4 17.4144H284.45C284.85 17.3612 285.25 17.3612 285.65 17.4144C285.65 17.5916 285.65 17.8043 285.65 18.0347C285.62 18.9209 285.62 19.8071 285.65 20.6933C285.65 21.2782 285.65 22.0226 285.65 22.9088C285.82 22.9088 286.02 22.7847 286.25 22.5543C286.18 23.086 286.12 23.6532 286.05 24.238C285.95 25.4255 285.83 26.5953 285.7 27.7828C285.67 28.0841 285.65 28.3677 285.65 28.669C285.98 28.0841 286.3 27.4638 286.6 26.808C287.13 25.6914 287.68 24.628 288.25 23.6177C288.58 23.0328 288.9 22.4302 289.2 21.8453C289.47 22.6075 289.73 23.3873 290 24.1494C290.13 24.5039 290.28 24.8229 290.45 25.1242C290.92 23.8304 291.75 22.8556 292.95 22.1998C293.65 21.7922 294.33 21.2605 295 20.6047C295.2 20.3743 295.4 20.197 295.6 20.073C295.5 20.7642 295.4 21.2605 295.3 21.5795C295.41 21.2782 295.54 20.9769 295.7 20.6933C296.57 20.3388 296.92 20.9237 296.75 22.4657C296.48 24.6457 296.65 26.099 297.25 26.808C297.55 27.1625 297.78 27.2511 297.95 27.0738C298.28 26.6662 298.55 26.0104 298.75 25.1242C299.02 24.0608 299.35 23.1215 299.75 22.2884ZM1085 41.5187C1084.33 41.9264 1083.68 42.3695 1083.05 42.848C1092.52 42.139 1101.95 41.3769 1111.35 40.5439C1108.92 36.9992 1106.05 34.9609 1102.75 34.4292C1100.68 34.0747 1098.43 34.3051 1096 35.1382C1093.87 35.8471 1091.6 37.0523 1089.2 38.7715C1087.83 39.7109 1086.43 40.6325 1085 41.5187ZM1274.95 25.8332C1275.05 25.8332 1275.15 25.8686 1275.25 25.9218C1275.15 25.6205 1275.05 25.3546 1274.95 25.1242C1274.95 25.3015 1274.95 25.5319 1274.95 25.8332Z" fill="#EA934C"/>
<rect y="56.6196" width="1440" height="88.3804" fill="#EA934C"/>
</g>
<defs>
<clipPath id="clip0_883_619">
<rect width="1440" height="145" fill="white"/>
</clipPath>
</defs>
</svg>
