<svg width="33" height="33" viewBox="0 0 33 33" fill="none" xmlns="http://www.w3.org/2000/svg">
<g clip-path="url(#clip0_854_1000)">
<path d="M10.5669 29.2281C22.6394 29.2281 29.2444 19.2238 29.2444 10.5506C29.2444 10.2694 29.2381 9.98188 29.2256 9.70063C30.5105 8.77143 31.6193 7.62049 32.5 6.30188C31.3034 6.83428 30.0329 7.18199 28.7319 7.33313C30.1017 6.51203 31.1274 5.22211 31.6187 3.70251C30.3301 4.46623 28.9208 5.00497 27.4513 5.29563C26.4611 4.24356 25.152 3.54697 23.7262 3.31355C22.3005 3.08013 20.8376 3.32288 19.5637 4.00428C18.2897 4.68567 17.2757 5.76776 16.6785 7.08323C16.0812 8.39871 15.9339 9.8743 16.2594 11.2819C13.65 11.1509 11.0972 10.4731 8.76664 9.29228C6.43604 8.11147 4.37959 6.45406 2.73062 4.42751C1.89253 5.87247 1.63608 7.58234 2.01337 9.2096C2.39067 10.8369 3.37342 12.2594 4.76188 13.1881C3.7195 13.155 2.69997 12.8744 1.7875 12.3694V12.4506C1.78657 13.967 2.3108 15.4369 3.27108 16.6105C4.23136 17.7841 5.56843 18.5889 7.055 18.8881C6.08941 19.1523 5.07598 19.1908 4.09313 19.0006C4.51261 20.3047 5.32876 21.4453 6.42769 22.2633C7.52662 23.0812 8.85349 23.5356 10.2231 23.5631C7.8979 25.3896 5.02557 26.3803 2.06875 26.3756C1.54438 26.3748 1.02053 26.3427 0.5 26.2794C3.50381 28.2065 6.99804 29.23 10.5669 29.2281Z" fill="white"/>
</g>
<defs>
<clipPath id="clip0_854_1000">
<rect width="32" height="32" fill="white" transform="translate(0.5 0.228088)"/>
</clipPath>
</defs>
</svg>
