<?xml version="1.0" encoding="UTF-8"?><svg xmlns="http://www.w3.org/2000/svg" viewBox="0 0 31.58 31.72"><defs><style>.d{fill:#efefef;}</style></defs><g id="a"/><g id="b"><g id="c"><path class="d" d="M27.36,5.06c-.25-.27-.5-.52-.77-.77-3.44,3.1-13.63,12.02-19.52,14.64-2.53,1.12-4.69,1.4-6.43,1.3,1.5,5.17,5.55,9.16,10.77,10.61-.08-1.72,.22-3.81,1.3-6.26,2.62-5.89,11.54-16.07,14.64-19.51Z"/><g><path class="d" d="M1.31,18.27c.46,0,.92-.04,1.39-.11-.12-.75-.2-1.52-.2-2.31C2.5,8.37,8.34,2.5,15.79,2.5c2.7,0,5.22,.82,7.32,2.22,.75-.65,1.39-1.23,1.92-1.7-2.6-1.89-5.79-3.02-9.24-3.02C6.94,0,0,6.96,0,15.86c0,.8,.07,1.58,.18,2.34,.35,.04,.72,.07,1.13,.07Z"/><path class="d" d="M28.61,6.64c-.47,.52-1.05,1.17-1.7,1.92,1.37,2.1,2.17,4.6,2.17,7.29,0,7.37-5.96,13.36-13.29,13.36-.79,0-1.56-.08-2.31-.21-.13,.95-.12,1.8-.02,2.52,.76,.11,1.54,.18,2.33,.18,8.71,0,15.79-7.12,15.79-15.86,0-3.44-1.11-6.62-2.97-9.22Z"/></g></g></g></svg>